<svg width="49" height="43" viewBox="0 0 49 43" fill="none" xmlns="http://www.w3.org/2000/svg">
<path d="M6.73611 33.9978H8.26527M10.4061 33.9978H11.9353M13.7703 33.9978H15.2994M17.1344 33.9978H18.6636M20.6515 33.9978H22.1806" stroke="#C1CEFB" stroke-linecap="round" stroke-linejoin="round"/>
<path d="M0.925293 41.7965H39.4984L40.4456 6.93164H43.8135L45.0765 41.7965H48.0234" stroke="#C1CEFB" stroke-linecap="round" stroke-linejoin="round"/>
<path d="M44.0477 16.1067H42.8243" stroke="#C1CEFB" stroke-linecap="round" stroke-linejoin="round"/>
<path d="M41.1596 30.9237H39.9363" stroke="#C1CEFB" stroke-linecap="round" stroke-linejoin="round"/>
<path d="M3.06613 41.7965V32.022C3.06613 30.9174 3.96156 30.022 5.06613 30.022H23.6307C24.1701 30.022 24.6867 30.2399 25.0632 30.6262L29.6964 35.3814C30.0729 35.7678 30.5894 35.9857 31.1289 35.9857H35.0256M37.1664 35.9857H35.0256M35.0256 35.9857V41.7965" stroke="#C1CEFB" stroke-linecap="round" stroke-linejoin="round"/>
<path d="M40.3324 4.87852C41.7213 5.10374 41.4116 6.09847 41.0831 6.56768H43.8984C44.987 2.55126 43.1633 2.39172 42.1154 2.81401C41.1614 3.36142 39.2345 4.12779 39.1594 2.81401C39.0656 1.17178 38.4164 0.798505 37.3764 0.93717C35.265 1.2187 31.9805 1.73483 30.1037 1.2187C28.2268 0.702568 27.1477 2.62632 29.4468 3.56474C31.7459 4.50316 34.8896 1.78175 36.4849 3.89319C38.0802 6.00463 38.5963 4.597 40.3324 4.87852Z" fill="#2F54EB" fill-opacity="0.1"/>
<path d="M38.4504 5.68861C40.5225 4.94856 41.0817 5.99697 41.1022 6.61367H43.6307C43.5597 3.18177 41.4393 3.27919 40.2597 3.80112C40.1624 3.84422 40.0653 3.88664 39.9622 3.91329C39.0277 4.1548 37.2087 4.17551 36.3227 2.5434C35.151 0.384914 30.727 -0.493257 28.9077 1.63439C27.6861 3.06305 28.7209 3.55932 29.085 3.68191C29.1607 3.70739 29.2386 3.71934 29.3183 3.72444C31.0058 3.83247 34.3837 3.0891 34.9043 4.33185C35.2229 5.09246 36.3782 6.42866 38.4504 5.68861Z" fill="#2F54EB" fill-opacity="0.1"/>
<path d="M39.9313 2.75732C42.0039 2.35694 43.2678 5.20081 43.6407 6.6728H40.5201C41.1325 5.56586 40.5398 5.21063 40.1669 5.17137C37.9294 5.11249 37.3112 5.17137 36.693 4.75922C36.0747 4.34706 36.5752 3.08116 35.7215 2.75732C34.8677 2.43349 34.3084 2.10965 35.957 0.873184C37.6056 -0.363281 37.5762 0.402149 37.6056 0.873184C37.635 1.34422 37.3407 3.2578 39.9313 2.75732Z" fill="#2F54EB" fill-opacity="0.1"/>
<path d="M7.23611 37.9032C7.23611 37.6271 7.45997 37.4032 7.73611 37.4032H12.1586C12.4347 37.4032 12.6586 37.6271 12.6586 37.9032V40.7965C12.6586 41.0727 12.4347 41.2965 12.1586 41.2965H7.73611C7.45997 41.2965 7.23611 41.0727 7.23611 40.7965V37.9032Z" stroke="#C1CEFB" stroke-linecap="round" stroke-linejoin="round"/>
<path d="M16.4111 37.9032C16.4111 37.6271 16.6349 37.4032 16.9111 37.4032H21.3335C21.6097 37.4032 21.8335 37.6271 21.8335 37.9032V40.7965C21.8335 41.0727 21.6097 41.2965 21.3335 41.2965H16.9111C16.6349 41.2965 16.4111 41.0727 16.4111 40.7965V37.9032Z" stroke="#C1CEFB" stroke-linecap="round" stroke-linejoin="round"/>
<path d="M35.0256 35.8328V18.2474M16.3698 18.2474V30.022" stroke="#C1CEFB" stroke-linecap="round" stroke-linejoin="round"/>
<path d="M35.0248 18.7051C35.0248 13.5541 30.849 9.3783 25.6979 9.3783C20.5468 9.3783 16.3711 13.5541 16.3711 18.7051" stroke="#C1CEFB" stroke-linecap="round" stroke-linejoin="round"/>
<path d="M22.7723 9.67844V8.93164C22.7723 7.82707 23.6677 6.93164 24.7723 6.93164H27.2668C28.3714 6.93164 29.2668 7.82707 29.2668 8.93164V10.0708" stroke="#C1CEFB" stroke-linecap="round" stroke-linejoin="round"/>
<path d="M27.5866 15.7781L22.5502 22.2135H25.2433L23.6344 27.0401L28.8457 20.3598H25.9777L27.5866 15.7781Z" fill="#4ED964"/>
</svg>
