<svg xmlns="http://www.w3.org/2000/svg" width="16" height="16" viewBox="0 0 16 16" fill="none">
<path d="M13.0092 2.99043C11.6873 1.66855 9.54824 1.66855 8.22793 2.99043L6.71387 4.50449L7.51074 5.30137L9.0248 3.7873C9.86543 2.94668 11.2842 2.85762 12.2123 3.7873C13.142 4.71699 13.0529 6.13418 12.2123 6.97481L10.6982 8.48887L11.4967 9.28731L13.0107 7.77324C14.3295 6.45137 14.3295 4.3123 13.0092 2.99043ZM6.97637 12.2123C6.13574 13.0529 4.71699 13.142 3.78887 12.2123C2.85918 11.2826 2.94824 9.86543 3.78887 9.02481L5.30293 7.51074L4.50449 6.71231L2.99043 8.22637C1.66855 9.54824 1.66855 11.6873 2.99043 13.0076C4.3123 14.3279 6.45137 14.3295 7.77168 13.0076L9.28574 11.4936L8.48887 10.6967L6.97637 12.2123ZM4.06699 3.27168C4.0435 3.24842 4.01177 3.23537 3.97871 3.23537C3.94565 3.23537 3.91392 3.24842 3.89043 3.27168L3.27168 3.89043C3.24842 3.91392 3.23537 3.94565 3.23537 3.97871C3.23537 4.01177 3.24842 4.0435 3.27168 4.06699L11.9342 12.7295C11.9826 12.7779 12.0623 12.7779 12.1107 12.7295L12.7295 12.1107C12.7779 12.0623 12.7779 11.9826 12.7295 11.9342L4.06699 3.27168Z" fill="black"/>
</svg>