<svg width="71" height="70" viewBox="0 0 71 70" fill="none" xmlns="http://www.w3.org/2000/svg">
<circle cx="35.5" cy="35" r="35" fill="#F1F2F3"/>
<g clip-path="url(#clip0_2497_86409)">
<path fill-rule="evenodd" clip-rule="evenodd" d="M18.9375 19.25H53.0625L54.375 20.5625V35.0079C53.5621 34.398 52.6812 33.8844 51.75 33.4775V21.875H20.25V45.5H33.375C33.375 48.3399 34.2961 51.1031 36 53.375H25.5V50.75H33.375V48.125H18.9375L17.625 46.8125V20.5625L18.9375 19.25Z" fill="#52C41A"/>
<path fill-rule="evenodd" clip-rule="evenodd" d="M40.6674 36.7693C41.8138 35.9947 43.1019 35.4544 44.4578 35.1792C45.8137 34.9041 47.2105 34.8996 48.5682 35.1661C49.9258 35.4325 51.2173 35.9646 52.3686 36.7318C53.5199 37.4991 54.5083 38.4862 55.2768 39.6367C56.0454 40.7871 56.579 42.078 56.847 43.4353C57.115 44.7926 57.1122 46.1895 56.8386 47.5457C56.5651 48.9019 56.0262 50.1907 55.2529 51.3379C54.4797 52.4852 53.4873 53.4683 52.3329 54.2308C50.0172 55.7604 47.1902 56.3109 44.4697 55.7622C41.7493 55.2134 39.3567 53.61 37.8151 51.3023C36.2734 48.9947 35.708 46.1705 36.2425 43.4473C36.777 40.724 38.3679 38.3231 40.6674 36.7693ZM46.2587 49.8681L52.5245 41.5153L50.4245 39.9403L44.9724 47.2089L41.5573 44.4763L39.9167 46.5238L44.3897 50.1043L46.2613 49.8681H46.2587Z" fill="#52C41A"/>
</g>
<defs>
<clipPath id="clip0_2497_86409">
<rect width="42" height="42" fill="white" transform="translate(15 14)"/>
</clipPath>
</defs>
</svg>
