<svg width="71" height="70" viewBox="0 0 71 70" fill="none" xmlns="http://www.w3.org/2000/svg">
<circle cx="35.5" cy="35" r="35" fill="#F1F2F3"/>
<g clip-path="url(#clip0_0_26971)">
<path d="M38.5 38.378V41.513C37.1424 41.033 35.6894 40.8858 34.2631 41.0837C32.8368 41.2816 31.4788 41.8188 30.3031 42.6503C29.1275 43.4818 28.1685 44.5832 27.5067 45.8621C26.845 47.141 26.4997 48.56 26.5 50L23.5 49.9985C23.4995 48.1668 23.9184 46.3594 24.7244 44.7146C25.5305 43.0698 26.7024 41.6314 28.1503 40.5096C29.5982 39.3877 31.2838 38.6122 33.0777 38.2425C34.8717 37.8727 36.7265 37.9186 38.5 38.3765V38.378ZM35.5 36.5C30.5275 36.5 26.5 32.4725 26.5 27.5C26.5 22.5275 30.5275 18.5 35.5 18.5C40.4725 18.5 44.5 22.5275 44.5 27.5C44.5 32.4725 40.4725 36.5 35.5 36.5ZM35.5 33.5C38.815 33.5 41.5 30.815 41.5 27.5C41.5 24.185 38.815 21.5 35.5 21.5C32.185 21.5 29.5 24.185 29.5 27.5C29.5 30.815 32.185 33.5 35.5 33.5ZM44.1895 46.871L49.492 41.5685L51.6145 43.6895L44.1895 51.1145L38.8855 45.8105L41.008 43.6895L44.188 46.871H44.1895Z" fill="#2E53EA"/>
</g>
<defs>
<clipPath id="clip0_0_26971">
<rect width="36" height="36" fill="white" transform="translate(17.5 17)"/>
</clipPath>
</defs>
</svg>
