<svg width="16" height="16" viewBox="0 0 16 16" fill="none" xmlns="http://www.w3.org/2000/svg">
<g clip-path="url(#clip0_2497_80162)">
<path fill-rule="evenodd" clip-rule="evenodd" d="M1.5 2H14.5L15 2.5V8.003C14.6903 7.77065 14.3548 7.57501 14 7.42V3H2V12H7C7 13.0819 7.35089 14.1345 8 15H4V14H7V13H1.5L1 12.5V2.5L1.5 2Z" fill="black"/>
<path fill-rule="evenodd" clip-rule="evenodd" d="M9.77815 8.67393C10.2149 8.37886 10.7056 8.173 11.2221 8.06818C11.7386 7.96336 12.2708 7.96166 12.788 8.06317C13.3051 8.16467 13.7972 8.36739 14.2358 8.65966C14.6744 8.95193 15.0509 9.328 15.3436 9.76625C15.6364 10.2045 15.8397 10.6963 15.9418 11.2134C16.0439 11.7304 16.0428 12.2626 15.9386 12.7792C15.8344 13.2959 15.6291 13.7868 15.3345 14.2239C15.04 14.6609 14.6619 15.0355 14.2222 15.3259C13.34 15.9086 12.263 16.1184 11.2267 15.9093C10.1903 15.7003 9.27885 15.0894 8.69155 14.2103C8.10425 13.3312 7.88886 12.2554 8.09248 11.2179C8.29609 10.1805 8.90214 9.26584 9.77815 8.67393ZM11.9082 13.6639L14.2952 10.4819L13.4952 9.88193L11.4182 12.6509L10.1172 11.6099L9.49215 12.3899L11.1962 13.7539L11.9092 13.6639H11.9082Z" fill="black"/>
</g>
<defs>
<clipPath id="clip0_2497_80162">
<rect width="16" height="16" fill="white"/>
</clipPath>
</defs>
</svg>
