<svg width="71" height="70" viewBox="0 0 71 70" fill="none" xmlns="http://www.w3.org/2000/svg">
<circle cx="35.5" cy="35" r="35" fill="#F1F2F3"/>
<path d="M36 24.5C36.9665 24.5 37.75 25.2835 37.75 26.25V36.75C37.75 37.7165 36.9665 38.5 36 38.5C35.0335 38.5 34.25 37.7165 34.25 36.75V26.25C34.25 25.2835 35.0335 24.5 36 24.5Z" fill="#FF4D4F"/>
<path d="M36 42C35.0335 42 34.25 42.7835 34.25 43.75C34.25 44.7165 35.0335 45.5 36 45.5C36.9665 45.5 37.75 44.7165 37.75 43.75C37.75 42.7835 36.9665 42 36 42Z" fill="#FF4D4F"/>
<path fill-rule="evenodd" clip-rule="evenodd" d="M36 17.5C26.335 17.5 18.5 25.335 18.5 35C18.5 44.6649 26.335 52.5 36 52.5C45.6649 52.5 53.5 44.6649 53.5 35C53.5 25.335 45.6649 17.5 36 17.5ZM22 35C22 42.732 28.268 49 36 49C43.732 49 50 42.732 50 35C50 27.268 43.732 21 36 21C28.268 21 22 27.268 22 35Z" fill="#FF4D4F"/>
</svg>
