<svg width="17" height="21" viewBox="0 0 17 21" fill="none" xmlns="http://www.w3.org/2000/svg">
<path d="M15.893 9.49726C15.438 8.47318 14.7765 7.55401 13.95 6.79726L13.268 6.17148C13.2448 6.15082 13.2169 6.13615 13.1868 6.12877C13.1566 6.1214 13.1251 6.12153 13.0951 6.12917C13.065 6.1368 13.0372 6.15171 13.0143 6.17257C12.9913 6.19343 12.9738 6.21962 12.9633 6.24883L12.6586 7.12304C12.4687 7.67148 12.1195 8.23164 11.625 8.78242C11.5922 8.81758 11.5547 8.82695 11.5289 8.82929C11.5031 8.83164 11.4633 8.82695 11.4281 8.79414C11.3953 8.76601 11.3789 8.72382 11.3812 8.68164C11.468 7.2707 11.0461 5.67929 10.1227 3.94726C9.35859 2.5082 8.29688 1.38554 6.97031 0.602731L6.00234 0.0331998C5.87578 -0.0418002 5.71406 0.0566372 5.72109 0.204293L5.77266 1.32929C5.80781 2.09804 5.71875 2.77773 5.50781 3.34257C5.25 4.03398 4.87969 4.67617 4.40625 5.25273C4.07677 5.65343 3.70334 6.01585 3.29297 6.3332C2.30462 7.09296 1.50097 8.06648 0.942187 9.18086C0.384783 10.3049 0.0944301 11.5426 0.09375 12.7973C0.09375 13.9035 0.311719 14.9746 0.742969 15.9848C1.15937 16.9573 1.76029 17.84 2.5125 18.584C3.27188 19.334 4.15313 19.9246 5.13516 20.3348C6.15234 20.7613 7.23047 20.9769 8.34375 20.9769C9.45703 20.9769 10.5352 20.7613 11.5523 20.3371C12.532 19.9294 13.4228 19.3347 14.175 18.5863C14.9344 17.8363 15.5297 16.9598 15.9445 15.9871C16.3751 14.9797 16.596 13.8952 16.5938 12.7996C16.5938 11.6559 16.3594 10.5449 15.893 9.49726ZM13.0547 17.4496C11.7961 18.6965 10.125 19.3809 8.34375 19.3809C6.5625 19.3809 4.89141 18.6965 3.63281 17.4496C2.37891 16.2051 1.6875 14.5551 1.6875 12.7996C1.6875 11.7801 1.91719 10.8027 2.36953 9.89336C2.81016 9.00508 3.46641 8.21054 4.26328 7.59883C4.7715 7.21022 5.23245 6.76342 5.63672 6.26757C6.22266 5.55273 6.68203 4.75586 7.00078 3.90039C7.13153 3.54751 7.22654 3.1824 7.28437 2.81054C7.84922 3.33086 8.32266 3.95898 8.71875 4.69492C9.50156 6.16211 9.8625 7.46758 9.79219 8.57851C9.77539 8.84016 9.81812 9.10221 9.91717 9.34497C10.0162 9.58772 10.169 9.80487 10.3641 9.98007C10.5331 10.1328 10.7308 10.2503 10.9456 10.326C11.1605 10.4016 11.3882 10.4338 11.6156 10.4207C12.0773 10.3973 12.5016 10.1934 12.8109 9.84883C13.1227 9.49961 13.3922 9.14336 13.6172 8.78008C13.9453 9.19961 14.2195 9.65664 14.4375 10.1488C14.8102 10.9879 15 11.8809 15 12.7996C15 14.5551 14.3086 16.2074 13.0547 17.4496Z" fill="#52C41A"/>
</svg>
