<svg width="14" height="14" viewBox="0 0 14 14" fill="none" xmlns="http://www.w3.org/2000/svg">
<path d="M7.71838 1.62393H6.78088C6.69755 1.62393 6.65588 1.6656 6.65588 1.74893V6.65518H2C1.91667 6.65518 1.875 6.69685 1.875 6.78018V7.71768C1.875 7.80102 1.91667 7.84268 2 7.84268H6.65588V12.7489C6.65588 12.8323 6.69755 12.8739 6.78088 12.8739H7.71838C7.80172 12.8739 7.84338 12.8323 7.84338 12.7489V7.84268H12.5C12.5833 7.84268 12.625 7.80102 12.625 7.71768V6.78018C12.625 6.69685 12.5833 6.65518 12.5 6.65518H7.84338V1.74893C7.84338 1.6656 7.80172 1.62393 7.71838 1.62393Z" fill="white"/>
</svg>
