<svg width="32" height="36" viewBox="0 0 32 36" fill="none" xmlns="http://www.w3.org/2000/svg">
<path d="M23.0731 8.02839C23.0731 7.85161 22.9285 7.70696 22.7517 7.70696H7.3231C7.14632 7.70696 7.00167 7.85161 7.00167 8.02839V9.95696C7.00167 10.1337 7.14632 10.2784 7.3231 10.2784H22.7517C22.9285 10.2784 23.0731 10.1337 23.0731 9.95696V8.02839ZM22.7517 13.4927H7.3231C7.14632 13.4927 7.00167 13.6373 7.00167 13.8141V15.7427C7.00167 15.9195 7.14632 16.0641 7.3231 16.0641H22.7517C22.9285 16.0641 23.0731 15.9195 23.0731 15.7427V13.8141C23.0731 13.6373 22.9285 13.4927 22.7517 13.4927ZM14.716 19.2784H7.3231C7.14632 19.2784 7.00167 19.423 7.00167 19.5998V21.5284C7.00167 21.7052 7.14632 21.8498 7.3231 21.8498H14.716C14.8927 21.8498 15.0374 21.7052 15.0374 21.5284V19.5998C15.0374 19.423 14.8927 19.2784 14.716 19.2784ZM12.7874 31.6534H3.78739V3.36768H26.2874V17.1891C26.2874 17.3659 26.432 17.5105 26.6088 17.5105H28.8588C29.0356 17.5105 29.1802 17.3659 29.1802 17.1891V1.76053C29.1802 1.04937 28.6057 0.474819 27.8945 0.474819H2.18025C1.46908 0.474819 0.894531 1.04937 0.894531 1.76053V33.2605C0.894531 33.9717 1.46908 34.5462 2.18025 34.5462H12.7874C12.9642 34.5462 13.1088 34.4016 13.1088 34.2248V31.9748C13.1088 31.798 12.9642 31.6534 12.7874 31.6534ZM27.1231 28.6641C28.2883 27.6074 29.0195 26.0806 29.0195 24.3811C29.0195 21.1869 26.428 18.5954 23.2338 18.5954C20.0396 18.5954 17.4481 21.1869 17.4481 24.3811C17.4481 26.0806 18.1794 27.6074 19.3445 28.6641C17.0544 29.9699 15.4794 32.3887 15.3588 35.1771C15.3508 35.3579 15.4994 35.5105 15.6802 35.5105H17.6128C17.7816 35.5105 17.9222 35.3779 17.9343 35.2052C18.091 32.4248 20.4093 30.207 23.2338 30.207C26.0584 30.207 28.3767 32.4248 28.5334 35.2052C28.5414 35.3739 28.682 35.5105 28.8548 35.5105H30.7874C30.9722 35.5105 31.1169 35.3579 31.1088 35.1771C30.9923 32.3846 29.4133 29.9699 27.1231 28.6641ZM23.2338 21.1668C25.0097 21.1668 26.4481 22.6052 26.4481 24.3811C26.4481 26.157 25.0097 27.5954 23.2338 27.5954C21.4579 27.5954 20.0195 26.157 20.0195 24.3811C20.0195 22.6052 21.4579 21.1668 23.2338 21.1668Z" fill="black" fill-opacity="0.25"/>
</svg>
