<svg width="71" height="70" viewBox="0 0 71 70" fill="none" xmlns="http://www.w3.org/2000/svg">
<circle cx="35.5" cy="35" r="35" fill="#F1F2F3"/>
<path fill-rule="evenodd" clip-rule="evenodd" d="M38.0833 24.5833C38.0833 23.4327 37.1506 22.5 36 22.5C34.8494 22.5 33.9167 23.4327 33.9167 24.5833V32.9167H25.5833C24.4327 32.9167 23.5 33.8494 23.5 35C23.5 36.1506 24.4327 37.0833 25.5833 37.0833H33.9167V45.4167C33.9167 46.5673 34.8494 47.5 36 47.5C37.1506 47.5 38.0833 46.5673 38.0833 45.4167V37.0833H46.4167C47.5673 37.0833 48.5 36.1506 48.5 35C48.5 33.8494 47.5673 32.9167 46.4167 32.9167H38.0833V24.5833Z" fill="#2E53EA"/>
</svg>
