<svg width="25" height="24" viewBox="0 0 25 24" fill="none" xmlns="http://www.w3.org/2000/svg">
<circle cx="12.1387" cy="12" r="11.625" fill="#F1F2F3" stroke="#ECEDEF" stroke-width="0.75"/>
<path fill-rule="evenodd" clip-rule="evenodd" d="M12.7091 6.75C12.7091 6.33579 12.3733 6 11.9591 6C11.5448 6 11.2091 6.33579 11.2091 6.75V11.3652H6.88965C6.47544 11.3652 6.13965 11.701 6.13965 12.1152C6.13965 12.5294 6.47544 12.8652 6.88965 12.8652H11.2091V17.1827C11.2091 17.5969 11.5448 17.9327 11.9591 17.9327C12.3733 17.9327 12.7091 17.5969 12.7091 17.1827V12.8652H17.3223C17.7366 12.8652 18.0723 12.5294 18.0723 12.1152C18.0723 11.701 17.7366 11.3652 17.3223 11.3652H12.7091V6.75Z" fill="black" fill-opacity="0.85"/>
</svg>
