<svg width="25" height="24" viewBox="0 0 25 24" fill="none" xmlns="http://www.w3.org/2000/svg">
<g opacity="0.45">
<circle cx="12.1387" cy="12" r="11.625" fill="#F1F2F3" stroke="#ECEDEF" stroke-width="0.75"/>
<path fill-rule="evenodd" clip-rule="evenodd" d="M12.709 6.75C12.709 6.33579 12.3732 6 11.959 6C11.5448 6 11.209 6.33579 11.209 6.75V11.3652H6.88957C6.47536 11.3652 6.13957 11.701 6.13957 12.1152C6.13957 12.5294 6.47536 12.8652 6.88957 12.8652H11.209V17.1827C11.209 17.5969 11.5448 17.9327 11.959 17.9327C12.3732 17.9327 12.709 17.5969 12.709 17.1827V12.8652H17.3223C17.7365 12.8652 18.0723 12.5294 18.0723 12.1152C18.0723 11.701 17.7365 11.3652 17.3223 11.3652H12.709V6.75Z" fill="black" fill-opacity="0.85"/>
</g>
</svg>
