<svg width="15" height="15" viewBox="0 0 15 15" fill="none" xmlns="http://www.w3.org/2000/svg">
<path d="M6.64369 0.429688H1.21512C1.05798 0.429688 0.929409 0.558259 0.929409 0.715402V6.14397C0.929409 6.30112 1.05798 6.42969 1.21512 6.42969H6.64369C6.80084 6.42969 6.92941 6.30112 6.92941 6.14397V0.715402C6.92941 0.558259 6.80084 0.429688 6.64369 0.429688ZM5.71512 5.2154H2.14369V1.64397H5.71512V5.2154ZM13.7866 0.429688H8.35798C8.20084 0.429688 8.07227 0.558259 8.07227 0.715402V6.14397C8.07227 6.30112 8.20084 6.42969 8.35798 6.42969H13.7866C13.9437 6.42969 14.0723 6.30112 14.0723 6.14397V0.715402C14.0723 0.558259 13.9437 0.429688 13.7866 0.429688ZM12.858 5.2154H9.28655V1.64397H12.858V5.2154ZM13.7866 7.57255H8.35798C8.20084 7.57255 8.07227 7.70112 8.07227 7.85826V13.2868C8.07227 13.444 8.20084 13.5725 8.35798 13.5725H13.7866C13.9437 13.5725 14.0723 13.444 14.0723 13.2868V7.85826C14.0723 7.70112 13.9437 7.57255 13.7866 7.57255ZM12.858 12.3583H9.28655V8.78683H12.858V12.3583ZM5.92941 10.5725H3.64369V8.28683C3.64369 8.20826 3.57941 8.14398 3.50084 8.14398H2.64369C2.56512 8.14398 2.50084 8.20826 2.50084 8.28683V10.5725H0.215123C0.136551 10.5725 0.0722656 10.6368 0.0722656 10.7154V11.5725C0.0722656 11.6511 0.136551 11.7154 0.215123 11.7154H2.50084V14.0011C2.50084 14.0797 2.56512 14.144 2.64369 14.144H3.50084C3.57941 14.144 3.64369 14.0797 3.64369 14.0011V11.7154H5.92941C6.00798 11.7154 6.07227 11.6511 6.07227 11.5725V10.7154C6.07227 10.6368 6.00798 10.5725 5.92941 10.5725Z" fill="black" fill-opacity="0.45"/>
</svg>
