<svg width="17" height="16" viewBox="0 0 17 16" fill="none" xmlns="http://www.w3.org/2000/svg">
<path d="M11.4689 10.3241C11.901 10.092 12.3956 9.95982 12.9224 9.95982H12.9242C12.9778 9.95982 13.0028 9.89554 12.9635 9.85982C12.4157 9.36818 11.7899 8.97109 11.1117 8.68482C11.1046 8.68125 11.0974 8.67946 11.0903 8.67589C12.1992 7.87054 12.9206 6.56161 12.9206 5.08482C12.9206 2.63839 10.9421 0.65625 8.50099 0.65625C6.05992 0.65625 4.08314 2.63839 4.08314 5.08482C4.08314 6.56161 4.80456 7.87054 5.91528 8.67589C5.90814 8.67946 5.90099 8.68125 5.89385 8.68482C5.09564 9.02232 4.37957 9.50625 3.76349 10.1241C3.15098 10.7355 2.66334 11.4603 2.32778 12.258C1.99762 13.0392 1.81944 13.8762 1.80278 14.7241C1.8023 14.7432 1.80565 14.7621 1.81261 14.7799C1.81958 14.7976 1.83002 14.8138 1.84334 14.8274C1.85665 14.8411 1.87256 14.8519 1.89013 14.8593C1.9077 14.8667 1.92657 14.8705 1.94564 14.8705H3.01528C3.09206 14.8705 3.15635 14.808 3.15814 14.7313C3.19385 13.3527 3.74564 12.0616 4.72242 11.083C5.73135 10.0705 7.07421 9.51339 8.50278 9.51339C9.51528 9.51339 10.4867 9.79375 11.3242 10.3188C11.3457 10.3323 11.3704 10.3399 11.3958 10.3408C11.4212 10.3418 11.4464 10.336 11.4689 10.3241ZM8.50278 8.15625C7.68492 8.15625 6.91528 7.83661 6.33492 7.25625C6.04938 6.97145 5.82301 6.63296 5.66885 6.26028C5.51469 5.88761 5.4358 5.48812 5.43671 5.08482C5.43671 4.26518 5.75635 3.49375 6.33492 2.91339C6.91349 2.33304 7.68314 2.01339 8.50278 2.01339C9.32242 2.01339 10.0903 2.33304 10.6706 2.91339C10.9562 3.1982 11.1826 3.53669 11.3367 3.90936C11.4909 4.28203 11.5698 4.68152 11.5689 5.08482C11.5689 5.90446 11.2492 6.67589 10.6706 7.25625C10.0903 7.83661 9.32064 8.15625 8.50278 8.15625ZM15.0706 12.4063H13.5706V10.9062C13.5706 10.8277 13.5064 10.7634 13.4278 10.7634H12.4278C12.3492 10.7634 12.2849 10.8277 12.2849 10.9062V12.4063H10.7849C10.7064 12.4063 10.6421 12.4705 10.6421 12.5491V13.5491C10.6421 13.6277 10.7064 13.692 10.7849 13.692H12.2849V15.192C12.2849 15.2705 12.3492 15.3348 12.4278 15.3348H13.4278C13.5064 15.3348 13.5706 15.2705 13.5706 15.192V13.692H15.0706C15.1492 13.692 15.2135 13.6277 15.2135 13.5491V12.5491C15.2135 12.4705 15.1492 12.4063 15.0706 12.4063Z" fill="black" fill-opacity="0.45"/>
</svg>
