<svg width="23" height="22" viewBox="0 0 23 22" fill="none" xmlns="http://www.w3.org/2000/svg">
<path d="M6.40839 5.53875H10.4537M6.40839 7.92916H13.7941M6.40839 10.4728H10.4537M6.40839 13.3229H8.60545M16.7116 9.55663V6.13891C16.7116 5.65331 16.5349 5.18429 16.2145 4.81938L14.7899 3.1968C14.4102 2.76428 13.8626 2.51633 13.287 2.51633H5.87677C4.7722 2.51633 3.87677 3.41176 3.87677 4.51633V15.8876C3.87677 16.9921 4.7722 17.8876 5.87677 17.8876H9.65889" stroke="black" stroke-opacity="0.45" stroke-width="1.25" stroke-linecap="round"/>
<path d="M16.634 17.6408C17.5108 16.9279 18.071 15.8405 18.071 14.6223C18.071 12.4748 16.3301 10.7339 14.1826 10.7339C12.0351 10.7339 10.2942 12.4748 10.2942 14.6223C10.2942 16.7698 12.0351 18.5107 14.1826 18.5107C15.1119 18.5107 15.9651 18.1847 16.634 17.6408ZM16.634 17.6408L18.4768 19.4836" stroke="black" stroke-opacity="0.45" stroke-width="1.25" stroke-linecap="round" stroke-linejoin="round"/>
</svg>
