<svg width="19" height="19" viewBox="0 0 19 19" fill="none" xmlns="http://www.w3.org/2000/svg">
<path d="M8.86362 4.53328C8.94337 4.49683 9.07324 4.44898 9.15527 4.43075C9.24868 4.41025 9.374 4.40113 9.49703 4.40569C9.62235 4.41253 9.74083 4.43303 9.82741 4.46721C9.9026 4.49455 10.0165 4.54923 10.078 4.59025C10.1418 4.62898 10.2307 4.70189 10.2785 4.75202C10.3241 4.79986 10.3925 4.89784 10.4312 4.96619C10.4677 5.03454 10.5132 5.16214 10.5337 5.251C10.5633 5.3672 10.5702 5.47201 10.5611 5.63833C10.5542 5.78415 10.5315 5.9163 10.5018 6.00289C10.4768 6.07807 10.413 6.20339 10.3628 6.28086C10.3127 6.3606 10.2239 6.46997 10.1646 6.52693C10.1031 6.58389 9.99829 6.66136 9.92994 6.69781C9.86159 6.73427 9.7226 6.78439 9.62235 6.81174C9.5221 6.8368 9.36944 6.85731 9.28058 6.85731C9.19172 6.85731 9.06413 6.84136 8.99577 6.82085C8.92742 6.80034 8.82033 6.7525 8.75882 6.71376C8.6973 6.67275 8.6016 6.58845 8.54464 6.52693C8.48996 6.46313 8.41477 6.35149 8.38059 6.2763C8.34414 6.20111 8.29857 6.07352 8.28034 5.99149C8.25983 5.90947 8.24389 5.75681 8.24389 5.64973C8.24389 5.54264 8.25984 5.39226 8.27806 5.31251C8.29629 5.23505 8.34869 5.09606 8.39654 5.00492C8.44667 4.90695 8.52641 4.79303 8.6016 4.7224C8.66768 4.65632 8.78616 4.57202 8.86362 4.53328Z" fill="#8C8C8C"/>
<path d="M8.69958 7.67983C8.74287 7.66616 8.84084 7.64565 8.91603 7.63426C8.99122 7.62286 9.06869 7.61375 9.08691 7.61147C9.10514 7.61147 9.18717 7.62059 9.26919 7.63198C9.35121 7.64337 9.48336 7.68666 9.56539 7.7254C9.65425 7.76869 9.77045 7.85071 9.85931 7.93729C9.93678 8.01248 10.0621 8.16286 10.1327 8.26995C10.2034 8.37703 10.2945 8.54108 10.3332 8.6345C10.3742 8.72791 10.4244 8.88741 10.4471 8.98766C10.479 9.1312 10.4882 9.26563 10.4859 9.61423C10.4859 10.0221 10.479 10.0882 10.4107 10.4231C10.3697 10.6236 10.2694 11.0907 10.1897 11.4598C10.1077 11.8289 9.99374 12.3575 9.93905 12.6332C9.85247 13.0547 9.83425 13.1914 9.82285 13.4876C9.81602 13.7063 9.82057 13.9068 9.83652 14.0116C9.85019 14.1051 9.88437 14.2486 9.90943 14.3306C9.93905 14.4218 9.98234 14.5038 10.0234 14.5425C10.0598 14.5767 10.1077 14.604 10.1282 14.604C10.1509 14.604 10.2147 14.5881 10.2717 14.5699C10.3287 14.5494 10.4198 14.5015 10.4768 14.4605C10.5337 14.4195 10.6454 14.2987 10.7251 14.1916C10.8049 14.0868 10.9188 13.8977 10.978 13.7724C11.0373 13.6471 11.1011 13.5058 11.1603 13.3737L11.6388 13.7154L11.5021 13.9843C11.4292 14.1301 11.3038 14.3489 11.2264 14.4673C11.1489 14.5858 11.0282 14.743 10.9575 14.8182C10.8869 14.8911 10.7684 14.9959 10.6932 15.0483C10.618 15.103 10.479 15.1828 10.3856 15.2283C10.2922 15.2716 10.1236 15.3354 10.0097 15.3673C9.89576 15.3992 9.7021 15.438 9.57678 15.4516C9.4059 15.4721 9.29425 15.4721 9.13248 15.4516C9.014 15.438 8.82261 15.3992 8.71097 15.3673C8.59932 15.3331 8.43983 15.2739 8.35781 15.2352C8.27806 15.1942 8.15503 15.1099 8.08439 15.0461C8.00921 14.9754 7.92718 14.8683 7.87478 14.7726C7.82465 14.677 7.7768 14.5402 7.75174 14.4218C7.72212 14.2691 7.71528 14.162 7.72668 13.9091C7.73351 13.7337 7.76541 13.442 7.79731 13.2598C7.82693 13.0775 7.89984 12.7038 7.95908 12.4281C8.01604 12.1524 8.12541 11.6717 8.19832 11.3572C8.27123 11.0451 8.35781 10.6532 8.38971 10.4914C8.42161 10.3297 8.46945 10.0608 8.49452 9.89904C8.51958 9.73727 8.54008 9.50714 8.54008 9.39322C8.54008 9.25879 8.52869 9.15854 8.50819 9.11981C8.49224 9.08335 8.45806 9.04918 8.43528 9.04006C8.41021 9.03323 8.30996 9.0469 8.20971 9.06968C8.10946 9.09474 7.97731 9.14031 7.91351 9.17221C7.85199 9.20411 7.7563 9.26563 7.70389 9.30892C7.64921 9.35221 7.59908 9.38411 7.58997 9.38183C7.57858 9.37727 7.47833 9.28158 7.16162 8.95576L7.36668 8.72336C7.47833 8.59576 7.66744 8.4021 7.78364 8.29501C7.90212 8.18792 8.07072 8.04438 8.15958 7.97603C8.25072 7.90995 8.38971 7.82109 8.47173 7.78008C8.55376 7.73907 8.65629 7.69578 8.69958 7.67983Z" fill="#8C8C8C"/>
<path fill-rule="evenodd" clip-rule="evenodd" d="M9.40027 1.87695C4.94943 1.87695 1.34131 5.48507 1.34131 9.93591C1.34131 14.3868 4.94943 17.9949 9.40027 17.9949C13.8511 17.9949 17.4592 14.3868 17.4592 9.93591C17.4592 5.48507 13.8511 1.87695 9.40027 1.87695ZM0.341309 9.93591C0.341309 4.93279 4.39714 0.876953 9.40027 0.876953C14.4034 0.876953 18.4592 4.93279 18.4592 9.93591C18.4592 14.939 14.4034 18.9949 9.40027 18.9949C4.39714 18.9949 0.341309 14.939 0.341309 9.93591Z" fill="black" fill-opacity="0.25"/>
</svg>
