<svg width="18" height="18" viewBox="0 0 18 18" fill="none" xmlns="http://www.w3.org/2000/svg">
<path d="M7.94925 0.557625C8.11102 0.539397 8.2819 0.521169 8.33203 0.516612C8.38216 0.512056 8.67152 0.507499 8.97455 0.50522C9.34138 0.502942 9.64214 0.512056 9.86315 0.537118C10.05 0.555346 10.3188 0.591801 10.4624 0.616864C10.6059 0.641927 10.8725 0.69661 11.0548 0.742179C11.2371 0.787748 11.5036 0.862937 11.6472 0.910785C11.7907 0.958632 12.0072 1.03382 12.1257 1.08167C12.2441 1.12724 12.4902 1.2366 12.6725 1.32546C12.8548 1.41204 13.094 1.53508 13.2079 1.59888C13.3218 1.66495 13.536 1.7971 13.6864 1.89735C13.8368 1.99761 14.0418 2.14115 14.1421 2.21862C14.2423 2.2938 14.4155 2.43507 14.5294 2.52849C14.6433 2.6219 14.8666 2.83152 15.0284 2.99557C15.1902 3.15734 15.3975 3.37835 15.4841 3.48543C15.5729 3.59252 15.7097 3.76113 15.7848 3.86138C15.8623 3.96163 16.0059 4.16669 16.1061 4.31707C16.2064 4.46745 16.334 4.67251 16.3909 4.77276C16.4479 4.87301 16.5504 5.06668 16.621 5.20567C16.6894 5.34465 16.8033 5.59528 16.8717 5.76389C16.9423 5.93249 17.0357 6.18084 17.079 6.31527C17.1246 6.45198 17.1975 6.69805 17.2408 6.8621C17.2818 7.02843 17.3387 7.27222 17.3638 7.40437C17.3889 7.53652 17.4276 7.7826 17.4504 7.9512C17.4823 8.19499 17.4914 8.40917 17.4914 8.99929C17.4914 9.58485 17.4823 9.80358 17.4504 10.0474C17.4276 10.216 17.3775 10.5076 17.341 10.6967C17.3023 10.8836 17.2271 11.1912 17.1724 11.3803C17.12 11.5671 17.0061 11.8952 16.9218 12.1094C16.8375 12.3235 16.7076 12.6197 16.6324 12.7701C16.5572 12.9205 16.4479 13.1256 16.3909 13.2258C16.334 13.3261 16.2064 13.5311 16.1061 13.6815C16.0059 13.8319 15.8578 14.0415 15.7757 14.1486C15.6937 14.2557 15.6094 14.3628 15.5866 14.3878C15.5638 14.4129 15.4841 14.504 15.4089 14.5929C15.3337 14.6817 15.2038 14.8253 15.1173 14.9164C15.033 15.0053 14.8803 15.1534 14.78 15.2468C14.6798 15.3379 14.5089 15.486 14.4041 15.5749C14.297 15.6615 14.0874 15.8233 13.937 15.9303C13.7866 16.0374 13.5337 16.2038 13.372 16.2994C13.2125 16.3951 12.9664 16.5296 12.8274 16.6002C12.6862 16.6708 12.4879 16.7643 12.3877 16.8075C12.2874 16.8508 12.0824 16.9329 11.932 16.9898C11.7816 17.0445 11.515 17.1311 11.3396 17.1812C11.1641 17.2313 10.8725 17.302 10.6902 17.3384C10.508 17.3749 10.2323 17.4204 10.075 17.4432C9.89277 17.466 9.56011 17.4842 9.15227 17.4911C8.66696 17.5002 8.43228 17.4934 8.17254 17.466C7.9857 17.4455 7.70318 17.4091 7.54596 17.3817C7.38875 17.3566 7.10167 17.2951 6.908 17.245C6.71433 17.1949 6.45231 17.1197 6.32699 17.0787C6.20168 17.0354 5.9875 16.9579 5.84852 16.9032C5.70953 16.8486 5.41333 16.7118 5.18777 16.5979C4.9622 16.4863 4.666 16.3222 4.52702 16.2334C4.38803 16.1468 4.1898 16.0146 4.08272 15.9395C3.97563 15.8643 3.80247 15.7321 3.69538 15.6455C3.58829 15.5612 3.38551 15.3858 3.24425 15.2582C3.1007 15.1306 2.87058 14.8982 2.7316 14.7433C2.59033 14.5883 2.39211 14.3536 2.2873 14.2192C2.18477 14.0871 2.01388 13.8501 1.91135 13.6929C1.80654 13.5357 1.66984 13.317 1.60376 13.203C1.53996 13.0891 1.41693 12.8499 1.33035 12.6676C1.24149 12.4853 1.13212 12.2392 1.08655 12.1208C1.03871 12.0023 0.956681 11.7699 0.904277 11.6081C0.851872 11.4463 0.769848 11.1524 0.724279 10.9588C0.680988 10.7651 0.621749 10.4712 0.598964 10.3094C0.573901 10.1476 0.542003 9.87421 0.526054 9.70561C0.510104 9.51422 0.503269 9.17245 0.512383 8.80562C0.519218 8.45702 0.539724 8.09474 0.56023 7.92842C0.583015 7.7712 0.624027 7.51602 0.653647 7.3588C0.685545 7.20159 0.75162 6.91906 0.804025 6.73223C0.854151 6.54312 0.945289 6.25603 1.00681 6.09426C1.06605 5.93249 1.15263 5.71604 1.19592 5.61579C1.23921 5.51554 1.32807 5.32642 1.39414 5.19427C1.46022 5.06212 1.56958 4.85706 1.64022 4.73858C1.70857 4.6201 1.79971 4.46517 1.84528 4.39682C1.88857 4.32846 1.98654 4.18492 2.06173 4.07783C2.1392 3.97075 2.26679 3.80214 2.34654 3.70189C2.42628 3.60164 2.60856 3.39202 2.74982 3.23481C2.89109 3.07759 3.12805 2.84291 3.27387 2.71076C3.42197 2.57861 3.64981 2.38722 3.78424 2.28241C3.91639 2.17988 4.15335 2.009 4.31056 1.90647C4.46778 1.80166 4.67739 1.66951 4.77764 1.61255C4.8779 1.55559 5.07157 1.45306 5.21055 1.38242C5.34954 1.31407 5.56371 1.21382 5.68903 1.16141C5.81434 1.10901 6.02851 1.02471 6.1675 0.974581C6.30649 0.926734 6.56623 0.844709 6.74851 0.794583C6.93078 0.744458 7.20875 0.678382 7.37052 0.648763C7.53001 0.616864 7.78976 0.575852 7.94925 0.557625Z" fill="#8C8C8C"/>
<path d="M8.46201 3.59945C8.54176 3.56299 8.67163 3.51514 8.75366 3.49692C8.84707 3.47641 8.97239 3.4673 9.09542 3.47185C9.22074 3.47869 9.33922 3.49919 9.4258 3.53337C9.50099 3.56071 9.61491 3.6154 9.67643 3.65641C9.74023 3.69514 9.82908 3.76805 9.87693 3.81818C9.9225 3.86603 9.99085 3.964 10.0296 4.03235C10.066 4.10071 10.1116 4.2283 10.1321 4.31716C10.1617 4.43336 10.1686 4.53817 10.1595 4.7045C10.1526 4.85032 10.1298 4.98247 10.1002 5.06905C10.0752 5.14424 10.0114 5.26955 9.96123 5.34702C9.91111 5.42676 9.82225 5.53613 9.76301 5.59309C9.70149 5.65005 9.59668 5.72752 9.52833 5.76398C9.45998 5.80043 9.32099 5.85056 9.22074 5.8779C9.12049 5.90296 8.96783 5.92347 8.87897 5.92347C8.79011 5.92347 8.66252 5.90752 8.59416 5.88701C8.52581 5.86651 8.41872 5.81866 8.3572 5.77992C8.29569 5.73891 8.19999 5.65461 8.14303 5.59309C8.08835 5.5293 8.01316 5.41765 7.97898 5.34246C7.94253 5.26727 7.89696 5.13968 7.87873 5.05766C7.85822 4.97563 7.84227 4.82298 7.84227 4.71589C7.84227 4.6088 7.85822 4.45842 7.87645 4.37868C7.89468 4.30121 7.94708 4.16222 7.99493 4.07109C8.04506 3.97311 8.1248 3.85919 8.19999 3.78856C8.26607 3.72248 8.38455 3.63818 8.46201 3.59945Z" fill="white"/>
<path d="M8.29796 6.74599C8.34126 6.73232 8.43923 6.71181 8.51442 6.70042C8.58961 6.68903 8.66707 6.67991 8.6853 6.67763C8.70353 6.67763 8.78555 6.68675 8.86758 6.69814C8.9496 6.70953 9.08175 6.75282 9.16378 6.79156C9.25264 6.83485 9.36884 6.91687 9.4577 7.00345C9.53516 7.07864 9.66048 7.22902 9.73111 7.33611C9.80174 7.44319 9.89288 7.60724 9.93161 7.70066C9.97263 7.79408 10.0228 7.95357 10.0455 8.05382C10.0774 8.19736 10.0865 8.33179 10.0843 8.68039C10.0843 9.08824 10.0774 9.15431 10.0091 9.48924C9.96807 9.68975 9.86782 10.1568 9.78807 10.5259C9.70605 10.895 9.59213 11.4237 9.53744 11.6993C9.45086 12.1209 9.43263 12.2576 9.42124 12.5538C9.41441 12.7725 9.41896 12.973 9.43491 13.0778C9.44858 13.1712 9.48276 13.3148 9.50782 13.3968C9.53744 13.4879 9.58073 13.57 9.62175 13.6087C9.6582 13.6429 9.70605 13.6702 9.72655 13.6702C9.74934 13.6702 9.81314 13.6543 9.8701 13.636C9.92706 13.6155 10.0182 13.5677 10.0752 13.5267C10.1321 13.4856 10.2438 13.3649 10.3235 13.2578C10.4033 13.153 10.5172 12.9639 10.5764 12.8386C10.6357 12.7133 10.6995 12.572 10.7587 12.4398L11.2372 12.7816L11.1005 13.0505C11.0276 13.1963 10.9022 13.415 10.8248 13.5335C10.7473 13.652 10.6265 13.8092 10.5559 13.8844C10.4853 13.9573 10.3668 14.0621 10.2916 14.1145C10.2164 14.1692 10.0774 14.2489 9.98402 14.2945C9.8906 14.3378 9.722 14.4016 9.60807 14.4335C9.49415 14.4654 9.30048 14.5041 9.17517 14.5178C9.00429 14.5383 8.89264 14.5383 8.73087 14.5178C8.61239 14.5041 8.421 14.4654 8.30936 14.4335C8.19771 14.3993 8.03822 14.3401 7.9562 14.3013C7.87645 14.2603 7.75341 14.176 7.68278 14.1122C7.60759 14.0416 7.52557 13.9345 7.47317 13.8388C7.42304 13.7431 7.37519 13.6064 7.35013 13.4879C7.32051 13.3353 7.31367 13.2282 7.32507 12.9753C7.3319 12.7998 7.3638 12.5082 7.3957 12.3259C7.42532 12.1436 7.49823 11.77 7.55747 11.4943C7.61443 11.2186 7.72379 10.7378 7.79671 10.4234C7.86962 10.1113 7.9562 9.71937 7.9881 9.5576C8.01999 9.39583 8.06784 9.12697 8.0929 8.9652C8.11797 8.80343 8.13847 8.57331 8.13847 8.45938C8.13847 8.32496 8.12708 8.2247 8.10657 8.18597C8.09063 8.14951 8.05645 8.11534 8.03366 8.10622C8.0086 8.09939 7.90835 8.11306 7.8081 8.13584C7.70785 8.16091 7.5757 8.20648 7.5119 8.23837C7.45038 8.27027 7.35469 8.33179 7.30228 8.37508C7.2476 8.41837 7.19747 8.45027 7.18836 8.44799C7.17697 8.44343 7.07671 8.34774 6.76001 8.02192L6.96507 7.78952C7.07671 7.66193 7.26583 7.46826 7.38203 7.36117C7.50051 7.25408 7.66911 7.11054 7.75797 7.04219C7.84911 6.97611 7.9881 6.88725 8.07012 6.84624C8.15214 6.80523 8.25467 6.76194 8.29796 6.74599Z" fill="white"/>
</svg>
