<svg width="70" height="70" viewBox="0 0 70 70" fill="none" xmlns="http://www.w3.org/2000/svg">
<circle cx="35" cy="35" r="35" fill="#F1F2F3"/>
<path d="M50.8945 27.457L44.543 21.1055C44.25 20.8125 43.8906 20.5977 43.5 20.4805V20.375H21.625C20.9336 20.375 20.375 20.9336 20.375 21.625V50.375C20.375 51.0664 20.9336 51.625 21.625 51.625H50.375C51.0664 51.625 51.625 51.0664 51.625 50.375V29.2227C51.625 28.5586 51.3633 27.9258 50.8945 27.457ZM31 23.1875H41V27.25H31V23.1875ZM48.8125 48.8125H23.1875V23.1875H28.5V28.5C28.5 29.1914 29.0586 29.75 29.75 29.75H42.25C42.9414 29.75 43.5 29.1914 43.5 28.5V24.0391L48.8125 29.3516V48.8125ZM36 33.2656C32.8945 33.2656 30.375 35.7852 30.375 38.8906C30.375 41.9961 32.8945 44.5156 36 44.5156C39.1055 44.5156 41.625 41.9961 41.625 38.8906C41.625 35.7852 39.1055 33.2656 36 33.2656ZM36 42.0156C34.2734 42.0156 32.875 40.6172 32.875 38.8906C32.875 37.1641 34.2734 35.7656 36 35.7656C37.7266 35.7656 39.125 37.1641 39.125 38.8906C39.125 40.6172 37.7266 42.0156 36 42.0156Z" fill="black" fill-opacity="0.45"/>
</svg>
