<svg width="70" height="70" viewBox="0 0 70 70" fill="none" xmlns="http://www.w3.org/2000/svg">
<circle cx="35" cy="35" r="35" fill="#F1F2F3"/>
<path d="M54.442 23.3489V19.5557C54.442 17.3465 52.6512 15.5557 50.442 15.5557H20.1719C17.9627 15.5557 16.1719 17.3465 16.1719 19.5557V23.3489M54.442 23.3489H16.1719M54.442 23.3489V36.875M16.1719 23.3489V50.6609C16.1719 52.8701 17.9627 54.6609 20.1719 54.6609H37.4271" stroke="black" stroke-opacity="0.85" stroke-width="1.5" stroke-linecap="round"/>
<path d="M23.8281 48.6768H39.0742" stroke="black" stroke-opacity="0.85" stroke-width="1.5" stroke-linecap="round"/>
<path d="M19.6484 19.4521H20.7618" stroke="black" stroke-opacity="0.85" stroke-width="1.5" stroke-linecap="round"/>
<path d="M23.9688 19.4521H25.0821" stroke="black" stroke-opacity="0.85" stroke-width="1.5" stroke-linecap="round"/>
<path d="M28.2812 19.4521H29.3946" stroke="black" stroke-opacity="0.85" stroke-width="1.5" stroke-linecap="round"/>
<rect x="19.7891" y="29.2637" width="5.98309" height="5.84491" rx="1" stroke="black" stroke-opacity="0.85" stroke-width="1.5"/>
<rect x="28.7891" y="29.2637" width="5.98309" height="5.84491" rx="1" stroke="black" stroke-opacity="0.85" stroke-width="1.5"/>
<rect x="19.7891" y="38.2617" width="14.981" height="5.84491" rx="1" stroke="black" stroke-opacity="0.85" stroke-width="1.5"/>
<path d="M40.3725 44.1065H38.7891C38.2368 44.1065 37.7891 43.6588 37.7891 43.1065V30.2637C37.7891 29.7114 38.2368 29.2637 38.7891 29.2637H49.4784C50.0307 29.2637 50.4784 29.7114 50.4784 30.2637V37.6977" stroke="black" stroke-opacity="0.85" stroke-width="1.5" stroke-linecap="round"/>
<path d="M54.1364 42.3644C52.6493 40.8772 50.2429 40.8772 48.7575 42.3644L47.0542 44.0677L47.9507 44.9642L49.654 43.2608C50.5997 42.3151 52.1958 42.2149 53.2399 43.2608C54.2858 44.3067 54.1856 45.9011 53.2399 46.8468L51.5366 48.5501L52.4349 49.4483L54.1382 47.745C55.6218 46.2579 55.6218 43.8515 54.1364 42.3644ZM47.3495 52.739C46.4038 53.6847 44.8077 53.7849 43.7636 52.739C42.7177 51.6931 42.8179 50.0987 43.7636 49.153L45.4669 47.4497L44.5687 46.5515L42.8653 48.2548C41.3782 49.7419 41.3782 52.1483 42.8653 53.6337C44.3524 55.119 46.7589 55.1208 48.2442 53.6337L49.9476 51.9304L49.0511 51.0339L47.3495 52.739ZM44.0765 42.6808C44.05 42.6546 44.0143 42.6399 43.9771 42.6399C43.94 42.6399 43.9043 42.6546 43.8778 42.6808L43.1817 43.3769C43.1556 43.4033 43.1409 43.439 43.1409 43.4762C43.1409 43.5134 43.1556 43.5491 43.1817 43.5755L52.927 53.3208C52.9815 53.3753 53.0712 53.3753 53.1257 53.3208L53.8218 52.6247C53.8763 52.5702 53.8763 52.4806 53.8218 52.4261L44.0765 42.6808Z" fill="#FF4D4F"/>
</svg>
