<svg width="17" height="19" viewBox="0 0 20 20" fill="none" xmlns="http://www.w3.org/2000/svg">
<path fill-rule="evenodd" clip-rule="evenodd" d="M5.20478 4.60024V1.46094H14.7886V4.60024H5.20478ZM3.95478 1.21094C3.95478 0.658653 4.4025 0.210938 4.95478 0.210938H15.0386C15.5909 0.210938 16.0386 0.658653 16.0386 1.21094V4.85024C16.0386 5.40252 15.5909 5.85024 15.0386 5.85024H10.3825V7.87109H16.7292C17.0744 7.87109 17.3542 8.15092 17.3542 8.49609V12.2637H18.2308C18.7831 12.2637 19.2308 12.7114 19.2308 13.2637V15.1103C19.2308 15.6626 18.7831 16.1103 18.2308 16.1103H15.2277C14.6754 16.1103 14.2277 15.6626 14.2277 15.1103V13.2637C14.2277 12.7114 14.6754 12.2637 15.2277 12.2637H16.1042V9.12109H10.3825V12.2637H11.0989C11.6512 12.2637 12.0989 12.7114 12.0989 13.2637V15.1103C12.0989 15.6626 11.6512 16.1103 11.0989 16.1103H8.09589C7.54361 16.1103 7.09589 15.6626 7.09589 15.1103V13.2637C7.09589 12.7114 7.54361 12.2637 8.09589 12.2637H9.13251V9.1212L3.41027 9.1212L3.41027 12.2639H4.02062C4.57291 12.2639 5.02062 12.7116 5.02062 13.2639V15.1105C5.02062 15.6628 4.57291 16.1105 4.02063 16.1105H1.01758C0.465293 16.1105 0.0175781 15.6628 0.0175781 15.1105V13.2639C0.0175781 12.7116 0.465292 12.2639 1.01758 12.2639H2.16027L2.16027 8.4962C2.16027 8.15103 2.44009 7.8712 2.78527 7.8712L9.13251 7.8712V5.85024H4.95478C4.4025 5.85024 3.95478 5.40252 3.95478 4.85024V1.21094ZM6.925 2.37891C6.57982 2.37891 6.3 2.65873 6.3 3.00391C6.3 3.34908 6.57982 3.62891 6.925 3.62891H8.09597C8.44114 3.62891 8.72097 3.34908 8.72097 3.00391C8.72097 2.65873 8.44114 2.37891 8.09597 2.37891H6.925ZM8.34589 14.8603V13.5137H10.8489V14.8603H8.34589ZM15.4777 13.5137V14.8603H17.9808V13.5137H15.4777ZM3.77062 14.8605V13.5139H1.26758V14.8605H3.77062Z" fill="black" fill-opacity="0.45"/>
</svg>
