<svg width="14" height="13" viewBox="0 0 14 13" fill="none" xmlns="http://www.w3.org/2000/svg">
<path d="M13.6564 5.82116H3.04305L9.39549 0.392586C9.49707 0.305086 9.4354 0.142586 9.30116 0.142586H7.69582C7.62508 0.142586 7.55796 0.167586 7.50536 0.212229L0.650451 6.06759C0.587668 6.12116 0.537316 6.18739 0.502808 6.2618C0.468299 6.3362 0.450439 6.41704 0.450439 6.49884C0.450439 6.58063 0.468299 6.66147 0.502808 6.73587C0.537316 6.81028 0.587668 6.87651 0.650451 6.93009L7.54526 12.8212C7.57247 12.8444 7.60512 12.8569 7.63959 12.8569H9.29935C9.43358 12.8569 9.49526 12.6926 9.39367 12.6069L3.04305 7.1783H13.6564C13.7363 7.1783 13.8016 7.11401 13.8016 7.03544V5.96401C13.8016 5.88544 13.7363 5.82116 13.6564 5.82116Z" fill="black" fill-opacity="0.85"/>
</svg>
