<svg width="71" height="70" viewBox="0 0 71 70" fill="none" xmlns="http://www.w3.org/2000/svg">
<circle cx="35.5" cy="35" r="35" fill="#F1F2F3"/>
<g clip-path="url(#clip0_2497_48808)">
<path fill-rule="evenodd" clip-rule="evenodd" d="M18.9375 19.25H53.0625L54.375 20.5625V35.0079C53.5621 34.398 52.6812 33.8844 51.75 33.4775V21.875H20.25V45.5H33.375C33.375 48.3399 34.2961 51.1031 36 53.375H25.5V50.75H33.375V48.125H18.9375L17.625 46.8125V20.5625L18.9375 19.25Z" fill="#52C41A"/>
<path fill-rule="evenodd" clip-rule="evenodd" d="M40.6664 36.7692C41.8128 35.9946 43.1009 35.4542 44.4568 35.1791C45.8127 34.904 47.2096 34.8995 48.5672 35.1659C49.9248 35.4324 51.2164 35.9645 52.3677 36.7317C53.519 37.4989 54.5073 38.4861 55.2758 39.6365C56.0444 40.7869 56.578 42.0779 56.846 43.4352C57.1141 44.7925 57.1112 46.1894 56.8376 47.5456C56.5641 48.9018 56.0252 50.1905 55.2519 51.3378C54.4787 52.4851 53.4864 53.4682 52.3319 54.2307C50.0162 55.7602 47.1892 56.3108 44.4687 55.762C41.7483 55.2133 39.3558 53.6098 37.8141 51.3022C36.2724 48.9946 35.707 46.1704 36.2415 43.4471C36.776 40.7239 38.3669 38.3229 40.6664 36.7692ZM46.2577 49.8679L52.5236 41.5152L50.4236 39.9402L44.9714 47.2088L41.5563 44.4762L39.9157 46.5237L44.3887 50.1042L46.2603 49.8679H46.2577Z" fill="#52C41A"/>
</g>
<defs>
<clipPath id="clip0_2497_48808">
<rect width="42" height="42" fill="white" transform="translate(15 14)"/>
</clipPath>
</defs>
</svg>
