<svg width="71" height="70" viewBox="0 0 71 70" fill="none" xmlns="http://www.w3.org/2000/svg">
<circle cx="35.5" cy="35" r="35" fill="#F1F2F3"/>
<path d="M49.1497 21.85C45.6798 18.3801 40.0647 18.3801 36.5989 21.85L32.6245 25.8244L34.7163 27.9162L38.6907 23.9418C40.8974 21.7352 44.6216 21.5014 47.0579 23.9418C49.4983 26.3822 49.2645 30.1023 47.0579 32.309L43.0835 36.2834L45.1794 38.3793L49.1538 34.4049C52.6155 30.935 52.6155 25.3199 49.1497 21.85ZM33.3136 46.0574C31.1069 48.2641 27.3827 48.4979 24.9464 46.0574C22.506 43.617 22.7397 39.8969 24.9464 37.6902L28.9208 33.7158L26.8249 31.6199L22.8505 35.5943C19.3806 39.0643 19.3806 44.6793 22.8505 48.1451C26.3204 51.6109 31.9354 51.615 35.4013 48.1451L39.3757 44.1707L37.2839 42.0789L33.3136 46.0574ZM25.6765 22.5883C25.6148 22.5272 25.5315 22.493 25.4447 22.493C25.3579 22.493 25.2747 22.5272 25.213 22.5883L23.5888 24.2125C23.5277 24.2742 23.4934 24.3575 23.4934 24.4442C23.4934 24.531 23.5277 24.6143 23.5888 24.676L46.3278 47.415C46.455 47.5422 46.6642 47.5422 46.7913 47.415L48.4155 45.7908C48.5427 45.6637 48.5427 45.4545 48.4155 45.3273L25.6765 22.5883Z" fill="#FF4D4F"/>
</svg>
