<svg width="22" height="22" viewBox="0 0 22 22" fill="none" xmlns="http://www.w3.org/2000/svg">
<path d="M18.7034 18.0232H8.43315V11.8627H18.7034C19.0799 11.8627 19.3851 12.1679 19.3851 12.5444V17.3414C19.3851 17.7179 19.0799 18.0232 18.7034 18.0232Z" stroke="#8C8C8C" stroke-width="1.1" stroke-miterlimit="10" stroke-linecap="round" stroke-linejoin="round"/>
<path d="M7.75144 7.75574H3.29664C2.92013 7.75574 2.61493 8.06094 2.61493 8.43745V18.7105C2.61493 19.087 2.92013 19.3922 3.29664 19.3922H7.75144C8.12795 19.3922 8.43315 19.087 8.43315 18.7105V8.43745C8.43315 8.06094 8.12795 7.75574 7.75144 7.75574Z" stroke="#8C8C8C" stroke-width="1.1" stroke-miterlimit="10" stroke-linecap="round" stroke-linejoin="round"/>
<path d="M11.8935 18.0684H10.1823V19.4373H11.8935V18.0684Z" stroke="#8C8C8C" stroke-width="1.1" stroke-miterlimit="10" stroke-linecap="round" stroke-linejoin="round"/>
<path d="M18.3962 18.0684H16.6849V19.4373H18.3962V18.0684Z" stroke="#8C8C8C" stroke-width="1.1" stroke-miterlimit="10" stroke-linecap="round" stroke-linejoin="round"/>
<path d="M11.7351 16.4958C12.5927 16.4958 13.288 15.8006 13.288 14.943C13.288 14.0854 12.5927 13.3901 11.7351 13.3901C10.8775 13.3901 10.1823 14.0854 10.1823 14.943C10.1823 15.8006 10.8775 16.4958 11.7351 16.4958Z" stroke="#8C8C8C" stroke-width="1.14815" stroke-miterlimit="10" stroke-linecap="round" stroke-linejoin="round"/>
<path d="M16.2186 16.4958C17.0762 16.4958 17.7714 15.8006 17.7714 14.943C17.7714 14.0854 17.0762 13.3901 16.2186 13.3901C15.361 13.3901 14.6657 14.0854 14.6657 14.943C14.6657 15.8006 15.361 16.4958 16.2186 16.4958Z" stroke="#8C8C8C" stroke-width="1.14815" stroke-miterlimit="10" stroke-linecap="round" stroke-linejoin="round"/>
<path d="M6.38247 6.04443H4.66565C4.28914 6.04443 3.98393 6.34964 3.98393 6.72615V7.75567H7.06415V6.72615C7.06419 6.34967 6.75895 6.04443 6.38247 6.04443Z" stroke="#8C8C8C" stroke-width="1.1" stroke-miterlimit="10" stroke-linecap="round" stroke-linejoin="round"/>
<path d="M15.2781 10.4938H12.5401V11.8628H15.2781V10.4938Z" stroke="#8C8C8C" stroke-width="1.1" stroke-miterlimit="10" stroke-linecap="round" stroke-linejoin="round"/>
<path d="M13.8735 10.2494V3.30658C13.8735 2.92853 13.6096 2.62207 13.2841 2.62207H6.0639C5.73838 2.62207 5.47449 2.92853 5.47449 3.30658V5.7936" stroke="#8C8C8C" stroke-width="1.25" stroke-miterlimit="10" stroke-linecap="round" stroke-linejoin="round"/>
<path d="M8.43315 10.1516H2.61493V16.9966H8.43315V10.1516Z" stroke="#8C8C8C" stroke-width="1.1" stroke-miterlimit="10" stroke-linecap="round" stroke-linejoin="round"/>
<path d="M4.66844 14.0873C4.66844 13.6148 5.52406 12.205 5.52406 12.205C5.52406 12.205 6.37968 13.6148 6.37968 14.0873C6.37968 14.5598 5.99659 14.9429 5.52406 14.9429C5.0515 14.9429 4.66844 14.5599 4.66844 14.0873Z" stroke="#8C8C8C" stroke-width="1.1" stroke-miterlimit="10" stroke-linecap="round" stroke-linejoin="round"/>
</svg>
