<svg xmlns="http://www.w3.org/2000/svg" width="176" height="36" viewBox="0 0 176 36" fill="none">
  <path d="M64.0655 11.702L64.1057 11.6618C64.8854 10.6973 65.3838 9.53978 65.5606 8.32605C65.5767 8.21352 65.5927 8.09296 65.6008 7.97239C65.6088 7.85182 65.6249 7.73929 65.6249 7.61872C65.6249 7.49815 65.6329 7.38562 65.6329 7.26505C65.6329 7.14448 65.6329 7.03195 65.6249 6.92746V6.8953C65.6249 6.77473 65.6088 6.6622 65.6008 6.54967C65.5847 6.4291 65.5767 6.31656 65.5606 6.20403C65.0542 2.82005 62.2489 0.336332 58.8891 0.296143C58.8569 0.296143 58.8328 0.296143 58.8007 0.296143H34.7993V4.47588H58.8007C60.3038 4.47588 61.5336 5.7298 61.5336 7.26505C61.5336 8.8003 60.3038 10.0542 58.8007 10.0542H34.7993V14.234V23.984H38.8987V14.234H54.2914L63.5431 24.1769H69.1937L59.9581 14.1295C61.5577 13.8562 63.0206 12.9961 64.0655 11.71V11.702Z" fill="#1957F3"/>
  <path d="M165.191 0.288086H155.184C149.445 0.288086 144.775 5.0546 144.775 10.9062V13.3578C144.775 19.2094 149.445 23.9759 155.184 23.9759H165.191C170.93 23.9759 175.6 19.2094 175.6 13.3578V10.9062C175.6 5.0546 170.93 0.288086 165.191 0.288086ZM171.501 10.9062V13.3578C171.501 16.9106 168.671 19.7962 165.191 19.7962H155.184C151.703 19.7962 148.874 16.9106 148.874 13.3578V10.9062C148.874 7.35345 151.703 4.46783 155.184 4.46783H165.191C168.671 4.46783 171.501 7.35345 171.501 10.9062Z" fill="#1957F3"/>
  <path d="M31.4071 7.257C31.4071 3.41486 28.3446 0.288086 24.5748 0.288086H3.7887H0.581543V14.2098H4.6809V4.46783H24.5829C26.086 4.46783 27.3158 5.72176 27.3158 7.257C27.3158 8.79225 26.086 10.0462 24.5829 10.0462H10.1628V14.2259H24.5829C26.086 14.2259 27.3158 15.4798 27.3158 17.0151C27.3158 18.5503 26.086 19.8043 24.5829 19.8043H10.1628V23.984H24.5829C28.3527 23.984 31.4152 20.8572 31.4152 17.0151C31.4152 15.3834 30.8846 13.8562 29.8799 12.6103L29.5021 12.136L29.8799 11.6618C30.8846 10.4159 31.4152 8.89675 31.4152 7.257H31.4071Z" fill="#1957F3"/>
  <path d="M139.124 12.128L139.502 11.6537C140.506 10.4078 141.037 8.88868 141.037 7.24893C141.037 3.40679 137.975 0.280029 134.205 0.280029H110.211V14.242H114.311V14.2098H134.213C135.716 14.2098 136.946 15.4637 136.946 16.999C136.946 18.5342 135.716 19.7882 134.213 19.7882H116.722V23.9679H134.213C137.983 23.9679 141.045 20.8411 141.045 16.999C141.045 15.3673 140.515 13.8401 139.51 12.5942L139.132 12.1199L139.124 12.128ZM134.205 10.0381H114.303V4.46781H134.205C135.708 4.46781 136.938 5.72173 136.938 7.25698C136.938 8.79223 135.708 10.0461 134.205 10.0461V10.0381Z" fill="#1957F3"/>
  <path d="M103.323 14.258L102.656 13.2613H84.7873L89.7628 5.76188L89.8271 5.69758C90.2772 5.12688 90.6711 4.99024 91.1453 4.95809C91.6196 4.9822 92.0054 5.11885 92.4636 5.69758L95.6225 10.44H100.791L95.534 2.51454L95.4858 2.45024C94.5454 1.42138 93.5567 0.82657 92.3832 0.577393C92.0215 0.497014 91.6356 0.448796 91.1694 0.424683H91.1453H91.1212C90.655 0.448796 90.2692 0.497018 89.9075 0.56936C88.7339 0.818537 87.7453 1.41335 86.8048 2.44221L72.4731 24.0322H77.6416L81.966 17.5134H100.333L104.657 24.0322H109.826L103.331 14.25L103.323 14.258Z" fill="#1957F3"/>
  <path d="M4.51223 19.965H0.742432V23.8071H4.51223V19.965Z" fill="white"/>
  <path d="M4.72124 24.0241H0.533447V19.7479H4.72124V24.0241ZM0.951437 23.5901H4.29523V20.182H0.951437V23.5901Z" fill="#FF5C00"/>
  <path d="M0.742432 23.8071L4.50419 19.965V23.8071H0.742432Z" fill="#FF5C00"/>
  <path d="M1.31309 30.3259V35.3255H0.573608V30.3259H1.31309Z" fill="#808184"/>
  <path d="M10.3961 30.3259V35.3255H9.71282L7.22105 31.6602H7.17283V35.3255H6.43335V30.3259H7.11656L9.60833 33.9993H9.65655V30.3259H10.388H10.3961Z" fill="#808184"/>
  <path d="M15.2751 30.969V30.3179H19.069V30.969H17.5418V35.3175H16.8024V30.969H15.2751Z" fill="#808184"/>
  <path d="M23.9559 35.3255V30.3259H27.0345V30.977H24.7035V32.5042H26.8817V33.1553H24.7035V34.6825H27.0666V35.3336H23.964L23.9559 35.3255Z" fill="#808184"/>
  <path d="M32.0663 35.3255V30.3259H32.8058V34.6745H35.0242V35.3255H32.0582H32.0663Z" fill="#808184"/>
  <path d="M39.9194 35.3255V30.3259H40.6589V34.6745H42.8774V35.3255H39.9114H39.9194Z" fill="#808184"/>
  <path d="M48.5119 30.3259V35.3255H47.7725V30.3259H48.5119Z" fill="#808184"/>
  <path d="M56.9519 31.9014C56.9036 31.7567 56.8474 31.6201 56.767 31.4995C56.6866 31.379 56.5982 31.2825 56.4937 31.1941C56.3892 31.1137 56.2687 31.0494 56.132 31.0012C55.9954 30.953 55.8426 30.9369 55.6819 30.9369C55.4086 30.9369 55.1594 31.0092 54.9344 31.1539C54.7093 31.2986 54.5405 31.5076 54.4119 31.7889C54.2833 32.0702 54.219 32.4078 54.219 32.8097C54.219 33.2116 54.2833 33.5573 54.4119 33.8386C54.5405 34.1199 54.7173 34.3289 54.9424 34.4736C55.1674 34.6183 55.4247 34.6906 55.714 34.6906C55.9793 34.6906 56.2124 34.6343 56.4133 34.5218C56.6143 34.4093 56.767 34.2566 56.8715 34.0556C56.984 33.8547 57.0323 33.6135 57.0323 33.3402L57.2252 33.3804H55.8185V32.7615H57.7476V33.3322C57.7476 33.7502 57.6592 34.1199 57.4824 34.4254C57.3055 34.7308 57.0644 34.9719 56.759 35.1407C56.4535 35.3095 56.0999 35.3899 55.706 35.3899C55.2639 35.3899 54.87 35.2854 54.5405 35.0764C54.2029 34.8674 53.9457 34.57 53.7608 34.1923C53.5759 33.8145 53.4795 33.3563 53.4795 32.8258C53.4795 32.4239 53.5357 32.0702 53.6402 31.7487C53.7528 31.4352 53.9055 31.1619 54.0984 30.9369C54.2994 30.7118 54.5244 30.543 54.7977 30.4305C55.063 30.3099 55.3604 30.2537 55.6738 30.2537C55.9391 30.2537 56.1883 30.2938 56.4133 30.3742C56.6384 30.4546 56.8474 30.5671 57.0242 30.7118C57.201 30.8565 57.3538 31.0333 57.4744 31.2343C57.5949 31.4352 57.6753 31.6603 57.7155 31.9014H56.9599H56.9519Z" fill="#808184"/>
  <path d="M62.7312 35.3255V30.3259H65.8098V30.977H63.4787V32.5042H65.657V33.1553H63.4787V34.6825H65.8419V35.3336H62.7392L62.7312 35.3255Z" fill="#808184"/>
  <path d="M74.7962 30.3259V35.3255H74.113L71.6212 31.6602H71.573V35.3255H70.8335V30.3259H71.5167L74.0085 33.9993H74.0567V30.3259H74.7882H74.7962Z" fill="#808184"/>
  <path d="M83.9997 31.9496H83.2521C83.22 31.7888 83.1718 31.6441 83.0914 31.5236C83.011 31.403 82.9145 31.2985 82.802 31.2101C82.6895 31.1217 82.5609 31.0574 82.4242 31.0172C82.2876 30.977 82.1349 30.9529 81.9821 30.9529C81.7008 30.9529 81.4436 31.0252 81.2266 31.1699C81.0015 31.3146 80.8247 31.5236 80.6961 31.8049C80.5675 32.0862 80.5032 32.4238 80.5032 32.8338C80.5032 33.2437 80.5675 33.5813 80.6961 33.8626C80.8247 34.1439 81.0015 34.3529 81.2266 34.4976C81.4516 34.6423 81.7008 34.7146 81.9821 34.7146C82.1349 34.7146 82.2876 34.6905 82.4242 34.6503C82.5609 34.6101 82.6895 34.5459 82.802 34.4574C82.9145 34.369 83.011 34.2726 83.0914 34.144C83.1718 34.0234 83.228 33.8787 83.2521 33.7179H83.9997C83.9595 33.9671 83.8791 34.1922 83.7666 34.4012C83.654 34.6101 83.5093 34.787 83.3245 34.9317C83.1476 35.0844 82.9467 35.1969 82.7136 35.2773C82.4885 35.3577 82.2393 35.3979 81.9661 35.3979C81.54 35.3979 81.1623 35.2934 80.8327 35.0924C80.5032 34.8834 80.2379 34.5941 80.045 34.2083C79.8521 33.8224 79.7556 33.3643 79.7556 32.8338C79.7556 32.3033 79.8521 31.8451 80.045 31.4593C80.2379 31.0735 80.4951 30.7841 80.8327 30.5751C81.1623 30.3661 81.54 30.2697 81.9661 30.2697C82.2233 30.2697 82.4724 30.3098 82.6975 30.3822C82.9226 30.4545 83.1235 30.5671 83.3084 30.7117C83.4852 30.8564 83.638 31.0333 83.7585 31.2423C83.8791 31.4512 83.9595 31.6924 83.9997 31.9576V31.9496Z" fill="#808184"/>
  <path d="M88.9268 35.3255V30.3259H92.0053V30.977H89.6743V32.5042H91.8526V33.1553H89.6743V34.6825H92.0375V35.3336H88.9348L88.9268 35.3255Z" fill="#808184"/>
  <path d="M105.791 30.3259H106.827V33.5733C106.827 33.935 106.739 34.2565 106.57 34.5298C106.401 34.8031 106.16 35.0201 105.855 35.1648C105.549 35.3095 105.196 35.3898 104.786 35.3898C104.376 35.3898 104.022 35.3175 103.717 35.1648C103.411 35.012 103.178 34.8031 103.009 34.5298C102.841 34.2565 102.752 33.935 102.752 33.5733V30.3259H103.789V33.4848C103.789 33.6777 103.829 33.8466 103.91 33.9912C103.99 34.1359 104.111 34.2565 104.255 34.3369C104.408 34.4253 104.577 34.4655 104.778 34.4655C104.979 34.4655 105.156 34.4253 105.3 34.3369C105.445 34.2484 105.565 34.1359 105.646 33.9912C105.726 33.8466 105.766 33.6777 105.766 33.4848V30.3259H105.791Z" fill="#808184"/>
  <path d="M115.83 30.3259V35.3255H114.938L112.808 32.1747H112.775V35.3255H111.739V30.3259H112.647L114.761 33.4688H114.801V30.3259H115.83Z" fill="#808184"/>
  <path d="M120.725 35.3255V30.3259H121.762V34.4574H123.868V35.3255H120.725Z" fill="#808184"/>
  <path d="M128.602 35.3255V30.3259H131.906V31.194H129.639V32.3836H131.737V33.2517H129.639V34.4494H131.914V35.3175H128.602V35.3255Z" fill="#808184"/>
  <path d="M137.621 35.3255H136.511L138.207 30.3259H139.542L141.23 35.3255H140.121L138.891 31.4673H138.851L137.621 35.3255ZM137.548 33.3562H140.177V34.1841H137.548V33.3562Z" fill="#808184"/>
  <path d="M148.408 31.7647C148.392 31.5718 148.303 31.4111 148.159 31.3066C148.014 31.2021 147.813 31.1458 147.564 31.1458C147.395 31.1458 147.25 31.1699 147.138 31.2182C147.025 31.2664 146.929 31.3307 146.873 31.4191C146.808 31.5075 146.784 31.596 146.784 31.7085C146.784 31.7969 146.8 31.8773 146.84 31.9416C146.881 32.0059 146.937 32.0622 147.009 32.1104C147.082 32.1586 147.162 32.1988 147.258 32.2309C147.355 32.2631 147.451 32.2953 147.564 32.3194L148.006 32.4239C148.223 32.4721 148.416 32.5364 148.593 32.6168C148.769 32.6971 148.93 32.8016 149.059 32.9142C149.187 33.0347 149.292 33.1714 149.364 33.3321C149.437 33.4929 149.477 33.6778 149.477 33.8868C149.477 34.1922 149.396 34.4575 149.252 34.6825C149.099 34.9076 148.882 35.0764 148.601 35.205C148.319 35.3336 147.974 35.3899 147.58 35.3899C147.186 35.3899 146.84 35.3256 146.543 35.205C146.254 35.0844 146.021 34.8995 145.86 34.6504C145.699 34.4092 145.611 34.1038 145.603 33.7421H146.607C146.615 33.9109 146.664 34.0475 146.752 34.1601C146.832 34.2726 146.945 34.353 147.09 34.4092C147.234 34.4655 147.387 34.4896 147.572 34.4896C147.757 34.4896 147.901 34.4655 148.03 34.4092C148.159 34.361 148.263 34.2887 148.335 34.1922C148.408 34.0958 148.44 33.9913 148.44 33.8707C148.44 33.7582 148.408 33.6617 148.343 33.5894C148.279 33.517 148.183 33.4447 148.062 33.3964C147.942 33.3402 147.789 33.292 147.612 33.2518L147.082 33.1151C146.672 33.0106 146.342 32.8499 146.101 32.6328C145.86 32.4158 145.739 32.1184 145.747 31.7487C145.747 31.4432 145.828 31.178 145.988 30.9529C146.149 30.7279 146.366 30.551 146.647 30.4224C146.929 30.2938 147.25 30.2295 147.604 30.2295C147.958 30.2295 148.287 30.2938 148.561 30.4224C148.834 30.551 149.043 30.7279 149.196 30.9529C149.348 31.178 149.429 31.4432 149.429 31.7406H148.432L148.408 31.7647Z" fill="#808184"/>
  <path d="M154.211 35.3255V30.3259H155.248V32.3917H157.354V30.3259H158.391V35.3255H157.354V33.2598H155.248V35.3255H154.211Z" fill="#808184"/>
  <path d="M163.286 35.3255V30.3259H166.59V31.194H164.323V32.3836H166.421V33.2517H164.323V34.4494H166.598V35.3175H163.286V35.3255Z" fill="#808184"/>
  <path d="M173.205 35.3255H171.469V30.3259H173.221C173.711 30.3259 174.137 30.4224 174.491 30.6233C174.844 30.8243 175.118 31.1056 175.311 31.4834C175.504 31.8531 175.6 32.3033 175.6 32.8177C175.6 33.3321 175.504 33.7903 175.311 34.16C175.118 34.5378 174.844 34.8191 174.483 35.0201C174.121 35.221 173.695 35.3175 173.197 35.3175L173.205 35.3255ZM172.505 34.4172H173.165C173.47 34.4172 173.727 34.361 173.936 34.2484C174.145 34.1359 174.306 33.9671 174.41 33.726C174.515 33.4929 174.571 33.1874 174.571 32.8177C174.571 32.4479 174.515 32.1425 174.41 31.9094C174.306 31.6763 174.145 31.4995 173.936 31.395C173.727 31.2824 173.47 31.2262 173.165 31.2262H172.505V34.4172Z" fill="#808184"/>
</svg>