<svg xmlns="http://www.w3.org/2000/svg" width="40" height="40" viewBox="0 0 40 40" fill="none">
  <path d="M19.5811 40C30.3955 40 39.1623 31.2332 39.1623 20.4188C39.1623 9.60448 30.3955 0.837708 19.5811 0.837708C8.76677 0.837708 0 9.60448 0 20.4188C0 31.2332 8.76677 40 19.5811 40Z" fill="#1957F3"/>
  <path d="M29.8407 17.1629C29.8407 14.6086 27.8047 12.5327 25.2983 12.5327H11.4822H9.3479V21.7877H12.0723V15.3103H25.2983C26.3003 15.3103 27.1137 16.1422 27.1137 17.1629C27.1137 18.1836 26.2977 19.0155 25.2983 19.0155H15.7137V21.7931H25.2983C26.3003 21.7931 27.1137 22.625 27.1137 23.6456C27.1137 24.6663 26.2977 25.4982 25.2983 25.4982H15.7137V28.2785H25.2983C27.8021 28.2785 29.8407 26.1999 29.8407 23.6483C29.8407 22.5612 29.4872 21.5485 28.8201 20.7192L28.5676 20.4056L28.8201 20.092C29.4872 19.2653 29.8407 18.2527 29.8407 17.1656V17.1629Z" fill="white"/>
  <path d="M12.1016 25.4849H9.35059V28.289H12.1016V25.4849Z" fill="white"/>
  <path d="M9.35059 28.289L12.1016 25.4849V28.289H9.35059Z" fill="#FF5C00"/>
</svg>