<svg width="49" height="48" viewBox="0 0 49 48" fill="none" xmlns="http://www.w3.org/2000/svg">
<circle cx="24.8496" cy="24" r="24" fill="#F4F4F4"/>
<g clip-path="url(#clip0_515_699594)">
<path d="M33.6321 20.4306H31.4008V18.7618C31.4009 18.7187 31.3924 18.6761 31.3759 18.6362C31.3594 18.5964 31.3353 18.5602 31.3048 18.5298C31.2743 18.4993 31.2381 18.4751 31.1983 18.4586C31.1585 18.4422 31.1158 18.4337 31.0727 18.4337H22.7503C22.6876 17.5809 22.3813 16.7641 21.8679 16.0804C21.3544 15.3966 20.6554 14.8747 19.854 14.5767C19.0525 14.2788 18.1823 14.2172 17.3469 14.3994C16.5114 14.5816 15.7459 14.9999 15.1413 15.6046C14.5367 16.2093 14.1185 16.9748 13.9364 17.8103C13.7543 18.6457 13.8159 19.5159 14.114 20.3173C14.4121 21.1188 14.9341 21.8177 15.6179 22.3311C16.3017 22.8445 17.1186 23.1507 17.9713 23.2133V31.5008C17.972 32.0849 18.2044 32.6448 18.6174 33.0578C19.0304 33.4709 19.5904 33.7032 20.1745 33.7039H29.1977C29.7818 33.7033 30.3418 33.4709 30.7548 33.0579C31.1679 32.6449 31.4002 32.0849 31.4008 31.5008V29.4154H33.6321C34.2244 29.4147 34.7922 29.1791 35.211 28.7603C35.6298 28.3415 35.8653 27.7736 35.866 27.1813V22.6646C35.8653 22.0724 35.6298 21.5045 35.211 21.0857C34.7922 20.6669 34.2244 20.4313 33.6321 20.4306ZM31.4008 22.4721H33.5745C33.6392 22.4721 33.7012 22.4978 33.7469 22.5435C33.7926 22.5892 33.8183 22.6512 33.8183 22.7158V27.1241C33.8183 27.1888 33.7926 27.2508 33.7469 27.2965C33.7012 27.3422 33.6392 27.3679 33.5745 27.3679H31.4008V22.4721ZM14.491 18.7626C14.491 18.0093 14.7143 17.2729 15.1329 16.6466C15.5514 16.0202 16.1462 15.5321 16.8422 15.2438C17.5381 14.9555 18.3039 14.8801 19.0428 15.0271C19.7816 15.1741 20.4602 15.5368 20.9929 16.0695C21.5255 16.6022 21.8882 17.2808 22.0352 18.0197C22.1821 18.7585 22.1067 19.5243 21.8184 20.2202C21.5301 20.9162 21.0419 21.511 20.4155 21.9295C19.7892 22.348 19.0528 22.5713 18.2995 22.5713C17.2897 22.5701 16.3216 22.1685 15.6076 21.4545C14.8937 20.7404 14.4921 19.7723 14.491 18.7626ZM30.7446 31.5008C30.7441 31.9109 30.581 32.3041 30.291 32.5941C30.001 32.8841 29.6078 33.0472 29.1977 33.0476H20.1745C19.7644 33.0471 19.3712 32.884 19.0812 32.594C18.7912 32.304 18.6281 31.9109 18.6276 31.5008V23.2133C19.6944 23.1332 20.6971 22.6731 21.4536 21.9167C22.2101 21.1602 22.6702 20.1575 22.7503 19.0907H30.7446V31.5008ZM35.2097 27.1813C35.2093 27.5996 35.043 28.0007 34.7472 28.2965C34.4514 28.5923 34.0504 28.7587 33.6321 28.7591H31.4008V28.0241H33.5745C33.8131 28.0238 34.0419 27.9289 34.2106 27.7602C34.3793 27.5915 34.4742 27.3627 34.4745 27.1241V22.7156C34.4745 22.477 34.3797 22.248 34.2109 22.0793C34.0421 21.9105 33.8132 21.8156 33.5745 21.8156H31.4008V21.0868H33.6321C34.0504 21.0873 34.4514 21.2537 34.7472 21.5495C35.0429 21.8453 35.2093 22.2464 35.2097 22.6646V27.1813Z" fill="black" fill-opacity="0.85" stroke="black" stroke-opacity="0.85" stroke-width="0.5"/>
<path d="M20.6881 19.0907C20.7752 19.0907 20.8586 19.0562 20.9202 18.9946C20.9817 18.9331 21.0163 18.8496 21.0163 18.7626C21.0163 18.6756 20.9817 18.5921 20.9202 18.5306C20.8586 18.469 20.7752 18.4345 20.6881 18.4345H18.627V16.3733C18.627 16.2863 18.5924 16.2028 18.5308 16.1413C18.4693 16.0797 18.3859 16.0452 18.2988 16.0452C18.2118 16.0452 18.1283 16.0797 18.0668 16.1413C18.0053 16.2028 17.9707 16.2863 17.9707 16.3733V18.7626C17.9708 18.8496 18.0053 18.933 18.0669 18.9946C18.1284 19.0561 18.2118 19.0907 18.2988 19.0907H20.6881Z" fill="black" fill-opacity="0.85" stroke="black" stroke-opacity="0.85" stroke-width="0.5"/>
</g>
<defs>
<clipPath id="clip0_515_699594">
<rect width="24" height="24" fill="white" transform="translate(12.8496 12)"/>
</clipPath>
</defs>
</svg>
