<svg width="22" height="22" viewBox="0 0 22 22" fill="none" xmlns="http://www.w3.org/2000/svg">
<line y1="-0.46875" x2="3.33648" y2="-0.46875" transform="matrix(0.622075 0.782957 -0.782957 0.622076 6.40479 5.81494)" stroke="#8C8C8C" stroke-width="0.9375"/>
<line x1="14.4347" y1="4.77954" x2="13.1812" y2="7.57976" stroke="#8C8C8C" stroke-width="0.9375"/>
<line x1="9.25749" y1="15.0222" x2="8.25985" y2="17.3242" stroke="#8C8C8C" stroke-width="0.9375"/>
<line x1="7.4425" y1="11.0858" x2="5.02619" y2="11.0858" stroke="#8C8C8C" stroke-width="0.9375"/>
<line x1="14.9172" y1="13.4109" x2="17.0069" y2="14.4666" stroke="#8C8C8C" stroke-width="0.9375"/>
<path d="M15.3265 11.1917C15.3265 13.3318 13.5916 15.0667 11.4515 15.0667C9.31144 15.0667 7.57654 13.3318 7.57654 11.1917C7.57654 9.05155 9.31144 7.31665 11.4515 7.31665C13.5916 7.31665 15.3265 9.05155 15.3265 11.1917Z" stroke="#8C8C8C" stroke-width="1.25"/>
<path d="M13.2831 13.085H13.3331V13.035V12.4245C13.3331 12.1414 13.2206 11.8699 13.0204 11.6697C12.8202 11.4695 12.5487 11.3571 12.2656 11.3571H10.6376C10.3545 11.3571 10.083 11.4695 9.88278 11.6697C9.68258 11.8699 9.57012 12.1414 9.57012 12.4245V13.035V13.085H9.62012H13.2831ZM10.9833 9.61605C11.1075 9.49185 11.276 9.42208 11.4516 9.42208C11.6272 9.42208 11.7957 9.49185 11.9199 9.61605C12.0441 9.74024 12.1138 9.90869 12.1138 10.0843C12.1138 10.26 12.0441 10.4284 11.9199 10.5526C11.7957 10.6768 11.6272 10.7466 11.4516 10.7466C11.276 10.7466 11.1075 10.6768 10.9833 10.5526C10.8591 10.4284 10.7894 10.26 10.7894 10.0843C10.7894 9.90869 10.8591 9.74024 10.9833 9.61605ZM10.6248 9.25755C10.4055 9.47682 10.2824 9.77422 10.2824 10.0843C10.2824 10.3944 10.4055 10.6918 10.6248 10.9111C10.8441 11.1304 11.1415 11.2536 11.4516 11.2536C11.7617 11.2536 12.0591 11.1304 12.2784 10.9111C12.4976 10.6918 12.6208 10.3944 12.6208 10.0843C12.6208 9.77422 12.4976 9.47682 12.2784 9.25755C12.0591 9.03827 11.7617 8.91509 11.4516 8.91509C11.1415 8.91509 10.8441 9.03827 10.6248 9.25755ZM10.2413 12.0282C10.3464 11.9231 10.489 11.8641 10.6376 11.8641H12.2656C12.4142 11.8641 12.5568 11.9231 12.6619 12.0282C12.767 12.1333 12.8261 12.2759 12.8261 12.4245V12.578H10.0771V12.4245C10.0771 12.2759 10.1362 12.1333 10.2413 12.0282Z" fill="#8C8C8C" stroke="#8C8C8C" stroke-width="0.1"/>
<path d="M15.9815 3.63766C15.9815 4.27844 15.462 4.7979 14.8213 4.7979C14.1805 4.7979 13.661 4.27844 13.661 3.63766C13.661 2.99687 14.1805 2.47742 14.8213 2.47742C15.462 2.47742 15.9815 2.99687 15.9815 3.63766Z" stroke="#8C8C8C" stroke-width="1.25"/>
<path d="M7.3947 4.90646C7.3947 5.54724 6.87524 6.0667 6.23446 6.0667C5.59368 6.0667 5.07422 5.54724 5.07422 4.90646C5.07422 4.26567 5.59368 3.74622 6.23446 3.74622C6.87524 3.74622 7.3947 4.26567 7.3947 4.90646Z" stroke="#8C8C8C" stroke-width="1.25"/>
<path d="M4.94548 11.0737C4.94548 11.7145 4.42602 12.2339 3.78524 12.2339C3.14446 12.2339 2.625 11.7145 2.625 11.0737C2.625 10.4329 3.14446 9.91345 3.78524 9.91345C4.42602 9.91345 4.94548 10.4329 4.94548 11.0737Z" stroke="#8C8C8C" stroke-width="1.25"/>
<path d="M8.78154 18.3623C8.78154 19.0031 8.26208 19.5225 7.6213 19.5225C6.98052 19.5225 6.46106 19.0031 6.46106 18.3623C6.46106 17.7215 6.98052 17.202 7.6213 17.202C8.26208 17.202 8.78154 17.7215 8.78154 18.3623Z" stroke="#8C8C8C" stroke-width="1.25"/>
<path d="M19.375 15.1163C19.375 15.7571 18.8556 16.2765 18.2148 16.2765C17.574 16.2765 17.0546 15.7571 17.0546 15.1163C17.0546 14.4755 17.574 13.9561 18.2148 13.9561C18.8556 13.9561 19.375 14.4755 19.375 15.1163Z" stroke="#8C8C8C" stroke-width="1.25"/>
</svg>
