<svg width="49" height="48" viewBox="0 0 49 48" fill="none" xmlns="http://www.w3.org/2000/svg">
<circle cx="24.8496" cy="24" r="24" fill="#F4F4F4"/>
<path d="M31.5996 16.5H29.3496V15H27.8496V16.5H21.8496V15H20.3496V16.5H18.0996C17.5029 16.5 16.9306 16.7371 16.5086 17.159C16.0867 17.581 15.8496 18.1533 15.8496 18.75V33H33.8496V18.75C33.8496 18.1533 33.6126 17.581 33.1906 17.159C32.7686 16.7371 32.1963 16.5 31.5996 16.5ZM17.3496 18.75C17.3496 18.5511 17.4286 18.3603 17.5693 18.2197C17.7099 18.079 17.9007 18 18.0996 18H31.5996C31.7985 18 31.9893 18.079 32.1299 18.2197C32.2706 18.3603 32.3496 18.5511 32.3496 18.75V21H17.3496V18.75ZM17.3496 31.5V22.5H32.3496V31.5H17.3496Z" fill="black" fill-opacity="0.85"/>
<path d="M28.5996 24.75H27.0996V26.25H28.5996V24.75Z" fill="black" fill-opacity="0.85"/>
<path d="M25.6016 24.75H24.1016V26.25H25.6016V24.75Z" fill="black" fill-opacity="0.85"/>
<path d="M22.5977 24.75H21.0977V26.25H22.5977V24.75Z" fill="black" fill-opacity="0.85"/>
<path d="M28.5996 27.75H27.0996V29.25H28.5996V27.75Z" fill="black" fill-opacity="0.85"/>
<path d="M25.6016 27.75H24.1016V29.25H25.6016V27.75Z" fill="black" fill-opacity="0.85"/>
<path d="M22.5977 27.75H21.0977V29.25H22.5977V27.75Z" fill="black" fill-opacity="0.85"/>
</svg>
