<svg width="32" height="35" viewBox="0 0 32 35" fill="none" xmlns="http://www.w3.org/2000/svg">
<path d="M13.4886 32.0789C6.51584 30.8864 1.20874 24.8127 1.20874 17.5C1.20874 10.1873 6.51584 4.11362 13.4886 2.9211" stroke="#B6B6B6" stroke-width="2" stroke-miterlimit="10" stroke-linecap="round" stroke-linejoin="round"/>
<path d="M13.4886 2.9211L11.9718 5.61327" stroke="#B6B6B6" stroke-width="2" stroke-miterlimit="10" stroke-linecap="round" stroke-linejoin="round"/>
<path d="M13.4886 2.9211L10.8428 1.32494" stroke="#B6B6B6" stroke-width="2" stroke-miterlimit="10" stroke-linecap="round" stroke-linejoin="round"/>
<path d="M18.5114 2.9211C25.4842 4.11362 30.7913 10.1873 30.7913 17.5C30.7913 24.8127 25.4842 30.8864 18.5114 32.0789" stroke="#B6B6B6" stroke-width="2" stroke-miterlimit="10" stroke-linecap="round" stroke-linejoin="round"/>
<path d="M18.5114 32.0789L20.0282 29.3867" stroke="#B6B6B6" stroke-width="2" stroke-miterlimit="10" stroke-linecap="round" stroke-linejoin="round"/>
<path d="M18.5114 32.0789L21.1572 33.6751" stroke="#B6B6B6" stroke-width="2" stroke-miterlimit="10" stroke-linecap="round" stroke-linejoin="round"/>
<path d="M20.973 25.3526H11.027C10.0544 25.3526 9.26599 24.5642 9.26599 23.5916V17.231C9.26599 16.2584 10.0544 15.47 11.027 15.47H20.9731C21.9456 15.47 22.7341 16.2584 22.7341 17.231V23.5916C22.734 24.5642 21.9456 25.3526 20.973 25.3526Z" stroke="#B6B6B6" stroke-width="2" stroke-miterlimit="10" stroke-linecap="round" stroke-linejoin="round"/>
<path d="M21.168 15.47V13.8757C21.168 11.0215 18.8542 8.70775 16 8.70775C13.1458 8.70775 10.832 11.0215 10.832 13.8757V15.47" stroke="#B6B6B6" stroke-width="2" stroke-miterlimit="10" stroke-linecap="round" stroke-linejoin="round"/>
<path d="M16 19.7148V21.1078" stroke="#B6B6B6" stroke-width="2.5" stroke-miterlimit="10" stroke-linecap="round" stroke-linejoin="round"/>
</svg>
