<svg width="16" height="16" viewBox="0 0 16 16" fill="none" xmlns="http://www.w3.org/2000/svg">
<g id="check-circle">
<path id="Vector" d="M8 1.00049C4.13438 1.00049 1 4.13486 1 8.00049C1 11.8661 4.13438 15.0005 8 15.0005C11.8656 15.0005 15 11.8661 15 8.00049C15 4.13486 11.8656 1.00049 8 1.00049ZM11.0234 5.71455L7.73281 10.2771C7.68682 10.3412 7.62619 10.3935 7.55595 10.4296C7.48571 10.4657 7.40787 10.4845 7.32891 10.4845C7.24994 10.4845 7.17211 10.4657 7.10186 10.4296C7.03162 10.3935 6.97099 10.3412 6.925 10.2771L4.97656 7.57705C4.91719 7.49424 4.97656 7.37861 5.07812 7.37861H5.81094C5.97031 7.37861 6.12187 7.45518 6.21562 7.58643L7.32812 9.13018L9.78438 5.72393C9.87813 5.59424 10.0281 5.51611 10.1891 5.51611H10.9219C11.0234 5.51611 11.0828 5.63174 11.0234 5.71455Z" fill="#52C41A"/>
</g>
</svg>
