<svg width="32" height="56" viewBox="0 0 32 56" fill="none" xmlns="http://www.w3.org/2000/svg">
<path fill-rule="evenodd" clip-rule="evenodd" d="M13.444 33.832C13.5532 33.9058 13.6759 33.9572 13.805 33.9834C13.9341 34.0096 14.0672 34.0101 14.1965 33.9847C14.3257 33.9593 14.4488 33.9086 14.5584 33.8356C14.6681 33.7625 14.7622 33.6685 14.8354 33.5589C14.9086 33.4494 14.9594 33.3264 14.9849 33.1971C15.0104 33.0679 15.0102 32.9348 14.9841 32.8057C14.9581 32.6765 14.9067 32.5538 14.8331 32.4445C14.7595 32.3352 14.6649 32.2416 14.555 32.169C14.3346 32.0335 14.0703 31.9887 13.8176 32.044C13.5648 32.0993 13.3434 32.2504 13.1997 32.4655C13.056 32.6806 13.0013 32.9431 13.047 33.1977C13.0928 33.4523 13.2354 33.6793 13.445 33.831L13.444 33.832ZM14 29C13.7348 29 13.4804 28.8946 13.2929 28.7071C13.1054 28.5196 13 28.2652 13 28C13 27.7348 13.1054 27.4804 13.2929 27.2929C13.4804 27.1054 13.7348 27 14 27C14.2652 27 14.5196 27.1054 14.7071 27.2929C14.8946 27.4804 15 27.7348 15 28C15 28.2652 14.8946 28.5196 14.7071 28.7071C14.5196 28.8946 14.2652 29 14 29ZM14 24C13.7348 24 13.4804 23.8946 13.2929 23.7071C13.1054 23.5196 13 23.2652 13 23C13 22.7348 13.1054 22.4804 13.2929 22.2929C13.4804 22.1054 13.7348 22 14 22C14.2652 22 14.5196 22.1054 14.7071 22.2929C14.8946 22.4804 15 22.7348 15 23C15 23.2652 14.8946 23.5196 14.7071 23.7071C14.5196 23.8946 14.2652 24 14 24Z" fill="black" fill-opacity="0.45"/>
<path fill-rule="evenodd" clip-rule="evenodd" d="M17.444 33.832C17.5532 33.9058 17.6759 33.9572 17.805 33.9834C17.9341 34.0096 18.0672 34.0101 18.1965 33.9847C18.3257 33.9593 18.4488 33.9086 18.5584 33.8356C18.6681 33.7625 18.7622 33.6685 18.8354 33.5589C18.9086 33.4494 18.9594 33.3264 18.9849 33.1971C19.0104 33.0679 19.0102 32.9348 18.9841 32.8057C18.9581 32.6765 18.9067 32.5538 18.8331 32.4445C18.7595 32.3352 18.6649 32.2416 18.555 32.169C18.3346 32.0335 18.0703 31.9887 17.8176 32.044C17.5648 32.0993 17.3434 32.2504 17.1997 32.4655C17.056 32.6806 17.0013 32.9431 17.047 33.1977C17.0928 33.4523 17.2354 33.6793 17.445 33.831L17.444 33.832ZM18 29C17.7348 29 17.4804 28.8946 17.2929 28.7071C17.1054 28.5196 17 28.2652 17 28C17 27.7348 17.1054 27.4804 17.2929 27.2929C17.4804 27.1054 17.7348 27 18 27C18.2652 27 18.5196 27.1054 18.7071 27.2929C18.8946 27.4804 19 27.7348 19 28C19 28.2652 18.8946 28.5196 18.7071 28.7071C18.5196 28.8946 18.2652 29 18 29ZM18 24C17.7348 24 17.4804 23.8946 17.2929 23.7071C17.1054 23.5196 17 23.2652 17 23C17 22.7348 17.1054 22.4804 17.2929 22.2929C17.4804 22.1054 17.7348 22 18 22C18.2652 22 18.5196 22.1054 18.7071 22.2929C18.8946 22.4804 19 22.7348 19 23C19 23.2652 18.8946 23.5196 18.7071 23.7071C18.5196 23.8946 18.2652 24 18 24Z" fill="black" fill-opacity="0.45"/>
<line x1="3" y1="55.5" x2="29" y2="55.5" stroke="black" stroke-opacity="0.03"/>
</svg>
