<svg width="21" height="29" viewBox="0 0 21 29" fill="none" xmlns="http://www.w3.org/2000/svg">
<g clip-path="url(#clip0_915_20384)">
<g clip-path="url(#clip1_915_20384)">
<path d="M20.4004 14.75C20.4004 14.971 20.3126 15.183 20.1563 15.3393C20 15.4955 19.7881 15.5833 19.5671 15.5833C19.346 15.5833 19.1341 15.4955 18.9778 15.3393C18.8215 15.183 18.7337 14.971 18.7337 14.75C18.7313 12.5406 17.8525 10.4224 16.2903 8.86012C14.728 7.29785 12.6098 6.41909 10.4004 6.41667C10.1794 6.41667 9.96741 6.32887 9.81114 6.17259C9.65485 6.01631 9.56706 5.80435 9.56706 5.58333C9.56706 5.36232 9.65485 5.15036 9.81114 4.99408C9.96741 4.8378 10.1794 4.75 10.4004 4.75C13.0517 4.75287 15.5935 5.80736 17.4683 7.6821C19.343 9.55684 20.3975 12.0987 20.4004 14.75ZM13.7337 15.5833C13.9547 15.5833 14.1667 15.4955 14.323 15.3393C14.4793 15.183 14.5671 14.971 14.5671 14.75C14.5671 14.529 14.4793 14.317 14.323 14.1607C14.1667 14.0045 13.9547 13.9167 13.7337 13.9167H11.8362C11.691 13.667 11.4834 13.4594 11.2337 13.3142V10.5833C11.2337 10.3623 11.1459 10.1504 10.9896 9.99408C10.8334 9.8378 10.6214 9.75 10.4004 9.75C10.1794 9.75 9.96741 9.8378 9.81114 9.99408C9.65485 10.1504 9.56706 10.3623 9.56706 10.5833V13.3142C9.34603 13.4414 9.15727 13.6179 9.01539 13.8298C8.87351 14.0417 8.78232 14.2835 8.74889 14.5363C8.71545 14.7892 8.74066 15.0463 8.82257 15.2878C8.90448 15.5294 9.04089 15.7488 9.22123 15.9292C9.40158 16.1095 9.62101 16.2459 9.86254 16.3278C10.1041 16.4097 10.3612 16.4349 10.6141 16.4015C10.8669 16.3681 11.1087 16.2769 11.3206 16.135C11.5325 15.9931 11.709 15.8044 11.8362 15.5833H13.7337ZM1.92289 10.4033C1.75807 10.4033 1.59696 10.4522 1.45992 10.5438C1.32287 10.6353 1.21606 10.7655 1.15299 10.9178C1.08992 11.07 1.07342 11.2376 1.10557 11.3992C1.13772 11.5609 1.21709 11.7094 1.33364 11.8259C1.45018 11.9425 1.59866 12.0218 1.76032 12.054C1.92197 12.0861 2.08952 12.0696 2.24179 12.0066C2.39407 11.9435 2.52421 11.8367 2.61578 11.6996C2.70735 11.5626 2.75622 11.4015 2.75622 11.2367C2.75622 11.0157 2.66843 10.8037 2.51215 10.6474C2.35587 10.4911 2.1439 10.4033 1.92289 10.4033ZM2.06706 14.75C2.06706 14.5852 2.01818 14.4241 1.92662 14.287C1.83505 14.15 1.7049 14.0432 1.55263 13.9801C1.40036 13.917 1.2328 13.9005 1.07115 13.9327C0.909498 13.9648 0.761012 14.0442 0.644469 14.1607C0.527925 14.2773 0.448558 14.4258 0.416403 14.5874C0.384249 14.7491 0.400752 14.9166 0.463825 15.0689C0.526898 15.2212 0.633708 15.3513 0.770749 15.4429C0.90779 15.5345 1.06891 15.5833 1.23372 15.5833C1.45474 15.5833 1.6667 15.4955 1.82298 15.3393C1.97926 15.183 2.06706 14.971 2.06706 14.75ZM10.4004 23.0833C10.2356 23.0833 10.0745 23.1322 9.93742 23.2238C9.80037 23.3153 9.69356 23.4455 9.63049 23.5978C9.56742 23.75 9.55091 23.9176 9.58307 24.0792C9.61522 24.2409 9.69459 24.3894 9.81114 24.5059C9.92768 24.6225 10.0762 24.7018 10.2378 24.734C10.3995 24.7661 10.567 24.7496 10.7193 24.6866C10.8716 24.6235 11.0017 24.5167 11.0933 24.3796C11.1848 24.2426 11.2337 24.0815 11.2337 23.9167C11.2337 23.6957 11.1459 23.4837 10.9896 23.3274C10.8334 23.1711 10.6214 23.0833 10.4004 23.0833ZM3.91789 7.4225C3.75307 7.4225 3.59196 7.47137 3.45492 7.56294C3.31787 7.65451 3.21106 7.78466 3.14799 7.93693C3.08492 8.0892 3.06842 8.25676 3.10057 8.41841C3.13272 8.58006 3.21209 8.72855 3.32864 8.84509C3.44518 8.96163 3.59367 9.041 3.75532 9.07315C3.91697 9.10531 4.08452 9.08881 4.23679 9.02573C4.38907 8.96266 4.51921 8.85585 4.61078 8.71881C4.70235 8.58177 4.75122 8.42065 4.75122 8.25583C4.75122 8.03482 4.66343 7.82286 4.50715 7.66658C4.35087 7.5103 4.1389 7.4225 3.91789 7.4225ZM6.88289 5.45083C6.71807 5.45083 6.55696 5.49971 6.41992 5.59128C6.28287 5.68284 6.17606 5.81299 6.11299 5.96526C6.04992 6.11754 6.03342 6.28509 6.06557 6.44674C6.09772 6.60839 6.17709 6.75688 6.29364 6.87342C6.41018 6.98997 6.55866 7.06933 6.72032 7.10149C6.88197 7.13364 7.04952 7.11714 7.20179 7.05407C7.35406 6.99099 7.48421 6.88418 7.57578 6.74714C7.66735 6.6101 7.71622 6.44898 7.71622 6.28417C7.71622 6.06315 7.62843 5.85119 7.47215 5.69491C7.31587 5.53863 7.1039 5.45083 6.88289 5.45083ZM1.92289 17.43C1.75807 17.43 1.59696 17.4789 1.45992 17.5704C1.32287 17.662 1.21606 17.7922 1.15299 17.9444C1.08992 18.0967 1.07342 18.2643 1.10557 18.4259C1.13772 18.5876 1.21709 18.736 1.33364 18.8526C1.45018 18.9691 1.59866 19.0485 1.76032 19.0807C1.92197 19.1128 2.08952 19.0963 2.24179 19.0332C2.39407 18.9702 2.52421 18.8633 2.61578 18.7263C2.70735 18.5893 2.75622 18.4282 2.75622 18.2633C2.75622 18.0423 2.66843 17.8304 2.51215 17.6741C2.35587 17.5178 2.1439 17.43 1.92289 17.43ZM3.91789 20.4108C3.75307 20.4108 3.59196 20.4597 3.45492 20.5513C3.31787 20.6428 3.21106 20.773 3.14799 20.9253C3.08492 21.0775 3.06842 21.2451 3.10057 21.4067C3.13272 21.5684 3.21209 21.7169 3.32864 21.8334C3.44518 21.95 3.59367 22.0293 3.75532 22.0615C3.91697 22.0936 4.08452 22.0771 4.23679 22.0141C4.38907 21.951 4.51921 21.8442 4.61078 21.7071C4.70235 21.5701 4.75122 21.409 4.75122 21.2442C4.75122 21.0232 4.66343 20.8112 4.50715 20.6549C4.35087 20.4986 4.1389 20.4108 3.91789 20.4108ZM6.88289 22.3825C6.71807 22.3825 6.55696 22.4314 6.41992 22.5229C6.28287 22.6145 6.17606 22.7447 6.11299 22.8969C6.04992 23.0492 6.03342 23.2168 6.06557 23.3784C6.09772 23.5401 6.17709 23.6885 6.29364 23.8051C6.41018 23.9216 6.55866 24.001 6.72032 24.0332C6.88197 24.0653 7.04952 24.0488 7.20179 23.9857C7.35406 23.9227 7.48421 23.8158 7.57578 23.6788C7.66735 23.5418 7.71622 23.3807 7.71622 23.2158C7.71622 22.9948 7.62843 22.7829 7.47215 22.6266C7.31587 22.4703 7.1039 22.3825 6.88289 22.3825ZM18.8779 17.43C18.7131 17.43 18.552 17.4789 18.4149 17.5704C18.2779 17.662 18.1711 17.7922 18.108 17.9444C18.0449 18.0967 18.0284 18.2643 18.0606 18.4259C18.0927 18.5876 18.1721 18.736 18.2886 18.8526C18.4052 18.9691 18.5537 19.0485 18.7153 19.0807C18.877 19.1128 19.0445 19.0963 19.1968 19.0332C19.3491 18.9702 19.4792 18.8633 19.5708 18.7263C19.6623 18.5893 19.7112 18.4282 19.7112 18.2633C19.7112 18.0423 19.6234 17.8304 19.4671 17.6741C19.3109 17.5178 19.0989 17.43 18.8779 17.43ZM16.8829 20.4108C16.7181 20.4108 16.557 20.4597 16.4199 20.5513C16.2829 20.6428 16.1761 20.773 16.113 20.9253C16.0499 21.0775 16.0334 21.2451 16.0656 21.4067C16.0977 21.5684 16.1771 21.7169 16.2936 21.8334C16.4102 21.95 16.5587 22.0293 16.7203 22.0615C16.882 22.0936 17.0495 22.0771 17.2018 22.0141C17.3541 21.951 17.4842 21.8442 17.5758 21.7071C17.6673 21.5701 17.7162 21.409 17.7162 21.2442C17.7162 21.0232 17.6284 20.8112 17.4721 20.6549C17.3159 20.4986 17.1039 20.4108 16.8829 20.4108ZM13.9179 22.3825C13.7531 22.3825 13.592 22.4314 13.4549 22.5229C13.3179 22.6145 13.2111 22.7447 13.148 22.8969C13.0849 23.0492 13.0684 23.2168 13.1006 23.3784C13.1327 23.5401 13.2121 23.6885 13.3286 23.8051C13.4452 23.9216 13.5937 24.001 13.7553 24.0332C13.917 24.0653 14.0845 24.0488 14.2368 23.9857C14.3891 23.9227 14.5192 23.8158 14.6108 23.6788C14.7023 23.5418 14.7512 23.3807 14.7512 23.2158C14.7512 22.9948 14.6634 22.7829 14.5071 22.6266C14.3509 22.4703 14.1389 22.3825 13.9179 22.3825Z" fill="#8C8C8C"/>
</g>
</g>
<defs>
<clipPath id="clip0_915_20384">
<rect width="20" height="28" fill="white" transform="translate(0.400391 0.75)"/>
</clipPath>
<clipPath id="clip1_915_20384">
<rect width="20" height="20" fill="white" transform="translate(0.400391 4.75)"/>
</clipPath>
</defs>
</svg>
