<svg width="71" height="70" viewBox="0 0 71 70" fill="none" xmlns="http://www.w3.org/2000/svg">
<circle cx="35.5" cy="35" r="35" fill="#F1F2F3"/>
<path d="M47.0145 22H30.4541C29.0822 22 27.9701 23.1121 27.9701 24.4841V26.9681H25.486C24.1141 26.9681 23.002 28.0802 23.002 29.4522V46.0125C23.002 47.3845 24.1141 48.4966 25.486 48.4966H42.0464C43.4183 48.4966 44.5304 47.3845 44.5304 46.0125V43.5285H47.0145C48.3864 43.5285 49.4985 42.4163 49.4985 41.0444V24.4841C49.4985 23.1121 48.3864 22 47.0145 22ZM41.7359 46.0125H25.7965C25.7142 46.0125 25.6352 45.9798 25.577 45.9216C25.5187 45.8634 25.486 45.7844 25.486 45.702V29.7627C25.486 29.6803 25.5187 29.6013 25.577 29.5431C25.6352 29.4849 25.7142 29.4522 25.7965 29.4522H27.9701V41.0444C27.9701 42.4163 29.0822 43.5285 30.4541 43.5285H42.0464V45.702C42.0464 45.7844 42.0137 45.8634 41.9554 45.9216C41.8972 45.9798 41.8182 46.0125 41.7359 46.0125ZM46.704 41.0444H30.7646C30.6823 41.0444 30.6033 41.0117 30.5451 40.9535C30.4868 40.8952 30.4541 40.8163 30.4541 40.7339V24.7946C30.4541 24.7122 30.4868 24.6332 30.5451 24.575C30.6033 24.5168 30.6823 24.4841 30.7646 24.4841H46.704C46.7863 24.4841 46.8653 24.5168 46.9235 24.575C46.9818 24.6332 47.0145 24.7122 47.0145 24.7946V40.7339C47.0145 40.8163 46.9818 40.8952 46.9235 40.9535C46.8653 41.0117 46.7863 41.0444 46.704 41.0444Z" fill="#F86806"/>
</svg>
