<svg width="20" height="20" viewBox="0 0 20 20" fill="none" xmlns="http://www.w3.org/2000/svg">
<path fill-rule="evenodd" clip-rule="evenodd" d="M15.2817 1.74219H4.66553C3.14674 1.74219 1.91553 2.9734 1.91553 4.49219V15.1084C1.91553 16.6272 3.14674 17.8584 4.66553 17.8584H15.2817C16.8005 17.8584 18.0317 16.6272 18.0317 15.1084V4.49219C18.0317 2.9734 16.8005 1.74219 15.2817 1.74219ZM4.66553 0.492188C2.45639 0.492188 0.665527 2.28305 0.665527 4.49219V15.1084C0.665527 17.3175 2.45639 19.1084 4.66553 19.1084H15.2817C17.4909 19.1084 19.2817 17.3175 19.2817 15.1084V4.49219C19.2817 2.28305 17.4909 0.492188 15.2817 0.492188H4.66553ZM6.75684 3.84277C7.10201 3.84277 7.38184 4.1226 7.38184 4.46777V9.81641C7.38184 9.84789 7.37951 9.87883 7.37501 9.90906C8.06806 10.1615 8.56294 10.8263 8.56294 11.6066C8.56294 12.3879 8.06688 13.0533 7.37254 13.3051C7.37865 13.3402 7.38184 13.3763 7.38184 13.4131V15.1328C7.38184 15.478 7.10201 15.7578 6.75684 15.7578C6.41166 15.7578 6.13184 15.478 6.13184 15.1328V13.4131C6.13184 13.3763 6.13502 13.3402 6.14113 13.3051C5.44676 13.0533 4.95068 12.3879 4.95068 11.6066C4.95068 10.8263 5.44558 10.1615 6.13865 9.90905C6.13416 9.87882 6.13184 9.84788 6.13184 9.81641V4.46777C6.13184 4.1226 6.41166 3.84277 6.75684 3.84277ZM13.1885 3.84277C13.5337 3.84277 13.8135 4.1226 13.8135 4.46777V6.2041C13.8135 6.24043 13.8104 6.27603 13.8044 6.31065C14.4997 6.56194 14.9966 7.22781 14.9966 8.00975C14.9966 8.79086 14.5007 9.45615 13.8066 9.70804C13.8111 9.7383 13.8135 9.76927 13.8135 9.80078V15.1328C13.8135 15.478 13.5337 15.7578 13.1885 15.7578C12.8433 15.7578 12.5635 15.478 12.5635 15.1328V9.80078C12.5635 9.76879 12.5659 9.73737 12.5705 9.70668C11.8784 9.45375 11.3843 8.78945 11.3843 8.00975C11.3843 7.22921 11.8794 6.56431 12.5728 6.31201C12.5667 6.27695 12.5635 6.2409 12.5635 6.2041V4.46777C12.5635 4.1226 12.8433 3.84277 13.1885 3.84277ZM13.1905 8.81588C13.6357 8.81588 13.9966 8.45496 13.9966 8.00975C13.9966 7.56453 13.6357 7.20362 13.1905 7.20362C12.7452 7.20362 12.3843 7.56453 12.3843 8.00975C12.3843 8.45496 12.7452 8.81588 13.1905 8.81588ZM7.56294 11.6066C7.56294 12.0518 7.20202 12.4128 6.75681 12.4128C6.3116 12.4128 5.95068 12.0518 5.95068 11.6066C5.95068 11.1614 6.3116 10.8005 6.75681 10.8005C7.20202 10.8005 7.56294 11.1614 7.56294 11.6066Z" fill="black" fill-opacity="0.45"/>
</svg>
