<svg width="17" height="19" viewBox="0 0 20 20" fill="none" xmlns="http://www.w3.org/2000/svg">
<ellipse cx="10.9591" cy="8.06926" rx="2.51957" ry="2.51957" stroke="black" stroke-opacity="0.45" stroke-width="1.25" stroke-linecap="round" stroke-linejoin="round"/>
<path d="M10.9592 15.1384C11.3772 15.1384 11.7866 15.1021 12.1846 15.0326L12.103 12.9337C12.6038 12.8164 13.0755 12.6238 13.5056 12.3685L15.0189 13.8572C15.6295 13.4281 16.1692 12.9048 16.6168 12.3084L15.1944 10.7205C15.4394 10.3301 15.6318 9.90336 15.7618 9.45027L17.9603 9.0543C18.0052 8.73237 18.0284 8.40349 18.0284 8.06919C18.0284 7.81545 18.015 7.56482 17.989 7.31798L15.8243 6.92818C15.6975 6.38542 15.4822 5.87669 15.1944 5.41802L16.7047 3.94961C16.3099 3.40002 15.8382 2.90938 15.3054 2.49346L13.6101 3.8338C13.1523 3.54667 12.6446 3.33171 12.103 3.20486L12.0428 1.08253C11.6896 1.02819 11.3277 1 10.9592 1C10.6314 1 10.3088 1.02231 9.99292 1.06549L9.90375 3.185C9.32899 3.30862 8.79096 3.53111 8.30835 3.8338L6.73388 2.4012C6.18732 2.80931 5.70177 3.29461 5.29339 3.84095L6.82079 5.26962C6.48432 5.76602 6.23481 6.32617 6.09416 6.92818L3.94016 7.22279C3.90705 7.50031 3.89001 7.78276 3.89001 8.06919C3.89001 8.35563 3.90705 8.63808 3.94016 8.9156" stroke="black" stroke-opacity="0.45" stroke-width="1.25" stroke-linecap="round" stroke-linejoin="round"/>
<circle cx="5.15191" cy="14.4283" r="1.09759" stroke="black" stroke-opacity="0.45" stroke-width="1.25" stroke-linecap="round" stroke-linejoin="round"/>
<path d="M5.86806 10.3378C5.6354 10.2973 5.39609 10.2762 5.15186 10.2762C4.96544 10.2762 4.78189 10.2885 4.60197 10.3123L4.31178 11.1571C3.99511 11.2385 3.6964 11.3646 3.4228 11.5284L2.80422 11.0032C2.45913 11.2402 2.15166 11.528 1.89259 11.8558L2.17047 12.7521C2.00856 13.0568 1.95489 13.2885 1.89259 13.6397L1.04377 13.8231C1.01493 14.0206 1 14.2226 1 14.4281C1 14.6597 1.01897 14.8869 1.05544 15.1083L1.89259 15.2901C1.95489 15.6414 2.00856 15.7898 2.17047 16.0945L1.77953 16.8505C1.99979 17.1566 2.2607 17.4315 2.55435 17.6673L3.4228 17.3289C3.75564 17.5667 3.77263 17.5625 4.18022 17.6673L4.57586 18.5403C4.76412 18.5665 4.95641 18.58 5.15186 18.58C5.3473 18.58 5.5396 18.5665 5.72785 18.5403L6.09416 17.6673C6.46995 17.5707 6.57313 17.5396 6.8864 17.3289L7.74936 17.6673C8.04301 17.4315 8.30392 17.1566 8.52418 16.8505L8.13873 16.0103C8.2798 15.7448 8.33765 15.5918 8.40398 15.2901L9.25995 15.0331C9.28878 14.8356 9.30371 14.6336 9.30371 14.4281C9.30371 14.2226 9.28878 14.0206 9.25995 13.8231L8.40398 13.5054C8.30807 13.167 8.22564 13.0383 8.03583 12.7521L8.35187 11.7826C8.13978 11.5263 7.89749 11.296 7.63047 11.097L6.8864 11.4623C6.61279 11.2985 6.41083 11.2385 6.09416 11.1571L5.86806 10.3378Z" stroke="black" stroke-opacity="0.45" stroke-width="1.25" stroke-linecap="round" stroke-linejoin="round"/>
</svg>
