<svg width="71" height="70" viewBox="0 0 71 70" fill="none" xmlns="http://www.w3.org/2000/svg">
<circle cx="35.5" cy="35" r="35" fill="#F1F2F3"/>
<g clip-path="url(#clip0_120_66749)">
<path d="M35.5 48.4167C37.087 48.4167 38.375 49.7047 38.375 51.2917C38.375 52.8787 37.087 54.1667 35.5 54.1667C33.913 54.1667 32.625 52.8787 32.625 51.2917C32.625 49.7047 33.913 48.4167 35.5 48.4167ZM35.5 15.8333C41.8518 15.8333 47 20.9815 47 27.3333C47 31.4829 45.5567 33.6392 41.8748 36.7691C38.1814 39.9067 37.4167 41.3192 37.4167 44.5833H33.5833C33.5833 39.8415 35.0918 37.5012 39.3927 33.8481C42.3003 31.3775 43.1667 30.0818 43.1667 27.3333C43.1667 23.0975 39.7358 19.6667 35.5 19.6667C31.2642 19.6667 27.8333 23.0975 27.8333 27.3333V29.25H24V27.3333C24 20.9815 29.1482 15.8333 35.5 15.8333Z" fill="#5C79EF"/>
</g>
<defs>
<clipPath id="clip0_120_66749">
<rect width="46" height="46" fill="white" transform="translate(12.5 12)"/>
</clipPath>
</defs>
</svg>
