<svg width="22" height="22" viewBox="0 0 22 22" fill="none" xmlns="http://www.w3.org/2000/svg">
<path fill-rule="evenodd" clip-rule="evenodd" d="M19.5696 19.6307H2.43032C2.12068 19.6307 1.86868 19.3515 1.86868 19.0079V7.98386C1.86868 7.64065 2.12063 7.36145 2.4303 7.36145H6.34303C6.45853 7.36145 6.55211 7.46525 6.55211 7.5932C6.55214 7.72112 6.45846 7.82494 6.34301 7.82494H2.43032C2.35265 7.82494 2.28689 7.89777 2.28689 7.98386V19.0079C2.28689 19.0944 2.35262 19.1672 2.4303 19.1672L19.5696 19.1672C19.6473 19.1672 19.713 19.0944 19.713 19.0079L19.713 7.98386C19.713 7.89774 19.6473 7.82494 19.5696 7.82494H15.6572C15.5418 7.82494 15.4481 7.72114 15.4481 7.5932C15.4481 7.46524 15.5418 7.36145 15.6572 7.36145H19.5696C19.8793 7.36145 20.1312 7.64066 20.1312 7.98386L20.1313 19.0079C20.1313 19.3515 19.8793 19.6307 19.5696 19.6307Z" fill="#8C8C8C" stroke="#8C8C8C" stroke-width="0.712124"/>
<path fill-rule="evenodd" clip-rule="evenodd" d="M6.34307 17.3773C6.28753 17.3773 6.2345 17.3504 6.1953 17.3026C6.1561 17.2549 6.13394 17.1899 6.13394 17.1227L6.13397 2.62378C6.13397 2.4832 6.22762 2.36915 6.34305 2.36915L15.6573 2.36914C15.7728 2.36914 15.8664 2.48321 15.8664 2.62379V8.85445C15.8664 8.99503 15.7727 9.10911 15.6573 9.10911C15.5419 9.10909 15.4482 8.99505 15.4482 8.85447V2.87842H6.55217V16.8676L14.6354 16.8596H14.6357C14.7512 16.8596 14.8445 16.9737 14.8448 17.1143C14.8449 17.2549 14.7512 17.3689 14.6357 17.3689L6.34307 17.3773Z" fill="#8C8C8C" stroke="#8C8C8C" stroke-width="0.712124"/>
<path fill-rule="evenodd" clip-rule="evenodd" d="M10.6755 4.93643H8.16531C8.04959 4.93643 7.95624 4.84315 7.95624 4.72737C7.95625 4.61194 8.04952 4.51831 8.1653 4.51831H10.6755C10.7909 4.51831 10.8845 4.61195 10.8845 4.72737C10.8846 4.84315 10.7909 4.93643 10.6755 4.93643Z" fill="#8C8C8C" stroke="#8C8C8C" stroke-width="0.712124"/>
<path fill-rule="evenodd" clip-rule="evenodd" d="M13.8349 6.93261H8.16548C8.04973 6.93261 7.95636 6.83897 7.95636 6.72352C7.95637 6.60807 8.04966 6.51442 8.16546 6.51442L13.8349 6.5144C13.9504 6.5144 14.044 6.60808 14.044 6.72352C14.044 6.83895 13.9503 6.93263 13.8349 6.93261Z" fill="#8C8C8C" stroke="#8C8C8C" stroke-width="0.712124"/>
<path fill-rule="evenodd" clip-rule="evenodd" d="M13.1876 9.19421H8.21343C8.07114 9.19421 7.95636 9.10092 7.95636 8.98512C7.95637 8.86966 8.07105 8.77601 8.21341 8.77601L13.1876 8.776C13.3295 8.776 13.4446 8.86968 13.4446 8.98512C13.4446 9.10092 13.3295 9.19422 13.1876 9.19421Z" fill="#8C8C8C" stroke="#8C8C8C" stroke-width="0.712124"/>
<path fill-rule="evenodd" clip-rule="evenodd" d="M12.2497 14.8809H8.19833C8.06426 14.8809 7.95612 14.7876 7.95612 14.6718C7.95613 14.5564 8.06418 14.4628 8.19831 14.4628H12.2497C12.3838 14.4628 12.4918 14.5564 12.4918 14.6718C12.4919 14.7876 12.3838 14.8809 12.2497 14.8809Z" fill="#8C8C8C" stroke="#8C8C8C" stroke-width="0.712124"/>
<path fill-rule="evenodd" clip-rule="evenodd" d="M14.5316 8.96995C12.8059 8.96995 11.402 10.3738 11.402 12.0995C11.4021 13.8251 12.8058 15.2289 14.5315 15.2289C16.2569 15.2289 17.661 13.8251 17.661 12.0995C17.6611 10.3737 16.2569 8.96995 14.5316 8.96995ZM14.5316 15.6311C12.5842 15.6311 10.9998 14.0468 10.9998 12.0995C10.9999 10.152 12.5841 8.56775 14.5315 8.56775C16.479 8.56774 18.0629 10.1521 18.0629 12.0995C18.0629 14.0468 16.4789 15.6311 14.5316 15.6311Z" fill="#8C8C8C" stroke="#8C8C8C" stroke-width="0.712124"/>
<path fill-rule="evenodd" clip-rule="evenodd" d="M18.6262 12.3083H17.3203C17.2198 12.3083 17.1382 12.2147 17.1382 12.0992C17.1382 11.9838 17.2197 11.8901 17.3203 11.8901H18.6262C18.727 11.8901 18.8083 11.9838 18.8083 12.0992C18.8083 12.2147 18.727 12.3083 18.6262 12.3083Z" fill="#8C8C8C" stroke="#8C8C8C" stroke-width="0.712124"/>
<path fill-rule="evenodd" clip-rule="evenodd" d="M14.6352 17.2409C14.5194 17.2409 14.4261 17.1214 14.4261 16.9742L14.4261 15.0612C14.4261 14.914 14.5194 14.7946 14.6351 14.7946C14.7506 14.7945 14.8442 14.914 14.8442 15.0613L14.8443 16.9742C14.8443 17.1214 14.7506 17.2409 14.6352 17.2409Z" fill="#8C8C8C" stroke="#8C8C8C" stroke-width="0.712124"/>
<path fill-rule="evenodd" clip-rule="evenodd" d="M11.629 12.3085H10.4226C10.3297 12.3085 10.2544 12.2148 10.2544 12.0994C10.2544 11.984 10.3297 11.8904 10.4226 11.8904H11.629C11.7219 11.8904 11.7972 11.984 11.7972 12.0994C11.7972 12.2148 11.7219 12.3085 11.629 12.3085Z" fill="#8C8C8C" stroke="#8C8C8C" stroke-width="0.712124"/>
<path fill-rule="evenodd" clip-rule="evenodd" d="M8.37437 12.658H9.07741V10.7633H8.37437V12.658ZM9.28647 13.131H8.16531C8.04959 13.131 7.95624 13.025 7.95624 12.8945L7.95625 10.5269C7.95625 10.3963 8.04952 10.2904 8.1653 10.2904L9.28647 10.2904C9.40196 10.2904 9.49553 10.3963 9.49553 10.5269V12.8945C9.49553 13.025 9.40187 13.131 9.28647 13.131Z" fill="#8C8C8C" stroke="#8C8C8C" stroke-width="0.406928"/>
</svg>
