<svg width="10" height="10" viewBox="0 0 10 10" fill="none" xmlns="http://www.w3.org/2000/svg">
<g clip-path="url(#clip0_23_8782)">
<path fill-rule="evenodd" clip-rule="evenodd" d="M4.55957 0.289795C2.07754 0.289795 0.0595703 2.30776 0.0595703 4.78979C0.0595703 7.27183 2.07754 9.28979 4.55957 9.28979C7.0416 9.28979 9.05957 7.27183 9.05957 4.78979C9.05957 2.30776 7.0416 0.289795 4.55957 0.289795Z" fill="#63DFA4"/>
<path fill-rule="evenodd" clip-rule="evenodd" d="M6.73584 3.27275C6.84482 3.38174 6.84482 3.56104 6.73584 3.67002L4.09912 6.30674C4.04463 6.36123 3.97256 6.38936 3.90049 6.38936C3.82842 6.38936 3.75635 6.36123 3.70186 6.30674L2.3835 4.98838C2.27451 4.87939 2.27451 4.7001 2.3835 4.59111C2.49248 4.48213 2.67178 4.48213 2.78076 4.59111L3.90049 5.71084L6.33857 3.27275C6.44756 3.16201 6.62686 3.16201 6.73584 3.27275Z" fill="#081422"/>
</g>
<defs>
<clipPath id="clip0_23_8782">
<rect width="9" height="9" fill="white" transform="translate(0.0595703 0.289795)"/>
</clipPath>
</defs>
</svg>
