<svg width="22" height="22" viewBox="0 0 22 22" fill="none" xmlns="http://www.w3.org/2000/svg">
<path d="M18.7443 6.56741H14.3287C13.72 6.56741 13.2247 6.07212 13.2247 5.46349V3.25565C13.2247 2.64703 13.72 2.15173 14.3287 2.15173H18.7443C19.353 2.15173 19.8483 2.64703 19.8483 3.25565V5.46349C19.8483 6.07212 19.353 6.56741 18.7443 6.56741ZM14.3287 2.88768C14.1263 2.88768 13.9607 3.05253 13.9607 3.25565V5.46349C13.9607 5.66661 14.1263 5.83147 14.3287 5.83147H18.7443C18.9467 5.83147 19.1123 5.66661 19.1123 5.46349V3.25565C19.1123 3.05253 18.9467 2.88768 18.7443 2.88768H14.3287Z" fill="#8C8C8C" stroke="#8C8C8C" stroke-width="0.353254"/>
<path d="M18.7443 13.1909H14.3287C13.72 13.1909 13.2247 12.6957 13.2247 12.087V9.87919C13.2247 9.27056 13.72 8.77527 14.3287 8.77527H18.7443C19.353 8.77527 19.8483 9.27056 19.8483 9.87919V12.087C19.8483 12.6957 19.353 13.1909 18.7443 13.1909ZM14.3287 9.51122C14.1263 9.51122 13.9607 9.67607 13.9607 9.87919V12.087C13.9607 12.2901 14.1263 12.455 14.3287 12.455H18.7443C18.9467 12.455 19.1123 12.2901 19.1123 12.087V9.87919C19.1123 9.67607 18.9467 9.51122 18.7443 9.51122H14.3287Z" fill="#8C8C8C" stroke="#8C8C8C" stroke-width="0.353254"/>
<path d="M18.7443 19.8145H14.3287C13.72 19.8145 13.2247 19.3192 13.2247 18.7106V16.5027C13.2247 15.8941 13.72 15.3988 14.3287 15.3988H18.7443C19.353 15.3988 19.8483 15.8941 19.8483 16.5027V18.7106C19.8483 19.3192 19.353 19.8145 18.7443 19.8145ZM14.3287 16.1348C14.1263 16.1348 13.9607 16.2996 13.9607 16.5027V18.7106C13.9607 18.9137 14.1263 19.0785 14.3287 19.0785H18.7443C18.9467 19.0785 19.1123 18.9137 19.1123 18.7106V16.5027C19.1123 16.2996 18.9467 16.1348 18.7443 16.1348H14.3287Z" fill="#8C8C8C" stroke="#8C8C8C" stroke-width="0.353254"/>
<path d="M11.3849 3.62364H2.55352C2.3504 3.62364 2.18555 3.45879 2.18555 3.25567C2.18555 3.05255 2.3504 2.8877 2.55352 2.8877H11.3849C11.588 2.8877 11.7529 3.05255 11.7529 3.25567C11.7529 3.45879 11.588 3.62364 11.3849 3.62364Z" fill="#8C8C8C" stroke="#8C8C8C" stroke-width="0.353254"/>
<path d="M11.3849 5.83141H2.55352C2.3504 5.83141 2.18555 5.66655 2.18555 5.46343C2.18555 5.26031 2.3504 5.09546 2.55352 5.09546H11.3849C11.588 5.09546 11.7529 5.26031 11.7529 5.46343C11.7529 5.66655 11.588 5.83141 11.3849 5.83141Z" fill="#8C8C8C" stroke="#8C8C8C" stroke-width="0.353254"/>
<path d="M11.3849 10.2472H2.55352C2.3504 10.2472 2.18555 10.0823 2.18555 9.8792C2.18555 9.67608 2.3504 9.51123 2.55352 9.51123H11.3849C11.588 9.51123 11.7529 9.67608 11.7529 9.8792C11.7529 10.0823 11.588 10.2472 11.3849 10.2472Z" fill="#8C8C8C" stroke="#8C8C8C" stroke-width="0.353254"/>
<path d="M11.3849 12.4549H2.55352C2.3504 12.4549 2.18555 12.2901 2.18555 12.087C2.18555 11.8838 2.3504 11.719 2.55352 11.719H11.3849C11.588 11.719 11.7529 11.8838 11.7529 12.087C11.7529 12.2901 11.588 12.4549 11.3849 12.4549Z" fill="#8C8C8C" stroke="#8C8C8C" stroke-width="0.353254"/>
<path d="M11.3849 16.8707H2.55352C2.3504 16.8707 2.18555 16.7059 2.18555 16.5027C2.18555 16.2996 2.3504 16.1348 2.55352 16.1348H11.3849C11.588 16.1348 11.7529 16.2996 11.7529 16.5027C11.7529 16.7059 11.588 16.8707 11.3849 16.8707Z" fill="#8C8C8C" stroke="#8C8C8C" stroke-width="0.353254"/>
<path d="M11.3849 19.0785H2.55352C2.3504 19.0785 2.18555 18.9136 2.18555 18.7105C2.18555 18.5074 2.3504 18.3425 2.55352 18.3425H11.3849C11.588 18.3425 11.7529 18.5074 11.7529 18.7105C11.7529 18.9136 11.588 19.0785 11.3849 19.0785Z" fill="#8C8C8C" stroke="#8C8C8C" stroke-width="0.353254"/>
</svg>
