<svg width="154" height="102" viewBox="0 0 154 102" fill="none" xmlns="http://www.w3.org/2000/svg">
<path d="M149.866 0H4.13423C1.85096 0 0 1.80859 0 4.0396V97.9604C0 100.191 1.85096 102 4.13423 102H149.866C152.149 102 154 100.191 154 97.9604V4.0396C154 1.80859 152.149 0 149.866 0Z" fill="black"/>
<path d="M149.866 0.505005H4.13417C2.13631 0.505005 0.516724 2.08752 0.516724 4.03966V97.9604C0.516724 99.9126 2.13631 101.495 4.13417 101.495H149.866C151.864 101.495 153.483 99.9126 153.483 97.9604V4.03966C153.483 2.08752 151.864 0.505005 149.866 0.505005Z" stroke="black" stroke-opacity="0.25"/>
<path d="M0 4.0396C0 1.80859 1.85096 0 4.13423 0H18.604V102H4.13423C1.85096 102 0 100.191 0 97.9604V4.0396Z" fill="#101010"/>
<path d="M0.516724 4.03966C0.516724 2.08752 2.13631 0.505005 4.13417 0.505005H18.0872V101.495H4.13417C2.13631 101.495 0.516724 99.9126 0.516724 97.9604V4.03966Z" stroke="black" stroke-opacity="0.25"/>
<path d="M149.866 6.06462e-06C152.149 6.06462e-06 154 1.8086 154 4.03961V13.1287H0L1.04728e-06 4.03961C1.04728e-06 1.8086 1.85096 0 4.13423 0L149.866 6.06462e-06Z" fill="#101010"/>
<path d="M149.866 0.505011C151.864 0.505011 153.483 2.08753 153.483 4.03966V12.6238H0.516724L0.516725 4.03966C0.516725 2.08753 2.13631 0.505005 4.13417 0.505005L149.866 0.505011Z" stroke="black" stroke-opacity="0.25"/>
<path d="M65.1141 25.2475H25.839C25.2682 25.2475 24.8054 25.6996 24.8054 26.2574V30.297C24.8054 30.8548 25.2682 31.3069 25.839 31.3069H65.1141C65.685 31.3069 66.1477 30.8548 66.1477 30.297V26.2574C66.1477 25.6996 65.685 25.2475 65.1141 25.2475Z" fill="#5C79EF"/>
<path d="M144.698 35.3466H24.8054V90.8911H144.698V35.3466Z" fill="#101010"/>
<path d="M144.181 35.8515H25.3221V90.3862H144.181V35.8515Z" stroke="black" stroke-opacity="0.25"/>
<path d="M40.3087 48.7278H129.195" stroke="white" stroke-opacity="0.1" stroke-width="4" stroke-linecap="round"/>
<path d="M40.3087 63.3713H129.195" stroke="white" stroke-opacity="0.1" stroke-width="4" stroke-linecap="round"/>
<path d="M40.3087 78.5198H129.195" stroke="white" stroke-opacity="0.1" stroke-width="4" stroke-linecap="round"/>
</svg>
