<svg width="19" height="20" viewBox="0 0 19 20" fill="none" xmlns="http://www.w3.org/2000/svg">
<g id="Group 427320505">
<path id="Vector" d="M7.2961 8.9502H1.66694C0.942681 8.9502 0.353516 8.17012 0.353516 7.21098V2.73903C0.353516 1.78008 0.942681 1 1.66694 1H7.2961C8.02049 1 8.60966 1.78008 8.60966 2.73903V7.21098C8.60966 8.17012 8.02049 8.9502 7.2961 8.9502ZM1.66694 2.49065C1.56345 2.49065 1.47935 2.60201 1.47935 2.73903V7.21098C1.47935 7.34818 1.56345 7.45955 1.66694 7.45955H7.2961C7.39972 7.45955 7.48383 7.34818 7.48383 7.21098V2.73903C7.48383 2.60201 7.39972 2.49065 7.2961 2.49065H1.66694Z" fill="#8C8C8C" stroke="#8C8C8C" stroke-width="0.1"/>
<path id="Vector_2" d="M7.2961 19.0133H1.66694C0.942681 19.0133 0.353516 18.5077 0.353516 17.8862V11.1236C0.353516 10.502 0.942681 9.99646 1.66694 9.99646H7.2961C8.02049 9.99646 8.60966 10.502 8.60966 11.1236V17.8862C8.60966 18.5077 8.02049 19.0133 7.2961 19.0133ZM1.66694 10.9625C1.56345 10.9625 1.47935 11.0347 1.47935 11.1236V17.8862C1.47935 17.975 1.56345 18.0472 1.66694 18.0472H7.2961C7.39972 18.0472 7.48383 17.975 7.48383 17.8862V11.1236C7.48383 11.0347 7.39972 10.9625 7.2961 10.9625H1.66694Z" fill="#8C8C8C" stroke="#8C8C8C" stroke-width="0.1"/>
<path id="Vector_3" d="M17.0536 19.0133H11.4244C10.7 19.0133 10.1108 18.2324 10.1108 17.2724V12.7957C10.1108 11.8356 10.7 11.0547 11.4244 11.0547H17.0536C17.7778 11.0547 18.367 11.8356 18.367 12.7957V17.2724C18.367 18.2324 17.7778 19.0133 17.0536 19.0133ZM11.4244 12.5469C11.3208 12.5469 11.2367 12.6584 11.2367 12.7957V17.2724C11.2367 17.4096 11.3208 17.521 11.4244 17.521H17.0536C17.157 17.521 17.2412 17.4096 17.2412 17.2724V12.7957C17.2412 12.6584 17.157 12.5469 17.0536 12.5469H11.4244Z" fill="#8C8C8C" stroke="#8C8C8C" stroke-width="0.1"/>
<path id="Vector_4" d="M17.0536 9.99646H11.4244C10.7 9.99646 10.1108 9.49203 10.1108 8.87183V2.12451C10.1108 1.50442 10.7 1 11.4244 1H17.0536C17.7778 1 18.367 1.50442 18.367 2.12451V8.87183C18.367 9.49203 17.7778 9.99646 17.0536 9.99646ZM11.4244 1.9639C11.3208 1.9639 11.2367 2.03591 11.2367 2.12451V8.87183C11.2367 8.96055 11.3208 9.03256 11.4244 9.03256H17.0536C17.157 9.03256 17.2412 8.96055 17.2412 8.87183V2.12451C17.2412 2.03591 17.157 1.9639 17.0536 1.9639H11.4244Z" fill="#8C8C8C" stroke="#8C8C8C" stroke-width="0.1"/>
</g>
</svg>
