<svg width="17" height="19" viewBox="0 0 20 20" fill="none" xmlns="http://www.w3.org/2000/svg">
<g id="Group 427320492">
<path id="Union" fill-rule="evenodd" clip-rule="evenodd" d="M2.30423 0.0680237C1.40677 0.0680237 0.67923 0.795563 0.67923 1.69302V5.23103C0.67923 5.60815 0.807694 5.95526 1.02325 6.231C0.807694 6.50674 0.67923 6.85386 0.67923 7.23098V10.769C0.67923 11.1461 0.807713 11.4933 1.0233 11.769C0.807713 12.0448 0.67923 12.3919 0.67923 12.7691V16.3071C0.67923 17.2045 1.40676 17.9321 2.30423 17.9321H16.0493C16.9468 17.9321 17.6743 17.2045 17.6743 16.3071V12.7691C17.6743 12.3919 17.5459 12.0448 17.3303 11.769C17.5459 11.4933 17.6743 11.1461 17.6743 10.769V7.23098C17.6743 6.85385 17.5459 6.50675 17.3303 6.23101C17.5459 5.95527 17.6743 5.60815 17.6743 5.23102V1.69302C17.6743 0.795562 16.9468 0.0680237 16.0493 0.0680237H2.30423ZM2.29868 6.85602L2.30423 6.85603H16.0493L16.0551 6.85602C16.2596 6.85912 16.4243 7.02581 16.4243 7.23098V10.769C16.4243 10.9761 16.2564 11.144 16.0493 11.144H2.30423C2.09712 11.144 1.92923 10.9761 1.92923 10.769V7.23098C1.92923 7.02572 2.09413 6.85899 2.29868 6.85602ZM16.0549 5.60599C16.2594 5.60302 16.4243 5.43628 16.4243 5.23102V1.69302C16.4243 1.48592 16.2564 1.31802 16.0493 1.31802H2.30423C2.09712 1.31802 1.92923 1.48592 1.92923 1.69302V5.23103C1.92923 5.43629 2.09414 5.60303 2.2987 5.60599L2.30423 5.60598H16.0493L16.0549 5.60599ZM2.30423 12.3941C2.09712 12.3941 1.92923 12.5619 1.92923 12.7691V16.3071C1.92923 16.5142 2.09712 16.6821 2.30423 16.6821H16.0493C16.2564 16.6821 16.4243 16.5142 16.4243 16.3071V12.7691C16.4243 12.5619 16.2564 12.3941 16.0493 12.3941H2.30423ZM12.717 3.66935C12.3718 3.66935 12.092 3.94917 12.092 4.29435C12.092 4.63953 12.3718 4.91935 12.717 4.91935H14.4236C14.7688 4.91935 15.0486 4.63953 15.0486 4.29435C15.0486 3.94917 14.7688 3.66935 14.4236 3.66935H12.717ZM12.092 9.83254C12.092 9.48737 12.3718 9.20754 12.717 9.20754H14.4236C14.7688 9.20754 15.0486 9.48737 15.0486 9.83254C15.0486 10.1777 14.7688 10.4575 14.4236 10.4575H12.717C12.3718 10.4575 12.092 10.1777 12.092 9.83254ZM12.717 14.7456C12.3718 14.7456 12.092 15.0254 12.092 15.3706C12.092 15.7158 12.3718 15.9956 12.717 15.9956H14.4236C14.7688 15.9956 15.0486 15.7158 15.0486 15.3706C15.0486 15.0254 14.7688 14.7456 14.4236 14.7456H12.717Z" fill="black" fill-opacity="0.45"/>
</g>
</svg>
