<svg width="17" height="14" viewBox="0 0 17 14" fill="none" xmlns="http://www.w3.org/2000/svg">
<path d="M15.9286 0.710938H1.07143C0.755357 0.710938 0.5 0.966295 0.5 1.28237V12.7109C0.5 13.027 0.755357 13.2824 1.07143 13.2824H15.9286C16.2446 13.2824 16.5 13.027 16.5 12.7109V1.28237C16.5 0.966295 16.2446 0.710938 15.9286 0.710938ZM15.2143 4.42522H11.4286V1.99665H15.2143V4.42522ZM15.2143 8.42522H11.4286V5.56808H15.2143V8.42522ZM6.71429 5.56808H10.2857V8.42522H6.71429V5.56808ZM10.2857 4.42522H6.71429V1.99665H10.2857V4.42522ZM1.78571 5.56808H5.57143V8.42522H1.78571V5.56808ZM1.78571 1.99665H5.57143V4.42522H1.78571V1.99665ZM1.78571 9.56808H5.57143V11.9967H1.78571V9.56808ZM6.71429 9.56808H10.2857V11.9967H6.71429V9.56808ZM15.2143 11.9967H11.4286V9.56808H15.2143V11.9967Z" fill="black" fill-opacity="0.45"/>
</svg>
