<svg width="17" height="19" viewBox="0 0 20 20" fill="none" xmlns="http://www.w3.org/2000/svg">
<path fill-rule="evenodd" clip-rule="evenodd" d="M10.9299 1.00897C9.49397 0.798916 8.03044 1.11258 6.80676 1.89264C5.73561 2.57545 4.91086 3.57572 4.44308 4.74701C3.98215 4.84859 3.53781 5.01823 3.12495 5.25122C2.54825 5.57668 2.04561 6.01862 1.64902 6.54893C1.25243 7.07924 0.970571 7.68629 0.821385 8.33147C0.6722 8.97665 0.658951 9.64581 0.782484 10.2964C0.906016 10.947 1.16362 11.5647 1.53891 12.1103C1.9142 12.6559 2.39896 13.1174 2.96233 13.4654C3.31455 13.683 3.69267 13.8532 4.08691 13.9726V19.5546C4.08691 20.6592 4.98234 21.5546 6.08691 21.5546H13.1816C14.2862 21.5546 15.1816 20.6592 15.1816 19.5546V13.8037C15.6097 13.8148 16.0368 13.7513 16.4438 13.6157C16.9032 13.4625 17.3279 13.2204 17.6937 12.9031C18.0595 12.5858 18.3593 12.1996 18.5758 11.7665C18.7924 11.3333 18.9215 10.8618 18.9558 10.3788C18.9901 9.89575 18.9289 9.4107 18.7758 8.95131C18.6226 8.49193 18.3805 8.0672 18.0632 7.70139C17.7459 7.33558 17.3597 7.03584 16.9266 6.8193C16.6571 6.68455 16.3727 6.58366 16.0799 6.5184C15.98 5.23664 15.4731 4.01549 14.6271 3.03665C13.6781 1.93876 12.3657 1.21902 10.9299 1.00897ZM15.7355 7.46934C15.6919 7.48177 15.6458 7.48842 15.5982 7.48842C15.3221 7.48842 15.0982 7.26456 15.0982 6.98842C15.0982 5.77738 14.6624 4.60679 13.8705 3.69058C13.0786 2.77437 11.9834 2.17373 10.7851 1.99844C9.58683 1.82314 8.36549 2.0849 7.34429 2.73588C6.60093 3.20975 5.99976 3.86682 5.59387 4.63683C6.05467 4.64881 6.51237 4.72754 6.9525 4.87143C7.21497 4.95725 7.35818 5.23959 7.27237 5.50206C7.18655 5.76453 6.90421 5.90774 6.64174 5.82193C6.14425 5.65928 5.61835 5.60197 5.0975 5.65365C4.57665 5.70533 4.07226 5.86487 3.61643 6.12211C3.1606 6.37935 2.76331 6.72867 2.44984 7.14783C2.13638 7.56699 1.91359 8.04681 1.79568 8.55676C1.67776 9.06671 1.66729 9.59562 1.76493 10.1098C1.86257 10.6241 2.06618 11.1123 2.36282 11.5436C2.65945 11.9748 3.0426 12.3396 3.48789 12.6146C3.67877 12.7326 3.87928 12.8329 4.08691 12.9147V9.71778C4.08691 8.61321 4.98234 7.71777 6.08691 7.71777H13.1816C14.2862 7.71777 15.1816 8.6132 15.1816 9.71777V12.8032C15.5023 12.8147 15.8227 12.7686 16.1275 12.667C16.4623 12.5554 16.7719 12.3789 17.0385 12.1477C17.3051 11.9164 17.5235 11.6349 17.6814 11.3193C17.8392 11.0036 17.9333 10.6599 17.9583 10.3079C17.9833 9.95589 17.9387 9.60238 17.8271 9.26757C17.7155 8.93276 17.539 8.62322 17.3078 8.35661C17.0766 8.09001 16.7951 7.87156 16.4794 7.71374C16.2443 7.59617 15.9936 7.51397 15.7355 7.46934ZM13.1816 8.96777H6.08691C5.6727 8.96777 5.33691 9.30356 5.33691 9.71778V12.0592H13.9316V9.71777C13.9316 9.30356 13.5958 8.96777 13.1816 8.96777ZM5.33691 16.3545V13.3092H13.9316V16.3545H5.33691ZM5.33691 17.6045V19.5546C5.33691 19.9688 5.6727 20.3046 6.08691 20.3046H13.1816C13.5958 20.3046 13.9316 19.9688 13.9316 19.5546V17.6045H5.33691ZM5.66468 10.5375C5.66468 10.1923 5.9445 9.91249 6.28968 9.91249H6.51519C6.86037 9.91249 7.14019 10.1923 7.14019 10.5375C7.14019 10.8827 6.86037 11.1625 6.51519 11.1625H6.28968C5.9445 11.1625 5.66468 10.8827 5.66468 10.5375ZM6.28968 14.2069C5.9445 14.2069 5.66468 14.4867 5.66468 14.8319C5.66468 15.177 5.9445 15.4569 6.28968 15.4569H6.51519C6.86037 15.4569 7.14019 15.177 7.14019 14.8319C7.14019 14.4867 6.86037 14.2069 6.51519 14.2069H6.28968ZM5.66468 19.128C5.66468 18.7828 5.9445 18.503 6.28968 18.503H6.51519C6.86037 18.503 7.14019 18.7828 7.14019 19.128C7.14019 19.4732 6.86037 19.753 6.51519 19.753H6.28968C5.9445 19.753 5.66468 19.4732 5.66468 19.128Z" fill="black" fill-opacity="0.45"/>
</svg>
