<svg width="15" height="16" viewBox="0 0 15 16" fill="none" xmlns="http://www.w3.org/2000/svg">
<path d="M14.5712 10.2857H12.714V7.57143C12.714 7.49286 12.6497 7.42857 12.5712 7.42857H8.14258V5.71429H10.0712C10.2283 5.71429 10.3569 5.58571 10.3569 5.42857V0.285714C10.3569 0.128571 10.2283 0 10.0712 0H4.92829C4.77115 0 4.64258 0.128571 4.64258 0.285714V5.42857C4.64258 5.58571 4.77115 5.71429 4.92829 5.71429H6.85686V7.42857H2.42829C2.34972 7.42857 2.28544 7.49286 2.28544 7.57143V10.2857H0.428292C0.27115 10.2857 0.142578 10.4143 0.142578 10.5714V15.7143C0.142578 15.8714 0.27115 16 0.428292 16H5.57115C5.72829 16 5.85686 15.8714 5.85686 15.7143V10.5714C5.85686 10.4143 5.72829 10.2857 5.57115 10.2857H3.57115V8.71429H11.4283V10.2857H9.42829C9.27115 10.2857 9.14258 10.4143 9.14258 10.5714V15.7143C9.14258 15.8714 9.27115 16 9.42829 16H14.5712C14.7283 16 14.8569 15.8714 14.8569 15.7143V10.5714C14.8569 10.4143 14.7283 10.2857 14.5712 10.2857ZM4.49972 11.6429V14.6429H1.49972V11.6429H4.49972ZM5.99972 4.35714V1.35714H8.99972V4.35714H5.99972ZM13.4997 14.6429H10.4997V11.6429H13.4997V14.6429Z" fill="black" fill-opacity="0.45"/>
</svg>
