<svg width="15" height="14" viewBox="0 0 15 14" fill="none" xmlns="http://www.w3.org/2000/svg">
<path d="M6.71401 0.140625H1.21401C0.897935 0.140625 0.642578 0.395982 0.642578 0.712054V6.21206C0.642578 6.29063 0.706864 6.35491 0.785435 6.35491H6.71401C6.79258 6.35491 6.85687 6.29063 6.85687 6.21206V0.283482C6.85687 0.204911 6.79258 0.140625 6.71401 0.140625ZM5.71401 5.21205H1.78544V1.28348H5.71401V5.21205ZM3.24972 3.89063H4.24972C4.32829 3.89063 4.39258 3.82634 4.39258 3.74777V2.74777C4.39258 2.6692 4.32829 2.60491 4.24972 2.60491H3.24972C3.17115 2.60491 3.10686 2.6692 3.10686 2.74777V3.74777C3.10686 3.82634 3.17115 3.89063 3.24972 3.89063ZM6.71401 7.64063H0.785435C0.706864 7.64063 0.642578 7.70491 0.642578 7.78348V13.2835C0.642578 13.5996 0.897935 13.8549 1.21401 13.8549H6.71401C6.79258 13.8549 6.85687 13.7906 6.85687 13.7121V7.78348C6.85687 7.70491 6.79258 7.64063 6.71401 7.64063ZM5.71401 12.7121H1.78544V8.78348H5.71401V12.7121ZM3.24972 11.3906H4.24972C4.32829 11.3906 4.39258 11.3263 4.39258 11.2478V10.2478C4.39258 10.1692 4.32829 10.1049 4.24972 10.1049H3.24972C3.17115 10.1049 3.10686 10.1692 3.10686 10.2478V11.2478C3.10686 11.3263 3.17115 11.3906 3.24972 11.3906ZM13.7854 0.140625H8.28544C8.20687 0.140625 8.14258 0.204911 8.14258 0.283482V6.21206C8.14258 6.29063 8.20687 6.35491 8.28544 6.35491H14.214C14.2926 6.35491 14.3569 6.29063 14.3569 6.21206V0.712054C14.3569 0.395982 14.1015 0.140625 13.7854 0.140625ZM13.214 5.21205H9.28544V1.28348H13.214V5.21205ZM10.7497 3.89063H11.7497C11.8283 3.89063 11.8926 3.82634 11.8926 3.74777V2.74777C11.8926 2.6692 11.8283 2.60491 11.7497 2.60491H10.7497C10.6712 2.60491 10.6069 2.6692 10.6069 2.74777V3.74777C10.6069 3.82634 10.6712 3.89063 10.7497 3.89063ZM14.214 7.64063H13.3569C13.2783 7.64063 13.214 7.70491 13.214 7.78348V10.1763H11.8212V7.78348C11.8212 7.70491 11.7569 7.64063 11.6783 7.64063H8.28544C8.20687 7.64063 8.14258 7.70491 8.14258 7.78348V13.7121C8.14258 13.7906 8.20687 13.8549 8.28544 13.8549H9.14258C9.22115 13.8549 9.28544 13.7906 9.28544 13.7121V9.35491H10.6783V11.1763C10.6783 11.2549 10.7426 11.3192 10.8212 11.3192H14.214C14.2926 11.3192 14.3569 11.2549 14.3569 11.1763V7.78348C14.3569 7.70491 14.2926 7.64063 14.214 7.64063ZM11.6783 12.7121H10.8212C10.7426 12.7121 10.6783 12.7763 10.6783 12.8549V13.7121C10.6783 13.7906 10.7426 13.8549 10.8212 13.8549H11.6783C11.7569 13.8549 11.8212 13.7906 11.8212 13.7121V12.8549C11.8212 12.7763 11.7569 12.7121 11.6783 12.7121ZM14.214 12.7121H13.3569C13.2783 12.7121 13.214 12.7763 13.214 12.8549V13.7121C13.214 13.7906 13.2783 13.8549 13.3569 13.8549H14.214C14.2926 13.8549 14.3569 13.7906 14.3569 13.7121V12.8549C14.3569 12.7763 14.2926 12.7121 14.214 12.7121Z" fill="black" fill-opacity="0.45"/>
</svg>
