<svg width="71" height="70" viewBox="0 0 71 70" fill="none" xmlns="http://www.w3.org/2000/svg">
<circle cx="35.5" cy="35" r="35" fill="#F1F2F3"/>
<path d="M35.4117 37.1448V40.405C33.9999 39.9058 32.4889 39.7527 31.0056 39.9585C29.5223 40.1643 28.11 40.7231 26.8874 41.5878C25.6648 42.4524 24.6675 43.5979 23.9793 44.9279C23.2911 46.2579 22.9321 47.7336 22.9323 49.2311L19.8125 49.2295C19.812 47.3247 20.2476 45.445 21.0859 43.7345C21.9241 42.024 23.1428 40.5281 24.6486 39.3615C26.1544 38.1948 27.9072 37.3883 29.7729 37.0038C31.6385 36.6193 33.5674 36.6686 35.4117 37.1448ZM32.2919 35.1917C27.1207 35.1917 22.9323 31.0033 22.9323 25.8322C22.9323 20.6611 27.1207 16.4727 32.2919 16.4727C37.463 16.4727 41.6514 20.6611 41.6514 25.8322C41.6514 31.0033 37.463 35.1917 32.2919 35.1917ZM32.2919 32.0719C35.7393 32.0719 38.5316 29.2796 38.5316 25.8322C38.5316 22.3848 35.7393 19.5925 32.2919 19.5925C28.8445 19.5925 26.0522 22.3848 26.0522 25.8322C26.0522 29.2796 28.8445 32.0719 32.2919 32.0719Z" fill="#FF4D4F"/>
<path d="M45.9839 38.5008L42.6748 41.8099L39.3657 38.5008L37.1596 40.7069L40.4687 44.016L37.1596 47.3251L39.3657 49.5312L42.6748 46.2221L45.9839 49.5312L48.19 47.3251L44.8809 44.016L48.19 40.7069L45.9839 38.5008Z" fill="#FF4D4F"/>
</svg>
