<svg width="22" height="19" viewBox="0 0 22 19" fill="none" xmlns="http://www.w3.org/2000/svg">
<path d="M12.267 0.499986L21.793 17C21.8807 17.152 21.9269 17.3244 21.9269 17.5C21.927 17.6755 21.8807 17.848 21.793 18C21.7052 18.152 21.579 18.2782 21.427 18.366C21.275 18.4538 21.1025 18.5 20.927 18.5H1.87497C1.69944 18.5 1.527 18.4538 1.37498 18.366C1.22297 18.2782 1.09673 18.152 1.00897 18C0.921203 17.848 0.874999 17.6755 0.875 17.5C0.875001 17.3244 0.921207 17.152 1.00897 17L10.535 0.499986C10.6227 0.347979 10.749 0.221752 10.901 0.133992C11.053 0.046232 11.2254 3.05176e-05 11.401 3.05176e-05C11.5765 3.05176e-05 11.7489 0.046232 11.901 0.133992C12.053 0.221752 12.1792 0.347979 12.267 0.499986ZM3.60697 16.5H19.195L11.401 2.99999L3.60697 16.5ZM10.401 13.5H12.401V15.5H10.401V13.5ZM10.401 6.49999H12.401V11.5H10.401V6.49999Z" fill="#FF4D4F"/>
</svg>
