<svg width="12" height="12" viewBox="0 0 12 12" fill="none" xmlns="http://www.w3.org/2000/svg">
<path d="M11.0092 0.99043C9.6873 -0.331445 7.54824 -0.331445 6.22793 0.99043L4.71387 2.50449L5.51074 3.30137L7.0248 1.7873C7.86543 0.94668 9.28418 0.857617 10.2123 1.7873C11.142 2.71699 11.0529 4.13418 10.2123 4.97481L8.69824 6.48887L9.49668 7.28731L11.0107 5.77324C12.3295 4.45137 12.3295 2.3123 11.0092 0.99043ZM4.97637 10.2123C4.13574 11.0529 2.71699 11.142 1.78887 10.2123C0.85918 9.28262 0.948242 7.86543 1.78887 7.02481L3.30293 5.51074L2.50449 4.71231L0.99043 6.22637C-0.331445 7.54824 -0.331445 9.68731 0.99043 11.0076C2.3123 12.3279 4.45137 12.3295 5.77168 11.0076L7.28574 9.49356L6.48887 8.69668L4.97637 10.2123ZM2.06699 1.27168C2.0435 1.24842 2.01177 1.23537 1.97871 1.23537C1.94565 1.23537 1.91392 1.24842 1.89043 1.27168L1.27168 1.89043C1.24842 1.91392 1.23537 1.94565 1.23537 1.97871C1.23537 2.01177 1.24842 2.0435 1.27168 2.06699L9.93418 10.7295C9.98262 10.7779 10.0623 10.7779 10.1107 10.7295L10.7295 10.1107C10.7779 10.0623 10.7779 9.98262 10.7295 9.93418L2.06699 1.27168Z" fill="black"/>
</svg>
