<svg width="12" height="14" viewBox="0 0 12 14" fill="none" xmlns="http://www.w3.org/2000/svg">
<path d="M5.73439 7.79156V8.99005C5.21538 8.80655 4.65992 8.75027 4.11465 8.82592C3.56939 8.90158 3.05023 9.10697 2.60079 9.42483C2.15135 9.7427 1.78474 10.1638 1.53175 10.6527C1.27876 11.1416 1.14677 11.6841 1.14688 12.2346L1.48209e-07 12.234C-0.000177831 11.5338 0.159944 10.8428 0.468097 10.214C0.77625 9.58521 1.22426 9.03531 1.77778 8.60644C2.33131 8.17756 2.97567 7.8811 3.66149 7.73975C4.34731 7.5984 5.05639 7.6165 5.73439 7.79156ZM4.58751 7.07362C2.68656 7.07362 1.14688 5.53393 1.14688 3.63299C1.14688 1.73204 2.68656 0.192354 4.58751 0.192354C6.48846 0.192354 8.02814 1.73204 8.02814 3.63299C8.02814 5.53393 6.48846 7.07362 4.58751 7.07362ZM4.58751 5.92674C5.85481 5.92674 6.88126 4.90028 6.88126 3.63299C6.88126 2.36569 5.85481 1.33923 4.58751 1.33923C3.32021 1.33923 2.29375 2.36569 2.29375 3.63299C2.29375 4.90028 3.32021 5.92674 4.58751 5.92674Z" fill="black" fill-opacity="0.85"/>
<path d="M9.62074 8.29047L8.4043 9.50692L7.18785 8.29047L6.37689 9.10144L7.59333 10.3179L6.37689 11.5343L7.18785 12.3453L8.4043 11.1289L9.62074 12.3453L10.4317 11.5343L9.21526 10.3179L10.4317 9.10144L9.62074 8.29047Z" fill="black" fill-opacity="0.85"/>
</svg>
