<svg width="71" height="70" viewBox="0 0 71 70" fill="none" xmlns="http://www.w3.org/2000/svg">
<circle cx="35.5" cy="35" r="35" fill="#F1F2F3"/>
<g clip-path="url(#clip0_1915_225028)">
<path d="M51.3967 22.2826H43.4482V19.1032C43.4482 18.26 43.1132 17.4513 42.517 16.855C41.9207 16.2588 41.112 15.9238 40.2688 15.9238H30.7305C29.8873 15.9238 29.0786 16.2588 28.4823 16.855C27.8861 17.4513 27.5511 18.26 27.5511 19.1032V22.2826H19.6025V25.4619H22.782V49.3071C22.782 50.572 23.2844 51.785 24.1788 52.6794C25.0732 53.5737 26.2862 54.0762 27.5511 54.0762H43.4482C44.713 54.0762 45.9261 53.5737 46.8205 52.6794C47.7149 51.785 48.2173 50.572 48.2173 49.3071V25.4619H51.3967V22.2826ZM30.7305 19.1032H40.2688V22.2826H30.7305V19.1032ZM45.0379 49.3071C45.0379 49.7287 44.8704 50.1331 44.5723 50.4312C44.2742 50.7293 43.8698 50.8968 43.4482 50.8968H27.5511C27.1295 50.8968 26.7251 50.7293 26.427 50.4312C26.1289 50.1331 25.9614 49.7287 25.9614 49.3071V25.4619H45.0379V49.3071Z" fill="#FF4D4F" stroke="#FF4D4F" stroke-width="0.397427"/>
<path d="M33.9148 31.8203H30.7354V44.5378H33.9148V31.8203Z" fill="#FF4D4F" stroke="#FF4D4F" stroke-width="0.397427"/>
<path d="M40.2683 31.8203H37.0889V44.5378H40.2683V31.8203Z" fill="#FF4D4F" stroke="#FF4D4F" stroke-width="0.397427"/>
</g>
<defs>
<clipPath id="clip0_1915_225028">
<rect width="46" height="46" fill="white" transform="translate(12.5 12)"/>
</clipPath>
</defs>
</svg>
