<svg width="24" height="24" viewBox="0 0 24 24" fill="none" xmlns="http://www.w3.org/2000/svg">
<path d="M20.5 5.39916H16.5V3.79919C16.5 3.37485 16.3314 2.96789 16.0314 2.66784C15.7313 2.36779 15.3243 2.19922 14.9 2.19922H10.1C9.67565 2.19922 9.26869 2.36779 8.96863 2.66784C8.66857 2.96789 8.5 3.37485 8.5 3.79919V5.39916H4.5V6.99913H6.1V18.9989C6.1 19.6354 6.35286 20.2459 6.80294 20.6959C7.25303 21.146 7.86348 21.3989 8.5 21.3989H16.5C17.1365 21.3989 17.747 21.146 18.1971 20.6959C18.6471 20.2459 18.9 19.6354 18.9 18.9989V6.99913H20.5V5.39916ZM10.1 3.79919H14.9V5.39916H10.1V3.79919ZM17.3 18.9989C17.3 19.2111 17.2157 19.4146 17.0657 19.5646C16.9157 19.7146 16.7122 19.7989 16.5 19.7989H8.5C8.28783 19.7989 8.08434 19.7146 7.93431 19.5646C7.78429 19.4146 7.7 19.2111 7.7 18.9989V6.99913H17.3V18.9989Z" fill="#8C8C8C" stroke="#8C8C8C" stroke-width="0.2"/>
<path d="M11.7016 10.1992H10.1016V16.5991H11.7016V10.1992Z" fill="#8C8C8C" stroke="#8C8C8C" stroke-width="0.2"/>
<path d="M14.9008 10.1992H13.3008V16.5991H14.9008V10.1992Z" fill="#8C8C8C" stroke="#8C8C8C" stroke-width="0.2"/>
</svg>
