<svg width="71" height="70" viewBox="0 0 71 70" fill="none" xmlns="http://www.w3.org/2000/svg">
<circle cx="35.5" cy="35" r="35" fill="#F1F2F3"/>
<path d="M29.2136 20.3531H28.8564C29.0529 20.3531 29.2136 20.1924 29.2136 19.9959V20.3531H42.785V19.9959C42.785 20.1924 42.9457 20.3531 43.1422 20.3531H42.785V23.5674H45.9993V19.9959C45.9993 18.42 44.7181 17.1388 43.1422 17.1388H28.8564C27.2806 17.1388 25.9993 18.42 25.9993 19.9959V23.5674H29.2136V20.3531ZM51.7136 23.5674H20.285C19.4948 23.5674 18.8564 24.2058 18.8564 24.9959V26.4245C18.8564 26.6209 19.0172 26.7817 19.2136 26.7817H21.91L23.0127 50.1299C23.0841 51.6522 24.3431 52.8531 25.8654 52.8531H46.1332C47.66 52.8531 48.9145 51.6567 48.9859 50.1299L50.0886 26.7817H52.785C52.9815 26.7817 53.1422 26.6209 53.1422 26.4245V24.9959C53.1422 24.2058 52.5038 23.5674 51.7136 23.5674ZM45.7895 49.6388H26.2091L25.1288 26.7817H46.8698L45.7895 49.6388Z" fill="#FF4D4F"/>
</svg>
