<svg width="71" height="70" viewBox="0 0 71 70" fill="none" xmlns="http://www.w3.org/2000/svg">
<circle cx="35.5" cy="35" r="35" fill="#F1F2F3"/>
<path d="M30.4996 21.1V18.6H31.0996V10H29.0996V18.6H29.6996V21.5L33.2996 24.6V59.1H34.0996V24.3L30.4996 21.1Z" fill="#2E53EA"/>
<path d="M26.9 22.9V18.6H27.5V10H25.5V18.6H26.1V23.2L29.7 26.4V59.1H30.5V26L26.9 22.9Z" fill="#2E53EA"/>
<path d="M41.9004 10H39.9004V18.6H40.6004V20.1L37.4004 23.3V59.1H38.1004V23.8L41.2004 20.6V18.6H41.9004V10Z" fill="#2E53EA"/>
<path d="M45.5004 10H43.5004V18.6H44.1004V22.5L40.9004 25.6V59.1H41.7004V25.9L44.9004 22.8V18.6H45.5004V10Z" fill="#2E53EA"/>
<path d="M23.0008 24.9001H19.3008V28.6001H23.0008V24.9001Z" fill="#2E53EA"/>
<path d="M20.7 44.6001H17V48.3001H20.7V44.6001Z" fill="#2E53EA"/>
<path d="M51.7996 25.7H48.0996V29.4H51.7996V25.7Z" fill="#2E53EA"/>
<path d="M49.7996 47.9001H46.0996V51.6001H49.7996V47.9001Z" fill="#2E53EA"/>
<path d="M27.0004 39.6001H25.9004V40.7001H27.0004V39.6001Z" fill="#2E53EA"/>
<path d="M24.2992 42H23.1992V43.1H24.2992V42Z" fill="#2E53EA"/>
<path d="M18.5004 30.8H17.4004V31.9H18.5004V30.8Z" fill="#2E53EA"/>
<path d="M45.0004 35.6001H43.9004V36.7001H45.0004V35.6001Z" fill="#2E53EA"/>
<path d="M52.6 31.3H51.5V32.4H52.6V31.3Z" fill="#2E53EA"/>
<path d="M43.7992 47.1001H42.6992V48.2001H43.7992V47.1001Z" fill="#2E53EA"/>
<path d="M25.4996 32.9001H23.0996V35.3001H25.4996V32.9001Z" fill="#2E53EA"/>
<path d="M24.9 49.5H22.5V51.9H24.9V49.5Z" fill="#2E53EA"/>
<path d="M45.9996 28.5H43.5996V30.9H45.9996V28.5Z" fill="#2E53EA"/>
<path d="M51.3004 35.9001H48.9004V38.3001H51.3004V35.9001Z" fill="#2E53EA"/>
<path d="M47.9996 41H45.5996V43.4H47.9996V41Z" fill="#2E53EA"/>
<path d="M54.0992 44.2H51.6992V46.5999H54.0992V44.2Z" fill="#2E53EA"/>
<path d="M21.4996 38H19.0996V40.4H21.4996V38Z" fill="#2E53EA"/>
<path d="M28.3004 43.1001H25.9004V45.5001H28.3004V43.1001Z" fill="#2E53EA"/>
</svg>
