<svg width="15" height="14" viewBox="0 0 15 14" fill="none" xmlns="http://www.w3.org/2000/svg">
<path d="M8.60678 9.73795C8.57993 9.71136 8.54367 9.69645 8.50589 9.69645C8.4681 9.69645 8.43184 9.71136 8.40499 9.73795L6.32999 11.8129C5.36928 12.7737 3.74785 12.8754 2.68714 11.8129C1.62464 10.7504 1.72642 9.13081 2.68714 8.17009L4.76214 6.09509C4.81749 6.03973 4.81749 5.94866 4.76214 5.8933L4.05142 5.18259C4.02457 5.156 3.98832 5.14109 3.95053 5.14109C3.91274 5.14109 3.87649 5.156 3.84964 5.18259L1.77464 7.25759C0.263923 8.7683 0.263923 11.2129 1.77464 12.7219C3.28535 14.2308 5.72999 14.2326 7.23892 12.7219L9.31392 10.6469C9.36928 10.5915 9.36928 10.5004 9.31392 10.4451L8.60678 9.73795ZM13.2246 1.27366C11.7139 -0.237054 9.26928 -0.237054 7.76035 1.27366L5.68357 3.34866C5.65698 3.37551 5.64207 3.41177 5.64207 3.44955C5.64207 3.48734 5.65698 3.5236 5.68357 3.55045L6.39249 4.25938C6.44785 4.31473 6.53892 4.31473 6.59428 4.25938L8.66928 2.18438C9.62999 1.22366 11.2514 1.12188 12.3121 2.18438C13.3746 3.24688 13.2729 4.86652 12.3121 5.82723L10.2371 7.90223C10.2106 7.92908 10.1956 7.96534 10.1956 8.00313C10.1956 8.04091 10.2106 8.07717 10.2371 8.10402L10.9479 8.81473C11.0032 8.87009 11.0943 8.87009 11.1496 8.81473L13.2246 6.73973C14.7336 5.22902 14.7336 2.78438 13.2246 1.27366ZM9.25142 4.50402C9.22457 4.47743 9.18832 4.46252 9.15053 4.46252C9.11275 4.46252 9.07649 4.47743 9.04964 4.50402L5.00499 8.54688C4.97841 8.57373 4.96349 8.60998 4.96349 8.64777C4.96349 8.68555 4.97841 8.72181 5.00499 8.74866L5.71214 9.4558C5.76749 9.51116 5.85857 9.51116 5.91392 9.4558L9.95678 5.41295C10.0121 5.35759 10.0121 5.26652 9.95678 5.21116L9.25142 4.50402Z" fill="black" fill-opacity="0.45"/>
</svg>
