<svg width="15" height="14" viewBox="0 0 15 14" fill="none" xmlns="http://www.w3.org/2000/svg">
<path d="M14.6434 1.28683H4.21484C4.13627 1.28683 4.07199 1.35112 4.07199 1.42969V2.42969C4.07199 2.50826 4.13627 2.57254 4.21484 2.57254H14.6434C14.722 2.57254 14.7863 2.50826 14.7863 2.42969V1.42969C14.7863 1.35112 14.722 1.28683 14.6434 1.28683ZM14.6434 6.35826H4.21484C4.13627 6.35826 4.07199 6.42255 4.07199 6.50112V7.50112C4.07199 7.57969 4.13627 7.64397 4.21484 7.64397H14.6434C14.722 7.64397 14.7863 7.57969 14.7863 7.50112V6.50112C14.7863 6.42255 14.722 6.35826 14.6434 6.35826ZM14.6434 11.4297H4.21484C4.13627 11.4297 4.07199 11.494 4.07199 11.5725V12.5725C4.07199 12.6511 4.13627 12.7154 4.21484 12.7154H14.6434C14.722 12.7154 14.7863 12.6511 14.7863 12.5725V11.5725C14.7863 11.494 14.722 11.4297 14.6434 11.4297ZM0.214844 1.92969C0.214844 2.06101 0.24071 2.19105 0.290964 2.31237C0.341219 2.4337 0.414878 2.54394 0.507737 2.63679C0.600596 2.72965 0.710835 2.80331 0.83216 2.85357C0.953486 2.90382 1.08352 2.92969 1.21484 2.92969C1.34617 2.92969 1.4762 2.90382 1.59753 2.85357C1.71885 2.80331 1.82909 2.72965 1.92195 2.63679C2.01481 2.54394 2.08847 2.4337 2.13872 2.31237C2.18898 2.19105 2.21484 2.06101 2.21484 1.92969C2.21484 1.79837 2.18898 1.66833 2.13872 1.547C2.08847 1.42568 2.01481 1.31544 1.92195 1.22258C1.82909 1.12972 1.71885 1.05606 1.59753 1.00581C1.4762 0.955553 1.34617 0.929688 1.21484 0.929688C1.08352 0.929688 0.953486 0.955553 0.83216 1.00581C0.710835 1.05606 0.600596 1.12972 0.507737 1.22258C0.414878 1.31544 0.341219 1.42568 0.290964 1.547C0.24071 1.66833 0.214844 1.79837 0.214844 1.92969ZM0.214844 7.00112C0.214844 7.13244 0.24071 7.26248 0.290964 7.3838C0.341219 7.50513 0.414878 7.61537 0.507737 7.70822C0.600596 7.80108 0.710835 7.87474 0.83216 7.925C0.953486 7.97525 1.08352 8.00112 1.21484 8.00112C1.34617 8.00112 1.4762 7.97525 1.59753 7.925C1.71885 7.87474 1.82909 7.80108 1.92195 7.70822C2.01481 7.61537 2.08847 7.50513 2.13872 7.3838C2.18898 7.26248 2.21484 7.13244 2.21484 7.00112C2.21484 6.86979 2.18898 6.73976 2.13872 6.61843C2.08847 6.49711 2.01481 6.38687 1.92195 6.29401C1.82909 6.20115 1.71885 6.12749 1.59753 6.07724C1.4762 6.02698 1.34617 6.00112 1.21484 6.00112C1.08352 6.00112 0.953486 6.02698 0.83216 6.07724C0.710835 6.12749 0.600596 6.20115 0.507737 6.29401C0.414878 6.38687 0.341219 6.49711 0.290964 6.61843C0.24071 6.73976 0.214844 6.86979 0.214844 7.00112ZM0.214844 12.0725C0.214844 12.2039 0.24071 12.3339 0.290964 12.4552C0.341219 12.5766 0.414878 12.6868 0.507737 12.7797C0.600596 12.8725 0.710835 12.9462 0.83216 12.9964C0.953486 13.0467 1.08352 13.0725 1.21484 13.0725C1.34617 13.0725 1.4762 13.0467 1.59753 12.9964C1.71885 12.9462 1.82909 12.8725 1.92195 12.7797C2.01481 12.6868 2.08847 12.5766 2.13872 12.4552C2.18898 12.3339 2.21484 12.2039 2.21484 12.0725C2.21484 11.9412 2.18898 11.8112 2.13872 11.6899C2.08847 11.5685 2.01481 11.4583 1.92195 11.3654C1.82909 11.2726 1.71885 11.1989 1.59753 11.1487C1.4762 11.0984 1.34617 11.0725 1.21484 11.0725C1.08352 11.0725 0.953486 11.0984 0.83216 11.1487C0.710835 11.1989 0.600596 11.2726 0.507737 11.3654C0.414878 11.4583 0.341219 11.5685 0.290964 11.6899C0.24071 11.8112 0.214844 11.9412 0.214844 12.0725Z" fill="black" fill-opacity="0.45"/>
</svg>
