<svg width="14" height="14" viewBox="0 0 14 14" fill="none" xmlns="http://www.w3.org/2000/svg">
<g id="icon-wrapper">
<path id="Union" d="M6.59383 7.24819C6.59383 7.42223 6.66297 7.58915 6.78604 7.71222C6.90911 7.8353 7.07603 7.90444 7.25008 7.90444C7.42413 7.90444 7.59105 7.8353 7.71412 7.71222C7.83719 7.58915 7.90633 7.42223 7.90633 7.24819C7.90633 7.07414 7.83719 6.90722 7.71412 6.78415C7.59105 6.66108 7.42413 6.59194 7.25008 6.59194C7.07603 6.59194 6.90911 6.66108 6.78604 6.78415C6.66297 6.90722 6.59383 7.07414 6.59383 7.24819ZM9.3282 7.24819C9.3282 7.42223 9.39734 7.58915 9.52041 7.71222C9.64349 7.8353 9.8104 7.90444 9.98445 7.90444C10.1585 7.90444 10.3254 7.8353 10.4485 7.71222C10.5716 7.58915 10.6407 7.42223 10.6407 7.24819C10.6407 7.07414 10.5716 6.90722 10.4485 6.78415C10.3254 6.66108 10.1585 6.59194 9.98445 6.59194C9.8104 6.59194 9.64349 6.66108 9.52041 6.78415C9.39734 6.90722 9.3282 7.07414 9.3282 7.24819ZM3.85945 7.24819C3.85945 7.42223 3.92859 7.58915 4.05166 7.71222C4.17473 7.8353 4.34165 7.90444 4.5157 7.90444C4.68975 7.90444 4.85667 7.8353 4.97974 7.71222C5.10281 7.58915 5.17195 7.42223 5.17195 7.24819C5.17195 7.07414 5.10281 6.90722 4.97974 6.78415C4.85667 6.66108 4.68975 6.59194 4.5157 6.59194C4.34165 6.59194 4.17473 6.66108 4.05166 6.78415C3.92859 6.90722 3.85945 7.07414 3.85945 7.24819ZM12.8993 4.87475C12.5903 4.14057 12.1473 3.48158 11.5827 2.91557C11.022 2.35283 10.3564 1.90552 9.62352 1.59897C8.87156 1.28315 8.07312 1.12319 7.25008 1.12319H7.22273C6.39422 1.12729 5.59168 1.29135 4.83699 1.61401C4.11041 1.9237 3.45102 2.37181 2.89559 2.93334C2.33641 3.49799 1.89754 4.15424 1.59402 4.88569C1.27957 5.64311 1.12098 6.44838 1.12508 7.2769C1.12972 8.22637 1.35434 9.16185 1.78133 10.0099V12.088C1.78133 12.2548 1.84759 12.4148 1.96553 12.5327C2.08347 12.6507 2.24344 12.7169 2.41023 12.7169H4.48973C5.33778 13.1439 6.27326 13.3685 7.22273 13.3732H7.25144C8.07039 13.3732 8.86473 13.2146 9.61258 12.9042C10.3417 12.6013 11.0049 12.1592 11.5649 11.6027C12.1296 11.0435 12.5739 10.39 12.8843 9.66127C13.2069 8.90658 13.371 8.10405 13.3751 7.27553C13.3792 6.44291 13.2179 5.6349 12.8993 4.87475ZM10.8335 10.863C9.87508 11.8119 8.60359 12.3341 7.25008 12.3341H7.22684C6.40242 12.33 5.58348 12.1249 4.86023 11.7394L4.74539 11.6779H2.82039V9.75287L2.75887 9.63803C2.37332 8.91479 2.16824 8.09584 2.16414 7.27143C2.15867 5.90834 2.67957 4.62865 3.63523 3.66479C4.58953 2.70092 5.86512 2.16772 7.2282 2.16225H7.25144C7.93504 2.16225 8.59812 2.29487 9.22293 2.55737C9.8327 2.81303 10.3796 3.1808 10.8499 3.65112C11.3188 4.12006 11.688 4.6683 11.9436 5.27807C12.2089 5.90971 12.3415 6.57963 12.3387 7.27143C12.3305 8.63315 11.796 9.90873 10.8335 10.863Z" fill="white"/>
</g>
</svg>
