<svg width="17" height="13" viewBox="0 0 17 13" fill="none" xmlns="http://www.w3.org/2000/svg">
<path fill-rule="evenodd" clip-rule="evenodd" d="M8.71085 0.144334C8.61844 0.0519186 8.49309 0 8.3624 0C8.2317 0 8.10636 0.0519186 8.01395 0.144334C7.92153 0.23675 7.86961 0.362093 7.86961 0.492788V8.17376L6.10238 6.40653C6.00997 6.31415 5.88465 6.26225 5.75398 6.26225C5.62331 6.26225 5.49799 6.31415 5.40558 6.40653C5.3132 6.49894 5.2613 6.62426 5.2613 6.75493C5.2613 6.8856 5.3132 7.01092 5.40558 7.10334L8.01342 9.71216C8.05919 9.75805 8.11357 9.79446 8.17344 9.8193C8.23331 9.84415 8.29749 9.85693 8.36231 9.85693C8.42713 9.85693 8.49131 9.84415 8.55118 9.8193C8.61105 9.79446 8.66543 9.75805 8.71121 9.71216L11.319 7.10334C11.3661 7.05788 11.4037 7.0035 11.4295 6.94338C11.4553 6.88326 11.4689 6.81859 11.4695 6.75316C11.47 6.68773 11.4576 6.62284 11.4328 6.56228C11.408 6.50172 11.3714 6.44669 11.3252 6.40042C11.2789 6.35416 11.2239 6.31756 11.1633 6.29279C11.1027 6.26801 11.0378 6.25554 10.9724 6.25611C10.907 6.25668 10.8423 6.27027 10.7822 6.2961C10.7221 6.32193 10.6677 6.35947 10.6222 6.40653L8.85519 8.17359V0.492788C8.85519 0.362093 8.80327 0.23675 8.71085 0.144334ZM0.970572 6.89904C1.10127 6.89904 1.22661 6.95096 1.31903 7.04337C1.41144 7.13579 1.46336 7.26113 1.46336 7.39183V10.8413C1.46336 11.1027 1.5672 11.3534 1.75203 11.5383C1.93686 11.7231 2.18755 11.8269 2.44894 11.8269H14.2759C14.5373 11.8269 14.7879 11.7231 14.9728 11.5383C15.1576 11.3534 15.2614 11.1027 15.2614 10.8413V7.39183C15.2614 7.26113 15.3134 7.13579 15.4058 7.04337C15.4982 6.95096 15.6235 6.89904 15.7542 6.89904C15.8849 6.89904 16.0103 6.95096 16.1027 7.04337C16.1951 7.13579 16.247 7.26113 16.247 7.39183V10.8413C16.247 11.3641 16.0393 11.8655 15.6697 12.2352C15.3 12.6048 14.7986 12.8125 14.2759 12.8125H2.44894C1.92615 12.8125 1.42478 12.6048 1.05512 12.2352C0.685458 11.8655 0.477783 11.3641 0.477783 10.8413V7.39183C0.477783 7.26113 0.529702 7.13579 0.622118 7.04337C0.714533 6.95096 0.839876 6.89904 0.970572 6.89904Z" fill="black" fill-opacity="0.45"/>
</svg>
