<svg width="14" height="14" viewBox="0 0 14 14" fill="none" xmlns="http://www.w3.org/2000/svg">
<path fill-rule="evenodd" clip-rule="evenodd" d="M2.21875 11.6779H12.2812C12.5232 11.6779 12.7188 11.8734 12.7188 12.1154V12.6076C12.7188 12.6677 12.6695 12.7169 12.6094 12.7169H1.89062C1.83047 12.7169 1.78125 12.6677 1.78125 12.6076V12.1154C1.78125 11.8734 1.97676 11.6779 2.21875 11.6779ZM3.85527 10.5226C3.82793 10.5267 3.80059 10.5294 3.77324 10.5294C3.65156 10.5294 3.53809 10.4816 3.44785 10.3941C3.39493 10.3417 3.35557 10.2773 3.33318 10.2063C3.31079 10.1353 3.30604 10.0599 3.31934 9.98666L3.72266 7.68705C3.72812 7.65971 3.74043 7.6351 3.76094 7.61459L9.55645 1.81908C9.58242 1.79311 9.6166 1.77944 9.65352 1.77944C9.69043 1.77944 9.72461 1.79311 9.75059 1.81908L12.0229 4.09272C12.0355 4.10537 12.0456 4.12039 12.0524 4.13693C12.0593 4.15347 12.0628 4.1712 12.0628 4.1891C12.0628 4.20701 12.0593 4.22474 12.0524 4.24128C12.0456 4.25782 12.0355 4.27284 12.0229 4.28549L6.22734 10.081C6.2082 10.1015 6.18223 10.1138 6.15488 10.1193L3.85527 10.5226Z" fill="#2F54EB"/>
</svg>
