<svg width="405" height="85" viewBox="0 0 405 85" fill="none" xmlns="http://www.w3.org/2000/svg">
<path d="M403.474 23.491C399.327 22.8427 395.94 21.7206 392.64 20.636C391.063 20.1123 389.428 19.5762 387.764 19.1025C384.785 18.2671 382.186 18.0053 379.12 18.2297C375.558 18.4916 372.024 18.7783 368.462 19.0775C363.994 19.4391 359.527 19.8006 355.03 20.1248C342.853 20.9975 333.333 20.1497 325.07 17.4567C321.887 16.4219 318.587 15.7238 315.258 15.3497C303.695 14.0905 291.343 12.8936 278.465 13.1929C274.523 13.2926 270.786 12.9186 267.165 12.5695C265.033 12.3575 262.989 12.1581 260.916 12.0459C259.047 11.9461 257.236 11.7342 255.484 11.5347C252.214 11.1482 249.119 10.7991 245.877 11.1357C241.205 11.6344 236.475 12.0459 231.627 12.4573C227.335 12.8188 224.911 13.517 223.451 14.7887C222.283 15.811 221.027 16.8209 219.772 17.8308C218.925 18.504 218.078 19.1773 217.29 19.863C216.385 20.611 215.538 21.3591 214.662 22.1071C213.143 23.4287 211.566 24.7876 209.873 26.0967C208.909 26.8448 207.128 28.2536 203.127 28.2536H203.098C199.828 28.2536 198.514 27.2188 197.55 26.4707C197.404 26.3461 197.229 26.2214 197.083 26.0967C195.506 24.9497 193.842 23.8152 192.177 22.6806C191.184 21.9949 190.192 21.3217 189.199 20.636C187.125 19.2022 184.468 18.3918 181.694 18.3544C178.803 18.3295 176.088 19.0775 173.81 20.4863C172.817 21.0973 171.883 21.7082 170.919 22.3191C168.963 23.5783 166.919 24.8749 164.728 26.0967C163.152 26.9819 161.662 27.3809 159.998 27.3684C157.808 27.331 156.319 26.4707 155.384 25.8349C154.917 25.5107 154.479 25.1741 154.07 24.8375L149.778 21.3341C146.828 18.9154 143.879 16.5092 140.871 14.103C139.47 12.9685 137.513 12.4448 134.535 12.4199C131.586 12.3825 128.812 12.7316 125.862 13.0931C123.877 13.3425 121.833 13.5918 119.73 13.7165C114.912 14.0033 112.138 15.2999 109.043 16.9456C105.276 18.9653 101.626 21.0848 98.1216 23.1295L94.8803 25.012C92.7487 26.2463 86.6457 26.8198 81.6232 26.932C79.2288 26.9819 71.2277 27.0692 68.1909 25.6728C68.0157 25.5856 67.8405 25.4983 67.6653 25.411L67.3148 25.2365L63.6648 23.491C60.7739 22.1071 57.9122 20.7232 54.9629 19.3643C52.4225 18.1799 49.9404 17.5939 47.8088 17.6313C45.6771 17.6562 43.4871 18.2547 41.2386 19.4266C37.5009 21.3715 33.9092 23.4536 30.4635 25.4609C29.2371 26.184 27.9815 26.8946 26.755 27.6178L26.3462 27.8546C25.587 28.3284 24.5358 28.9892 22.4041 28.9892C20.3601 28.9892 18.3744 29.1887 16.2428 29.3881C13.5563 29.65 10.8114 29.9242 7.83297 29.7871C5.2049 29.6749 3.27766 29.6624 2.25563 30.4229L1 30.1112L1.00071 84H404L403.999 22.905L403.503 23.491H403.474Z" fill="url(#paint0_linear_1_6192)"/>
<path d="M1 31C2.51844 29.8375 5.46772 29.9386 7.97899 30.0397C12.9723 30.2545 17.5276 29.231 22.4042 29.2183C24.0394 29.2183 24.711 28.5865 25.5871 28.0811C30.376 25.3012 35.0189 22.4581 40.1291 19.7666C45.2976 17.0373 50.4661 17.0626 56.0727 19.6782C60.2484 21.6368 64.3365 23.6459 68.4538 25.6424C68.7458 25.7814 69.0086 25.933 69.3006 26.072C73.0967 27.8284 90.4712 27.3735 93.7417 25.4528C98.443 22.7108 103.028 19.9309 107.933 17.2647C110.941 15.6347 114.007 14.0931 119.555 13.7519C124.578 13.4487 129.279 12.362 134.594 12.4252C138.244 12.4631 140.58 13.1707 142.157 14.4722C146.508 18.0355 150.8 21.6115 155.151 25.1748C155.618 25.5539 156.056 25.9456 156.611 26.3121C158.918 27.8916 160.962 28.0179 163.561 26.5395C166.773 24.7199 169.605 22.7614 172.613 20.8786C177.898 17.568 185.637 17.6438 190.455 21.0555C193.083 22.913 195.828 24.7326 198.368 26.6027C199.536 27.4619 200.295 28.4728 203.128 28.4728C206.019 28.4728 207.479 27.5251 208.618 26.6153C211.246 24.543 213.523 22.4076 216.005 20.31C218.02 18.5915 220.21 16.9236 222.167 15.1924C224.065 13.4992 227.394 12.8295 231.365 12.4883C236.125 12.084 240.855 11.667 245.557 11.1616C251.046 10.5677 255.952 11.7807 261.121 12.0714C266.902 12.3873 272.421 13.3729 278.407 13.2339C291.139 12.9306 303.433 14.0931 315.638 15.4325C319.464 15.8495 322.968 16.6708 325.976 17.6691C334.736 20.5501 344.138 21.0302 354.826 20.2468C362.885 19.6656 370.857 18.9453 378.917 18.3261C382.625 18.0482 385.545 18.4272 388.611 19.2991C393.75 20.7649 398.072 22.7487 404 23.6838" stroke="#C0C0C0" stroke-miterlimit="10"/>
<line x1="1.315" y1="1.08594" x2="403.404" y2="1.08594" stroke="black" stroke-opacity="0.15" stroke-dasharray="3 3"/>
<line x1="1.315" y1="41.417" x2="403.404" y2="41.417" stroke="black" stroke-opacity="0.15" stroke-dasharray="3 3"/>
<line x1="1.91138" y1="83.9316" x2="404" y2="83.9316" stroke="black" stroke-opacity="0.05" stroke-dasharray="3 3"/>
<path d="M110.251 62.8763V73.0581H109.058L103.51 65.0638H103.41V73.0581H102.177V62.8763H103.37L108.939 70.8905H109.038V62.8763H110.251ZM115.661 73.2172C114.972 73.2172 114.367 73.0531 113.847 72.725C113.33 72.3969 112.925 71.9378 112.634 71.3479C112.345 70.7579 112.201 70.0685 112.201 69.2797C112.201 68.4842 112.345 67.7899 112.634 67.1966C112.925 66.6033 113.33 66.1426 113.847 65.8145C114.367 65.4864 114.972 65.3223 115.661 65.3223C116.351 65.3223 116.954 65.4864 117.471 65.8145C117.992 66.1426 118.396 66.6033 118.684 67.1966C118.976 67.7899 119.122 68.4842 119.122 69.2797C119.122 70.0685 118.976 70.7579 118.684 71.3479C118.396 71.9378 117.992 72.3969 117.471 72.725C116.954 73.0531 116.351 73.2172 115.661 73.2172ZM115.661 72.1632C116.185 72.1632 116.616 72.029 116.954 71.7605C117.292 71.4921 117.542 71.1391 117.705 70.7016C117.867 70.2641 117.948 69.7901 117.948 69.2797C117.948 68.7693 117.867 68.2937 117.705 67.8528C117.542 67.412 117.292 67.0557 116.954 66.784C116.616 66.5122 116.185 66.3763 115.661 66.3763C115.138 66.3763 114.707 66.5122 114.369 66.784C114.031 67.0557 113.781 67.412 113.618 67.8528C113.456 68.2937 113.375 68.7693 113.375 69.2797C113.375 69.7901 113.456 70.2641 113.618 70.7016C113.781 71.1391 114.031 71.4921 114.369 71.7605C114.707 72.029 115.138 72.1632 115.661 72.1632ZM127.734 73.2172C127.097 73.2172 126.536 73.0564 126.048 72.735C125.561 72.4101 125.18 71.9528 124.905 71.3628C124.63 70.7695 124.492 70.0685 124.492 69.2598C124.492 68.4577 124.63 67.7617 124.905 67.1717C125.18 66.5818 125.563 66.1261 126.053 65.8046C126.544 65.4831 127.111 65.3223 127.754 65.3223C128.251 65.3223 128.644 65.4052 128.932 65.5709C129.224 65.7333 129.446 65.9189 129.598 66.1277C129.754 66.3332 129.875 66.5022 129.961 66.6348H130.06V62.8763H131.234V73.0581H130.1V71.8848H129.961C129.875 72.024 129.752 72.1997 129.593 72.4118C129.434 72.6206 129.207 72.8079 128.912 72.9736C128.617 73.136 128.224 73.2172 127.734 73.2172ZM127.893 72.1632C128.363 72.1632 128.761 72.0406 129.086 71.7953C129.411 71.5467 129.658 71.2037 129.827 70.7662C129.996 70.3254 130.08 69.8166 130.08 69.2399C130.08 68.6698 129.997 68.171 129.832 67.7435C129.666 67.3126 129.421 66.9778 129.096 66.7392C128.771 66.4973 128.37 66.3763 127.893 66.3763C127.396 66.3763 126.981 66.5039 126.65 66.7591C126.322 67.011 126.075 67.354 125.909 67.7882C125.747 68.2191 125.666 68.703 125.666 69.2399C125.666 69.7835 125.748 70.2773 125.914 70.7215C126.083 71.1623 126.332 71.5136 126.66 71.7754C126.991 72.034 127.402 72.1632 127.893 72.1632ZM135.793 73.2371C135.309 73.2371 134.87 73.1459 134.475 72.9636C134.081 72.778 133.768 72.5112 133.536 72.1632C133.304 71.8119 133.188 71.3877 133.188 70.8905C133.188 70.453 133.274 70.0984 133.446 69.8266C133.618 69.5515 133.849 69.336 134.137 69.1803C134.426 69.0245 134.744 68.9085 135.092 68.8323C135.443 68.7527 135.796 68.6897 136.151 68.6433C136.615 68.5837 136.991 68.5389 137.279 68.5091C137.571 68.476 137.783 68.4213 137.916 68.345C138.051 68.2688 138.119 68.1362 138.119 67.9473V67.9075C138.119 67.417 137.985 67.0359 137.717 66.7641C137.452 66.4923 137.049 66.3564 136.509 66.3564C135.948 66.3564 135.509 66.479 135.191 66.7243C134.873 66.9696 134.649 67.2314 134.52 67.5098L133.406 67.1121C133.605 66.6481 133.87 66.2868 134.202 66.0283C134.537 65.7664 134.901 65.5841 135.296 65.4814C135.693 65.3753 136.084 65.3223 136.469 65.3223C136.714 65.3223 136.996 65.3521 137.314 65.4118C137.636 65.4681 137.945 65.5858 138.244 65.7648C138.545 65.9438 138.796 66.2139 138.994 66.5752C139.193 66.9364 139.293 67.4203 139.293 68.0269V73.0581H138.119V72.024H138.06C137.98 72.1897 137.848 72.3671 137.662 72.556C137.476 72.7449 137.229 72.9056 136.921 73.0382C136.613 73.1708 136.237 73.2371 135.793 73.2371ZM135.972 72.1831C136.436 72.1831 136.827 72.092 137.145 71.9097C137.466 71.7274 137.708 71.4921 137.871 71.2037C138.037 70.9153 138.119 70.6121 138.119 70.2939V69.22C138.07 69.2797 137.96 69.3344 137.791 69.3841C137.626 69.4305 137.433 69.4719 137.215 69.5084C136.999 69.5415 136.789 69.5714 136.583 69.5979C136.381 69.6211 136.217 69.641 136.091 69.6575C135.786 69.6973 135.501 69.7619 135.236 69.8514C134.974 69.9376 134.762 70.0685 134.6 70.2442C134.44 70.4165 134.361 70.6519 134.361 70.9502C134.361 71.3578 134.512 71.6661 134.813 71.8749C135.118 72.0804 135.504 72.1831 135.972 72.1831ZM144.755 65.4217V66.4161H140.798V65.4217H144.755ZM141.951 63.5922H143.125V70.8706C143.125 71.202 143.173 71.4506 143.269 71.6163C143.368 71.7787 143.494 71.8881 143.647 71.9445C143.802 71.9975 143.966 72.024 144.139 72.024C144.268 72.024 144.374 72.0174 144.457 72.0041C144.54 71.9876 144.606 71.9743 144.656 71.9644L144.894 73.0183C144.815 73.0482 144.704 73.078 144.561 73.1078C144.419 73.141 144.238 73.1575 144.019 73.1575C143.688 73.1575 143.363 73.0863 143.045 72.9438C142.73 72.8012 142.468 72.5841 142.259 72.2925C142.054 72.0008 141.951 71.6329 141.951 71.1888V63.5922ZM148.767 73.2371C148.283 73.2371 147.844 73.1459 147.45 72.9636C147.055 72.778 146.742 72.5112 146.51 72.1632C146.278 71.8119 146.162 71.3877 146.162 70.8905C146.162 70.453 146.248 70.0984 146.421 69.8266C146.593 69.5515 146.823 69.336 147.112 69.1803C147.4 69.0245 147.718 68.9085 148.066 68.8323C148.418 68.7527 148.771 68.6897 149.125 68.6433C149.589 68.5837 149.965 68.5389 150.254 68.5091C150.545 68.476 150.758 68.4213 150.89 68.345C151.026 68.2688 151.094 68.1362 151.094 67.9473V67.9075C151.094 67.417 150.96 67.0359 150.691 66.7641C150.426 66.4923 150.023 66.3564 149.483 66.3564C148.923 66.3564 148.484 66.479 148.166 66.7243C147.848 66.9696 147.624 67.2314 147.495 67.5098L146.381 67.1121C146.58 66.6481 146.845 66.2868 147.176 66.0283C147.511 65.7664 147.876 65.5841 148.27 65.4814C148.668 65.3753 149.059 65.3223 149.443 65.3223C149.689 65.3223 149.97 65.3521 150.289 65.4118C150.61 65.4681 150.92 65.5858 151.218 65.7648C151.52 65.9438 151.77 66.2139 151.969 66.5752C152.168 66.9364 152.267 67.4203 152.267 68.0269V73.0581H151.094V72.024H151.034C150.955 72.1897 150.822 72.3671 150.637 72.556C150.451 72.7449 150.204 72.9056 149.896 73.0382C149.588 73.1708 149.211 73.2371 148.767 73.2371ZM148.946 72.1831C149.41 72.1831 149.801 72.092 150.12 71.9097C150.441 71.7274 150.683 71.4921 150.845 71.2037C151.011 70.9153 151.094 70.6121 151.094 70.2939V69.22C151.044 69.2797 150.935 69.3344 150.766 69.3841C150.6 69.4305 150.408 69.4719 150.189 69.5084C149.974 69.5415 149.763 69.5714 149.558 69.5979C149.356 69.6211 149.192 69.641 149.066 69.6575C148.761 69.6973 148.476 69.7619 148.21 69.8514C147.949 69.9376 147.737 70.0685 147.574 70.2442C147.415 70.4165 147.335 70.6519 147.335 70.9502C147.335 71.3578 147.486 71.6661 147.788 71.8749C148.093 72.0804 148.479 72.1831 148.946 72.1831ZM160.593 73.2371C160.11 73.2371 159.67 73.1459 159.276 72.9636C158.882 72.778 158.568 72.5112 158.336 72.1632C158.104 71.8119 157.988 71.3877 157.988 70.8905C157.988 70.453 158.075 70.0984 158.247 69.8266C158.419 69.5515 158.65 69.336 158.938 69.1803C159.226 69.0245 159.544 68.9085 159.892 68.8323C160.244 68.7527 160.597 68.6897 160.951 68.6433C161.415 68.5837 161.792 68.5389 162.08 68.5091C162.372 68.476 162.584 68.4213 162.716 68.345C162.852 68.2688 162.92 68.1362 162.92 67.9473V67.9075C162.92 67.417 162.786 67.0359 162.517 66.7641C162.252 66.4923 161.85 66.3564 161.309 66.3564C160.749 66.3564 160.31 66.479 159.992 66.7243C159.674 66.9696 159.45 67.2314 159.321 67.5098L158.207 67.1121C158.406 66.6481 158.671 66.2868 159.003 66.0283C159.337 65.7664 159.702 65.5841 160.096 65.4814C160.494 65.3753 160.885 65.3223 161.27 65.3223C161.515 65.3223 161.797 65.3521 162.115 65.4118C162.436 65.4681 162.746 65.5858 163.044 65.7648C163.346 65.9438 163.596 66.2139 163.795 66.5752C163.994 66.9364 164.093 67.4203 164.093 68.0269V73.0581H162.92V72.024H162.861C162.781 72.1897 162.648 72.3671 162.463 72.556C162.277 72.7449 162.03 72.9056 161.722 73.0382C161.414 73.1708 161.038 73.2371 160.593 73.2371ZM160.772 72.1831C161.236 72.1831 161.628 72.092 161.946 71.9097C162.267 71.7274 162.509 71.4921 162.672 71.2037C162.837 70.9153 162.92 70.6121 162.92 70.2939V69.22C162.87 69.2797 162.761 69.3344 162.592 69.3841C162.426 69.4305 162.234 69.4719 162.015 69.5084C161.8 69.5415 161.589 69.5714 161.384 69.5979C161.182 69.6211 161.018 69.641 160.892 69.6575C160.587 69.6973 160.302 69.7619 160.037 69.8514C159.775 69.9376 159.563 70.0685 159.4 70.2442C159.241 70.4165 159.162 70.6519 159.162 70.9502C159.162 71.3578 159.312 71.6661 159.614 71.8749C159.919 72.0804 160.305 72.1831 160.772 72.1831ZM172.206 65.4217L169.382 73.0581H168.189L165.365 65.4217H166.638L168.746 71.507H168.825L170.933 65.4217H172.206ZM175.769 73.2371C175.285 73.2371 174.846 73.1459 174.452 72.9636C174.057 72.778 173.744 72.5112 173.512 72.1632C173.28 71.8119 173.164 71.3877 173.164 70.8905C173.164 70.453 173.25 70.0984 173.423 69.8266C173.595 69.5515 173.825 69.336 174.114 69.1803C174.402 69.0245 174.72 68.9085 175.068 68.8323C175.42 68.7527 175.773 68.6897 176.127 68.6433C176.591 68.5837 176.967 68.5389 177.256 68.5091C177.547 68.476 177.76 68.4213 177.892 68.345C178.028 68.2688 178.096 68.1362 178.096 67.9473V67.9075C178.096 67.417 177.962 67.0359 177.693 66.7641C177.428 66.4923 177.025 66.3564 176.485 66.3564C175.925 66.3564 175.486 66.479 175.168 66.7243C174.85 66.9696 174.626 67.2314 174.497 67.5098L173.383 67.1121C173.582 66.6481 173.847 66.2868 174.178 66.0283C174.513 65.7664 174.878 65.5841 175.272 65.4814C175.67 65.3753 176.061 65.3223 176.445 65.3223C176.691 65.3223 176.972 65.3521 177.291 65.4118C177.612 65.4681 177.922 65.5858 178.22 65.7648C178.522 65.9438 178.772 66.2139 178.971 66.5752C179.17 66.9364 179.269 67.4203 179.269 68.0269V73.0581H178.096V72.024H178.036C177.957 72.1897 177.824 72.3671 177.639 72.556C177.453 72.7449 177.206 72.9056 176.898 73.0382C176.59 73.1708 176.213 73.2371 175.769 73.2371ZM175.948 72.1831C176.412 72.1831 176.803 72.092 177.122 71.9097C177.443 71.7274 177.685 71.4921 177.847 71.2037C178.013 70.9153 178.096 70.6121 178.096 70.2939V69.22C178.046 69.2797 177.937 69.3344 177.768 69.3841C177.602 69.4305 177.41 69.4719 177.191 69.5084C176.976 69.5415 176.765 69.5714 176.56 69.5979C176.358 69.6211 176.194 69.641 176.068 69.6575C175.763 69.6973 175.478 69.7619 175.212 69.8514C174.951 69.9376 174.738 70.0685 174.576 70.2442C174.417 70.4165 174.337 70.6519 174.337 70.9502C174.337 71.3578 174.488 71.6661 174.79 71.8749C175.095 72.0804 175.481 72.1831 175.948 72.1831ZM181.411 73.0581V65.4217H182.584V73.0581H181.411ZM182.007 64.149C181.779 64.149 181.581 64.0711 181.416 63.9153C181.253 63.7596 181.172 63.5723 181.172 63.3536C181.172 63.1348 181.253 62.9475 181.416 62.7918C181.581 62.636 181.779 62.5581 182.007 62.5581C182.236 62.5581 182.432 62.636 182.594 62.7918C182.76 62.9475 182.843 63.1348 182.843 63.3536C182.843 63.5723 182.76 63.7596 182.594 63.9153C182.432 64.0711 182.236 64.149 182.007 64.149ZM185.906 62.8763V73.0581H184.733V62.8763H185.906ZM190.302 73.2371C189.819 73.2371 189.379 73.1459 188.985 72.9636C188.591 72.778 188.277 72.5112 188.045 72.1632C187.813 71.8119 187.697 71.3877 187.697 70.8905C187.697 70.453 187.784 70.0984 187.956 69.8266C188.128 69.5515 188.359 69.336 188.647 69.1803C188.935 69.0245 189.253 68.9085 189.601 68.8323C189.953 68.7527 190.306 68.6897 190.66 68.6433C191.124 68.5837 191.501 68.5389 191.789 68.5091C192.081 68.476 192.293 68.4213 192.425 68.345C192.561 68.2688 192.629 68.1362 192.629 67.9473V67.9075C192.629 67.417 192.495 67.0359 192.226 66.7641C191.961 66.4923 191.559 66.3564 191.018 66.3564C190.458 66.3564 190.019 66.479 189.701 66.7243C189.383 66.9696 189.159 67.2314 189.03 67.5098L187.916 67.1121C188.115 66.6481 188.38 66.2868 188.712 66.0283C189.046 65.7664 189.411 65.5841 189.805 65.4814C190.203 65.3753 190.594 65.3223 190.979 65.3223C191.224 65.3223 191.506 65.3521 191.824 65.4118C192.145 65.4681 192.455 65.5858 192.753 65.7648C193.055 65.9438 193.305 66.2139 193.504 66.5752C193.703 66.9364 193.802 67.4203 193.802 68.0269V73.0581H192.629V72.024H192.57C192.49 72.1897 192.357 72.3671 192.172 72.556C191.986 72.7449 191.739 72.9056 191.431 73.0382C191.123 73.1708 190.747 73.2371 190.302 73.2371ZM190.481 72.1831C190.945 72.1831 191.337 72.092 191.655 71.9097C191.976 71.7274 192.218 71.4921 192.381 71.2037C192.546 70.9153 192.629 70.6121 192.629 70.2939V69.22C192.579 69.2797 192.47 69.3344 192.301 69.3841C192.135 69.4305 191.943 69.4719 191.724 69.5084C191.509 69.5415 191.298 69.5714 191.093 69.5979C190.891 69.6211 190.727 69.641 190.601 69.6575C190.296 69.6973 190.011 69.7619 189.746 69.8514C189.484 69.9376 189.272 70.0685 189.109 70.2442C188.95 70.4165 188.871 70.6519 188.871 70.9502C188.871 71.3578 189.021 71.6661 189.323 71.8749C189.628 72.0804 190.014 72.1831 190.481 72.1831ZM196.103 73.0581V62.8763H197.276V66.6348H197.376C197.462 66.5022 197.581 66.3332 197.734 66.1277C197.89 65.9189 198.112 65.7333 198.4 65.5709C198.692 65.4052 199.086 65.3223 199.583 65.3223C200.226 65.3223 200.793 65.4831 201.283 65.8046C201.774 66.1261 202.157 66.5818 202.432 67.1717C202.707 67.7617 202.845 68.4577 202.845 69.2598C202.845 70.0685 202.707 70.7695 202.432 71.3628C202.157 71.9528 201.776 72.4101 201.288 72.735C200.801 73.0564 200.239 73.2172 199.603 73.2172C199.113 73.2172 198.72 73.136 198.425 72.9736C198.13 72.8079 197.903 72.6206 197.744 72.4118C197.585 72.1997 197.462 72.024 197.376 71.8848H197.237V73.0581H196.103ZM197.256 69.2399C197.256 69.8166 197.341 70.3254 197.51 70.7662C197.679 71.2037 197.926 71.5467 198.251 71.7953C198.576 72.0406 198.973 72.1632 199.444 72.1632C199.935 72.1632 200.344 72.034 200.672 71.7754C201.003 71.5136 201.252 71.1623 201.418 70.7215C201.587 70.2773 201.671 69.7835 201.671 69.2399C201.671 68.703 201.588 68.2191 201.423 67.7882C201.26 67.354 201.013 67.011 200.682 66.7591C200.354 66.5039 199.941 66.3763 199.444 66.3763C198.967 66.3763 198.566 66.4973 198.241 66.7392C197.916 66.9778 197.671 67.3126 197.505 67.7435C197.339 68.171 197.256 68.6698 197.256 69.2399ZM205.813 62.8763V73.0581H204.639V62.8763H205.813ZM211.163 73.2172C210.427 73.2172 209.793 73.0548 209.259 72.73C208.729 72.4019 208.32 71.9445 208.031 71.3578C207.746 70.7679 207.604 70.0818 207.604 69.2996C207.604 68.5174 207.746 67.828 208.031 67.2314C208.32 66.6315 208.721 66.1642 209.234 65.8294C209.751 65.4913 210.355 65.3223 211.044 65.3223C211.442 65.3223 211.834 65.3886 212.222 65.5212C212.61 65.6537 212.963 65.8692 213.281 66.1675C213.599 66.4625 213.853 66.8536 214.042 67.3408C214.231 67.828 214.325 68.4279 214.325 69.1405V69.6377H208.439V68.6234H213.132C213.132 68.1926 213.046 67.8081 212.873 67.47C212.704 67.132 212.463 66.8652 212.148 66.6696C211.836 66.4741 211.468 66.3763 211.044 66.3763C210.577 66.3763 210.172 66.4923 209.831 66.7243C209.493 66.953 209.233 67.2513 209.05 67.6192C208.868 67.9871 208.777 68.3815 208.777 68.8024V69.4786C208.777 70.0553 208.876 70.5441 209.075 70.9452C209.277 71.3429 209.557 71.6462 209.915 71.855C210.273 72.0605 210.689 72.1632 211.163 72.1632C211.472 72.1632 211.75 72.1201 211.998 72.034C212.25 71.9445 212.467 71.8119 212.65 71.6362C212.832 71.4573 212.973 71.2352 213.072 70.97L214.206 71.2882C214.087 71.6727 213.886 72.0108 213.604 72.3024C213.323 72.5908 212.975 72.8162 212.56 72.9786C212.146 73.1377 211.68 73.2172 211.163 73.2172ZM223.448 65.4217V66.4161H219.332V65.4217H223.448ZM220.565 73.0581V64.3678C220.565 63.9303 220.667 63.5657 220.873 63.274C221.078 62.9823 221.345 62.7636 221.673 62.6178C222.001 62.4719 222.348 62.399 222.712 62.399C223.001 62.399 223.236 62.4222 223.418 62.4686C223.601 62.515 223.736 62.5581 223.826 62.5979L223.488 63.6121C223.428 63.5922 223.345 63.5673 223.239 63.5375C223.137 63.5077 223.001 63.4928 222.832 63.4928C222.444 63.4928 222.164 63.5905 221.991 63.7861C221.822 63.9816 221.738 64.2683 221.738 64.6462V73.0581H220.565ZM227.88 73.2172C227.191 73.2172 226.586 73.0531 226.066 72.725C225.549 72.3969 225.144 71.9378 224.853 71.3479C224.564 70.7579 224.42 70.0685 224.42 69.2797C224.42 68.4842 224.564 67.7899 224.853 67.1966C225.144 66.6033 225.549 66.1426 226.066 65.8145C226.586 65.4864 227.191 65.3223 227.88 65.3223C228.57 65.3223 229.173 65.4864 229.69 65.8145C230.21 66.1426 230.615 66.6033 230.903 67.1966C231.195 67.7899 231.34 68.4842 231.34 69.2797C231.34 70.0685 231.195 70.7579 230.903 71.3479C230.615 71.9378 230.21 72.3969 229.69 72.725C229.173 73.0531 228.57 73.2172 227.88 73.2172ZM227.88 72.1632C228.404 72.1632 228.835 72.029 229.173 71.7605C229.511 71.4921 229.761 71.1391 229.924 70.7016C230.086 70.2641 230.167 69.7901 230.167 69.2797C230.167 68.7693 230.086 68.2937 229.924 67.8528C229.761 67.412 229.511 67.0557 229.173 66.784C228.835 66.5122 228.404 66.3763 227.88 66.3763C227.357 66.3763 226.926 66.5122 226.588 66.784C226.25 67.0557 225.999 67.412 225.837 67.8528C225.675 68.2937 225.593 68.7693 225.593 69.2797C225.593 69.7901 225.675 70.2641 225.837 70.7016C225.999 71.1391 226.25 71.4921 226.588 71.7605C226.926 72.029 227.357 72.1632 227.88 72.1632ZM233.131 73.0581V65.4217H234.265V66.5752H234.345C234.484 66.1973 234.736 65.8907 235.1 65.6554C235.465 65.4201 235.876 65.3024 236.333 65.3024C236.419 65.3024 236.527 65.3041 236.656 65.3074C236.786 65.3107 236.883 65.3157 236.95 65.3223V66.5155C236.91 66.5055 236.819 66.4906 236.676 66.4707C236.537 66.4475 236.39 66.4359 236.234 66.4359C235.863 66.4359 235.531 66.5138 235.239 66.6696C234.951 66.8221 234.722 67.0342 234.553 67.306C234.388 67.5744 234.305 67.881 234.305 68.2257V73.0581H233.131ZM245.599 65.4217V66.4161H241.642V65.4217H245.599ZM242.795 63.5922H243.968V70.8706C243.968 71.202 244.016 71.4506 244.112 71.6163C244.212 71.7787 244.338 71.8881 244.49 71.9445C244.646 71.9975 244.81 72.024 244.983 72.024C245.112 72.024 245.218 72.0174 245.301 72.0041C245.384 71.9876 245.45 71.9743 245.5 71.9644L245.738 73.0183C245.659 73.0482 245.548 73.078 245.405 73.1078C245.263 73.141 245.082 73.1575 244.863 73.1575C244.532 73.1575 244.207 73.0863 243.889 72.9438C243.574 72.8012 243.312 72.5841 243.103 72.2925C242.898 72.0008 242.795 71.6329 242.795 71.1888V63.5922ZM248.701 68.4644V73.0581H247.528V62.8763H248.701V66.6149H248.801C248.98 66.2205 249.248 65.9073 249.606 65.6753C249.967 65.44 250.448 65.3223 251.048 65.3223C251.568 65.3223 252.024 65.4267 252.415 65.6355C252.806 65.841 253.109 66.1575 253.325 66.5851C253.544 67.0093 253.653 67.5496 253.653 68.2058V73.0581H252.48V68.2854C252.48 67.6788 252.322 67.2099 252.007 66.8784C251.696 66.5437 251.263 66.3763 250.71 66.3763C250.325 66.3763 249.981 66.4575 249.676 66.6199C249.374 66.7823 249.135 67.0193 248.96 67.3308C248.787 67.6424 248.701 68.0202 248.701 68.4644ZM255.799 73.0581V65.4217H256.973V73.0581H255.799ZM256.396 64.149C256.167 64.149 255.97 64.0711 255.804 63.9153C255.642 63.7596 255.561 63.5723 255.561 63.3536C255.561 63.1348 255.642 62.9475 255.804 62.7918C255.97 62.636 256.167 62.5581 256.396 62.5581C256.625 62.5581 256.82 62.636 256.983 62.7918C257.148 62.9475 257.231 63.1348 257.231 63.3536C257.231 63.5723 257.148 63.7596 256.983 63.9153C256.82 64.0711 256.625 64.149 256.396 64.149ZM264.531 67.132L263.477 67.4303C263.411 67.2546 263.313 67.0839 263.184 66.9182C263.058 66.7492 262.885 66.61 262.666 66.5006C262.448 66.3912 262.168 66.3365 261.826 66.3365C261.359 66.3365 260.969 66.4442 260.658 66.6597C260.35 66.8718 260.196 67.1419 260.196 67.47C260.196 67.7617 260.302 67.9921 260.514 68.1611C260.726 68.3301 261.057 68.471 261.508 68.5837L262.642 68.8621C263.324 69.0278 263.833 69.2814 264.168 69.6227C264.503 69.9608 264.67 70.3966 264.67 70.9303C264.67 71.3678 264.544 71.7589 264.292 72.1036C264.044 72.4483 263.696 72.72 263.248 72.9189C262.801 73.1178 262.28 73.2172 261.687 73.2172C260.908 73.2172 260.264 73.0482 259.753 72.7101C259.243 72.372 258.92 71.8782 258.784 71.2286L259.897 70.9502C260.003 71.3611 260.204 71.6694 260.499 71.8749C260.797 72.0804 261.187 72.1831 261.667 72.1831C262.214 72.1831 262.648 72.0671 262.97 71.8351C263.295 71.5998 263.457 71.318 263.457 70.9899C263.457 70.7248 263.364 70.5027 263.179 70.3237C262.993 70.1414 262.708 70.0055 262.323 69.9161L261.051 69.6178C260.351 69.452 259.838 69.1952 259.509 68.8472C259.185 68.4958 259.022 68.0567 259.022 67.5297C259.022 67.0988 259.143 66.7177 259.385 66.3862C259.63 66.0548 259.964 65.7946 260.384 65.6057C260.809 65.4168 261.289 65.3223 261.826 65.3223C262.582 65.3223 263.175 65.488 263.606 65.8195C264.04 66.1509 264.349 66.5884 264.531 67.132ZM273.476 73.2172C272.76 73.2172 272.144 73.0482 271.627 72.7101C271.109 72.372 270.712 71.9064 270.433 71.3131C270.155 70.7198 270.016 70.042 270.016 69.2797C270.016 68.5041 270.158 67.8197 270.443 67.2264C270.732 66.6298 271.133 66.1642 271.646 65.8294C272.163 65.4913 272.767 65.3223 273.456 65.3223C273.993 65.3223 274.477 65.4217 274.908 65.6206C275.339 65.8195 275.692 66.0979 275.967 66.4558C276.242 66.8138 276.412 67.2314 276.479 67.7087H275.305C275.216 67.3607 275.017 67.0524 274.709 66.784C274.404 66.5122 273.993 66.3763 273.476 66.3763C273.019 66.3763 272.618 66.4956 272.273 66.7342C271.931 66.9696 271.665 67.3027 271.472 67.7335C271.283 68.1611 271.189 68.6632 271.189 69.2399C271.189 69.8299 271.282 70.3436 271.467 70.7811C271.656 71.2186 271.921 71.5583 272.263 71.8003C272.608 72.0422 273.012 72.1632 273.476 72.1632C273.781 72.1632 274.058 72.1102 274.306 72.0041C274.555 71.8981 274.765 71.7456 274.938 71.5467C275.11 71.3479 275.233 71.1092 275.305 70.8308H276.479C276.412 71.2816 276.248 71.6876 275.987 72.0489C275.728 72.4068 275.385 72.6919 274.957 72.904C274.533 73.1128 274.039 73.2172 273.476 73.2172ZM279.367 68.4644V73.0581H278.194V62.8763H279.367V66.6149H279.467C279.646 66.2205 279.914 65.9073 280.272 65.6753C280.633 65.44 281.114 65.3223 281.714 65.3223C282.234 65.3223 282.69 65.4267 283.081 65.6355C283.472 65.841 283.775 66.1575 283.991 66.5851C284.21 67.0093 284.319 67.5496 284.319 68.2058V73.0581H283.146V68.2854C283.146 67.6788 282.988 67.2099 282.673 66.8784C282.362 66.5437 281.929 66.3763 281.376 66.3763C280.991 66.3763 280.647 66.4575 280.342 66.6199C280.04 66.7823 279.801 67.0193 279.626 67.3308C279.453 67.6424 279.367 68.0202 279.367 68.4644ZM288.713 73.2371C288.229 73.2371 287.79 73.1459 287.395 72.9636C287.001 72.778 286.688 72.5112 286.456 72.1632C286.224 71.8119 286.108 71.3877 286.108 70.8905C286.108 70.453 286.194 70.0984 286.366 69.8266C286.538 69.5515 286.769 69.336 287.057 69.1803C287.345 69.0245 287.664 68.9085 288.012 68.8323C288.363 68.7527 288.716 68.6897 289.071 68.6433C289.535 68.5837 289.911 68.5389 290.199 68.5091C290.491 68.476 290.703 68.4213 290.835 68.345C290.971 68.2688 291.039 68.1362 291.039 67.9473V67.9075C291.039 67.417 290.905 67.0359 290.637 66.7641C290.371 66.4923 289.969 66.3564 289.429 66.3564C288.868 66.3564 288.429 66.479 288.111 66.7243C287.793 66.9696 287.569 67.2314 287.44 67.5098L286.326 67.1121C286.525 66.6481 286.79 66.2868 287.122 66.0283C287.456 65.7664 287.821 65.5841 288.215 65.4814C288.613 65.3753 289.004 65.3223 289.389 65.3223C289.634 65.3223 289.916 65.3521 290.234 65.4118C290.555 65.4681 290.865 65.5858 291.164 65.7648C291.465 65.9438 291.715 66.2139 291.914 66.5752C292.113 66.9364 292.213 67.4203 292.213 68.0269V73.0581H291.039V72.024H290.98C290.9 72.1897 290.768 72.3671 290.582 72.556C290.396 72.7449 290.149 72.9056 289.841 73.0382C289.533 73.1708 289.157 73.2371 288.713 73.2371ZM288.892 72.1831C289.356 72.1831 289.747 72.092 290.065 71.9097C290.386 71.7274 290.628 71.4921 290.791 71.2037C290.956 70.9153 291.039 70.6121 291.039 70.2939V69.22C290.99 69.2797 290.88 69.3344 290.711 69.3841C290.545 69.4305 290.353 69.4719 290.134 69.5084C289.919 69.5415 289.709 69.5714 289.503 69.5979C289.301 69.6211 289.137 69.641 289.011 69.6575C288.706 69.6973 288.421 69.7619 288.156 69.8514C287.894 69.9376 287.682 70.0685 287.519 70.2442C287.36 70.4165 287.281 70.6519 287.281 70.9502C287.281 71.3578 287.432 71.6661 287.733 71.8749C288.038 72.0804 288.424 72.1831 288.892 72.1831ZM294.354 73.0581V65.4217H295.488V66.5752H295.567C295.706 66.1973 295.958 65.8907 296.323 65.6554C296.687 65.4201 297.098 65.3024 297.556 65.3024C297.642 65.3024 297.75 65.3041 297.879 65.3074C298.008 65.3107 298.106 65.3157 298.172 65.3223V66.5155C298.133 66.5055 298.041 66.4906 297.899 66.4707C297.76 66.4475 297.612 66.4359 297.456 66.4359C297.085 66.4359 296.754 66.5138 296.462 66.6696C296.174 66.8221 295.945 67.0342 295.776 67.306C295.61 67.5744 295.527 67.881 295.527 68.2257V73.0581H294.354ZM303.363 65.4217V66.4161H299.405V65.4217H303.363ZM300.559 63.5922H301.732V70.8706C301.732 71.202 301.78 71.4506 301.876 71.6163C301.976 71.7787 302.102 71.8881 302.254 71.9445C302.41 71.9975 302.574 72.024 302.746 72.024C302.875 72.024 302.982 72.0174 303.064 72.0041C303.147 71.9876 303.214 71.9743 303.263 71.9644L303.502 73.0183C303.422 73.0482 303.311 73.078 303.169 73.1078C303.026 73.141 302.846 73.1575 302.627 73.1575C302.295 73.1575 301.971 73.0863 301.652 72.9438C301.338 72.8012 301.076 72.5841 300.867 72.2925C300.661 72.0008 300.559 71.6329 300.559 71.1888V63.5922Z" fill="black" fill-opacity="0.65"/>
<defs>
<linearGradient id="paint0_linear_1_6192" x1="202.513" y1="-4.28655" x2="202.513" y2="70.082" gradientUnits="userSpaceOnUse">
<stop stop-color="#BABABA" stop-opacity="0.69"/>
<stop offset="1" stop-color="white" stop-opacity="0"/>
</linearGradient>
</defs>
</svg>
