<svg width="578" height="342" viewBox="0 0 578 342" fill="none" xmlns="http://www.w3.org/2000/svg">
<rect x="218.375" y="212.756" width="358.138" height="0.218967" stroke="#ECECEC" stroke-width="0.218967"/>
<rect x="27.2489" y="10.2905" width="155.695" height="41.8373" rx="7.5" fill="#F7F7F7" stroke="#F2F2F2"/>
<rect x="40.1977" y="23.3223" width="15.7737" height="15.7737" rx="3.75" fill="white" stroke="#EDEDED" stroke-width="0.5"/>
<rect x="64.4818" y="27.0718" width="70.3353" height="8.27472" rx="4.13736" fill="#EDEDED"/>
<rect x="143.905" y="23.0723" width="28.7397" height="16.2737" rx="4" fill="#EBEBEB"/>
<rect x="27.2489" y="105.77" width="155.695" height="41.8373" rx="7.5" fill="#F7F7F7" stroke="#F2F2F2"/>
<rect x="40.1976" y="118.802" width="15.7737" height="15.7737" rx="3.75" fill="white" stroke="#EDEDED" stroke-width="0.5"/>
<rect x="64.4817" y="122.552" width="70.3353" height="8.27472" rx="4.13736" fill="#EDEDED"/>
<rect x="143.905" y="118.552" width="28.7397" height="16.2737" rx="4" fill="#EBEBEB"/>
<rect x="27.2489" y="156.798" width="155.695" height="41.8373" rx="7.5" fill="#F7F7F7" stroke="#F2F2F2"/>
<rect x="40.1976" y="169.83" width="15.7737" height="15.7737" rx="3.75" fill="white" stroke="#EDEDED" stroke-width="0.5"/>
<rect x="64.4817" y="173.579" width="70.3353" height="8.27472" rx="4.13736" fill="#EDEDED"/>
<rect x="143.905" y="169.58" width="28.7397" height="16.2737" rx="4" fill="#EBEBEB"/>
<g filter="url(#filter0_d_3817_3096)">
<rect x="16.0128" y="59.584" width="178.167" height="48.3441" rx="7.75" fill="#FCFCFC" stroke="#EBEBEB" stroke-width="0.5"/>
<g filter="url(#filter1_d_3817_3096)">
<rect x="30.8123" y="74.4783" width="18.5556" height="18.5556" rx="4" fill="white"/>
<rect x="31.3123" y="74.9783" width="17.5556" height="17.5556" rx="3.5" stroke="#EEEEEE"/>
</g>
<path d="M35.3746 83.756L38.5182 86.8997L44.8056 80.6123" stroke="#2B50E4" stroke-opacity="0.3" stroke-width="2" stroke-linecap="round" stroke-linejoin="round"/>
<rect x="58.7866" y="79.0386" width="80.198" height="9.43503" rx="4.71751" fill="#EDEDED"/>
<rect x="149.347" y="74.4783" width="32.7697" height="18.5556" rx="4" fill="#FEEADC"/>
</g>
<path d="M218.266 1.12451V265.904H576.623" stroke="#F3F3F3" stroke-width="2" stroke-linecap="round" stroke-linejoin="round"/>
<path d="M219.426 155.592C228.642 148.498 258.18 142.754 302.605 176.531C347.03 210.308 370.945 174.586 377.35 152.503C381.723 136.37 397.922 111.655 427.726 141.862C457.53 172.069 468.73 157.652 470.604 146.667C472.088 138.086 475.572 111.586 477.633 74.2392C480.211 27.5555 531.524 131.221 547.926 141.862C561.047 150.375 572.138 51.5841 576.043 1.12451" stroke="#FEEADC" stroke-width="2" stroke-linecap="round"/>
<rect x="218.375" y="159.328" width="358.138" height="0.218967" stroke="#ECECEC" stroke-width="0.218967"/>
<rect x="218.375" y="105.9" width="358.138" height="0.218967" stroke="#ECECEC" stroke-width="0.218967"/>
<rect x="218.375" y="52.4723" width="358.138" height="0.218967" stroke="#ECECEC" stroke-width="0.218967"/>
<path d="M164.512 302.516C164.444 301.94 164.168 301.493 163.683 301.175C163.198 300.857 162.603 300.698 161.899 300.698C161.384 300.698 160.933 300.781 160.547 300.948C160.164 301.114 159.865 301.344 159.649 301.635C159.437 301.927 159.331 302.258 159.331 302.63C159.331 302.94 159.405 303.207 159.552 303.431C159.704 303.65 159.897 303.834 160.132 303.982C160.367 304.126 160.613 304.245 160.87 304.34C161.128 304.431 161.365 304.505 161.581 304.561L162.762 304.88C163.066 304.959 163.403 305.069 163.774 305.209C164.149 305.349 164.507 305.541 164.848 305.783C165.192 306.022 165.476 306.328 165.7 306.703C165.923 307.078 166.035 307.539 166.035 308.084C166.035 308.713 165.87 309.281 165.541 309.789C165.215 310.296 164.738 310.7 164.109 310.999C163.484 311.298 162.725 311.448 161.831 311.448C160.997 311.448 160.276 311.313 159.666 311.044C159.06 310.775 158.583 310.4 158.234 309.919C157.889 309.438 157.694 308.88 157.649 308.243H159.103C159.141 308.683 159.289 309.046 159.547 309.334C159.808 309.618 160.137 309.83 160.535 309.97C160.937 310.107 161.369 310.175 161.831 310.175C162.369 310.175 162.851 310.088 163.28 309.914C163.708 309.736 164.047 309.489 164.297 309.175C164.547 308.857 164.672 308.486 164.672 308.061C164.672 307.675 164.564 307.361 164.348 307.118C164.132 306.876 163.848 306.679 163.495 306.527C163.143 306.376 162.762 306.243 162.353 306.13L160.922 305.72C160.012 305.459 159.293 305.086 158.762 304.601C158.232 304.116 157.967 303.482 157.967 302.698C157.967 302.046 158.143 301.478 158.495 300.993C158.851 300.505 159.329 300.126 159.927 299.857C160.53 299.584 161.202 299.448 161.944 299.448C162.694 299.448 163.361 299.582 163.944 299.851C164.528 300.116 164.99 300.48 165.331 300.942C165.675 301.404 165.857 301.929 165.876 302.516H164.512ZM171.829 311.425C170.988 311.425 170.263 311.239 169.653 310.868C169.047 310.493 168.579 309.97 168.25 309.3C167.924 308.626 167.761 307.842 167.761 306.948C167.761 306.054 167.924 305.266 168.25 304.584C168.579 303.898 169.038 303.364 169.625 302.982C170.216 302.595 170.905 302.402 171.693 302.402C172.147 302.402 172.596 302.478 173.039 302.63C173.483 302.781 173.886 303.027 174.25 303.368C174.613 303.705 174.903 304.152 175.119 304.709C175.335 305.266 175.443 305.951 175.443 306.766V307.334H168.716V306.175H174.079C174.079 305.683 173.981 305.243 173.784 304.857C173.591 304.47 173.314 304.166 172.954 303.942C172.598 303.719 172.178 303.607 171.693 303.607C171.159 303.607 170.697 303.739 170.307 304.005C169.92 304.266 169.623 304.607 169.414 305.027C169.206 305.448 169.102 305.898 169.102 306.38V307.152C169.102 307.811 169.216 308.37 169.443 308.828C169.674 309.283 169.994 309.63 170.403 309.868C170.812 310.103 171.288 310.22 171.829 310.22C172.182 310.22 172.5 310.171 172.784 310.073C173.072 309.97 173.32 309.819 173.528 309.618C173.736 309.414 173.897 309.16 174.011 308.857L175.307 309.22C175.17 309.66 174.941 310.046 174.619 310.38C174.297 310.709 173.899 310.967 173.426 311.152C172.952 311.334 172.42 311.425 171.829 311.425ZM178.824 299.607V311.243H177.483V299.607H178.824ZM184.939 311.425C184.098 311.425 183.372 311.239 182.762 310.868C182.156 310.493 181.689 309.97 181.359 309.3C181.033 308.626 180.87 307.842 180.87 306.948C180.87 306.054 181.033 305.266 181.359 304.584C181.689 303.898 182.147 303.364 182.734 302.982C183.325 302.595 184.014 302.402 184.802 302.402C185.257 302.402 185.706 302.478 186.149 302.63C186.592 302.781 186.995 303.027 187.359 303.368C187.723 303.705 188.012 304.152 188.228 304.709C188.444 305.266 188.552 305.951 188.552 306.766V307.334H181.825V306.175H187.189C187.189 305.683 187.09 305.243 186.893 304.857C186.7 304.47 186.423 304.166 186.064 303.942C185.708 303.719 185.287 303.607 184.802 303.607C184.268 303.607 183.806 303.739 183.416 304.005C183.03 304.266 182.732 304.607 182.524 305.027C182.316 305.448 182.211 305.898 182.211 306.38V307.152C182.211 307.811 182.325 308.37 182.552 308.828C182.783 309.283 183.103 309.63 183.512 309.868C183.922 310.103 184.397 310.22 184.939 310.22C185.291 310.22 185.609 310.171 185.893 310.073C186.181 309.97 186.429 309.819 186.637 309.618C186.846 309.414 187.007 309.16 187.12 308.857L188.416 309.22C188.28 309.66 188.05 310.046 187.728 310.38C187.406 310.709 187.009 310.967 186.535 311.152C186.062 311.334 185.53 311.425 184.939 311.425ZM194.137 311.425C193.319 311.425 192.615 311.232 192.024 310.845C191.433 310.459 190.978 309.927 190.66 309.249C190.342 308.571 190.183 307.796 190.183 306.925C190.183 306.039 190.346 305.256 190.672 304.578C191.001 303.897 191.459 303.364 192.047 302.982C192.637 302.595 193.327 302.402 194.115 302.402C194.728 302.402 195.281 302.516 195.774 302.743C196.266 302.97 196.67 303.289 196.984 303.698C197.298 304.107 197.494 304.584 197.569 305.13H196.228C196.126 304.732 195.899 304.38 195.547 304.073C195.198 303.762 194.728 303.607 194.137 303.607C193.615 303.607 193.156 303.743 192.762 304.016C192.372 304.285 192.067 304.666 191.848 305.158C191.632 305.647 191.524 306.22 191.524 306.88C191.524 307.554 191.63 308.141 191.842 308.641C192.058 309.141 192.361 309.529 192.751 309.806C193.145 310.082 193.607 310.22 194.137 310.22C194.486 310.22 194.802 310.16 195.086 310.039C195.37 309.917 195.611 309.743 195.808 309.516C196.005 309.289 196.145 309.016 196.228 308.698H197.569C197.494 309.213 197.306 309.677 197.007 310.09C196.711 310.499 196.319 310.825 195.831 311.067C195.346 311.306 194.781 311.425 194.137 311.425ZM203.325 302.516V303.652H198.802V302.516H203.325ZM200.12 300.425H201.461V308.743C201.461 309.122 201.516 309.406 201.626 309.595C201.74 309.781 201.884 309.906 202.058 309.97C202.236 310.031 202.423 310.061 202.62 310.061C202.768 310.061 202.889 310.054 202.984 310.039C203.079 310.02 203.155 310.005 203.211 309.993L203.484 311.198C203.393 311.232 203.266 311.266 203.103 311.3C202.941 311.338 202.734 311.357 202.484 311.357C202.105 311.357 201.734 311.275 201.37 311.112C201.011 310.95 200.711 310.701 200.473 310.368C200.238 310.035 200.12 309.614 200.12 309.107V300.425ZM212.41 311.448C211.857 311.448 211.355 311.344 210.905 311.135C210.454 310.923 210.096 310.618 209.831 310.22C209.566 309.819 209.433 309.334 209.433 308.766C209.433 308.266 209.531 307.861 209.728 307.55C209.925 307.236 210.189 306.989 210.518 306.811C210.848 306.633 211.211 306.501 211.609 306.414C212.011 306.323 212.414 306.251 212.819 306.198C213.35 306.13 213.78 306.078 214.109 306.044C214.442 306.006 214.685 305.944 214.836 305.857C214.992 305.77 215.069 305.618 215.069 305.402V305.357C215.069 304.796 214.916 304.361 214.609 304.05C214.306 303.739 213.846 303.584 213.228 303.584C212.588 303.584 212.086 303.724 211.723 304.005C211.359 304.285 211.103 304.584 210.956 304.902L209.683 304.448C209.91 303.917 210.213 303.505 210.592 303.209C210.975 302.91 211.391 302.701 211.842 302.584C212.297 302.463 212.744 302.402 213.183 302.402C213.463 302.402 213.785 302.436 214.149 302.505C214.516 302.569 214.87 302.703 215.211 302.908C215.556 303.112 215.842 303.421 216.069 303.834C216.297 304.247 216.41 304.8 216.41 305.493V311.243H215.069V310.061H215.001C214.91 310.251 214.759 310.453 214.547 310.669C214.334 310.885 214.052 311.069 213.7 311.22C213.348 311.372 212.918 311.448 212.41 311.448ZM212.615 310.243C213.145 310.243 213.592 310.139 213.956 309.931C214.323 309.722 214.6 309.453 214.785 309.124C214.975 308.794 215.069 308.448 215.069 308.084V306.857C215.012 306.925 214.887 306.987 214.694 307.044C214.505 307.097 214.285 307.145 214.035 307.186C213.789 307.224 213.548 307.258 213.314 307.289C213.083 307.315 212.895 307.338 212.751 307.357C212.403 307.402 212.077 307.476 211.774 307.578C211.475 307.677 211.232 307.826 211.047 308.027C210.865 308.224 210.774 308.493 210.774 308.834C210.774 309.3 210.946 309.652 211.291 309.891C211.639 310.126 212.081 310.243 212.615 310.243ZM220.199 305.993V311.243H218.858V302.516H220.153V303.88H220.267C220.471 303.436 220.782 303.08 221.199 302.811C221.615 302.539 222.153 302.402 222.812 302.402C223.403 302.402 223.92 302.523 224.363 302.766C224.807 303.005 225.151 303.368 225.397 303.857C225.644 304.342 225.767 304.955 225.767 305.698V311.243H224.426V305.789C224.426 305.103 224.248 304.569 223.892 304.186C223.536 303.8 223.047 303.607 222.426 303.607C221.998 303.607 221.615 303.7 221.278 303.885C220.945 304.071 220.682 304.342 220.488 304.698C220.295 305.054 220.199 305.486 220.199 305.993ZM228.768 314.516C228.541 314.516 228.338 314.497 228.16 314.459C227.982 314.425 227.859 314.391 227.791 314.357L228.132 313.175C228.458 313.258 228.745 313.289 228.995 313.266C229.245 313.243 229.467 313.131 229.66 312.931C229.857 312.734 230.037 312.414 230.2 311.97L230.45 311.289L227.223 302.516H228.677L231.086 309.47H231.177L233.586 302.516H235.041L231.336 312.516C231.17 312.967 230.963 313.34 230.717 313.635C230.471 313.934 230.185 314.156 229.859 314.3C229.537 314.444 229.173 314.516 228.768 314.516ZM241.311 314.516V302.516H242.606V303.902H242.765C242.864 303.751 243 303.558 243.174 303.323C243.352 303.084 243.606 302.872 243.936 302.686C244.269 302.497 244.72 302.402 245.288 302.402C246.023 302.402 246.671 302.586 247.231 302.953C247.792 303.321 248.229 303.842 248.544 304.516C248.858 305.19 249.015 305.986 249.015 306.902C249.015 307.826 248.858 308.628 248.544 309.306C248.229 309.98 247.794 310.503 247.237 310.874C246.68 311.241 246.038 311.425 245.311 311.425C244.75 311.425 244.301 311.332 243.964 311.147C243.627 310.957 243.368 310.743 243.186 310.505C243.004 310.262 242.864 310.061 242.765 309.902H242.652V314.516H241.311ZM242.629 306.88C242.629 307.539 242.726 308.12 242.919 308.624C243.112 309.124 243.394 309.516 243.765 309.8C244.137 310.08 244.591 310.22 245.129 310.22C245.69 310.22 246.157 310.073 246.532 309.777C246.911 309.478 247.195 309.076 247.385 308.573C247.578 308.065 247.674 307.501 247.674 306.88C247.674 306.266 247.58 305.713 247.39 305.22C247.205 304.724 246.923 304.332 246.544 304.044C246.169 303.753 245.697 303.607 245.129 303.607C244.583 303.607 244.125 303.745 243.754 304.022C243.383 304.294 243.102 304.677 242.913 305.169C242.724 305.658 242.629 306.228 242.629 306.88ZM253.629 311.448C253.076 311.448 252.574 311.344 252.123 311.135C251.673 310.923 251.315 310.618 251.049 310.22C250.784 309.819 250.652 309.334 250.652 308.766C250.652 308.266 250.75 307.861 250.947 307.55C251.144 307.236 251.407 306.989 251.737 306.811C252.066 306.633 252.43 306.501 252.828 306.414C253.229 306.323 253.633 306.251 254.038 306.198C254.568 306.13 254.998 306.078 255.328 306.044C255.661 306.006 255.904 305.944 256.055 305.857C256.21 305.77 256.288 305.618 256.288 305.402V305.357C256.288 304.796 256.135 304.361 255.828 304.05C255.525 303.739 255.065 303.584 254.447 303.584C253.807 303.584 253.305 303.724 252.941 304.005C252.578 304.285 252.322 304.584 252.174 304.902L250.902 304.448C251.129 303.917 251.432 303.505 251.811 303.209C252.193 302.91 252.61 302.701 253.061 302.584C253.515 302.463 253.962 302.402 254.402 302.402C254.682 302.402 255.004 302.436 255.368 302.505C255.735 302.569 256.089 302.703 256.43 302.908C256.775 303.112 257.061 303.421 257.288 303.834C257.515 304.247 257.629 304.8 257.629 305.493V311.243H256.288V310.061H256.22C256.129 310.251 255.977 310.453 255.765 310.669C255.553 310.885 255.271 311.069 254.919 311.22C254.566 311.372 254.137 311.448 253.629 311.448ZM253.833 310.243C254.364 310.243 254.811 310.139 255.174 309.931C255.542 309.722 255.818 309.453 256.004 309.124C256.193 308.794 256.288 308.448 256.288 308.084V306.857C256.231 306.925 256.106 306.987 255.913 307.044C255.724 307.097 255.504 307.145 255.254 307.186C255.008 307.224 254.767 307.258 254.532 307.289C254.301 307.315 254.114 307.338 253.97 307.357C253.621 307.402 253.296 307.476 252.993 307.578C252.693 307.677 252.451 307.826 252.265 308.027C252.083 308.224 251.993 308.493 251.993 308.834C251.993 309.3 252.165 309.652 252.51 309.891C252.858 310.126 253.299 310.243 253.833 310.243ZM260.076 311.243V302.516H261.372V303.834H261.463C261.622 303.402 261.91 303.052 262.326 302.783C262.743 302.514 263.213 302.38 263.735 302.38C263.834 302.38 263.957 302.381 264.105 302.385C264.253 302.389 264.364 302.395 264.44 302.402V303.766C264.395 303.755 264.29 303.737 264.128 303.715C263.968 303.688 263.8 303.675 263.622 303.675C263.198 303.675 262.819 303.764 262.485 303.942C262.156 304.116 261.895 304.359 261.701 304.669C261.512 304.976 261.417 305.326 261.417 305.72V311.243H260.076ZM268.598 311.448C268.045 311.448 267.543 311.344 267.092 311.135C266.641 310.923 266.283 310.618 266.018 310.22C265.753 309.819 265.62 309.334 265.62 308.766C265.62 308.266 265.719 307.861 265.916 307.55C266.113 307.236 266.376 306.989 266.706 306.811C267.035 306.633 267.399 306.501 267.797 306.414C268.198 306.323 268.601 306.251 269.007 306.198C269.537 306.13 269.967 306.078 270.297 306.044C270.63 306.006 270.872 305.944 271.024 305.857C271.179 305.77 271.257 305.618 271.257 305.402V305.357C271.257 304.796 271.103 304.361 270.797 304.05C270.494 303.739 270.033 303.584 269.416 303.584C268.776 303.584 268.274 303.724 267.91 304.005C267.547 304.285 267.291 304.584 267.143 304.902L265.87 304.448C266.098 303.917 266.401 303.505 266.78 303.209C267.162 302.91 267.579 302.701 268.03 302.584C268.484 302.463 268.931 302.402 269.37 302.402C269.651 302.402 269.973 302.436 270.336 302.505C270.704 302.569 271.058 302.703 271.399 302.908C271.744 303.112 272.03 303.421 272.257 303.834C272.484 304.247 272.598 304.8 272.598 305.493V311.243H271.257V310.061H271.189C271.098 310.251 270.946 310.453 270.734 310.669C270.522 310.885 270.24 311.069 269.887 311.22C269.535 311.372 269.105 311.448 268.598 311.448ZM268.802 310.243C269.333 310.243 269.78 310.139 270.143 309.931C270.511 309.722 270.787 309.453 270.973 309.124C271.162 308.794 271.257 308.448 271.257 308.084V306.857C271.2 306.925 271.075 306.987 270.882 307.044C270.692 307.097 270.473 307.145 270.223 307.186C269.976 307.224 269.736 307.258 269.501 307.289C269.27 307.315 269.083 307.338 268.939 307.357C268.59 307.402 268.264 307.476 267.961 307.578C267.662 307.677 267.42 307.826 267.234 308.027C267.052 308.224 266.961 308.493 266.961 308.834C266.961 309.3 267.134 309.652 267.478 309.891C267.827 310.126 268.268 310.243 268.802 310.243ZM275.045 311.243V302.516H276.341V303.88H276.454C276.636 303.414 276.93 303.052 277.335 302.794C277.74 302.533 278.227 302.402 278.795 302.402C279.371 302.402 279.85 302.533 280.233 302.794C280.619 303.052 280.92 303.414 281.136 303.88H281.227C281.45 303.429 281.786 303.071 282.233 302.806C282.68 302.537 283.216 302.402 283.841 302.402C284.621 302.402 285.259 302.647 285.755 303.135C286.252 303.62 286.5 304.376 286.5 305.402V311.243H285.159V305.402C285.159 304.758 284.983 304.298 284.63 304.022C284.278 303.745 283.863 303.607 283.386 303.607C282.772 303.607 282.297 303.792 281.96 304.164C281.623 304.531 281.454 304.997 281.454 305.561V311.243H280.091V305.266C280.091 304.77 279.93 304.37 279.608 304.067C279.286 303.76 278.871 303.607 278.363 303.607C278.015 303.607 277.689 303.7 277.386 303.885C277.087 304.071 276.844 304.328 276.659 304.658C276.477 304.984 276.386 305.361 276.386 305.789V311.243H275.045ZM292.61 311.425C291.77 311.425 291.044 311.239 290.434 310.868C289.828 310.493 289.36 309.97 289.031 309.3C288.705 308.626 288.542 307.842 288.542 306.948C288.542 306.054 288.705 305.266 289.031 304.584C289.36 303.898 289.819 303.364 290.406 302.982C290.997 302.595 291.686 302.402 292.474 302.402C292.929 302.402 293.378 302.478 293.821 302.63C294.264 302.781 294.667 303.027 295.031 303.368C295.395 303.705 295.684 304.152 295.9 304.709C296.116 305.266 296.224 305.951 296.224 306.766V307.334H289.497V306.175H294.86C294.86 305.683 294.762 305.243 294.565 304.857C294.372 304.47 294.095 304.166 293.735 303.942C293.379 303.719 292.959 303.607 292.474 303.607C291.94 303.607 291.478 303.739 291.088 304.005C290.701 304.266 290.404 304.607 290.196 305.027C289.987 305.448 289.883 305.898 289.883 306.38V307.152C289.883 307.811 289.997 308.37 290.224 308.828C290.455 309.283 290.775 309.63 291.184 309.868C291.593 310.103 292.069 310.22 292.61 310.22C292.963 310.22 293.281 310.171 293.565 310.073C293.853 309.97 294.101 309.819 294.309 309.618C294.518 309.414 294.679 309.16 294.792 308.857L296.088 309.22C295.951 309.66 295.722 310.046 295.4 310.38C295.078 310.709 294.681 310.967 294.207 311.152C293.734 311.334 293.201 311.425 292.61 311.425ZM302.059 302.516V303.652H297.537V302.516H302.059ZM298.855 300.425H300.196V308.743C300.196 309.122 300.251 309.406 300.36 309.595C300.474 309.781 300.618 309.906 300.792 309.97C300.97 310.031 301.158 310.061 301.355 310.061C301.503 310.061 301.624 310.054 301.718 310.039C301.813 310.02 301.889 310.005 301.946 309.993L302.218 311.198C302.128 311.232 302.001 311.266 301.838 311.3C301.675 311.338 301.468 311.357 301.218 311.357C300.84 311.357 300.468 311.275 300.105 311.112C299.745 310.95 299.446 310.701 299.207 310.368C298.972 310.035 298.855 309.614 298.855 309.107V300.425ZM307.642 311.425C306.801 311.425 306.075 311.239 305.466 310.868C304.86 310.493 304.392 309.97 304.062 309.3C303.736 308.626 303.574 307.842 303.574 306.948C303.574 306.054 303.736 305.266 304.062 304.584C304.392 303.898 304.85 303.364 305.437 302.982C306.028 302.595 306.717 302.402 307.505 302.402C307.96 302.402 308.409 302.478 308.852 302.63C309.295 302.781 309.699 303.027 310.062 303.368C310.426 303.705 310.716 304.152 310.932 304.709C311.147 305.266 311.255 305.951 311.255 306.766V307.334H304.528V306.175H309.892C309.892 305.683 309.793 305.243 309.596 304.857C309.403 304.47 309.127 304.166 308.767 303.942C308.411 303.719 307.99 303.607 307.505 303.607C306.971 303.607 306.509 303.739 306.119 304.005C305.733 304.266 305.435 304.607 305.227 305.027C305.019 305.448 304.914 305.898 304.914 306.38V307.152C304.914 307.811 305.028 308.37 305.255 308.828C305.486 309.283 305.807 309.63 306.216 309.868C306.625 310.103 307.1 310.22 307.642 310.22C307.994 310.22 308.312 310.171 308.596 310.073C308.884 309.97 309.132 309.819 309.341 309.618C309.549 309.414 309.71 309.16 309.824 308.857L311.119 309.22C310.983 309.66 310.753 310.046 310.432 310.38C310.11 310.709 309.712 310.967 309.238 311.152C308.765 311.334 308.233 311.425 307.642 311.425ZM313.295 311.243V302.516H314.591V303.834H314.682C314.841 303.402 315.128 303.052 315.545 302.783C315.962 302.514 316.432 302.38 316.954 302.38C317.053 302.38 317.176 302.381 317.324 302.385C317.471 302.389 317.583 302.395 317.659 302.402V303.766C317.613 303.755 317.509 303.737 317.346 303.715C317.187 303.688 317.019 303.675 316.841 303.675C316.416 303.675 316.038 303.764 315.704 303.942C315.375 304.116 315.113 304.359 314.92 304.669C314.731 304.976 314.636 305.326 314.636 305.72V311.243H313.295ZM327.635 302.516V303.652H322.93V302.516H327.635ZM324.339 311.243V301.311C324.339 300.811 324.457 300.395 324.691 300.061C324.926 299.728 325.231 299.478 325.606 299.311C325.981 299.145 326.377 299.061 326.794 299.061C327.123 299.061 327.392 299.088 327.601 299.141C327.809 299.194 327.964 299.243 328.066 299.289L327.68 300.448C327.612 300.425 327.517 300.397 327.396 300.362C327.279 300.328 327.123 300.311 326.93 300.311C326.487 300.311 326.167 300.423 325.97 300.647C325.777 300.87 325.68 301.198 325.68 301.63V311.243H324.339ZM329.514 311.243V302.516H330.809V303.834H330.9C331.059 303.402 331.347 303.052 331.764 302.783C332.181 302.514 332.65 302.38 333.173 302.38C333.271 302.38 333.395 302.381 333.542 302.385C333.69 302.389 333.802 302.395 333.878 302.402V303.766C333.832 303.755 333.728 303.737 333.565 303.715C333.406 303.688 333.237 303.675 333.059 303.675C332.635 303.675 332.256 303.764 331.923 303.942C331.593 304.116 331.332 304.359 331.139 304.669C330.95 304.976 330.855 305.326 330.855 305.72V311.243H329.514ZM338.747 311.425C337.959 311.425 337.268 311.237 336.673 310.862C336.082 310.487 335.62 309.963 335.287 309.289C334.957 308.614 334.792 307.826 334.792 306.925C334.792 306.016 334.957 305.222 335.287 304.544C335.62 303.866 336.082 303.34 336.673 302.965C337.268 302.59 337.959 302.402 338.747 302.402C339.535 302.402 340.224 302.59 340.815 302.965C341.41 303.34 341.872 303.866 342.201 304.544C342.535 305.222 342.701 306.016 342.701 306.925C342.701 307.826 342.535 308.614 342.201 309.289C341.872 309.963 341.41 310.487 340.815 310.862C340.224 311.237 339.535 311.425 338.747 311.425ZM338.747 310.22C339.345 310.22 339.838 310.067 340.224 309.76C340.61 309.453 340.896 309.05 341.082 308.55C341.268 308.05 341.36 307.508 341.36 306.925C341.36 306.342 341.268 305.798 341.082 305.294C340.896 304.791 340.61 304.383 340.224 304.073C339.838 303.762 339.345 303.607 338.747 303.607C338.148 303.607 337.656 303.762 337.27 304.073C336.883 304.383 336.597 304.791 336.412 305.294C336.226 305.798 336.133 306.342 336.133 306.925C336.133 307.508 336.226 308.05 336.412 308.55C336.597 309.05 336.883 309.453 337.27 309.76C337.656 310.067 338.148 310.22 338.747 310.22ZM344.748 311.243V302.516H346.044V303.88H346.157C346.339 303.414 346.633 303.052 347.038 302.794C347.443 302.533 347.93 302.402 348.498 302.402C349.074 302.402 349.553 302.533 349.936 302.794C350.322 303.052 350.623 303.414 350.839 303.88H350.93C351.154 303.429 351.489 303.071 351.936 302.806C352.383 302.537 352.919 302.402 353.544 302.402C354.324 302.402 354.962 302.647 355.458 303.135C355.955 303.62 356.203 304.376 356.203 305.402V311.243H354.862V305.402C354.862 304.758 354.686 304.298 354.333 304.022C353.981 303.745 353.566 303.607 353.089 303.607C352.476 303.607 352 303.792 351.663 304.164C351.326 304.531 351.157 304.997 351.157 305.561V311.243H349.794V305.266C349.794 304.77 349.633 304.37 349.311 304.067C348.989 303.76 348.574 303.607 348.066 303.607C347.718 303.607 347.392 303.7 347.089 303.885C346.79 304.071 346.548 304.328 346.362 304.658C346.18 304.984 346.089 305.361 346.089 305.789V311.243H344.748ZM366.95 302.516V303.652H362.427V302.516H366.95ZM363.745 300.425H365.086V308.743C365.086 309.122 365.141 309.406 365.251 309.595C365.365 309.781 365.509 309.906 365.683 309.97C365.861 310.031 366.048 310.061 366.245 310.061C366.393 310.061 366.514 310.054 366.609 310.039C366.704 310.02 366.78 310.005 366.836 309.993L367.109 311.198C367.018 311.232 366.891 311.266 366.728 311.3C366.566 311.338 366.359 311.357 366.109 311.357C365.73 311.357 365.359 311.275 364.995 311.112C364.636 310.95 364.336 310.701 364.098 310.368C363.863 310.035 363.745 309.614 363.745 309.107V300.425ZM370.495 305.993V311.243H369.155V299.607H370.495V303.88H370.609C370.814 303.429 371.12 303.071 371.53 302.806C371.942 302.537 372.492 302.402 373.177 302.402C373.772 302.402 374.293 302.522 374.74 302.76C375.187 302.995 375.533 303.357 375.78 303.845C376.03 304.33 376.155 304.948 376.155 305.698V311.243H374.814V305.789C374.814 305.095 374.634 304.559 374.274 304.181C373.918 303.798 373.423 303.607 372.791 303.607C372.351 303.607 371.958 303.7 371.609 303.885C371.264 304.071 370.992 304.342 370.791 304.698C370.594 305.054 370.495 305.486 370.495 305.993ZM382.267 311.425C381.426 311.425 380.7 311.239 380.091 310.868C379.485 310.493 379.017 309.97 378.687 309.3C378.361 308.626 378.199 307.842 378.199 306.948C378.199 306.054 378.361 305.266 378.687 304.584C379.017 303.898 379.475 303.364 380.062 302.982C380.653 302.595 381.342 302.402 382.13 302.402C382.585 302.402 383.034 302.478 383.477 302.63C383.92 302.781 384.324 303.027 384.687 303.368C385.051 303.705 385.341 304.152 385.557 304.709C385.772 305.266 385.88 305.951 385.88 306.766V307.334H379.153V306.175H384.517C384.517 305.683 384.418 305.243 384.221 304.857C384.028 304.47 383.752 304.166 383.392 303.942C383.036 303.719 382.615 303.607 382.13 303.607C381.596 303.607 381.134 303.739 380.744 304.005C380.358 304.266 380.06 304.607 379.852 305.027C379.644 305.448 379.539 305.898 379.539 306.38V307.152C379.539 307.811 379.653 308.37 379.88 308.828C380.111 309.283 380.432 309.63 380.841 309.868C381.25 310.103 381.725 310.22 382.267 310.22C382.619 310.22 382.937 310.171 383.221 310.073C383.509 309.97 383.757 309.819 383.966 309.618C384.174 309.414 384.335 309.16 384.449 308.857L385.744 309.22C385.608 309.66 385.378 310.046 385.057 310.38C384.735 310.709 384.337 310.967 383.863 311.152C383.39 311.334 382.858 311.425 382.267 311.425ZM393.761 299.607V311.243H392.42V299.607H393.761ZM399.876 311.425C399.035 311.425 398.31 311.239 397.7 310.868C397.094 310.493 396.626 309.97 396.297 309.3C395.971 308.626 395.808 307.842 395.808 306.948C395.808 306.054 395.971 305.266 396.297 304.584C396.626 303.898 397.084 303.364 397.672 302.982C398.262 302.595 398.952 302.402 399.74 302.402C400.194 302.402 400.643 302.478 401.086 302.63C401.53 302.781 401.933 303.027 402.297 303.368C402.66 303.705 402.95 304.152 403.166 304.709C403.382 305.266 403.49 305.951 403.49 306.766V307.334H396.762V306.175H402.126C402.126 305.683 402.028 305.243 401.831 304.857C401.637 304.47 401.361 304.166 401.001 303.942C400.645 303.719 400.225 303.607 399.74 303.607C399.206 303.607 398.744 303.739 398.353 304.005C397.967 304.266 397.67 304.607 397.461 305.027C397.253 305.448 397.149 305.898 397.149 306.38V307.152C397.149 307.811 397.262 308.37 397.49 308.828C397.721 309.283 398.041 309.63 398.45 309.868C398.859 310.103 399.334 310.22 399.876 310.22C400.228 310.22 400.547 310.171 400.831 310.073C401.119 309.97 401.367 309.819 401.575 309.618C401.783 309.414 401.944 309.16 402.058 308.857L403.353 309.22C403.217 309.66 402.988 310.046 402.666 310.38C402.344 310.709 401.946 310.967 401.473 311.152C400.999 311.334 400.467 311.425 399.876 311.425ZM409.416 302.516V303.652H404.711V302.516H409.416ZM406.12 311.243V301.311C406.12 300.811 406.238 300.395 406.473 300.061C406.708 299.728 407.012 299.478 407.387 299.311C407.762 299.145 408.158 299.061 408.575 299.061C408.905 299.061 409.173 299.088 409.382 299.141C409.59 299.194 409.745 299.243 409.848 299.289L409.461 300.448C409.393 300.425 409.298 300.397 409.177 300.362C409.06 300.328 408.905 300.311 408.711 300.311C408.268 300.311 407.948 300.423 407.751 300.647C407.558 300.87 407.461 301.198 407.461 301.63V311.243H406.12ZM415.091 302.516V303.652H410.568V302.516H415.091ZM411.886 300.425H413.227V308.743C413.227 309.122 413.282 309.406 413.392 309.595C413.505 309.781 413.649 309.906 413.824 309.97C414.002 310.031 414.189 310.061 414.386 310.061C414.534 310.061 414.655 310.054 414.75 310.039C414.844 310.02 414.92 310.005 414.977 309.993L415.25 311.198C415.159 311.232 415.032 311.266 414.869 311.3C414.706 311.338 414.5 311.357 414.25 311.357C413.871 311.357 413.5 311.275 413.136 311.112C412.776 310.95 412.477 310.701 412.238 310.368C412.003 310.035 411.886 309.614 411.886 309.107V300.425ZM425.403 302.516V303.652H420.88V302.516H425.403ZM422.199 300.425H423.539V308.743C423.539 309.122 423.594 309.406 423.704 309.595C423.818 309.781 423.962 309.906 424.136 309.97C424.314 310.031 424.502 310.061 424.699 310.061C424.846 310.061 424.967 310.054 425.062 310.039C425.157 310.02 425.233 310.005 425.289 309.993L425.562 311.198C425.471 311.232 425.344 311.266 425.182 311.3C425.019 311.338 424.812 311.357 424.562 311.357C424.183 311.357 423.812 311.275 423.449 311.112C423.089 310.95 422.789 310.701 422.551 310.368C422.316 310.035 422.199 309.614 422.199 309.107V300.425ZM430.872 311.425C430.084 311.425 429.393 311.237 428.798 310.862C428.207 310.487 427.745 309.963 427.412 309.289C427.082 308.614 426.917 307.826 426.917 306.925C426.917 306.016 427.082 305.222 427.412 304.544C427.745 303.866 428.207 303.34 428.798 302.965C429.393 302.59 430.084 302.402 430.872 302.402C431.66 302.402 432.349 302.59 432.94 302.965C433.535 303.34 433.997 303.866 434.326 304.544C434.66 305.222 434.826 306.016 434.826 306.925C434.826 307.826 434.66 308.614 434.326 309.289C433.997 309.963 433.535 310.487 432.94 310.862C432.349 311.237 431.66 311.425 430.872 311.425ZM430.872 310.22C431.47 310.22 431.963 310.067 432.349 309.76C432.735 309.453 433.021 309.05 433.207 308.55C433.393 308.05 433.485 307.508 433.485 306.925C433.485 306.342 433.393 305.798 433.207 305.294C433.021 304.791 432.735 304.383 432.349 304.073C431.963 303.762 431.47 303.607 430.872 303.607C430.273 303.607 429.781 303.762 429.395 304.073C429.008 304.383 428.722 304.791 428.537 305.294C428.351 305.798 428.258 306.342 428.258 306.925C428.258 307.508 428.351 308.05 428.537 308.55C428.722 309.05 429.008 309.453 429.395 309.76C429.781 310.067 430.273 310.22 430.872 310.22ZM204.627 326.516L201.4 335.243H200.036L196.809 326.516H198.263L200.672 333.47H200.763L203.172 326.516H204.627ZM206.397 335.243V326.516H207.738V335.243H206.397ZM207.079 325.061C206.817 325.061 206.592 324.972 206.402 324.794C206.217 324.616 206.124 324.402 206.124 324.152C206.124 323.902 206.217 323.688 206.402 323.51C206.592 323.332 206.817 323.243 207.079 323.243C207.34 323.243 207.563 323.332 207.749 323.51C207.938 323.688 208.033 323.902 208.033 324.152C208.033 324.402 207.938 324.616 207.749 324.794C207.563 324.972 207.34 325.061 207.079 325.061ZM216.375 328.47L215.171 328.811C215.095 328.611 214.983 328.416 214.836 328.226C214.692 328.033 214.495 327.874 214.245 327.749C213.995 327.624 213.675 327.561 213.284 327.561C212.75 327.561 212.305 327.684 211.949 327.931C211.597 328.173 211.421 328.482 211.421 328.857C211.421 329.19 211.542 329.453 211.784 329.647C212.027 329.84 212.406 330.001 212.921 330.13L214.216 330.448C214.997 330.637 215.578 330.927 215.961 331.317C216.343 331.703 216.534 332.201 216.534 332.811C216.534 333.311 216.391 333.758 216.103 334.152C215.819 334.546 215.421 334.857 214.909 335.084C214.398 335.311 213.803 335.425 213.125 335.425C212.235 335.425 211.499 335.232 210.915 334.845C210.332 334.459 209.963 333.895 209.807 333.152L211.08 332.834C211.201 333.304 211.43 333.656 211.767 333.891C212.108 334.126 212.553 334.243 213.103 334.243C213.728 334.243 214.224 334.111 214.591 333.845C214.963 333.576 215.148 333.255 215.148 332.88C215.148 332.576 215.042 332.323 214.83 332.118C214.618 331.91 214.292 331.755 213.853 331.652L212.398 331.311C211.599 331.122 211.012 330.828 210.637 330.431C210.266 330.029 210.08 329.527 210.08 328.925C210.08 328.433 210.218 327.997 210.495 327.618C210.775 327.239 211.156 326.942 211.637 326.726C212.122 326.51 212.671 326.402 213.284 326.402C214.148 326.402 214.826 326.592 215.319 326.97C215.815 327.349 216.167 327.849 216.375 328.47ZM224.053 331.675V326.516H225.394V335.243H224.053V333.766H223.962C223.758 334.209 223.439 334.586 223.008 334.897C222.576 335.203 222.03 335.357 221.371 335.357C220.826 335.357 220.341 335.237 219.917 334.999C219.492 334.756 219.159 334.393 218.917 333.908C218.674 333.419 218.553 332.804 218.553 332.061V326.516H219.894V331.97C219.894 332.607 220.072 333.114 220.428 333.493C220.788 333.872 221.246 334.061 221.803 334.061C222.136 334.061 222.475 333.976 222.82 333.806C223.168 333.635 223.46 333.374 223.695 333.022C223.934 332.669 224.053 332.22 224.053 331.675ZM230.418 335.448C229.865 335.448 229.363 335.344 228.912 335.135C228.462 334.923 228.104 334.618 227.838 334.22C227.573 333.819 227.441 333.334 227.441 332.766C227.441 332.266 227.539 331.861 227.736 331.55C227.933 331.236 228.196 330.989 228.526 330.811C228.856 330.633 229.219 330.501 229.617 330.414C230.018 330.323 230.422 330.251 230.827 330.198C231.357 330.13 231.787 330.078 232.117 330.044C232.45 330.006 232.693 329.944 232.844 329.857C232.999 329.77 233.077 329.618 233.077 329.402V329.357C233.077 328.796 232.924 328.361 232.617 328.05C232.314 327.739 231.854 327.584 231.236 327.584C230.596 327.584 230.094 327.724 229.731 328.005C229.367 328.285 229.111 328.584 228.963 328.902L227.691 328.448C227.918 327.917 228.221 327.505 228.6 327.209C228.982 326.91 229.399 326.701 229.85 326.584C230.304 326.463 230.751 326.402 231.191 326.402C231.471 326.402 231.793 326.436 232.157 326.505C232.524 326.569 232.878 326.703 233.219 326.908C233.564 327.112 233.85 327.421 234.077 327.834C234.304 328.247 234.418 328.8 234.418 329.493V335.243H233.077V334.061H233.009C232.918 334.251 232.766 334.453 232.554 334.669C232.342 334.885 232.06 335.069 231.708 335.22C231.356 335.372 230.926 335.448 230.418 335.448ZM230.623 334.243C231.153 334.243 231.6 334.139 231.963 333.931C232.331 333.722 232.607 333.453 232.793 333.124C232.982 332.794 233.077 332.448 233.077 332.084V330.857C233.02 330.925 232.895 330.987 232.702 331.044C232.513 331.097 232.293 331.145 232.043 331.186C231.797 331.224 231.556 331.258 231.321 331.289C231.09 331.315 230.903 331.338 230.759 331.357C230.41 331.402 230.085 331.476 229.782 331.578C229.482 331.677 229.24 331.826 229.054 332.027C228.873 332.224 228.782 332.493 228.782 332.834C228.782 333.3 228.954 333.652 229.299 333.891C229.647 334.126 230.088 334.243 230.623 334.243ZM238.206 323.607V335.243H236.865V323.607H238.206ZM240.662 335.243V326.516H242.003V335.243H240.662ZM241.344 325.061C241.083 325.061 240.857 324.972 240.668 324.794C240.482 324.616 240.39 324.402 240.39 324.152C240.39 323.902 240.482 323.688 240.668 323.51C240.857 323.332 241.083 323.243 241.344 323.243C241.606 323.243 241.829 323.332 242.015 323.51C242.204 323.688 242.299 323.902 242.299 324.152C242.299 324.402 242.204 324.616 242.015 324.794C241.829 324.972 241.606 325.061 241.344 325.061ZM244.209 335.243V334.22L249.164 327.857V327.766H244.368V326.516H250.891V327.584L246.073 333.902V333.993H251.05V335.243H244.209ZM256.525 335.425C255.684 335.425 254.958 335.239 254.348 334.868C253.742 334.493 253.275 333.97 252.945 333.3C252.619 332.626 252.456 331.842 252.456 330.948C252.456 330.054 252.619 329.266 252.945 328.584C253.275 327.898 253.733 327.364 254.32 326.982C254.911 326.595 255.6 326.402 256.388 326.402C256.843 326.402 257.292 326.478 257.735 326.63C258.178 326.781 258.581 327.027 258.945 327.368C259.309 327.705 259.598 328.152 259.814 328.709C260.03 329.266 260.138 329.951 260.138 330.766V331.334H253.411V330.175H258.775C258.775 329.683 258.676 329.243 258.479 328.857C258.286 328.47 258.009 328.166 257.65 327.942C257.293 327.719 256.873 327.607 256.388 327.607C255.854 327.607 255.392 327.739 255.002 328.005C254.615 328.266 254.318 328.607 254.11 329.027C253.901 329.448 253.797 329.898 253.797 330.38V331.152C253.797 331.811 253.911 332.37 254.138 332.828C254.369 333.283 254.689 333.63 255.098 333.868C255.508 334.103 255.983 334.22 256.525 334.22C256.877 334.22 257.195 334.171 257.479 334.073C257.767 333.97 258.015 333.819 258.223 333.618C258.432 333.414 258.593 333.16 258.706 332.857L260.002 333.22C259.865 333.66 259.636 334.046 259.314 334.38C258.992 334.709 258.595 334.967 258.121 335.152C257.648 335.334 257.115 335.425 256.525 335.425ZM269.973 335.425C269.246 335.425 268.604 335.241 268.047 334.874C267.49 334.503 267.055 333.98 266.74 333.306C266.426 332.628 266.269 331.826 266.269 330.902C266.269 329.986 266.426 329.19 266.74 328.516C267.055 327.842 267.492 327.321 268.053 326.953C268.614 326.586 269.261 326.402 269.996 326.402C270.564 326.402 271.013 326.497 271.343 326.686C271.676 326.872 271.93 327.084 272.104 327.323C272.282 327.558 272.42 327.751 272.519 327.902H272.633V323.607H273.973V335.243H272.678V333.902H272.519C272.42 334.061 272.28 334.262 272.098 334.505C271.917 334.743 271.657 334.957 271.32 335.147C270.983 335.332 270.534 335.425 269.973 335.425ZM270.155 334.22C270.693 334.22 271.148 334.08 271.519 333.8C271.89 333.516 272.172 333.124 272.365 332.624C272.559 332.12 272.655 331.539 272.655 330.88C272.655 330.228 272.561 329.658 272.371 329.169C272.182 328.677 271.901 328.294 271.53 328.022C271.159 327.745 270.701 327.607 270.155 327.607C269.587 327.607 269.114 327.753 268.735 328.044C268.36 328.332 268.078 328.724 267.888 329.22C267.703 329.713 267.61 330.266 267.61 330.88C267.61 331.501 267.704 332.065 267.894 332.573C268.087 333.076 268.371 333.478 268.746 333.777C269.125 334.073 269.595 334.22 270.155 334.22ZM279.184 335.448C278.631 335.448 278.129 335.344 277.678 335.135C277.227 334.923 276.869 334.618 276.604 334.22C276.339 333.819 276.206 333.334 276.206 332.766C276.206 332.266 276.305 331.861 276.502 331.55C276.699 331.236 276.962 330.989 277.292 330.811C277.621 330.633 277.985 330.501 278.383 330.414C278.784 330.323 279.187 330.251 279.593 330.198C280.123 330.13 280.553 330.078 280.883 330.044C281.216 330.006 281.458 329.944 281.61 329.857C281.765 329.77 281.843 329.618 281.843 329.402V329.357C281.843 328.796 281.689 328.361 281.383 328.05C281.079 327.739 280.619 327.584 280.002 327.584C279.362 327.584 278.86 327.724 278.496 328.005C278.133 328.285 277.877 328.584 277.729 328.902L276.456 328.448C276.684 327.917 276.987 327.505 277.365 327.209C277.748 326.91 278.165 326.701 278.615 326.584C279.07 326.463 279.517 326.402 279.956 326.402C280.237 326.402 280.559 326.436 280.922 326.505C281.29 326.569 281.644 326.703 281.985 326.908C282.329 327.112 282.615 327.421 282.843 327.834C283.07 328.247 283.184 328.8 283.184 329.493V335.243H281.843V334.061H281.775C281.684 334.251 281.532 334.453 281.32 334.669C281.108 334.885 280.826 335.069 280.473 335.22C280.121 335.372 279.691 335.448 279.184 335.448ZM279.388 334.243C279.918 334.243 280.365 334.139 280.729 333.931C281.097 333.722 281.373 333.453 281.559 333.124C281.748 332.794 281.843 332.448 281.843 332.084V330.857C281.786 330.925 281.661 330.987 281.468 331.044C281.278 331.097 281.059 331.145 280.809 331.186C280.562 331.224 280.322 331.258 280.087 331.289C279.856 331.315 279.668 331.338 279.525 331.357C279.176 331.402 278.85 331.476 278.547 331.578C278.248 331.677 278.006 331.826 277.82 332.027C277.638 332.224 277.547 332.493 277.547 332.834C277.547 333.3 277.72 333.652 278.064 333.891C278.413 334.126 278.854 334.243 279.388 334.243ZM289.427 326.516V327.652H284.904V326.516H289.427ZM286.222 324.425H287.563V332.743C287.563 333.122 287.618 333.406 287.728 333.595C287.841 333.781 287.985 333.906 288.159 333.97C288.338 334.031 288.525 334.061 288.722 334.061C288.87 334.061 288.991 334.054 289.086 334.039C289.18 334.02 289.256 334.005 289.313 333.993L289.586 335.198C289.495 335.232 289.368 335.266 289.205 335.3C289.042 335.338 288.836 335.357 288.586 335.357C288.207 335.357 287.836 335.275 287.472 335.112C287.112 334.95 286.813 334.701 286.574 334.368C286.339 334.035 286.222 333.614 286.222 333.107V324.425ZM294.012 335.448C293.459 335.448 292.957 335.344 292.506 335.135C292.055 334.923 291.697 334.618 291.432 334.22C291.167 333.819 291.034 333.334 291.034 332.766C291.034 332.266 291.133 331.861 291.33 331.55C291.527 331.236 291.79 330.989 292.12 330.811C292.449 330.633 292.813 330.501 293.211 330.414C293.612 330.323 294.016 330.251 294.421 330.198C294.951 330.13 295.381 330.078 295.711 330.044C296.044 330.006 296.286 329.944 296.438 329.857C296.593 329.77 296.671 329.618 296.671 329.402V329.357C296.671 328.796 296.517 328.361 296.211 328.05C295.908 327.739 295.447 327.584 294.83 327.584C294.19 327.584 293.688 327.724 293.324 328.005C292.961 328.285 292.705 328.584 292.557 328.902L291.284 328.448C291.512 327.917 291.815 327.505 292.194 327.209C292.576 326.91 292.993 326.701 293.444 326.584C293.898 326.463 294.345 326.402 294.784 326.402C295.065 326.402 295.387 326.436 295.75 326.505C296.118 326.569 296.472 326.703 296.813 326.908C297.158 327.112 297.444 327.421 297.671 327.834C297.898 328.247 298.012 328.8 298.012 329.493V335.243H296.671V334.061H296.603C296.512 334.251 296.36 334.453 296.148 334.669C295.936 334.885 295.654 335.069 295.302 335.22C294.949 335.372 294.519 335.448 294.012 335.448ZM294.216 334.243C294.747 334.243 295.194 334.139 295.557 333.931C295.925 333.722 296.201 333.453 296.387 333.124C296.576 332.794 296.671 332.448 296.671 332.084V330.857C296.614 330.925 296.489 330.987 296.296 331.044C296.106 331.097 295.887 331.145 295.637 331.186C295.391 331.224 295.15 331.258 294.915 331.289C294.684 331.315 294.497 331.338 294.353 331.357C294.004 331.402 293.678 331.476 293.375 331.578C293.076 331.677 292.834 331.826 292.648 332.027C292.466 332.224 292.375 332.493 292.375 332.834C292.375 333.3 292.548 333.652 292.892 333.891C293.241 334.126 293.682 334.243 294.216 334.243ZM308.505 335.425C307.717 335.425 307.025 335.237 306.431 334.862C305.84 334.487 305.378 333.963 305.044 333.289C304.715 332.614 304.55 331.826 304.55 330.925C304.55 330.016 304.715 329.222 305.044 328.544C305.378 327.866 305.84 327.34 306.431 326.965C307.025 326.59 307.717 326.402 308.505 326.402C309.293 326.402 309.982 326.59 310.573 326.965C311.168 327.34 311.63 327.866 311.959 328.544C312.293 329.222 312.459 330.016 312.459 330.925C312.459 331.826 312.293 332.614 311.959 333.289C311.63 333.963 311.168 334.487 310.573 334.862C309.982 335.237 309.293 335.425 308.505 335.425ZM308.505 334.22C309.103 334.22 309.596 334.067 309.982 333.76C310.368 333.453 310.654 333.05 310.84 332.55C311.025 332.05 311.118 331.508 311.118 330.925C311.118 330.342 311.025 329.798 310.84 329.294C310.654 328.791 310.368 328.383 309.982 328.073C309.596 327.762 309.103 327.607 308.505 327.607C307.906 327.607 307.414 327.762 307.027 328.073C306.641 328.383 306.355 328.791 306.169 329.294C305.984 329.798 305.891 330.342 305.891 330.925C305.891 331.508 305.984 332.05 306.169 332.55C306.355 333.05 306.641 333.453 307.027 333.76C307.414 334.067 307.906 334.22 308.505 334.22ZM315.847 329.993V335.243H314.506V326.516H315.802V327.88H315.915C316.12 327.436 316.43 327.08 316.847 326.811C317.264 326.539 317.802 326.402 318.461 326.402C319.052 326.402 319.569 326.523 320.012 326.766C320.455 327.005 320.8 327.368 321.046 327.857C321.292 328.342 321.415 328.955 321.415 329.698V335.243H320.074V329.789C320.074 329.103 319.896 328.569 319.54 328.186C319.184 327.8 318.695 327.607 318.074 327.607C317.646 327.607 317.264 327.7 316.927 327.885C316.593 328.071 316.33 328.342 316.137 328.698C315.944 329.054 315.847 329.486 315.847 329.993ZM332.161 326.516V327.652H327.638V326.516H332.161ZM328.956 324.425H330.297V332.743C330.297 333.122 330.352 333.406 330.462 333.595C330.576 333.781 330.72 333.906 330.894 333.97C331.072 334.031 331.259 334.061 331.456 334.061C331.604 334.061 331.725 334.054 331.82 334.039C331.915 334.02 331.99 334.005 332.047 333.993L332.32 335.198C332.229 335.232 332.102 335.266 331.939 335.3C331.776 335.338 331.57 335.357 331.32 335.357C330.941 335.357 330.57 335.275 330.206 335.112C329.847 334.95 329.547 334.701 329.309 334.368C329.074 334.035 328.956 333.614 328.956 333.107V324.425ZM335.706 329.993V335.243H334.365V323.607H335.706V327.88H335.82C336.025 327.429 336.331 327.071 336.74 326.806C337.153 326.537 337.703 326.402 338.388 326.402C338.983 326.402 339.504 326.522 339.951 326.76C340.398 326.995 340.744 327.357 340.99 327.845C341.24 328.33 341.365 328.948 341.365 329.698V335.243H340.025V329.789C340.025 329.095 339.845 328.559 339.485 328.181C339.129 327.798 338.634 327.607 338.002 327.607C337.562 327.607 337.168 327.7 336.82 327.885C336.475 328.071 336.203 328.342 336.002 328.698C335.805 329.054 335.706 329.486 335.706 329.993ZM347.478 335.425C346.637 335.425 345.911 335.239 345.302 334.868C344.695 334.493 344.228 333.97 343.898 333.3C343.572 332.626 343.409 331.842 343.409 330.948C343.409 330.054 343.572 329.266 343.898 328.584C344.228 327.898 344.686 327.364 345.273 326.982C345.864 326.595 346.553 326.402 347.341 326.402C347.796 326.402 348.245 326.478 348.688 326.63C349.131 326.781 349.534 327.027 349.898 327.368C350.262 327.705 350.552 328.152 350.767 328.709C350.983 329.266 351.091 329.951 351.091 330.766V331.334H344.364V330.175H349.728C349.728 329.683 349.629 329.243 349.432 328.857C349.239 328.47 348.963 328.166 348.603 327.942C348.247 327.719 347.826 327.607 347.341 327.607C346.807 327.607 346.345 327.739 345.955 328.005C345.569 328.266 345.271 328.607 345.063 329.027C344.855 329.448 344.75 329.898 344.75 330.38V331.152C344.75 331.811 344.864 332.37 345.091 332.828C345.322 333.283 345.642 333.63 346.052 333.868C346.461 334.103 346.936 334.22 347.478 334.22C347.83 334.22 348.148 334.171 348.432 334.073C348.72 333.97 348.968 333.819 349.177 333.618C349.385 333.414 349.546 333.16 349.659 332.857L350.955 333.22C350.819 333.66 350.589 334.046 350.267 334.38C349.945 334.709 349.548 334.967 349.074 335.152C348.601 335.334 348.069 335.425 347.478 335.425ZM361.177 335.425C360.358 335.425 359.654 335.232 359.063 334.845C358.472 334.459 358.017 333.927 357.699 333.249C357.381 332.571 357.222 331.796 357.222 330.925C357.222 330.039 357.385 329.256 357.711 328.578C358.04 327.897 358.499 327.364 359.086 326.982C359.677 326.595 360.366 326.402 361.154 326.402C361.767 326.402 362.32 326.516 362.813 326.743C363.305 326.97 363.709 327.289 364.023 327.698C364.338 328.107 364.533 328.584 364.608 329.13H363.267C363.165 328.732 362.938 328.38 362.586 328.073C362.237 327.762 361.767 327.607 361.177 327.607C360.654 327.607 360.195 327.743 359.802 328.016C359.411 328.285 359.106 328.666 358.887 329.158C358.671 329.647 358.563 330.22 358.563 330.88C358.563 331.554 358.669 332.141 358.881 332.641C359.097 333.141 359.4 333.529 359.79 333.806C360.184 334.082 360.646 334.22 361.177 334.22C361.525 334.22 361.841 334.16 362.125 334.039C362.409 333.917 362.65 333.743 362.847 333.516C363.044 333.289 363.184 333.016 363.267 332.698H364.608C364.533 333.213 364.345 333.677 364.046 334.09C363.75 334.499 363.358 334.825 362.87 335.067C362.385 335.306 361.82 335.425 361.177 335.425ZM367.909 329.993V335.243H366.569V323.607H367.909V327.88H368.023C368.228 327.429 368.534 327.071 368.944 326.806C369.356 326.537 369.906 326.402 370.591 326.402C371.186 326.402 371.707 326.522 372.154 326.76C372.601 326.995 372.947 327.357 373.194 327.845C373.444 328.33 373.569 328.948 373.569 329.698V335.243H372.228V329.789C372.228 329.095 372.048 328.559 371.688 328.181C371.332 327.798 370.838 327.607 370.205 327.607C369.766 327.607 369.372 327.7 369.023 327.885C368.678 328.071 368.406 328.342 368.205 328.698C368.008 329.054 367.909 329.486 367.909 329.993ZM378.59 335.448C378.037 335.448 377.535 335.344 377.084 335.135C376.633 334.923 376.275 334.618 376.01 334.22C375.745 333.819 375.613 333.334 375.613 332.766C375.613 332.266 375.711 331.861 375.908 331.55C376.105 331.236 376.368 330.989 376.698 330.811C377.027 330.633 377.391 330.501 377.789 330.414C378.19 330.323 378.594 330.251 378.999 330.198C379.529 330.13 379.959 330.078 380.289 330.044C380.622 330.006 380.865 329.944 381.016 329.857C381.171 329.77 381.249 329.618 381.249 329.402V329.357C381.249 328.796 381.096 328.361 380.789 328.05C380.486 327.739 380.025 327.584 379.408 327.584C378.768 327.584 378.266 327.724 377.902 328.005C377.539 328.285 377.283 328.584 377.135 328.902L375.863 328.448C376.09 327.917 376.393 327.505 376.772 327.209C377.154 326.91 377.571 326.701 378.022 326.584C378.476 326.463 378.923 326.402 379.363 326.402C379.643 326.402 379.965 326.436 380.329 326.505C380.696 326.569 381.05 326.703 381.391 326.908C381.736 327.112 382.022 327.421 382.249 327.834C382.476 328.247 382.59 328.8 382.59 329.493V335.243H381.249V334.061H381.181C381.09 334.251 380.938 334.453 380.726 334.669C380.514 334.885 380.232 335.069 379.88 335.22C379.527 335.372 379.097 335.448 378.59 335.448ZM378.794 334.243C379.325 334.243 379.772 334.139 380.135 333.931C380.503 333.722 380.779 333.453 380.965 333.124C381.154 332.794 381.249 332.448 381.249 332.084V330.857C381.192 330.925 381.067 330.987 380.874 331.044C380.685 331.097 380.465 331.145 380.215 331.186C379.969 331.224 379.728 331.258 379.493 331.289C379.262 331.315 379.075 331.338 378.931 331.357C378.582 331.402 378.257 331.476 377.954 331.578C377.654 331.677 377.412 331.826 377.226 332.027C377.044 332.224 376.954 332.493 376.954 332.834C376.954 333.3 377.126 333.652 377.471 333.891C377.819 334.126 378.26 334.243 378.794 334.243ZM385.037 335.243V326.516H386.333V327.834H386.424C386.583 327.402 386.871 327.052 387.287 326.783C387.704 326.514 388.174 326.38 388.696 326.38C388.795 326.38 388.918 326.381 389.066 326.385C389.213 326.389 389.325 326.395 389.401 326.402V327.766C389.356 327.755 389.251 327.737 389.088 327.715C388.929 327.688 388.761 327.675 388.583 327.675C388.159 327.675 387.78 327.764 387.446 327.942C387.117 328.116 386.856 328.359 386.662 328.669C386.473 328.976 386.378 329.326 386.378 329.72V335.243H385.037ZM395.333 326.516V327.652H390.81V326.516H395.333ZM392.128 324.425H393.469V332.743C393.469 333.122 393.524 333.406 393.634 333.595C393.748 333.781 393.891 333.906 394.066 333.97C394.244 334.031 394.431 334.061 394.628 334.061C394.776 334.061 394.897 334.054 394.992 334.039C395.087 334.02 395.162 334.005 395.219 333.993L395.492 335.198C395.401 335.232 395.274 335.266 395.111 335.3C394.948 335.338 394.742 335.357 394.492 335.357C394.113 335.357 393.742 335.275 393.378 335.112C393.018 334.95 392.719 334.701 392.481 334.368C392.246 334.035 392.128 333.614 392.128 333.107V324.425Z" fill="black" fill-opacity="0.45"/>
<defs>
<filter id="filter0_d_3817_3096" x="0.762817" y="45.334" width="208.667" height="78.8442" filterUnits="userSpaceOnUse" color-interpolation-filters="sRGB">
<feFlood flood-opacity="0" result="BackgroundImageFix"/>
<feColorMatrix in="SourceAlpha" type="matrix" values="0 0 0 0 0 0 0 0 0 0 0 0 0 0 0 0 0 0 127 0" result="hardAlpha"/>
<feOffset dy="1"/>
<feGaussianBlur stdDeviation="7.5"/>
<feComposite in2="hardAlpha" operator="out"/>
<feColorMatrix type="matrix" values="0 0 0 0 0 0 0 0 0 0 0 0 0 0 0 0 0 0 0.1 0"/>
<feBlend mode="normal" in2="BackgroundImageFix" result="effect1_dropShadow_3817_3096"/>
<feBlend mode="normal" in="SourceGraphic" in2="effect1_dropShadow_3817_3096" result="shape"/>
</filter>
<filter id="filter1_d_3817_3096" x="16.8123" y="61.4783" width="46.5556" height="46.5557" filterUnits="userSpaceOnUse" color-interpolation-filters="sRGB">
<feFlood flood-opacity="0" result="BackgroundImageFix"/>
<feColorMatrix in="SourceAlpha" type="matrix" values="0 0 0 0 0 0 0 0 0 0 0 0 0 0 0 0 0 0 127 0" result="hardAlpha"/>
<feOffset dy="1"/>
<feGaussianBlur stdDeviation="7"/>
<feComposite in2="hardAlpha" operator="out"/>
<feColorMatrix type="matrix" values="0 0 0 0 0 0 0 0 0 0 0 0 0 0 0 0 0 0 0.12 0"/>
<feBlend mode="normal" in2="BackgroundImageFix" result="effect1_dropShadow_3817_3096"/>
<feBlend mode="normal" in="SourceGraphic" in2="effect1_dropShadow_3817_3096" result="shape"/>
</filter>
</defs>
</svg>
