<svg width="224" height="215" viewBox="0 0 224 215" fill="none" xmlns="http://www.w3.org/2000/svg">
<line x1="0.490234" y1="2.53125" x2="224" y2="2.53125" stroke="black" stroke-opacity="0.15" stroke-dasharray="3 3"/>
<line x1="0.490234" y1="52.9609" x2="224" y2="52.9609" stroke="black" stroke-opacity="0.15" stroke-dasharray="3 3"/>
<line x1="0.490234" y1="103.398" x2="224" y2="103.398" stroke="black" stroke-opacity="0.15" stroke-dasharray="3 3"/>
<path d="M9.34961 16.25C9.34961 14.0409 11.1405 12.25 13.3496 12.25H35.3326C37.5418 12.25 39.3326 14.0409 39.3326 16.25V154.327H9.34961V16.25Z" fill="url(#paint0_linear_1_6043)"/>
<path d="M54.2344 66.2188C54.2344 64.0096 56.0252 62.2188 58.2344 62.2188H80.2174C82.4265 62.2188 84.2174 64.0096 84.2174 66.2187V154.324H54.2344V66.2188Z" fill="url(#paint1_linear_1_6043)"/>
<path d="M99.1211 46.625C99.1211 44.4159 100.912 42.625 103.121 42.625H125.104C127.313 42.625 129.104 44.4159 129.104 46.625V154.327H99.1211V46.625Z" fill="url(#paint2_linear_1_6043)"/>
<path d="M144.008 70.1406C144.008 67.9315 145.799 66.1406 148.008 66.1406H169.991C172.2 66.1406 173.991 67.9315 173.991 70.1406V154.326H144.008V70.1406Z" fill="url(#paint3_linear_1_6043)"/>
<path d="M188.893 59.3672C188.893 57.158 190.683 55.3672 192.893 55.3672H214.876C217.085 55.3672 218.876 57.158 218.876 59.3672V154.331H188.893V59.3672Z" fill="url(#paint4_linear_1_6043)"/>
<path d="M3.25462 100.379C13.8446 91.8445 38.5966 77.4841 52.8852 88.3197C70.7459 101.864 102.79 89.4219 115.886 79.8669C128.982 70.3118 144.684 72.3667 159.288 78.4883C173.892 84.6099 203.285 67.8175 220.884 52.2059" stroke="url(#paint5_linear_1_6043)" stroke-width="2" stroke-linecap="round"/>
<path d="M47.5795 200.922H46.5227C46.4602 200.618 46.3509 200.351 46.1946 200.121C46.0412 199.891 45.8537 199.698 45.6321 199.542C45.4134 199.382 45.1705 199.263 44.9034 199.184C44.6364 199.104 44.358 199.064 44.0682 199.064C43.5398 199.064 43.0611 199.198 42.6321 199.465C42.206 199.732 41.8665 200.125 41.6136 200.645C41.3636 201.165 41.2386 201.803 41.2386 202.559C41.2386 203.314 41.3636 203.952 41.6136 204.472C41.8665 204.992 42.206 205.385 42.6321 205.652C43.0611 205.919 43.5398 206.053 44.0682 206.053C44.358 206.053 44.6364 206.013 44.9034 205.934C45.1705 205.854 45.4134 205.736 45.6321 205.58C45.8537 205.421 46.0412 205.226 46.1946 204.996C46.3509 204.763 46.4602 204.496 46.5227 204.195H47.5795C47.5 204.641 47.3551 205.04 47.1449 205.392C46.9347 205.745 46.6733 206.044 46.3608 206.292C46.0483 206.536 45.6974 206.722 45.3082 206.85C44.9219 206.978 44.5085 207.042 44.0682 207.042C43.3239 207.042 42.6619 206.86 42.0824 206.496C41.5028 206.132 41.0469 205.615 40.7145 204.945C40.3821 204.275 40.2159 203.479 40.2159 202.559C40.2159 201.638 40.3821 200.843 40.7145 200.172C41.0469 199.502 41.5028 198.985 42.0824 198.621C42.6619 198.257 43.3239 198.076 44.0682 198.076C44.5085 198.076 44.9219 198.14 45.3082 198.267C45.6974 198.395 46.0483 198.583 46.3608 198.83C46.6733 199.074 46.9347 199.373 47.1449 199.725C47.3551 200.074 47.5 200.473 47.5795 200.922ZM51.81 207.059C51.2191 207.059 50.7006 206.918 50.2546 206.637C49.8114 206.356 49.4648 205.962 49.2148 205.456C48.9677 204.951 48.8441 204.36 48.8441 203.684C48.8441 203.002 48.9677 202.407 49.2148 201.898C49.4648 201.39 49.8114 200.995 50.2546 200.713C50.7006 200.432 51.2191 200.292 51.81 200.292C52.4009 200.292 52.918 200.432 53.3612 200.713C53.8072 200.995 54.1538 201.39 54.4009 201.898C54.6509 202.407 54.7759 203.002 54.7759 203.684C54.7759 204.36 54.6509 204.951 54.4009 205.456C54.1538 205.962 53.8072 206.356 53.3612 206.637C52.918 206.918 52.4009 207.059 51.81 207.059ZM51.81 206.155C52.2589 206.155 52.6282 206.04 52.918 205.81C53.2077 205.58 53.4222 205.277 53.5614 204.902C53.7006 204.527 53.7702 204.121 53.7702 203.684C53.7702 203.246 53.7006 202.838 53.5614 202.461C53.4222 202.083 53.2077 201.777 52.918 201.544C52.6282 201.311 52.2589 201.195 51.81 201.195C51.3612 201.195 50.9918 201.311 50.7021 201.544C50.4123 201.777 50.1978 202.083 50.0586 202.461C49.9194 202.838 49.8498 203.246 49.8498 203.684C49.8498 204.121 49.9194 204.527 50.0586 204.902C50.1978 205.277 50.4123 205.58 50.7021 205.81C50.9918 206.04 51.3612 206.155 51.81 206.155ZM58.2372 207.076C57.8224 207.076 57.446 206.998 57.108 206.841C56.7699 206.682 56.5014 206.454 56.3026 206.155C56.1037 205.854 56.0043 205.49 56.0043 205.064C56.0043 204.689 56.0781 204.385 56.2259 204.152C56.3736 203.917 56.571 203.732 56.8182 203.598C57.0653 203.465 57.3381 203.365 57.6364 203.3C57.9375 203.232 58.2401 203.178 58.544 203.138C58.9418 203.087 59.2642 203.049 59.5114 203.023C59.7614 202.995 59.9432 202.948 60.0568 202.882C60.1733 202.817 60.2315 202.704 60.2315 202.542V202.507C60.2315 202.087 60.1165 201.76 59.8864 201.527C59.6591 201.294 59.3139 201.178 58.8509 201.178C58.3707 201.178 57.9943 201.283 57.7216 201.493C57.4489 201.704 57.2571 201.928 57.1463 202.167L56.1918 201.826C56.3622 201.428 56.5895 201.118 56.8736 200.897C57.1605 200.672 57.473 200.516 57.8111 200.428C58.152 200.337 58.4872 200.292 58.8168 200.292C59.027 200.292 59.2685 200.317 59.5412 200.368C59.8168 200.417 60.0824 200.517 60.3381 200.671C60.5966 200.824 60.8111 201.056 60.9815 201.365C61.152 201.675 61.2372 202.09 61.2372 202.61V206.922H60.2315V206.036H60.1804C60.1122 206.178 59.9986 206.33 59.8395 206.492C59.6804 206.654 59.4688 206.792 59.2045 206.905C58.9403 207.019 58.6179 207.076 58.2372 207.076ZM58.3906 206.172C58.7884 206.172 59.1236 206.094 59.3963 205.938C59.6719 205.782 59.8793 205.58 60.0185 205.333C60.1605 205.086 60.2315 204.826 60.2315 204.553V203.632C60.1889 203.684 60.0952 203.731 59.9503 203.773C59.8082 203.813 59.6435 203.848 59.456 203.88C59.2713 203.908 59.0909 203.934 58.9148 203.956C58.7415 203.976 58.6009 203.993 58.4929 204.007C58.2315 204.042 57.9872 204.097 57.7599 204.174C57.5355 204.248 57.3537 204.36 57.2145 204.51C57.0781 204.658 57.0099 204.86 57.0099 205.115C57.0099 205.465 57.1392 205.729 57.3977 205.908C57.6591 206.084 57.9901 206.172 58.3906 206.172ZM64.0785 198.195V206.922H63.0728V198.195H64.0785ZM70.4886 198.195V206.922H69.4318V198.195H70.4886ZM73.4769 202.985V206.922H72.4712V200.377H73.4428V201.4H73.5281C73.6815 201.067 73.9144 200.8 74.2269 200.598C74.5394 200.394 74.9428 200.292 75.4371 200.292C75.8803 200.292 76.2681 200.382 76.6005 200.564C76.9329 200.743 77.1914 201.016 77.3761 201.382C77.5607 201.746 77.6531 202.206 77.6531 202.763V206.922H76.6474V202.831C76.6474 202.317 76.5138 201.917 76.2468 201.63C75.9798 201.34 75.6133 201.195 75.1474 201.195C74.8263 201.195 74.5394 201.265 74.2866 201.404C74.0366 201.543 73.8391 201.746 73.6942 202.013C73.5494 202.28 73.4769 202.604 73.4769 202.985ZM82.3374 200.377V201.229H78.9453V200.377H82.3374ZM79.9339 198.809H80.9396V205.047C80.9396 205.331 80.9808 205.544 81.0632 205.686C81.1484 205.826 81.2564 205.919 81.3871 205.968C81.5206 206.013 81.6612 206.036 81.8089 206.036C81.9197 206.036 82.0107 206.03 82.0817 206.019C82.1527 206.005 82.2095 205.993 82.2521 205.985L82.4567 206.888C82.3885 206.914 82.2933 206.939 82.1712 206.965C82.049 206.993 81.8942 207.007 81.7067 207.007C81.4226 207.007 81.1442 206.946 80.8714 206.824C80.6016 206.702 80.3771 206.516 80.1982 206.266C80.022 206.016 79.9339 205.701 79.9339 205.32V198.809ZM85.7763 207.076C85.3615 207.076 84.9851 206.998 84.647 206.841C84.3089 206.682 84.0405 206.454 83.8416 206.155C83.6428 205.854 83.5433 205.49 83.5433 205.064C83.5433 204.689 83.6172 204.385 83.7649 204.152C83.9126 203.917 84.1101 203.732 84.3572 203.598C84.6044 203.465 84.8771 203.365 85.1754 203.3C85.4766 203.232 85.7791 203.178 86.0831 203.138C86.4808 203.087 86.8033 203.049 87.0504 203.023C87.3004 202.995 87.4822 202.948 87.5959 202.882C87.7124 202.817 87.7706 202.704 87.7706 202.542V202.507C87.7706 202.087 87.6555 201.76 87.4254 201.527C87.1982 201.294 86.853 201.178 86.3899 201.178C85.9098 201.178 85.5334 201.283 85.2607 201.493C84.9879 201.704 84.7962 201.928 84.6854 202.167L83.7308 201.826C83.9013 201.428 84.1286 201.118 84.4126 200.897C84.6996 200.672 85.0121 200.516 85.3501 200.428C85.6911 200.337 86.0263 200.292 86.3558 200.292C86.5661 200.292 86.8075 200.317 87.0803 200.368C87.3558 200.417 87.6214 200.517 87.8771 200.671C88.1357 200.824 88.3501 201.056 88.5206 201.365C88.6911 201.675 88.7763 202.09 88.7763 202.61V206.922H87.7706V206.036H87.7195C87.6513 206.178 87.5376 206.33 87.3786 206.492C87.2195 206.654 87.0078 206.792 86.7436 206.905C86.4794 207.019 86.157 207.076 85.7763 207.076ZM85.9297 206.172C86.3274 206.172 86.6626 206.094 86.9354 205.938C87.2109 205.782 87.4183 205.58 87.5575 205.333C87.6996 205.086 87.7706 204.826 87.7706 204.553V203.632C87.728 203.684 87.6342 203.731 87.4893 203.773C87.3473 203.813 87.1825 203.848 86.995 203.88C86.8104 203.908 86.63 203.934 86.4538 203.956C86.2805 203.976 86.1399 203.993 86.032 204.007C85.7706 204.042 85.5263 204.097 85.299 204.174C85.0746 204.248 84.8928 204.36 84.7536 204.51C84.6172 204.658 84.549 204.86 84.549 205.115C84.549 205.465 84.6783 205.729 84.9368 205.908C85.1982 206.084 85.5291 206.172 85.9297 206.172ZM91.5494 204.536L91.5323 203.292H91.7369L94.6005 200.377H95.8448L92.7937 203.462H92.7085L91.5494 204.536ZM90.6119 206.922V198.195H91.6175V206.922H90.6119ZM94.771 206.922L92.2141 203.684L92.93 202.985L96.0494 206.922H94.771ZM99.614 207.059C98.9833 207.059 98.4393 206.919 97.9819 206.641C97.5273 206.36 97.1765 205.968 96.9293 205.465C96.685 204.959 96.5629 204.371 96.5629 203.701C96.5629 203.03 96.685 202.439 96.9293 201.928C97.1765 201.414 97.5202 201.013 97.9606 200.726C98.4038 200.436 98.9208 200.292 99.5117 200.292C99.8526 200.292 100.189 200.348 100.522 200.462C100.854 200.576 101.157 200.76 101.429 201.016C101.702 201.269 101.919 201.604 102.081 202.022C102.243 202.439 102.324 202.954 102.324 203.564V203.99H97.2788V203.121H101.301C101.301 202.752 101.228 202.422 101.08 202.132C100.935 201.843 100.728 201.614 100.458 201.446C100.191 201.279 99.8754 201.195 99.5117 201.195C99.1112 201.195 98.7646 201.294 98.4719 201.493C98.1822 201.689 97.9592 201.945 97.8029 202.26C97.6467 202.576 97.5685 202.914 97.5685 203.275V203.854C97.5685 204.348 97.6538 204.767 97.8242 205.111C97.9975 205.452 98.2376 205.712 98.5444 205.891C98.8512 206.067 99.2077 206.155 99.614 206.155C99.8782 206.155 100.117 206.118 100.33 206.044C100.546 205.968 100.732 205.854 100.888 205.704C101.044 205.55 101.165 205.36 101.25 205.132L102.222 205.405C102.12 205.735 101.948 206.025 101.706 206.275C101.465 206.522 101.167 206.715 100.811 206.854C100.456 206.99 100.057 207.059 99.614 207.059Z" fill="black" fill-opacity="0.15"/>
<path d="M19.7521 156.155V166.337H18.5589L13.0107 158.343H12.9112V166.337H11.6783V156.155H12.8714L18.4396 164.169H18.5391V156.155H19.7521ZM25.1625 166.496C24.4731 166.496 23.8682 166.332 23.3478 166.004C22.8308 165.676 22.4264 165.217 22.1348 164.627C21.8464 164.037 21.7022 163.347 21.7022 162.559C21.7022 161.763 21.8464 161.069 22.1348 160.475C22.4264 159.882 22.8308 159.421 23.3478 159.093C23.8682 158.765 24.4731 158.601 25.1625 158.601C25.8519 158.601 26.4551 158.765 26.9721 159.093C27.4925 159.421 27.8968 159.882 28.1852 160.475C28.4769 161.069 28.6227 161.763 28.6227 162.559C28.6227 163.347 28.4769 164.037 28.1852 164.627C27.8968 165.217 27.4925 165.676 26.9721 166.004C26.4551 166.332 25.8519 166.496 25.1625 166.496ZM25.1625 165.442C25.6861 165.442 26.117 165.308 26.4551 165.039C26.7931 164.771 27.0434 164.418 27.2058 163.98C27.3682 163.543 27.4494 163.069 27.4494 162.559C27.4494 162.048 27.3682 161.572 27.2058 161.132C27.0434 160.691 26.7931 160.335 26.4551 160.063C26.117 159.791 25.6861 159.655 25.1625 159.655C24.6388 159.655 24.2079 159.791 23.8699 160.063C23.5318 160.335 23.2815 160.691 23.1191 161.132C22.9567 161.572 22.8755 162.048 22.8755 162.559C22.8755 163.069 22.9567 163.543 23.1191 163.98C23.2815 164.418 23.5318 164.771 23.8699 165.039C24.2079 165.308 24.6388 165.442 25.1625 165.442ZM37.2347 166.496C36.5984 166.496 36.0366 166.335 35.5494 166.014C35.0621 165.689 34.681 165.232 34.4059 164.642C34.1308 164.048 33.9933 163.347 33.9933 162.539C33.9933 161.737 34.1308 161.041 34.4059 160.451C34.681 159.861 35.0638 159.405 35.5543 159.083C36.0449 158.762 36.6116 158.601 37.2546 158.601C37.7518 158.601 38.1445 158.684 38.4329 158.85C38.7246 159.012 38.9466 159.198 39.0991 159.407C39.2549 159.612 39.3758 159.781 39.462 159.914H39.5614V156.155H40.7347V166.337H39.6012V165.164H39.462C39.3758 165.303 39.2532 165.478 39.0941 165.691C38.935 165.899 38.708 166.087 38.413 166.252C38.118 166.415 37.7253 166.496 37.2347 166.496ZM37.3938 165.442C37.8645 165.442 38.2622 165.319 38.587 165.074C38.9118 164.826 39.1587 164.483 39.3278 164.045C39.4968 163.604 39.5813 163.095 39.5813 162.519C39.5813 161.949 39.4985 161.45 39.3327 161.022C39.167 160.591 38.9218 160.257 38.5969 160.018C38.2721 159.776 37.8711 159.655 37.3938 159.655C36.8967 159.655 36.4824 159.783 36.1509 160.038C35.8228 160.29 35.5759 160.633 35.4102 161.067C35.2478 161.498 35.1665 161.982 35.1665 162.519C35.1665 163.062 35.2494 163.556 35.4151 164C35.5842 164.441 35.8327 164.792 36.1609 165.054C36.4923 165.313 36.9033 165.442 37.3938 165.442ZM45.2937 166.516C44.8098 166.516 44.3706 166.425 43.9762 166.242C43.5818 166.057 43.2686 165.79 43.0366 165.442C42.8046 165.091 42.6886 164.666 42.6886 164.169C42.6886 163.732 42.7747 163.377 42.9471 163.105C43.1194 162.83 43.3498 162.615 43.6381 162.459C43.9265 162.303 44.2447 162.187 44.5927 162.111C44.944 162.032 45.297 161.969 45.6516 161.922C46.1156 161.862 46.4918 161.818 46.7802 161.788C47.0719 161.755 47.284 161.7 47.4165 161.624C47.5524 161.548 47.6204 161.415 47.6204 161.226V161.186C47.6204 160.696 47.4862 160.315 47.2177 160.043C46.9525 159.771 46.5498 159.635 46.0096 159.635C45.4495 159.635 45.0103 159.758 44.6921 160.003C44.3739 160.248 44.1502 160.51 44.021 160.789L42.9073 160.391C43.1062 159.927 43.3713 159.566 43.7028 159.307C44.0375 159.045 44.4021 158.863 44.7965 158.76C45.1942 158.654 45.5853 158.601 45.9698 158.601C46.2151 158.601 46.4968 158.631 46.815 158.691C47.1365 158.747 47.4464 158.865 47.7447 159.044C48.0463 159.223 48.2965 159.493 48.4954 159.854C48.6942 160.215 48.7937 160.699 48.7937 161.306V166.337H47.6204V165.303H47.5607C47.4812 165.469 47.3486 165.646 47.163 165.835C46.9774 166.024 46.7305 166.184 46.4222 166.317C46.114 166.45 45.7378 166.516 45.2937 166.516ZM45.4727 165.462C45.9367 165.462 46.3278 165.371 46.646 165.188C46.9674 165.006 47.2094 164.771 47.3718 164.483C47.5375 164.194 47.6204 163.891 47.6204 163.573V162.499C47.5707 162.559 47.4613 162.613 47.2923 162.663C47.1265 162.709 46.9343 162.751 46.7156 162.787C46.5001 162.82 46.2897 162.85 46.0842 162.877C45.882 162.9 45.7179 162.92 45.592 162.936C45.2871 162.976 45.002 163.041 44.7369 163.13C44.475 163.216 44.2629 163.347 44.1005 163.523C43.9414 163.695 43.8619 163.931 43.8619 164.229C43.8619 164.637 44.0127 164.945 44.3143 165.154C44.6192 165.359 45.0053 165.462 45.4727 165.462ZM54.2562 158.701V159.695H50.2988V158.701H54.2562ZM51.4522 156.871H52.6255V164.149C52.6255 164.481 52.6736 164.729 52.7697 164.895C52.8691 165.058 52.9951 165.167 53.1475 165.223C53.3033 165.276 53.4674 165.303 53.6397 165.303C53.769 165.303 53.8751 165.296 53.9579 165.283C54.0408 165.266 54.1071 165.253 54.1568 165.243L54.3954 166.297C54.3159 166.327 54.2048 166.357 54.0623 166.387C53.9198 166.42 53.7392 166.436 53.5204 166.436C53.189 166.436 52.8642 166.365 52.546 166.223C52.2311 166.08 51.9693 165.863 51.7605 165.571C51.555 165.28 51.4522 164.912 51.4522 164.468V156.871ZM58.2683 166.516C57.7844 166.516 57.3452 166.425 56.9508 166.242C56.5564 166.057 56.2432 165.79 56.0112 165.442C55.7792 165.091 55.6632 164.666 55.6632 164.169C55.6632 163.732 55.7493 163.377 55.9217 163.105C56.094 162.83 56.3244 162.615 56.6127 162.459C56.9011 162.303 57.2193 162.187 57.5673 162.111C57.9186 162.032 58.2716 161.969 58.6262 161.922C59.0903 161.862 59.4664 161.818 59.7548 161.788C60.0465 161.755 60.2586 161.7 60.3912 161.624C60.527 161.548 60.595 161.415 60.595 161.226V161.186C60.595 160.696 60.4608 160.315 60.1923 160.043C59.9271 159.771 59.5244 159.635 58.9842 159.635C58.4241 159.635 57.9849 159.758 57.6667 160.003C57.3485 160.248 57.1248 160.51 56.9956 160.789L55.8819 160.391C56.0808 159.927 56.3459 159.566 56.6774 159.307C57.0121 159.045 57.3767 158.863 57.7711 158.76C58.1689 158.654 58.56 158.601 58.9444 158.601C59.1897 158.601 59.4714 158.631 59.7896 158.691C60.1111 158.747 60.421 158.865 60.7193 159.044C61.0209 159.223 61.2711 159.493 61.47 159.854C61.6689 160.215 61.7683 160.699 61.7683 161.306V166.337H60.595V165.303H60.5353C60.4558 165.469 60.3232 165.646 60.1376 165.835C59.952 166.024 59.7051 166.184 59.3968 166.317C59.0886 166.45 58.7124 166.516 58.2683 166.516ZM58.4473 165.462C58.9113 165.462 59.3024 165.371 59.6206 165.188C59.9421 165.006 60.184 164.771 60.3464 164.483C60.5121 164.194 60.595 163.891 60.595 163.573V162.499C60.5453 162.559 60.4359 162.613 60.2669 162.663C60.1011 162.709 59.9089 162.751 59.6902 162.787C59.4747 162.82 59.2643 162.85 59.0588 162.877C58.8566 162.9 58.6925 162.92 58.5666 162.936C58.2617 162.976 57.9766 163.041 57.7115 163.13C57.4496 163.216 57.2375 163.347 57.0751 163.523C56.916 163.695 56.8365 163.931 56.8365 164.229C56.8365 164.637 56.9873 164.945 57.2889 165.154C57.5938 165.359 57.9799 165.462 58.4473 165.462ZM70.0945 166.516C69.6106 166.516 69.1714 166.425 68.777 166.242C68.3826 166.057 68.0694 165.79 67.8374 165.442C67.6054 165.091 67.4893 164.666 67.4893 164.169C67.4893 163.732 67.5755 163.377 67.7479 163.105C67.9202 162.83 68.1506 162.615 68.4389 162.459C68.7273 162.303 69.0455 162.187 69.3935 162.111C69.7448 162.032 70.0978 161.969 70.4524 161.922C70.9164 161.862 71.2926 161.818 71.581 161.788C71.8726 161.755 72.0848 161.7 72.2173 161.624C72.3532 161.548 72.4212 161.415 72.4212 161.226V161.186C72.4212 160.696 72.2869 160.315 72.0185 160.043C71.7533 159.771 71.3506 159.635 70.8104 159.635C70.2502 159.635 69.8111 159.758 69.4929 160.003C69.1747 160.248 68.951 160.51 68.8217 160.789L67.7081 160.391C67.907 159.927 68.1721 159.566 68.5036 159.307C68.8383 159.045 69.2029 158.863 69.5973 158.76C69.995 158.654 70.3861 158.601 70.7706 158.601C71.0159 158.601 71.2976 158.631 71.6158 158.691C71.9373 158.747 72.2472 158.865 72.5455 159.044C72.8471 159.223 73.0973 159.493 73.2962 159.854C73.495 160.215 73.5945 160.699 73.5945 161.306V166.337H72.4212V165.303H72.3615C72.282 165.469 72.1494 165.646 71.9638 165.835C71.7782 166.024 71.5313 166.184 71.223 166.317C70.9148 166.45 70.5386 166.516 70.0945 166.516ZM70.2734 165.462C70.7375 165.462 71.1286 165.371 71.4467 165.188C71.7682 165.006 72.0102 164.771 72.1726 164.483C72.3383 164.194 72.4212 163.891 72.4212 163.573V162.499C72.3714 162.559 72.2621 162.613 72.093 162.663C71.9273 162.709 71.7351 162.751 71.5163 162.787C71.3009 162.82 71.0904 162.85 70.8849 162.877C70.6828 162.9 70.5187 162.92 70.3928 162.936C70.0878 162.976 69.8028 163.041 69.5376 163.13C69.2758 163.216 69.0637 163.347 68.9013 163.523C68.7422 163.695 68.6626 163.931 68.6626 164.229C68.6626 164.637 68.8134 164.945 69.1151 165.154C69.42 165.359 69.8061 165.462 70.2734 165.462ZM81.7069 158.701L78.883 166.337H77.6898L74.8659 158.701H76.1387L78.2466 164.786H78.3262L80.4341 158.701H81.7069ZM85.2702 166.516C84.7863 166.516 84.3472 166.425 83.9528 166.242C83.5584 166.057 83.2451 165.79 83.0131 165.442C82.7811 165.091 82.6651 164.666 82.6651 164.169C82.6651 163.732 82.7513 163.377 82.9237 163.105C83.096 162.83 83.3263 162.615 83.6147 162.459C83.9031 162.303 84.2212 162.187 84.5692 162.111C84.9206 162.032 85.2736 161.969 85.6282 161.922C86.0922 161.862 86.4684 161.818 86.7567 161.788C87.0484 161.755 87.2605 161.7 87.3931 161.624C87.529 161.548 87.5969 161.415 87.5969 161.226V161.186C87.5969 160.696 87.4627 160.315 87.1942 160.043C86.9291 159.771 86.5264 159.635 85.9862 159.635C85.426 159.635 84.9869 159.758 84.6687 160.003C84.3505 160.248 84.1268 160.51 83.9975 160.789L82.8839 160.391C83.0827 159.927 83.3479 159.566 83.6793 159.307C84.0141 159.045 84.3787 158.863 84.7731 158.76C85.1708 158.654 85.5619 158.601 85.9464 158.601C86.1916 158.601 86.4734 158.631 86.7915 158.691C87.113 158.747 87.4229 158.865 87.7212 159.044C88.0228 159.223 88.2731 159.493 88.4719 159.854C88.6708 160.215 88.7702 160.699 88.7702 161.306V166.337H87.5969V165.303H87.5373C87.4577 165.469 87.3252 165.646 87.1396 165.835C86.954 166.024 86.707 166.184 86.3988 166.317C86.0906 166.45 85.7144 166.516 85.2702 166.516ZM85.4492 165.462C85.9132 165.462 86.3043 165.371 86.6225 165.188C86.944 165.006 87.186 164.771 87.3484 164.483C87.5141 164.194 87.5969 163.891 87.5969 163.573V162.499C87.5472 162.559 87.4379 162.613 87.2688 162.663C87.1031 162.709 86.9109 162.751 86.6921 162.787C86.4767 162.82 86.2662 162.85 86.0607 162.877C85.8585 162.9 85.6945 162.92 85.5685 162.936C85.2636 162.976 84.9786 163.041 84.7134 163.13C84.4516 163.216 84.2395 163.347 84.0771 163.523C83.918 163.695 83.8384 163.931 83.8384 164.229C83.8384 164.637 83.9892 164.945 84.2908 165.154C84.5958 165.359 84.9819 165.462 85.4492 165.462ZM90.9118 166.337V158.701H92.085V166.337H90.9118ZM91.5083 157.428C91.2797 157.428 91.0824 157.35 90.9167 157.194C90.7543 157.038 90.6731 156.851 90.6731 156.632C90.6731 156.414 90.7543 156.226 90.9167 156.071C91.0824 155.915 91.2797 155.837 91.5083 155.837C91.737 155.837 91.9326 155.915 92.095 156.071C92.2607 156.226 92.3436 156.414 92.3436 156.632C92.3436 156.851 92.2607 157.038 92.095 157.194C91.9326 157.35 91.737 157.428 91.5083 157.428ZM95.4073 156.155V166.337H94.234V156.155H95.4073ZM99.8034 166.516C99.3195 166.516 98.8804 166.425 98.486 166.242C98.0916 166.057 97.7783 165.79 97.5463 165.442C97.3143 165.091 97.1983 164.666 97.1983 164.169C97.1983 163.732 97.2845 163.377 97.4569 163.105C97.6292 162.83 97.8596 162.615 98.1479 162.459C98.4363 162.303 98.7544 162.187 99.1025 162.111C99.4538 162.032 99.8068 161.969 100.161 161.922C100.625 161.862 101.002 161.818 101.29 161.788C101.582 161.755 101.794 161.7 101.926 161.624C102.062 161.548 102.13 161.415 102.13 161.226V161.186C102.13 160.696 101.996 160.315 101.727 160.043C101.462 159.771 101.06 159.635 100.519 159.635C99.9592 159.635 99.5201 159.758 99.2019 160.003C98.8837 160.248 98.66 160.51 98.5307 160.789L97.4171 160.391C97.6159 159.927 97.8811 159.566 98.2125 159.307C98.5473 159.045 98.9119 158.863 99.3063 158.76C99.704 158.654 100.095 158.601 100.48 158.601C100.725 158.601 101.007 158.631 101.325 158.691C101.646 158.747 101.956 158.865 102.254 159.044C102.556 159.223 102.806 159.493 103.005 159.854C103.204 160.215 103.303 160.699 103.303 161.306V166.337H102.13V165.303H102.07C101.991 165.469 101.858 165.646 101.673 165.835C101.487 166.024 101.24 166.184 100.932 166.317C100.624 166.45 100.248 166.516 99.8034 166.516ZM99.9824 165.462C100.446 165.462 100.838 165.371 101.156 165.188C101.477 165.006 101.719 164.771 101.882 164.483C102.047 164.194 102.13 163.891 102.13 163.573V162.499C102.08 162.559 101.971 162.613 101.802 162.663C101.636 162.709 101.444 162.751 101.225 162.787C101.01 162.82 100.799 162.85 100.594 162.877C100.392 162.9 100.228 162.92 100.102 162.936C99.7968 162.976 99.5118 163.041 99.2466 163.13C98.9848 163.216 98.7727 163.347 98.6103 163.523C98.4512 163.695 98.3716 163.931 98.3716 164.229C98.3716 164.637 98.5224 164.945 98.824 165.154C99.129 165.359 99.5151 165.462 99.9824 165.462ZM105.604 166.337V156.155H106.777V159.914H106.877C106.963 159.781 107.082 159.612 107.235 159.407C107.391 159.198 107.613 159.012 107.901 158.85C108.193 158.684 108.587 158.601 109.084 158.601C109.727 158.601 110.294 158.762 110.784 159.083C111.275 159.405 111.658 159.861 111.933 160.451C112.208 161.041 112.346 161.737 112.346 162.539C112.346 163.347 112.208 164.048 111.933 164.642C111.658 165.232 111.277 165.689 110.789 166.014C110.302 166.335 109.74 166.496 109.104 166.496C108.614 166.496 108.221 166.415 107.926 166.252C107.631 166.087 107.404 165.899 107.245 165.691C107.086 165.478 106.963 165.303 106.877 165.164H106.738V166.337H105.604ZM106.757 162.519C106.757 163.095 106.842 163.604 107.011 164.045C107.18 164.483 107.427 164.826 107.752 165.074C108.077 165.319 108.474 165.442 108.945 165.442C109.435 165.442 109.845 165.313 110.173 165.054C110.504 164.792 110.753 164.441 110.919 164C111.088 163.556 111.172 163.062 111.172 162.519C111.172 161.982 111.089 161.498 110.924 161.067C110.761 160.633 110.514 160.29 110.183 160.038C109.855 159.783 109.442 159.655 108.945 159.655C108.468 159.655 108.067 159.776 107.742 160.018C107.417 160.257 107.172 160.591 107.006 161.022C106.84 161.45 106.757 161.949 106.757 162.519ZM115.314 156.155V166.337H114.14V156.155H115.314ZM120.664 166.496C119.928 166.496 119.294 166.334 118.76 166.009C118.23 165.681 117.82 165.223 117.532 164.637C117.247 164.047 117.105 163.361 117.105 162.578C117.105 161.796 117.247 161.107 117.532 160.51C117.82 159.91 118.222 159.443 118.735 159.108C119.252 158.77 119.856 158.601 120.545 158.601C120.943 158.601 121.335 158.667 121.723 158.8C122.111 158.933 122.464 159.148 122.782 159.446C123.1 159.741 123.354 160.132 123.543 160.62C123.732 161.107 123.826 161.707 123.826 162.419V162.916H117.94V161.902H122.633C122.633 161.471 122.547 161.087 122.374 160.749C122.205 160.411 121.963 160.144 121.649 159.948C121.337 159.753 120.969 159.655 120.545 159.655C120.078 159.655 119.673 159.771 119.332 160.003C118.994 160.232 118.734 160.53 118.551 160.898C118.369 161.266 118.278 161.66 118.278 162.081V162.757C118.278 163.334 118.377 163.823 118.576 164.224C118.778 164.622 119.058 164.925 119.416 165.134C119.774 165.339 120.19 165.442 120.664 165.442C120.972 165.442 121.251 165.399 121.499 165.313C121.751 165.223 121.968 165.091 122.151 164.915C122.333 164.736 122.474 164.514 122.573 164.249L123.707 164.567C123.588 164.951 123.387 165.29 123.105 165.581C122.824 165.87 122.476 166.095 122.061 166.257C121.647 166.416 121.181 166.496 120.664 166.496ZM132.949 158.701V159.695H128.833V158.701H132.949ZM130.066 166.337V157.647C130.066 157.209 130.168 156.844 130.374 156.553C130.579 156.261 130.846 156.042 131.174 155.897C131.502 155.751 131.849 155.678 132.213 155.678C132.502 155.678 132.737 155.701 132.919 155.747C133.102 155.794 133.237 155.837 133.327 155.877L132.989 156.891C132.929 156.871 132.846 156.846 132.74 156.816C132.637 156.786 132.502 156.772 132.333 156.772C131.945 156.772 131.665 156.869 131.492 157.065C131.323 157.26 131.239 157.547 131.239 157.925V166.337H130.066ZM137.381 166.496C136.692 166.496 136.087 166.332 135.567 166.004C135.05 165.676 134.645 165.217 134.354 164.627C134.065 164.037 133.921 163.347 133.921 162.559C133.921 161.763 134.065 161.069 134.354 160.475C134.645 159.882 135.05 159.421 135.567 159.093C136.087 158.765 136.692 158.601 137.381 158.601C138.071 158.601 138.674 158.765 139.191 159.093C139.711 159.421 140.116 159.882 140.404 160.475C140.696 161.069 140.841 161.763 140.841 162.559C140.841 163.347 140.696 164.037 140.404 164.627C140.116 165.217 139.711 165.676 139.191 166.004C138.674 166.332 138.071 166.496 137.381 166.496ZM137.381 165.442C137.905 165.442 138.336 165.308 138.674 165.039C139.012 164.771 139.262 164.418 139.425 163.98C139.587 163.543 139.668 163.069 139.668 162.559C139.668 162.048 139.587 161.572 139.425 161.132C139.262 160.691 139.012 160.335 138.674 160.063C138.336 159.791 137.905 159.655 137.381 159.655C136.858 159.655 136.427 159.791 136.089 160.063C135.751 160.335 135.5 160.691 135.338 161.132C135.175 161.572 135.094 162.048 135.094 162.559C135.094 163.069 135.175 163.543 135.338 163.98C135.5 164.418 135.751 164.771 136.089 165.039C136.427 165.308 136.858 165.442 137.381 165.442ZM142.632 166.337V158.701H143.766V159.854H143.846C143.985 159.476 144.237 159.17 144.601 158.934C144.966 158.699 145.377 158.581 145.834 158.581C145.92 158.581 146.028 158.583 146.157 158.586C146.287 158.59 146.384 158.594 146.451 158.601V159.794C146.411 159.784 146.32 159.769 146.177 159.75C146.038 159.726 145.891 159.715 145.735 159.715C145.364 159.715 145.032 159.793 144.74 159.948C144.452 160.101 144.223 160.313 144.054 160.585C143.889 160.853 143.806 161.16 143.806 161.505V166.337H142.632ZM155.1 158.701V159.695H151.143V158.701H155.1ZM152.296 156.871H153.469V164.149C153.469 164.481 153.517 164.729 153.613 164.895C153.713 165.058 153.839 165.167 153.991 165.223C154.147 165.276 154.311 165.303 154.483 165.303C154.613 165.303 154.719 165.296 154.802 165.283C154.885 165.266 154.951 165.253 155.001 165.243L155.239 166.297C155.16 166.327 155.049 166.357 154.906 166.387C154.764 166.42 154.583 166.436 154.364 166.436C154.033 166.436 153.708 166.365 153.39 166.223C153.075 166.08 152.813 165.863 152.604 165.571C152.399 165.28 152.296 164.912 152.296 164.468V156.871ZM158.202 161.743V166.337H157.029V156.155H158.202V159.894H158.302C158.481 159.499 158.749 159.186 159.107 158.954C159.468 158.719 159.949 158.601 160.549 158.601C161.069 158.601 161.525 158.706 161.916 158.914C162.307 159.12 162.61 159.436 162.826 159.864C163.045 160.288 163.154 160.828 163.154 161.485V166.337H161.981V161.564C161.981 160.958 161.823 160.489 161.508 160.157C161.197 159.822 160.764 159.655 160.211 159.655C159.826 159.655 159.482 159.736 159.177 159.899C158.875 160.061 158.636 160.298 158.461 160.61C158.288 160.921 158.202 161.299 158.202 161.743ZM165.3 166.337V158.701H166.474V166.337H165.3ZM165.897 157.428C165.668 157.428 165.471 157.35 165.305 157.194C165.143 157.038 165.062 156.851 165.062 156.632C165.062 156.414 165.143 156.226 165.305 156.071C165.471 155.915 165.668 155.837 165.897 155.837C166.126 155.837 166.321 155.915 166.484 156.071C166.649 156.226 166.732 156.414 166.732 156.632C166.732 156.851 166.649 157.038 166.484 157.194C166.321 157.35 166.126 157.428 165.897 157.428ZM174.032 160.411L172.978 160.709C172.912 160.533 172.814 160.363 172.684 160.197C172.559 160.028 172.386 159.889 172.167 159.779C171.949 159.67 171.669 159.615 171.327 159.615C170.86 159.615 170.47 159.723 170.159 159.938C169.851 160.151 169.697 160.421 169.697 160.749C169.697 161.041 169.803 161.271 170.015 161.44C170.227 161.609 170.558 161.75 171.009 161.862L172.143 162.141C172.825 162.307 173.334 162.56 173.669 162.902C174.004 163.24 174.171 163.675 174.171 164.209C174.171 164.647 174.045 165.038 173.793 165.382C173.545 165.727 173.197 165.999 172.749 166.198C172.302 166.397 171.781 166.496 171.188 166.496C170.409 166.496 169.765 166.327 169.254 165.989C168.744 165.651 168.421 165.157 168.285 164.507L169.398 164.229C169.504 164.64 169.705 164.948 170 165.154C170.298 165.359 170.688 165.462 171.168 165.462C171.715 165.462 172.149 165.346 172.471 165.114C172.796 164.879 172.958 164.597 172.958 164.269C172.958 164.004 172.865 163.782 172.68 163.603C172.494 163.42 172.209 163.284 171.824 163.195L170.552 162.897C169.852 162.731 169.339 162.474 169.01 162.126C168.686 161.775 168.523 161.335 168.523 160.809C168.523 160.378 168.644 159.996 168.886 159.665C169.131 159.334 169.465 159.073 169.885 158.884C170.31 158.696 170.79 158.601 171.327 158.601C172.083 158.601 172.676 158.767 173.107 159.098C173.541 159.43 173.849 159.867 174.032 160.411ZM182.977 166.496C182.261 166.496 181.645 166.327 181.127 165.989C180.61 165.651 180.213 165.185 179.934 164.592C179.656 163.999 179.517 163.321 179.517 162.559C179.517 161.783 179.659 161.099 179.944 160.505C180.233 159.909 180.634 159.443 181.147 159.108C181.664 158.77 182.268 158.601 182.957 158.601C183.494 158.601 183.978 158.701 184.409 158.899C184.84 159.098 185.193 159.377 185.468 159.735C185.743 160.093 185.913 160.51 185.98 160.987H184.806C184.717 160.639 184.518 160.331 184.21 160.063C183.905 159.791 183.494 159.655 182.977 159.655C182.52 159.655 182.118 159.774 181.774 160.013C181.432 160.248 181.166 160.581 180.973 161.012C180.784 161.44 180.69 161.942 180.69 162.519C180.69 163.109 180.783 163.622 180.968 164.06C181.157 164.497 181.422 164.837 181.764 165.079C182.109 165.321 182.513 165.442 182.977 165.442C183.282 165.442 183.559 165.389 183.807 165.283C184.056 165.177 184.266 165.024 184.439 164.826C184.611 164.627 184.734 164.388 184.806 164.11H185.98C185.913 164.56 185.749 164.966 185.488 165.328C185.229 165.686 184.886 165.971 184.458 166.183C184.034 166.392 183.54 166.496 182.977 166.496ZM188.868 161.743V166.337H187.695V156.155H188.868V159.894H188.968C189.147 159.499 189.415 159.186 189.773 158.954C190.134 158.719 190.615 158.601 191.215 158.601C191.735 158.601 192.191 158.706 192.582 158.914C192.973 159.12 193.276 159.436 193.492 159.864C193.711 160.288 193.82 160.828 193.82 161.485V166.337H192.647V161.564C192.647 160.958 192.489 160.489 192.174 160.157C191.863 159.822 191.43 159.655 190.877 159.655C190.492 159.655 190.148 159.736 189.843 159.899C189.541 160.061 189.302 160.298 189.127 160.61C188.954 160.921 188.868 161.299 188.868 161.743ZM198.214 166.516C197.73 166.516 197.291 166.425 196.896 166.242C196.502 166.057 196.189 165.79 195.956 165.442C195.724 165.091 195.608 164.666 195.608 164.169C195.608 163.732 195.695 163.377 195.867 163.105C196.039 162.83 196.27 162.615 196.558 162.459C196.846 162.303 197.165 162.187 197.513 162.111C197.864 162.032 198.217 161.969 198.572 161.922C199.036 161.862 199.412 161.818 199.7 161.788C199.992 161.755 200.204 161.7 200.336 161.624C200.472 161.548 200.54 161.415 200.54 161.226V161.186C200.54 160.696 200.406 160.315 200.138 160.043C199.872 159.771 199.47 159.635 198.93 159.635C198.369 159.635 197.93 159.758 197.612 160.003C197.294 160.248 197.07 160.51 196.941 160.789L195.827 160.391C196.026 159.927 196.291 159.566 196.623 159.307C196.957 159.045 197.322 158.863 197.716 158.76C198.114 158.654 198.505 158.601 198.89 158.601C199.135 158.601 199.417 158.631 199.735 158.691C200.056 158.747 200.366 158.865 200.665 159.044C200.966 159.223 201.216 159.493 201.415 159.854C201.614 160.215 201.714 160.699 201.714 161.306V166.337H200.54V165.303H200.481C200.401 165.469 200.269 165.646 200.083 165.835C199.897 166.024 199.65 166.184 199.342 166.317C199.034 166.45 198.658 166.516 198.214 166.516ZM198.393 165.462C198.857 165.462 199.248 165.371 199.566 165.188C199.887 165.006 200.129 164.771 200.292 164.483C200.457 164.194 200.54 163.891 200.54 163.573V162.499C200.491 162.559 200.381 162.613 200.212 162.663C200.046 162.709 199.854 162.751 199.635 162.787C199.42 162.82 199.21 162.85 199.004 162.877C198.802 162.9 198.638 162.92 198.512 162.936C198.207 162.976 197.922 163.041 197.657 163.13C197.395 163.216 197.183 163.347 197.02 163.523C196.861 163.695 196.782 163.931 196.782 164.229C196.782 164.637 196.933 164.945 197.234 165.154C197.539 165.359 197.925 165.462 198.393 165.462ZM203.855 166.337V158.701H204.989V159.854H205.068C205.207 159.476 205.459 159.17 205.824 158.934C206.188 158.699 206.599 158.581 207.057 158.581C207.143 158.581 207.251 158.583 207.38 158.586C207.509 158.59 207.607 158.594 207.673 158.601V159.794C207.634 159.784 207.542 159.769 207.4 159.75C207.261 159.726 207.113 159.715 206.957 159.715C206.586 159.715 206.255 159.793 205.963 159.948C205.675 160.101 205.446 160.313 205.277 160.585C205.111 160.853 205.028 161.16 205.028 161.505V166.337H203.855ZM212.864 158.701V159.695H208.906V158.701H212.864ZM210.06 156.871H211.233V164.149C211.233 164.481 211.281 164.729 211.377 164.895C211.477 165.058 211.603 165.167 211.755 165.223C211.911 165.276 212.075 165.303 212.247 165.303C212.376 165.303 212.482 165.296 212.565 165.283C212.648 165.266 212.714 165.253 212.764 165.243L213.003 166.297C212.923 166.327 212.812 166.357 212.67 166.387C212.527 166.42 212.347 166.436 212.128 166.436C211.796 166.436 211.472 166.365 211.153 166.223C210.839 166.08 210.577 165.863 210.368 165.571C210.162 165.28 210.06 164.912 210.06 164.468V156.871Z" fill="black" fill-opacity="0.65"/>
<path d="M144.557 206.922V198.195H147.506C148.19 198.195 148.75 198.319 149.185 198.566C149.622 198.81 149.946 199.141 150.156 199.559C150.366 199.976 150.472 200.442 150.472 200.956C150.472 201.471 150.366 201.938 150.156 202.358C149.949 202.779 149.628 203.114 149.193 203.364C148.759 203.611 148.202 203.735 147.523 203.735H145.409V202.797H147.489C147.957 202.797 148.334 202.716 148.618 202.554C148.902 202.392 149.108 202.174 149.236 201.898C149.366 201.62 149.432 201.306 149.432 200.956C149.432 200.607 149.366 200.294 149.236 200.019C149.108 199.743 148.901 199.527 148.614 199.371C148.327 199.212 147.946 199.132 147.472 199.132H145.614V206.922H144.557ZM152.038 206.922V200.377H153.009V201.365H153.077C153.197 201.042 153.413 200.779 153.725 200.577C154.038 200.375 154.39 200.275 154.782 200.275C154.856 200.275 154.948 200.276 155.059 200.279C155.17 200.282 155.254 200.286 155.31 200.292V201.314C155.276 201.306 155.198 201.293 155.076 201.276C154.957 201.256 154.83 201.246 154.697 201.246C154.379 201.246 154.094 201.313 153.844 201.446C153.597 201.577 153.401 201.759 153.256 201.992C153.114 202.222 153.043 202.485 153.043 202.78V206.922H152.038ZM158.962 207.059C158.371 207.059 157.853 206.918 157.407 206.637C156.964 206.356 156.617 205.962 156.367 205.456C156.12 204.951 155.996 204.36 155.996 203.684C155.996 203.002 156.12 202.407 156.367 201.898C156.617 201.39 156.964 200.995 157.407 200.713C157.853 200.432 158.371 200.292 158.962 200.292C159.553 200.292 160.07 200.432 160.513 200.713C160.96 200.995 161.306 201.39 161.553 201.898C161.803 202.407 161.928 203.002 161.928 203.684C161.928 204.36 161.803 204.951 161.553 205.456C161.306 205.962 160.96 206.356 160.513 206.637C160.07 206.918 159.553 207.059 158.962 207.059ZM158.962 206.155C159.411 206.155 159.781 206.04 160.07 205.81C160.36 205.58 160.575 205.277 160.714 204.902C160.853 204.527 160.923 204.121 160.923 203.684C160.923 203.246 160.853 202.838 160.714 202.461C160.575 202.083 160.36 201.777 160.07 201.544C159.781 201.311 159.411 201.195 158.962 201.195C158.513 201.195 158.144 201.311 157.854 201.544C157.565 201.777 157.35 202.083 157.211 202.461C157.072 202.838 157.002 203.246 157.002 203.684C157.002 204.121 157.072 204.527 157.211 204.902C157.35 205.277 157.565 205.58 157.854 205.81C158.144 206.04 158.513 206.155 158.962 206.155ZM165.935 207.059C165.39 207.059 164.908 206.921 164.49 206.645C164.073 206.367 163.746 205.975 163.51 205.469C163.275 204.961 163.157 204.36 163.157 203.667C163.157 202.979 163.275 202.382 163.51 201.877C163.746 201.371 164.074 200.981 164.495 200.705C164.915 200.429 165.401 200.292 165.952 200.292C166.378 200.292 166.715 200.363 166.962 200.505C167.212 200.644 167.402 200.803 167.533 200.982C167.667 201.158 167.77 201.303 167.844 201.417H167.929V198.195H168.935V206.922H167.963V205.917H167.844C167.77 206.036 167.665 206.186 167.529 206.368C167.392 206.547 167.198 206.708 166.945 206.85C166.692 206.989 166.355 207.059 165.935 207.059ZM166.071 206.155C166.475 206.155 166.816 206.05 167.094 205.84C167.373 205.627 167.584 205.333 167.729 204.958C167.874 204.58 167.946 204.144 167.946 203.65C167.946 203.161 167.875 202.733 167.733 202.367C167.591 201.998 167.381 201.711 167.103 201.506C166.824 201.299 166.48 201.195 166.071 201.195C165.645 201.195 165.29 201.304 165.006 201.523C164.725 201.739 164.513 202.033 164.371 202.405C164.232 202.775 164.162 203.189 164.162 203.65C164.162 204.115 164.233 204.539 164.375 204.919C164.52 205.297 164.733 205.598 165.015 205.823C165.299 206.044 165.651 206.155 166.071 206.155ZM175.042 204.246V200.377H176.047V206.922H175.042V205.814H174.973C174.82 206.147 174.581 206.429 174.257 206.662C173.934 206.892 173.525 207.007 173.03 207.007C172.621 207.007 172.257 206.918 171.939 206.739C171.621 206.557 171.371 206.284 171.189 205.921C171.007 205.554 170.917 205.093 170.917 204.536V200.377H171.922V204.468C171.922 204.945 172.056 205.326 172.323 205.61C172.593 205.894 172.936 206.036 173.354 206.036C173.604 206.036 173.858 205.972 174.117 205.844C174.378 205.716 174.597 205.52 174.773 205.256C174.952 204.992 175.042 204.655 175.042 204.246ZM180.548 207.059C179.935 207.059 179.406 206.914 178.963 206.624C178.52 206.334 178.179 205.935 177.94 205.427C177.702 204.918 177.582 204.337 177.582 203.684C177.582 203.019 177.705 202.432 177.949 201.924C178.196 201.412 178.54 201.013 178.98 200.726C179.423 200.436 179.94 200.292 180.531 200.292C180.991 200.292 181.406 200.377 181.776 200.547C182.145 200.718 182.447 200.956 182.683 201.263C182.919 201.57 183.065 201.928 183.122 202.337H182.116C182.04 202.039 181.869 201.775 181.605 201.544C181.344 201.311 180.991 201.195 180.548 201.195C180.156 201.195 179.813 201.297 179.517 201.502C179.224 201.704 178.996 201.989 178.831 202.358C178.669 202.725 178.588 203.155 178.588 203.65C178.588 204.155 178.668 204.596 178.827 204.971C178.989 205.346 179.216 205.637 179.509 205.844C179.804 206.052 180.151 206.155 180.548 206.155C180.81 206.155 181.047 206.11 181.26 206.019C181.473 205.928 181.653 205.797 181.801 205.627C181.949 205.456 182.054 205.252 182.116 205.013H183.122C183.065 205.4 182.925 205.748 182.7 206.057C182.479 206.364 182.185 206.608 181.818 206.79C181.455 206.969 181.031 207.059 180.548 207.059ZM187.439 200.377V201.229H184.047V200.377H187.439ZM185.036 198.809H186.041V205.047C186.041 205.331 186.082 205.544 186.165 205.686C186.25 205.826 186.358 205.919 186.489 205.968C186.622 206.013 186.763 206.036 186.911 206.036C187.021 206.036 187.112 206.03 187.183 206.019C187.254 206.005 187.311 205.993 187.354 205.985L187.558 206.888C187.49 206.914 187.395 206.939 187.273 206.965C187.151 206.993 186.996 207.007 186.808 207.007C186.524 207.007 186.246 206.946 185.973 206.824C185.703 206.702 185.479 206.516 185.3 206.266C185.124 206.016 185.036 205.701 185.036 205.32V198.809ZM188.952 206.922V200.377H189.957V206.922H188.952ZM189.463 199.286C189.267 199.286 189.098 199.219 188.956 199.086C188.817 198.952 188.747 198.792 188.747 198.604C188.747 198.417 188.817 198.256 188.956 198.123C189.098 197.989 189.267 197.922 189.463 197.922C189.659 197.922 189.827 197.989 189.966 198.123C190.108 198.256 190.179 198.417 190.179 198.604C190.179 198.792 190.108 198.952 189.966 199.086C189.827 199.219 189.659 199.286 189.463 199.286ZM194.458 207.059C193.868 207.059 193.349 206.918 192.903 206.637C192.46 206.356 192.113 205.962 191.863 205.456C191.616 204.951 191.493 204.36 191.493 203.684C191.493 203.002 191.616 202.407 191.863 201.898C192.113 201.39 192.46 200.995 192.903 200.713C193.349 200.432 193.868 200.292 194.458 200.292C195.049 200.292 195.566 200.432 196.01 200.713C196.456 200.995 196.802 201.39 197.049 201.898C197.299 202.407 197.424 203.002 197.424 203.684C197.424 204.36 197.299 204.951 197.049 205.456C196.802 205.962 196.456 206.356 196.01 206.637C195.566 206.918 195.049 207.059 194.458 207.059ZM194.458 206.155C194.907 206.155 195.277 206.04 195.566 205.81C195.856 205.58 196.071 205.277 196.21 204.902C196.349 204.527 196.419 204.121 196.419 203.684C196.419 203.246 196.349 202.838 196.21 202.461C196.071 202.083 195.856 201.777 195.566 201.544C195.277 201.311 194.907 201.195 194.458 201.195C194.01 201.195 193.64 201.311 193.35 201.544C193.061 201.777 192.846 202.083 192.707 202.461C192.568 202.838 192.498 203.246 192.498 203.684C192.498 204.121 192.568 204.527 192.707 204.902C192.846 205.277 193.061 205.58 193.35 205.81C193.64 206.04 194.01 206.155 194.458 206.155ZM199.965 202.985V206.922H198.96V200.377H199.931V201.4H200.016C200.17 201.067 200.403 200.8 200.715 200.598C201.028 200.394 201.431 200.292 201.925 200.292C202.369 200.292 202.756 200.382 203.089 200.564C203.421 200.743 203.68 201.016 203.864 201.382C204.049 201.746 204.141 202.206 204.141 202.763V206.922H203.136V202.831C203.136 202.317 203.002 201.917 202.735 201.63C202.468 201.34 202.102 201.195 201.636 201.195C201.315 201.195 201.028 201.265 200.775 201.404C200.525 201.543 200.327 201.746 200.183 202.013C200.038 202.28 199.965 202.604 199.965 202.985Z" fill="black" fill-opacity="0.15"/>
<rect x="19.5" y="196.922" width="12" height="12" rx="2" fill="#F2F2F2"/>
<rect x="123.75" y="197.172" width="11.5" height="11.5" rx="1.75" stroke="black" stroke-opacity="0.1" stroke-width="0.5"/>
<path d="M124.5 207.922C124.5 206.362 125.177 203.553 127.885 204.801C130.592 206.05 131.551 203.24 131.692 201.68C131.833 199.599 132.792 196.686 135.5 201.68" stroke="#E2E2E2" stroke-linecap="round"/>
<defs>
<linearGradient id="paint0_linear_1_6043" x1="24.3411" y1="12.25" x2="24.3411" y2="154.327" gradientUnits="userSpaceOnUse">
<stop offset="0.0625" stop-color="#F2F2F2" stop-opacity="0.84"/>
<stop offset="1" stop-color="#F2F2F2" stop-opacity="0"/>
</linearGradient>
<linearGradient id="paint1_linear_1_6043" x1="69.2259" y1="62.2187" x2="69.2259" y2="154.324" gradientUnits="userSpaceOnUse">
<stop offset="0.0625" stop-color="#F2F2F2" stop-opacity="0.84"/>
<stop offset="1" stop-color="#F2F2F2" stop-opacity="0"/>
</linearGradient>
<linearGradient id="paint2_linear_1_6043" x1="114.113" y1="42.625" x2="114.113" y2="154.327" gradientUnits="userSpaceOnUse">
<stop offset="0.0625" stop-color="#F2F2F2" stop-opacity="0.84"/>
<stop offset="1" stop-color="#F2F2F2" stop-opacity="0"/>
</linearGradient>
<linearGradient id="paint3_linear_1_6043" x1="158.999" y1="66.1406" x2="158.999" y2="154.326" gradientUnits="userSpaceOnUse">
<stop offset="0.0625" stop-color="#F2F2F2" stop-opacity="0.84"/>
<stop offset="1" stop-color="#F2F2F2" stop-opacity="0"/>
</linearGradient>
<linearGradient id="paint4_linear_1_6043" x1="203.884" y1="55.3672" x2="203.884" y2="154.331" gradientUnits="userSpaceOnUse">
<stop offset="0.0625" stop-color="#F2F2F2" stop-opacity="0.84"/>
<stop offset="1" stop-color="#F2F2F2" stop-opacity="0"/>
</linearGradient>
<linearGradient id="paint5_linear_1_6043" x1="100.408" y1="-1.85647" x2="96.9162" y2="118.802" gradientUnits="userSpaceOnUse">
<stop stop-color="#E2E2E2"/>
<stop offset="1" stop-color="#E2E2E2" stop-opacity="0"/>
</linearGradient>
</defs>
</svg>
