<svg width="14" height="15" viewBox="0 0 14 15" fill="none" xmlns="http://www.w3.org/2000/svg">
<g clip-path="url(#clip0_120_68541)">
<path d="M1.66768 2.17824L9.00018 1.13116C9.04156 1.12522 9.08374 1.12825 9.12385 1.14004C9.16396 1.15183 9.20106 1.1721 9.23265 1.19949C9.26424 1.22687 9.28957 1.26073 9.30693 1.29876C9.32429 1.33679 9.33327 1.3781 9.33327 1.41991V13.5801C9.33326 13.6218 9.32429 13.6631 9.30697 13.7011C9.28964 13.7391 9.26436 13.7729 9.23284 13.8003C9.20132 13.8276 9.16429 13.8479 9.12425 13.8597C9.08421 13.8716 9.0421 13.8747 9.00077 13.8688L1.6671 12.8217C1.52804 12.8019 1.4008 12.7326 1.30875 12.6265C1.2167 12.5204 1.16602 12.3847 1.16602 12.2442V2.75574C1.16602 2.61528 1.2167 2.47954 1.30875 2.37345C1.4008 2.26736 1.52804 2.19805 1.6671 2.17824H1.66768ZM2.33327 3.26208V11.7379L8.1666 12.5715V2.42849L2.33327 3.26208ZM9.9166 11.5833H11.6666V3.41666H9.9166V2.24999H12.2499C12.4046 2.24999 12.553 2.31145 12.6624 2.42085C12.7718 2.53024 12.8333 2.67862 12.8333 2.83333V12.1667C12.8333 12.3214 12.7718 12.4697 12.6624 12.5791C12.553 12.6885 12.4046 12.75 12.2499 12.75H9.9166V11.5833ZM5.94993 7.49999L7.58327 9.83333H6.18327L5.24993 8.49983L4.3166 9.83333H2.9166L4.54993 7.49999L2.9166 5.16666H4.3166L5.24993 6.50016L6.18327 5.16666H7.58327L5.94993 7.49999Z" fill="black"/>
</g>
<defs>
<clipPath id="clip0_120_68541">
<rect width="14" height="14" fill="white" transform="translate(0 0.5)"/>
</clipPath>
</defs>
</svg>
