<svg xmlns="http://www.w3.org/2000/svg" width="20" height="20" viewBox="0 0 20 20" fill="none">
  <path d="M6.27395 7.39893H1.69971C1.14742 7.39893 0.699707 6.95121 0.699707 6.39893V2.04932C0.699707 1.49703 1.14742 1.04932 1.69971 1.04932H20.1107C20.663 1.04932 21.1107 1.49703 21.1107 2.04932V6.39893C21.1107 6.95121 20.663 7.39893 20.1107 7.39893H18.9522H15.1802M6.27395 7.39893V10.3327M6.27395 7.39893H15.1802M15.1802 7.39893V10.3327" stroke="black" stroke-opacity="0.45" stroke-width="1.25" stroke-linecap="round" stroke-linejoin="round"/>
  <path d="M8.34856 14.5238V13.4072C8.34856 12.8549 7.90085 12.4072 7.34856 12.4072H5.07358C4.52129 12.4072 4.07358 12.8549 4.07358 13.4072V14.5762C4.07358 14.8481 3.85309 15.0686 3.58112 15.0686C3.30914 15.0686 3.08865 15.2891 3.08865 15.5611V20.9212C3.08865 21.4735 3.53637 21.9212 4.08865 21.9212H8.43827C8.99055 21.9212 9.43827 21.4735 9.43827 20.9212V15.6135C9.43827 15.3126 9.19433 15.0686 8.89341 15.0686C8.5925 15.0686 8.34856 14.8247 8.34856 14.5238Z" stroke="black" stroke-opacity="0.45" stroke-width="1.25"/>
  <path d="M17.15 14.5238V13.4072C17.15 12.8549 16.7023 12.4072 16.15 12.4072H13.875C13.3227 12.4072 12.875 12.8549 12.875 13.4072V14.5762C12.875 14.8481 12.6545 15.0686 12.3826 15.0686C12.1106 15.0686 11.8901 15.2891 11.8901 15.5611V20.9212C11.8901 21.4735 12.3378 21.9212 12.8901 21.9212H17.2397C17.792 21.9212 18.2397 21.4735 18.2397 20.9212V15.6135C18.2397 15.3126 17.9958 15.0686 17.6949 15.0686C17.394 15.0686 17.15 14.8247 17.15 14.5238Z" stroke="black" stroke-opacity="0.45" stroke-width="1.25"/>
</svg>