<svg width="23" height="22" viewBox="0 0 23 22" fill="none" xmlns="http://www.w3.org/2000/svg">
<g clip-path="url(#clip0_352_415)">
<path d="M6.5767 20H13.7767C15.2678 20 16.4767 18.7912 16.4767 17.3C16.4767 15.8089 15.2678 14.6 13.7767 14.6H6.5767C5.08555 14.6 3.87671 15.8089 3.87671 17.3C3.87671 18.7912 5.08555 20 6.5767 20ZM6.5767 15.2H13.7767C14.9365 15.2 15.8767 16.1402 15.8767 17.3C15.8767 18.4598 14.9365 19.4 13.7767 19.4H6.5767C5.4169 19.4 4.47672 18.4598 4.47672 17.3C4.47672 16.1402 5.4169 15.2 6.5767 15.2Z" fill="#8C8C8C" stroke="#8C8C8C" stroke-width="0.5"/>
<path d="M17.6767 8.29999H2.67677C1.84873 8.30097 1.17774 8.97196 1.17676 9.8V12.2C1.17774 13.028 1.84873 13.699 2.67677 13.7H17.6768C18.5047 13.699 19.1757 13.028 19.1768 12.2V9.8C19.1757 8.97196 18.5047 8.30097 17.6767 8.29999ZM18.5767 12.2C18.5767 12.697 18.1738 13.1 17.6767 13.1H2.67677C2.17973 13.1 1.77677 12.697 1.77677 12.2V9.79996C1.77677 9.30289 2.17973 8.89996 2.67677 8.89996H17.6768C18.1738 8.89996 18.5767 9.30293 18.5767 9.79996L18.5767 12.2Z" fill="#8C8C8C" stroke="#8C8C8C" stroke-width="0.5"/>
<path d="M17.6767 2H2.67677C1.84873 2.00098 1.17774 2.67198 1.17676 3.50001V5.90002C1.17774 6.72802 1.84873 7.39902 2.67677 7.40004H17.6768C18.5047 7.39905 19.1757 6.72806 19.1768 5.90002V3.50001C19.1757 2.67198 18.5047 2.00098 17.6767 2ZM18.5767 5.89999C18.5767 6.39703 18.1738 6.79999 17.6767 6.79999H2.67677C2.17973 6.79999 1.77677 6.39703 1.77677 5.89999V3.50001C1.77677 3.00297 2.17973 2.60001 2.67677 2.60001H17.6768C18.1738 2.60001 18.5767 3.00297 18.5767 3.50001L18.5767 5.89999Z" fill="#8C8C8C" stroke="#8C8C8C" stroke-width="0.5"/>
<path fill-rule="evenodd" clip-rule="evenodd" d="M17.0208 10.7H5.98489C5.78827 10.7 5.62891 10.8343 5.62891 11C5.62891 11.1657 5.78831 11.3 5.98489 11.3H17.0208C17.2174 11.3 17.3768 11.1657 17.3768 11C17.3768 10.8343 17.2174 10.7 17.0208 10.7Z" fill="#8C8C8C" stroke="#8C8C8C" stroke-width="0.5"/>
<path fill-rule="evenodd" clip-rule="evenodd" d="M4.24956 10.7H3.45614C3.442 10.7 3.43054 10.8343 3.43054 11C3.43054 11.1657 3.442 11.3 3.45614 11.3H4.24955C4.26369 11.3 4.27515 11.1657 4.27515 11C4.27515 10.8343 4.26369 10.7 4.24956 10.7Z" fill="#8C8C8C" stroke="#8C8C8C" stroke-width="0.5"/>
<path fill-rule="evenodd" clip-rule="evenodd" d="M16.3758 4.40005H5.96473C5.77925 4.40005 5.62891 4.53439 5.62891 4.70004C5.62891 4.86573 5.77929 5.00003 5.96473 5.00003H16.3758C16.5612 5.00003 16.7116 4.8657 16.7116 4.70004C16.7116 4.53439 16.5613 4.40005 16.3758 4.40005Z" fill="#8C8C8C" stroke="#8C8C8C" stroke-width="0.5"/>
<path fill-rule="evenodd" clip-rule="evenodd" d="M4.19345 4.40005H3.45438C3.44121 4.40005 3.43054 4.53439 3.43054 4.70004C3.43054 4.86573 3.44122 5.00003 3.45438 5.00003H4.19345C4.20661 5.00003 4.21729 4.8657 4.21729 4.70004C4.21729 4.53439 4.20662 4.40005 4.19345 4.40005Z" fill="#8C8C8C" stroke="#8C8C8C" stroke-width="0.5"/>
<path fill-rule="evenodd" clip-rule="evenodd" d="M9.0646 18.4121C9.17014 18.5177 9.33727 18.5295 9.4567 18.44L11.8567 16.64C11.9892 16.5406 12.0161 16.3526 11.9167 16.22C11.8173 16.0874 11.6293 16.0606 11.4967 16.16L9.30489 17.804L8.88878 17.3879C8.77108 17.2742 8.58395 17.2758 8.46825 17.3915C8.35251 17.5073 8.3509 17.6944 8.46459 17.8121L9.0646 18.4121Z" fill="#8C8C8C" stroke="#8C8C8C" stroke-width="0.5"/>
</g>
<defs>
<clipPath id="clip0_352_415">
<rect width="22" height="22" fill="white" transform="translate(0.176758)"/>
</clipPath>
</defs>
</svg>
