<svg width="22" height="22" viewBox="0 0 22 22" fill="none" xmlns="http://www.w3.org/2000/svg">
<path d="M4.70227 10.2444C3.36907 10.2444 2.28452 9.16973 2.28452 7.84917C2.28452 6.52844 3.36907 5.45374 4.70227 5.45374C6.03531 5.45374 7.1197 6.52827 7.1197 7.84917C7.1197 9.1699 6.03531 10.2444 4.70227 10.2444ZM4.70227 6.126C3.73967 6.126 2.95678 6.89904 2.95678 7.84917C2.95678 8.79914 3.73967 9.57217 4.70227 9.57217C5.66455 9.57217 6.44743 8.79914 6.44743 7.84917C6.44743 6.89904 5.66455 6.126 4.70227 6.126Z" fill="#8C8C8C" stroke="#8C8C8C" stroke-width="0.56"/>
<path d="M5.56275 17.3243H1.84315C1.37818 17.3243 1 16.9485 1 16.4865V15.4314C1 13.2713 2.77467 11.5138 4.95618 11.5138C5.81414 11.5138 6.53077 11.6815 7.2172 12.1879C7.36053 12.2937 7.39109 12.4957 7.28524 12.6392C7.1794 12.7823 6.97763 12.8129 6.83414 12.7072C6.25938 12.2832 5.67553 12.159 4.95618 12.159C3.13048 12.159 1.64516 13.6271 1.64516 15.4314V16.4865C1.64516 16.5927 1.734 16.6792 1.84315 16.6792H5.56291C5.7409 16.6792 5.88549 16.8236 5.88549 17.0018C5.88549 17.1797 5.7409 17.3243 5.56275 17.3243Z" fill="#8C8C8C" stroke="#8C8C8C" stroke-width="0.56"/>
<path d="M20.1569 17.0802H16.535C16.357 17.0802 16.2124 16.9357 16.2124 16.7576C16.2124 16.5796 16.357 16.435 16.535 16.435H20.157C20.2662 16.435 20.355 16.3487 20.355 16.2425V15.1874C20.355 13.3828 18.8697 11.9149 17.044 11.9149C16.2815 11.9149 15.7034 12.0654 15.1142 12.5423C14.9759 12.6543 14.7729 12.633 14.6606 12.4946C14.5486 12.3561 14.5697 12.153 14.7084 12.0408C15.412 11.4714 16.1342 11.2698 17.044 11.2698C19.2253 11.2698 21 13.0271 21 15.1874V16.2425C21 16.7043 20.6218 17.0802 20.1569 17.0802Z" fill="#8C8C8C" stroke="#8C8C8C" stroke-width="0.56"/>
<path d="M17.2977 10.0784C15.9647 10.0784 14.8803 9.00388 14.8803 7.68315C14.8803 6.36242 15.9647 5.28772 17.2977 5.28772C18.6309 5.28772 19.7155 6.36226 19.7155 7.68315C19.7155 9.00405 18.6307 10.0784 17.2977 10.0784ZM17.2977 5.95998C16.3354 5.95998 15.5525 6.73302 15.5525 7.68315C15.5525 8.63328 16.3354 9.40616 17.2977 9.40616C18.2603 9.40616 19.0432 8.63328 19.0432 7.68315C19.0432 6.73302 18.2601 5.95998 17.2977 5.95998Z" fill="#8C8C8C" stroke="#8C8C8C" stroke-width="0.56"/>
<path d="M15.6247 18.8195H6.3753C5.76085 18.8195 5.26105 18.3233 5.26105 17.7134V16.1457C5.26105 13.0128 7.83529 10.464 11 10.464C14.1647 10.464 16.739 13.0128 16.739 16.1457V17.7134C16.739 18.3233 16.2392 18.8195 15.6247 18.8195ZM11 11.1457C8.21131 11.1457 5.94254 13.3888 5.94254 16.1459V17.7135C5.94254 17.9476 6.13671 18.1381 6.3753 18.1381H15.6246C15.8632 18.1381 16.0573 17.9476 16.0573 17.7135V16.1459C16.0575 13.3888 13.7887 11.1457 11 11.1457Z" fill="#8C8C8C" stroke="#8C8C8C" stroke-width="0.56"/>
<path d="M10.8831 9.33518C9.17032 9.33518 7.77655 7.95471 7.77655 6.25764C7.77655 4.56073 9.17015 3.18042 10.8831 3.18042C12.5963 3.18042 13.9899 4.56089 13.9899 6.2578C13.9899 7.95487 12.5961 9.33518 10.8831 9.33518ZM10.8831 3.85268C9.54092 3.85268 8.44881 4.93166 8.44881 6.2578C8.44881 7.58411 9.54092 8.66308 10.8831 8.66308C12.2255 8.66308 13.3176 7.58411 13.3176 6.2578C13.3176 4.93166 12.2255 3.85268 10.8831 3.85268Z" fill="#8C8C8C" stroke="#8C8C8C" stroke-width="0.56"/>
</svg>
