<svg width="70" height="73" viewBox="0 0 70 73" fill="none" xmlns="http://www.w3.org/2000/svg">
<g id="Group 14">
<g id="Group 13">
<path id="Vector 1" d="M54.4786 71.7265H1.0791C0.802959 71.7265 0.579102 71.5027 0.579102 71.2265V46.8911C0.579102 46.7585 0.63178 46.6313 0.725549 46.5375L13.8882 33.3749C14.2032 33.0599 14.7417 33.283 14.7417 33.7285V44.7265C14.7417 45.172 15.2803 45.3951 15.5953 45.0801L27.3005 33.3749C27.6154 33.0599 28.154 33.283 28.154 33.7285V44.4019C28.154 44.6781 28.3779 44.9019 28.654 44.9019H54.4786C54.7547 44.9019 54.9786 45.1258 54.9786 45.4019V71.2265C54.9786 71.5027 54.7547 71.7265 54.4786 71.7265Z" fill="#F1F4FE" stroke="#C1CEFB"/>
<rect id="Rectangle 1" x="5.53125" y="50.6542" width="8.80454" height="5.0027" rx="0.5" fill="white" stroke="#C1CEFB"/>
<rect id="Rectangle 3" x="5.53125" y="59.6833" width="8.80454" height="5.0027" rx="0.5" fill="white" stroke="#C1CEFB"/>
<rect id="Rectangle 2" x="18.9844" y="50.6542" width="8.80454" height="5.0027" rx="0.5" fill="white" stroke="#C1CEFB"/>
<rect id="Rectangle 4" x="18.9844" y="59.6833" width="8.80454" height="5.0027" rx="0.5" fill="white" stroke="#C1CEFB"/>
<path id="Rectangle 5" d="M49.545 71.7266V57.1558C49.545 54.9466 47.7541 53.1558 45.545 53.1558H37.6536C35.4444 53.1558 33.6536 54.9466 33.6536 57.1558V71.7266" stroke="#C1CEFB"/>
<path id="Vector 2" d="M39.7937 44.7279L44.3083 26.1277M60.6512 26.1277L68.6716 61.6821C69.1302 63.7149 68.6164 65.9643 66.9988 67.2781C64.7762 69.0831 61.0506 71.1069 55.0531 70.732" stroke="#C1CEFB"/>
<rect id="Rectangle 6" x="42.0994" y="21.5709" width="20.7604" height="4.29446" rx="2.14723" stroke="#C1CEFB"/>
<path id="Vector 3" d="M46.325 15.371C50.8662 16.1074 49.8536 19.36 48.7797 20.8942H57.9849C61.5443 7.76139 55.5813 7.23975 52.1549 8.62052C49.0354 10.4104 42.7349 12.9163 42.4895 8.62052C42.1826 3.25081 40.06 2.0303 36.6595 2.4837C29.7556 3.40423 19.0161 5.09186 12.8793 3.40423C6.74252 1.71661 3.21386 8.00685 10.7315 11.0753C18.249 14.1437 28.5282 5.24528 33.7445 12.1492C38.9608 19.0531 40.6484 14.4505 46.325 15.371Z" fill="#2F54EB" fill-opacity="0.1"/>
<path id="Vector 4" d="M40.1713 18.0211C46.9467 15.6013 48.775 19.0293 48.8422 21.0458H57.1098C56.8709 9.49642 49.5333 10.1713 45.7575 12.0023C45.6617 12.0488 45.5671 12.0884 45.4651 12.1188C42.537 12.992 36.2267 13.286 33.2144 7.73697C29.383 0.679237 14.9176 -2.19218 8.96898 4.76473C4.61394 9.85791 9.0294 11.327 9.81026 11.5397C9.88732 11.5607 9.96075 11.572 10.0403 11.5787C15.4583 12.0348 26.8458 9.45356 28.5764 13.5848C29.6183 16.0718 33.3958 20.4409 40.1713 18.0211Z" fill="#2F54EB" fill-opacity="0.1"/>
</g>
<path id="Vector 5" d="M45.0137 8.43823C51.7905 7.12908 55.9233 16.4279 57.1426 21.2409H46.9389C48.9411 17.6215 47.0031 16.46 45.7838 16.3316C38.468 16.1391 36.4465 16.3316 34.425 14.984C32.4035 13.6363 34.04 9.4971 31.2484 8.43823C28.4568 7.37937 26.6279 6.32049 32.0185 2.27754C37.4091 -1.76541 37.3128 0.737368 37.4091 2.27754C37.5054 3.81771 36.5428 10.0747 45.0137 8.43823Z" fill="#2F54EB" fill-opacity="0.1"/>
</g>
</svg>
