<svg width="49" height="48" viewBox="0 0 49 48" fill="none" xmlns="http://www.w3.org/2000/svg">
<circle cx="24.8496" cy="24" r="24" fill="#F4F4F4"/>
<g clip-path="url(#clip0_515_699528)">
<path d="M33.682 16.7051H34.546C35.314 16.7051 35.986 17.3291 35.986 18.1451V32.9771C35.986 33.7451 35.362 34.4171 34.546 34.4171H15.106C14.338 34.4171 13.666 33.7931 13.666 32.9771V18.1451C13.666 17.3771 14.29 16.7051 15.106 16.7051H15.97" stroke="black" stroke-opacity="0.85" stroke-miterlimit="10" stroke-linecap="round" stroke-linejoin="round"/>
<path d="M28.6895 16.7051H31.0895" stroke="black" stroke-opacity="0.85" stroke-miterlimit="10" stroke-linecap="round" stroke-linejoin="round"/>
<path d="M23.6504 16.7051H26.0504" stroke="black" stroke-opacity="0.85" stroke-miterlimit="10" stroke-linecap="round" stroke-linejoin="round"/>
<path d="M18.6094 16.7051H21.0094" stroke="black" stroke-opacity="0.85" stroke-miterlimit="10" stroke-linecap="round" stroke-linejoin="round"/>
<path d="M13.7148 20.4004H36.0348" stroke="black" stroke-opacity="0.85" stroke-miterlimit="10" stroke-linecap="round" stroke-linejoin="round"/>
<path d="M17.3136 18.5768C16.5936 18.5768 16.0176 18.0008 16.0176 17.2808V14.9288C16.0176 14.2088 16.5936 13.6328 17.3136 13.6328C18.0336 13.6328 18.6096 14.2088 18.6096 14.9288V17.2808C18.6096 18.0008 18.0336 18.5768 17.3136 18.5768Z" stroke="black" stroke-opacity="0.85" stroke-miterlimit="10" stroke-linecap="round" stroke-linejoin="round"/>
<path d="M22.3526 18.5768C21.6326 18.5768 21.0566 18.0008 21.0566 17.2808V14.9288C21.0566 14.2088 21.6326 13.6328 22.3526 13.6328C23.0726 13.6328 23.6486 14.2088 23.6486 14.9288V17.2808C23.6486 18.0008 23.0726 18.5768 22.3526 18.5768Z" stroke="black" stroke-opacity="0.85" stroke-miterlimit="10" stroke-linecap="round" stroke-linejoin="round"/>
<path d="M27.3448 18.5768C26.6248 18.5768 26.0488 18.0008 26.0488 17.2808V14.9288C26.0488 14.2088 26.6248 13.6328 27.3448 13.6328C28.0648 13.6328 28.6408 14.2088 28.6408 14.9288V17.2808C28.6888 18.0008 28.0648 18.5768 27.3448 18.5768Z" stroke="black" stroke-opacity="0.85" stroke-miterlimit="10" stroke-linecap="round" stroke-linejoin="round"/>
<path d="M32.3858 18.5768C31.6658 18.5768 31.0898 18.0008 31.0898 17.2808V14.9288C31.0898 14.2088 31.6658 13.6328 32.3858 13.6328C33.1058 13.6328 33.6818 14.2088 33.6818 14.9288V17.2808C33.7298 18.0008 33.1058 18.5768 32.3858 18.5768Z" stroke="black" stroke-opacity="0.85" stroke-miterlimit="10" stroke-linecap="round" stroke-linejoin="round"/>
<path d="M19.2812 21.8398H22.0173V24.5758H19.2812V21.8398Z" stroke="black" stroke-opacity="0.85" stroke-miterlimit="10" stroke-linecap="round" stroke-linejoin="round"/>
<path d="M27.6348 21.8398H30.3708V24.5758H27.6348V21.8398Z" stroke="black" stroke-opacity="0.85" stroke-miterlimit="10" stroke-linecap="round" stroke-linejoin="round"/>
<path d="M19.2812 26.0176H22.0173V28.7536H19.2812V26.0176Z" stroke="black" stroke-opacity="0.85" stroke-miterlimit="10" stroke-linecap="round" stroke-linejoin="round"/>
<path d="M31.8105 26.0176H34.5465V28.7536H31.8105V26.0176Z" stroke="black" stroke-opacity="0.85" stroke-miterlimit="10" stroke-linecap="round" stroke-linejoin="round"/>
<path d="M19.2812 30.2402H22.0173V32.9762H19.2812V30.2402Z" stroke="black" stroke-opacity="0.85" stroke-miterlimit="10" stroke-linecap="round" stroke-linejoin="round"/>
<path d="M27.6348 30.2402H30.3708V32.9762H27.6348V30.2402Z" stroke="black" stroke-opacity="0.85" stroke-miterlimit="10" stroke-linecap="round" stroke-linejoin="round"/>
<path d="M23.7949 23.2817L24.4669 23.9537L25.9069 22.5137" stroke="black" stroke-opacity="0.85" stroke-miterlimit="10" stroke-linecap="round" stroke-linejoin="round"/>
<path d="M32.1934 23.2817L32.8174 23.9537L34.2574 22.5137" stroke="black" stroke-opacity="0.85" stroke-miterlimit="10" stroke-linecap="round" stroke-linejoin="round"/>
<path d="M15.4414 27.4575L16.1134 28.1295L17.5054 26.6895" stroke="black" stroke-opacity="0.85" stroke-miterlimit="10" stroke-linecap="round" stroke-linejoin="round"/>
<path d="M23.7949 31.6812L24.4669 32.3052L25.9069 30.8652" stroke="black" stroke-opacity="0.85" stroke-miterlimit="10" stroke-linecap="round" stroke-linejoin="round"/>
<path d="M27.9707 27.4575L28.6427 28.1295L30.0827 26.6895" stroke="black" stroke-opacity="0.85" stroke-miterlimit="10" stroke-linecap="round" stroke-linejoin="round"/>
</g>
<defs>
<clipPath id="clip0_515_699528">
<rect width="24" height="24" fill="white" transform="translate(12.8496 12)"/>
</clipPath>
</defs>
</svg>
