<svg width="176" height="36" viewBox="0 0 176 36" fill="none" xmlns="http://www.w3.org/2000/svg">
<path d="M64.1856 12.3042L64.2258 12.264C65.0055 11.2994 65.5039 10.142 65.6807 8.92823C65.6968 8.81569 65.7128 8.69514 65.7209 8.57457C65.7289 8.454 65.745 8.34146 65.745 8.22089C65.745 8.10032 65.753 7.98779 65.753 7.86722C65.753 7.74665 65.753 7.63412 65.745 7.52963V7.49747C65.745 7.3769 65.7289 7.26438 65.7209 7.15184C65.7048 7.03127 65.6968 6.91874 65.6807 6.80621C65.1743 3.42223 62.3691 0.938505 59.0092 0.898315C58.977 0.898315 58.9529 0.898315 58.9208 0.898315H34.9194V5.07805H58.9208C60.4239 5.07805 61.6537 6.33197 61.6537 7.86722C61.6537 9.40247 60.4239 10.6564 58.9208 10.6564H34.9194V14.8361V24.5862H39.0188V14.8361H54.4115L63.6632 24.7791H69.3139L60.0782 14.7316C61.6778 14.4583 63.1407 13.5983 64.1856 12.3122V12.3042Z" fill="#1957F3"/>
<path d="M165.311 0.890259H155.304C149.565 0.890259 144.895 5.65677 144.895 11.5084V13.96C144.895 19.8116 149.565 24.5781 155.304 24.5781H165.311C171.051 24.5781 175.721 19.8116 175.721 13.96V11.5084C175.721 5.65677 171.051 0.890259 165.311 0.890259ZM171.621 11.5084V13.96C171.621 17.5128 168.792 20.3984 165.311 20.3984H155.304C151.824 20.3984 148.994 17.5128 148.994 13.96V11.5084C148.994 7.95563 151.824 5.07001 155.304 5.07001H165.311C168.792 5.07001 171.621 7.95563 171.621 11.5084Z" fill="#1957F3"/>
<path d="M31.5272 7.85918C31.5272 4.01703 28.4648 0.890259 24.695 0.890259H3.90882H0.70166V14.812H4.80102V5.07001H24.703C26.2061 5.07001 27.4359 6.32393 27.4359 7.85918C27.4359 9.39443 26.2061 10.6483 24.703 10.6483H10.2829V14.8281H24.703C26.2061 14.8281 27.4359 16.082 27.4359 17.6173C27.4359 19.1525 26.2061 20.4064 24.703 20.4064H10.2829V24.5862H24.703C28.4728 24.5862 31.5353 21.4594 31.5353 17.6173C31.5353 15.9855 31.0048 14.4583 30 13.2124L29.6222 12.7382L30 12.264C31.0048 11.0181 31.5353 9.49892 31.5353 7.85918H31.5272Z" fill="#1957F3"/>
<path d="M139.244 12.7302L139.622 12.2559C140.627 11.01 141.157 9.49085 141.157 7.85111C141.157 4.00897 138.095 0.882202 134.325 0.882202H110.332V14.8441H114.431V14.812H134.333C135.836 14.812 137.066 16.0659 137.066 17.6012C137.066 19.1364 135.836 20.3903 134.333 20.3903H116.843V24.5701H134.333C138.103 24.5701 141.165 21.4433 141.165 17.6012C141.165 15.9694 140.635 14.4422 139.63 13.1964L139.252 12.7221L139.244 12.7302ZM134.325 10.6403H114.423V5.06998H134.325C135.828 5.06998 137.058 6.3239 137.058 7.85915C137.058 9.3944 135.828 10.6483 134.325 10.6483V10.6403Z" fill="#1957F3"/>
<path d="M103.443 14.8602L102.776 13.8635H84.9079L89.8834 6.36406L89.9477 6.29975C90.3978 5.72906 90.7917 5.59241 91.2659 5.56026C91.7402 5.58438 92.126 5.72102 92.5842 6.29975L95.7431 11.0421H100.911L95.6546 3.11672L95.6064 3.05241C94.666 2.02355 93.6773 1.42874 92.5038 1.17957C92.1421 1.09919 91.7562 1.05097 91.29 1.02686H91.2659H91.2418C90.7756 1.05097 90.3898 1.09919 90.0281 1.17153C88.8545 1.42071 87.8659 2.01552 86.9254 3.04438L72.5938 24.6343H77.7622L82.0866 18.1155H100.453L104.778 24.6343H109.946L103.451 14.8521L103.443 14.8602Z" fill="#1957F3"/>
<path d="M4.6326 20.5671H0.862793V24.4093H4.6326V20.5671Z" fill="white"/>
<path d="M4.8416 24.6263H0.653809V20.3501H4.8416V24.6263ZM1.0718 24.1922H4.41559V20.7841H1.0718V24.1922Z" fill="#FF5C00"/>
<path d="M0.862793 24.4093L4.62455 20.5671V24.4093H0.862793Z" fill="#FF5C00"/>
<path d="M1.43333 30.9281V35.9277H0.693848V30.9281H1.43333Z" fill="#808184"/>
<path d="M10.5164 30.9281V35.9277H9.83319L7.34141 32.2624H7.29319V35.9277H6.55371V30.9281H7.23692L9.72869 34.6014H9.77691V30.9281H10.5084H10.5164Z" fill="#808184"/>
<path d="M15.3955 31.5711V30.92H19.1894V31.5711H17.6622V35.9197H16.9227V31.5711H15.3955Z" fill="#808184"/>
<path d="M24.0762 35.9277V30.9281H27.1547V31.5792H24.8237V33.1064H27.002V33.7575H24.8237V35.2847H27.1869V35.9357H24.0842L24.0762 35.9277Z" fill="#808184"/>
<path d="M32.1868 35.9277V30.9281H32.9263V35.2766H35.1447V35.9277H32.1787H32.1868Z" fill="#808184"/>
<path d="M40.0398 35.9277V30.9281H40.7793V35.2766H42.9977V35.9277H40.0317H40.0398Z" fill="#808184"/>
<path d="M48.6321 30.9281V35.9277H47.8926V30.9281H48.6321Z" fill="#808184"/>
<path d="M57.072 32.5036C57.0238 32.3589 56.9675 32.2223 56.8871 32.1017C56.8068 31.9811 56.7183 31.8847 56.6138 31.7963C56.5093 31.7159 56.3888 31.6516 56.2521 31.6034C56.1155 31.5551 55.9628 31.5391 55.802 31.5391C55.5287 31.5391 55.2795 31.6114 55.0545 31.7561C54.8294 31.9008 54.6606 32.1097 54.532 32.3911C54.4034 32.6724 54.3391 33.01 54.3391 33.4119C54.3391 33.8138 54.4034 34.1594 54.532 34.4408C54.6606 34.7221 54.8374 34.9311 55.0625 35.0758C55.2876 35.2204 55.5448 35.2928 55.8342 35.2928C56.0994 35.2928 56.3325 35.2365 56.5335 35.124C56.7344 35.0115 56.8871 34.8587 56.9916 34.6578C57.1042 34.4568 57.1524 34.2157 57.1524 33.9424L57.3453 33.9826H55.9386V33.3637H57.8678V33.9344C57.8678 34.3523 57.7793 34.7221 57.6025 35.0275C57.4257 35.333 57.1845 35.5741 56.8791 35.7429C56.5736 35.9117 56.22 35.9921 55.8261 35.9921C55.384 35.9921 54.9902 35.8876 54.6606 35.6786C54.323 35.4696 54.0658 35.1722 53.8809 34.7944C53.696 34.4166 53.5996 33.9585 53.5996 33.428C53.5996 33.0261 53.6559 32.6724 53.7604 32.3509C53.8729 32.0374 54.0256 31.7641 54.2185 31.5391C54.4195 31.314 54.6445 31.1452 54.9178 31.0327C55.1831 30.9121 55.4805 30.8558 55.794 30.8558C56.0592 30.8558 56.3084 30.896 56.5335 30.9764C56.7585 31.0568 56.9675 31.1693 57.1443 31.314C57.3212 31.4587 57.4739 31.6355 57.5945 31.8365C57.715 32.0374 57.7954 32.2625 57.8356 32.5036H57.08H57.072Z" fill="#808184"/>
<path d="M62.8516 35.9277V30.9281H65.9301V31.5792H63.5991V33.1064H65.7774V33.7575H63.5991V35.2847H65.9622V35.9357H62.8596L62.8516 35.9277Z" fill="#808184"/>
<path d="M74.9163 30.9281V35.9277H74.2331L71.7413 32.2624H71.6931V35.9277H70.9536V30.9281H71.6368L74.1286 34.6014H74.1768V30.9281H74.9083H74.9163Z" fill="#808184"/>
<path d="M84.12 32.5518H83.3725C83.3403 32.391 83.2921 32.2463 83.2117 32.1257C83.1314 32.0052 83.0349 31.9007 82.9224 31.8123C82.8098 31.7238 82.6812 31.6596 82.5446 31.6194C82.4079 31.5792 82.2552 31.5551 82.1025 31.5551C81.8212 31.5551 81.564 31.6274 81.3469 31.7721C81.1219 31.9168 80.945 32.1258 80.8164 32.4071C80.6878 32.6884 80.6235 33.026 80.6235 33.4359C80.6235 33.8459 80.6878 34.1835 80.8164 34.4648C80.945 34.7461 81.1219 34.9551 81.3469 35.0998C81.572 35.2445 81.8212 35.3168 82.1025 35.3168C82.2552 35.3168 82.4079 35.2927 82.5446 35.2525C82.6812 35.2123 82.8098 35.148 82.9224 35.0596C83.0349 34.9712 83.1314 34.8747 83.2117 34.7461C83.2921 34.6256 83.3484 34.4809 83.3725 34.3201H84.12C84.0799 34.5693 83.9995 34.7943 83.8869 35.0033C83.7744 35.2123 83.6297 35.3892 83.4448 35.5338C83.268 35.6866 83.0671 35.7991 82.834 35.8795C82.6089 35.9599 82.3597 36 82.0864 36C81.6604 36 81.2826 35.8955 80.9531 35.6946C80.6235 35.4856 80.3583 35.1963 80.1654 34.8104C79.9724 34.4246 79.876 33.9664 79.876 33.4359C79.876 32.9054 79.9724 32.4473 80.1654 32.0615C80.3583 31.6756 80.6155 31.3863 80.9531 31.1773C81.2826 30.9683 81.6604 30.8718 82.0864 30.8718C82.3436 30.8718 82.5928 30.912 82.8179 30.9844C83.0429 31.0567 83.2439 31.1692 83.4288 31.3139C83.6056 31.4586 83.7583 31.6354 83.8789 31.8444C83.9995 32.0534 84.0799 32.2945 84.12 32.5598V32.5518Z" fill="#808184"/>
<path d="M89.0471 35.9277V30.9281H92.1257V31.5792H89.7947V33.1064H91.9729V33.7575H89.7947V35.2847H92.1578V35.9357H89.0552L89.0471 35.9277Z" fill="#808184"/>
<path d="M105.911 30.9281H106.948V34.1754C106.948 34.5371 106.859 34.8587 106.69 35.1319C106.522 35.4052 106.28 35.6223 105.975 35.7669C105.67 35.9116 105.316 35.992 104.906 35.992C104.496 35.992 104.142 35.9197 103.837 35.7669C103.531 35.6142 103.298 35.4052 103.13 35.1319C102.961 34.8587 102.872 34.5371 102.872 34.1754V30.9281H103.909V34.087C103.909 34.2799 103.949 34.4487 104.03 34.5934C104.11 34.7381 104.231 34.8587 104.375 34.939C104.528 35.0275 104.697 35.0676 104.898 35.0676C105.099 35.0676 105.276 35.0275 105.42 34.939C105.565 34.8506 105.686 34.7381 105.766 34.5934C105.846 34.4487 105.887 34.2799 105.887 34.087V30.9281H105.911Z" fill="#808184"/>
<path d="M115.95 30.9281V35.9277H115.058L112.928 32.7768H112.896V35.9277H111.859V30.9281H112.767L114.881 34.0709H114.921V30.9281H115.95Z" fill="#808184"/>
<path d="M120.845 35.9277V30.9281H121.882V35.0596H123.988V35.9277H120.845Z" fill="#808184"/>
<path d="M128.722 35.9277V30.9281H132.026V31.7962H129.759V32.9858H131.857V33.8539H129.759V35.0516H132.034V35.9197H128.722V35.9277Z" fill="#808184"/>
<path d="M137.741 35.9277H136.632L138.328 30.9281H139.662L141.35 35.9277H140.241L139.011 32.0695H138.971L137.741 35.9277ZM137.669 33.9584H140.297V34.7863H137.669V33.9584Z" fill="#808184"/>
<path d="M148.528 32.3669C148.512 32.174 148.423 32.0133 148.279 31.9088C148.134 31.8043 147.933 31.748 147.684 31.748C147.515 31.748 147.37 31.7721 147.258 31.8203C147.145 31.8686 147.049 31.9329 146.993 32.0213C146.928 32.1097 146.904 32.1981 146.904 32.3107C146.904 32.3991 146.92 32.4794 146.961 32.5438C147.001 32.6081 147.057 32.6643 147.129 32.7126C147.202 32.7608 147.282 32.801 147.378 32.8331C147.475 32.8653 147.571 32.8974 147.684 32.9215L148.126 33.026C148.343 33.0743 148.536 33.1386 148.713 33.2189C148.89 33.2993 149.05 33.4038 149.179 33.5164C149.308 33.6369 149.412 33.7736 149.484 33.9343C149.557 34.0951 149.597 34.28 149.597 34.4889C149.597 34.7944 149.517 35.0596 149.372 35.2847C149.219 35.5098 149.002 35.6786 148.721 35.8072C148.439 35.9358 148.094 35.992 147.7 35.992C147.306 35.992 146.961 35.9277 146.663 35.8072C146.374 35.6866 146.141 35.5017 145.98 35.2525C145.819 35.0114 145.731 34.706 145.723 34.3443H146.727C146.735 34.5131 146.784 34.6497 146.872 34.7622C146.952 34.8748 147.065 34.9551 147.21 35.0114C147.354 35.0677 147.507 35.0918 147.692 35.0918C147.877 35.0918 148.022 35.0677 148.15 35.0114C148.279 34.9632 148.383 34.8908 148.456 34.7944C148.528 34.6979 148.56 34.5934 148.56 34.4729C148.56 34.3603 148.528 34.2639 148.464 34.1915C148.399 34.1192 148.303 34.0468 148.182 33.9986C148.062 33.9424 147.909 33.8941 147.732 33.8539L147.202 33.7173C146.792 33.6128 146.462 33.452 146.221 33.235C145.98 33.018 145.859 32.7206 145.867 32.3508C145.867 32.0454 145.948 31.7802 146.108 31.5551C146.269 31.33 146.486 31.1532 146.768 31.0246C147.049 30.896 147.37 30.8317 147.724 30.8317C148.078 30.8317 148.407 30.896 148.681 31.0246C148.954 31.1532 149.163 31.33 149.316 31.5551C149.468 31.7802 149.549 32.0454 149.549 32.3428H148.552L148.528 32.3669Z" fill="#808184"/>
<path d="M154.331 35.9277V30.9281H155.368V32.9938H157.474V30.9281H158.511V35.9277H157.474V33.8619H155.368V35.9277H154.331Z" fill="#808184"/>
<path d="M163.406 35.9277V30.9281H166.71V31.7962H164.443V32.9858H166.541V33.8539H164.443V35.0516H166.718V35.9197H163.406V35.9277Z" fill="#808184"/>
<path d="M173.325 35.9277H171.589V30.9281H173.341C173.831 30.9281 174.257 31.0246 174.611 31.2255C174.965 31.4264 175.238 31.7078 175.431 32.0856C175.624 32.4553 175.72 32.9054 175.72 33.4199C175.72 33.9343 175.624 34.3925 175.431 34.7622C175.238 35.14 174.965 35.4213 174.603 35.6223C174.241 35.8232 173.815 35.9197 173.317 35.9197L173.325 35.9277ZM172.626 35.0194H173.285C173.59 35.0194 173.848 34.9631 174.057 34.8506C174.266 34.7381 174.426 34.5693 174.531 34.3282C174.635 34.0951 174.692 33.7896 174.692 33.4199C174.692 33.0501 174.635 32.7447 174.531 32.5116C174.426 32.2785 174.266 32.1016 174.057 31.9972C173.848 31.8846 173.59 31.8283 173.285 31.8283H172.626V35.0194Z" fill="#808184"/>
</svg>
