<svg width="543" height="323" viewBox="0 0 543 323" fill="none" xmlns="http://www.w3.org/2000/svg">
<path d="M269.443 159.997H362.057V276.658H269.443V159.997Z" fill="url(#paint0_linear_449_8582)"/>
<path d="M269.449 159.997H362.063V276.652H269.449V159.997Z" fill="url(#paint1_linear_449_8582)"/>
<path d="M171.609 159.997H269.443V276.658H171.609V159.997Z" fill="url(#paint2_linear_449_8582)"/>
<path style="mix-blend-mode:multiply" d="M269.449 159.997V186.862L257.681 204.019H171.502V186.862H247.986L269.449 159.997Z" fill="url(#paint3_linear_449_8582)"/>
<path style="mix-blend-mode:multiply" d="M269.449 186.862V159.997L290.899 186.862H362.063V204.019H281.595L269.449 186.862Z" fill="url(#paint4_linear_449_8582)"/>
<path d="M271.334 278.549H169.718V158.106H271.334V278.549ZM173.5 274.767H267.552V161.888H173.5V274.767Z" fill="#5B7ED6"/>
<path d="M363.954 278.549H267.552V158.106H363.954V278.549ZM271.334 274.767H360.172V161.888H271.334V274.767Z" fill="#5B7ED6"/>
<path d="M296.012 252.298H328.178V264.034H296.012V252.298Z" fill="#FF5C00"/>
<path d="M293.467 252.892H283.118V263.44H293.467V252.892Z" fill="white"/>
<path d="M294.04 264.036H282.544V252.297H294.04V264.036ZM283.691 262.844H292.871V253.488H283.691V262.844Z" fill="#FF5C00"/>
<path d="M283.118 263.44L293.444 252.892V263.44H283.118Z" fill="#FF5C00"/>
<path d="M247.986 186.862H147.587L169.687 159.997H269.449L247.986 186.862Z" fill="#F5F5F5"/>
<path d="M248.9 188.753H143.585L168.798 158.106H273.376L248.9 188.753ZM151.59 184.971H247.079L265.516 161.888H170.576L151.59 184.971Z" fill="#5B7ED6"/>
<path d="M290.899 186.862H385.442L363.986 159.997H269.449L290.899 186.862Z" fill="#F5F5F5"/>
<path d="M389.375 188.753H289.991L265.516 158.106H364.9L389.375 188.753ZM291.813 184.971H381.547L363.078 161.888H273.376L291.813 184.971Z" fill="#5B7ED6"/>
<path d="M304.647 98.8048L309.109 111.916C310.979 117.421 311.269 123.341 309.945 129.003C308.622 134.665 305.738 139.843 301.621 143.949C301.558 144.012 302.983 145.311 269.021 111.348L304.647 98.8048Z" fill="url(#paint5_linear_449_8582)"/>
<path d="M268.749 62.939L255.639 58.4826C250.14 56.6122 244.228 56.3194 238.572 57.6374C232.916 58.9553 227.742 61.8313 223.637 65.9393C223.574 66.0024 222.275 64.5715 256.237 98.5337L268.749 62.939Z" fill="url(#paint6_linear_449_8582)"/>
<path d="M301.621 146.596L265.566 110.542L305.8 96.397L310.874 111.311C312.88 117.142 313.202 123.42 311.803 129.426C310.404 135.432 307.34 140.922 302.964 145.266L301.621 146.596ZM272.5 112.111L301.596 141.207C305.004 137.361 307.328 132.679 308.332 127.64C309.335 122.6 308.982 117.385 307.307 112.527L303.462 101.225L272.5 112.111Z" fill="#5B7ED6"/>
<path d="M257.019 101.994L220.964 65.9394L222.3 64.5968C226.643 60.2194 232.132 57.1557 238.137 55.7575C244.142 54.3593 250.42 54.6834 256.25 56.6925L271.17 61.7351L257.019 101.994ZM226.353 65.9772L255.481 95.0732L266.366 64.1115L255.065 60.2728C250.203 58.5912 244.982 58.2333 239.936 59.2358C234.891 60.2382 230.203 62.565 226.353 65.9772Z" fill="#5B7ED6"/>
<path d="M344.628 33.093L334.461 22.9258C306.273 30.8683 280.598 45.9157 259.893 66.6265L242.118 84.3955L283.184 125.461L300.959 107.692C321.662 86.9746 336.698 61.288 344.628 33.093Z" fill="#F5F5F5"/>
<path d="M283.159 128.134L239.42 84.3954L258.526 65.2902C279.213 44.6028 304.489 29.5253 335.016 20.8015L346.753 32.5445C338.017 63.1281 322.926 88.3791 302.271 109.029L283.159 128.134ZM244.766 84.3954L283.153 122.789L299.604 106.356C319.81 86.1252 334.568 61.1106 342.504 33.6413L333.913 25.0499C306.446 32.995 281.435 47.7569 261.205 67.9628L244.766 84.3954Z" fill="#5B7ED6"/>
<path d="M248.932 91.2345L246.095 101.332L265.768 121.011L275.872 118.168L248.932 91.2345Z" fill="#5B7ED6"/>
<path d="M237.327 143.073L245.478 134.923C237.893 135.551 230.776 138.85 225.395 144.233L223.397 146.231L223.75 141.932C224.239 136.057 226.794 130.546 230.961 126.375L221.695 127.138C222.172 121.391 224.671 116 228.749 111.922L229.499 111.172C233.004 107.667 237.757 105.698 242.714 105.698C247.67 105.698 252.424 107.667 255.929 111.172C263.745 118.988 263.032 130.498 256.187 137.349C251.069 142.487 246.656 142.298 237.327 143.073Z" fill="#FF5C00"/>
<path d="M186.381 120.135C184.922 120.137 183.471 119.909 182.082 119.461L183.236 115.861C184.255 116.187 185.318 116.353 186.388 116.353L186.381 120.135ZM176.019 115.584C175.035 114.508 174.225 113.285 173.617 111.96L177.052 110.384C177.499 111.352 178.092 112.245 178.811 113.031L176.019 115.584ZM172.306 105.196C172.212 104.135 171.953 103.095 171.537 102.114L175.016 100.633C175.588 101.979 175.946 103.406 176.075 104.862L172.306 105.196ZM168.303 97.9349C167.457 97.2895 166.515 96.7812 165.511 96.4284L166.772 92.8608C168.15 93.3447 169.443 94.0424 170.604 94.9282L168.303 97.9349ZM159.592 95.6216C158.153 95.3626 156.764 94.8775 155.476 94.1845L157.266 90.8563C158.205 91.3573 159.215 91.7103 160.26 91.9027L159.592 95.6216ZM150.213 89.2805C149.434 88.0449 148.856 86.6941 148.499 85.2779L152.192 84.3513C152.457 85.384 152.883 86.3688 153.453 87.2697L150.213 89.2805Z" fill="#BECDFF"/>
<path d="M340.73 135.124C340.728 132.298 341.284 129.5 342.364 126.889C343.445 124.277 345.029 121.905 347.027 119.906C349.025 117.908 351.397 116.323 354.008 115.241C356.619 114.16 359.417 113.604 362.243 113.605C366.946 113.602 371.455 111.733 374.782 108.409C378.108 105.084 379.98 100.576 379.987 95.8737C379.992 90.169 382.26 84.6993 386.293 80.6649C390.326 76.6305 395.795 74.3609 401.5 74.3542V78.1362C396.797 78.1412 392.289 80.0116 388.963 83.3369C385.638 86.6623 383.768 91.171 383.763 95.8737C383.756 101.577 381.487 107.045 377.454 111.078C373.421 115.111 367.953 117.38 362.249 117.387C357.547 117.394 353.039 119.264 349.715 122.589C346.39 125.914 344.519 130.422 344.512 135.124H340.73Z" fill="#5B7ED6"/>
<path d="M193.639 42.8945L199.098 70.3391L177.458 52.6394L193.639 42.8945Z" fill="url(#paint7_linear_449_8582)"/>
<path d="M201.979 75.136L174.168 52.4063L194.969 39.8879L201.979 75.136ZM180.736 52.879L196.23 65.536L192.322 45.9013L180.736 52.879Z" fill="#5B7ED6"/>
<path d="M373.504 60.1593L356.718 72.2869L361.963 52.2739L373.504 60.1593Z" fill="url(#paint8_linear_449_8582)"/>
<path d="M353.554 76.9072L360.809 49.2042L376.794 60.1152L353.554 76.9072ZM363.11 55.3499L359.882 67.6792L370.201 60.2035L363.11 55.3499Z" fill="#AFC6FE"/>
<path d="M153.377 138.919H166.337V142.701H153.377V138.919Z" fill="#5B7ED6"/>
<path d="M385.524 142.919H397.078V146.701H385.524V142.919Z" fill="#AFC6FE"/>
<path d="M140.43 279.237C138.821 279.241 137.251 278.748 135.933 277.825C134.615 276.902 133.615 275.594 133.069 274.081C132.524 272.567 132.459 270.922 132.884 269.371C133.309 267.819 134.203 266.437 135.444 265.413C140.758 261.033 148.845 265.237 148.183 272.177C147.998 274.106 147.102 275.898 145.669 277.203C144.236 278.508 142.368 279.233 140.43 279.237ZM136.409 271.042C136.333 271.833 136.493 272.628 136.869 273.328C137.245 274.028 137.82 274.6 138.521 274.974C139.222 275.347 140.017 275.505 140.808 275.427C141.598 275.349 142.348 275.038 142.962 274.535C143.576 274.031 144.027 273.357 144.259 272.597C144.49 271.837 144.492 271.026 144.263 270.265C144.034 269.505 143.585 268.829 142.972 268.324C142.36 267.818 141.611 267.505 140.821 267.424C140.294 267.371 139.761 267.423 139.253 267.576C138.746 267.729 138.274 267.981 137.864 268.317C137.454 268.653 137.114 269.067 136.865 269.535C136.615 270.002 136.46 270.515 136.409 271.042Z" fill="#84A7FF"/>
<path d="M179.539 302.162C178.701 302.164 177.872 301.992 177.105 301.655C176.337 301.318 175.649 300.825 175.084 300.206C174.519 299.588 174.089 298.858 173.823 298.063C173.557 297.269 173.46 296.428 173.538 295.594C173.611 294.809 173.839 294.046 174.209 293.351C174.579 292.655 175.084 292.039 175.694 291.541C176.435 290.93 177.311 290.507 178.25 290.306C179.189 290.105 180.162 290.132 181.088 290.386C182.014 290.639 182.865 291.111 183.571 291.762C184.276 292.413 184.815 293.224 185.142 294.127C185.468 295.029 185.574 295.997 185.448 296.949C185.323 297.901 184.971 298.809 184.422 299.596C183.873 300.383 183.143 301.027 182.293 301.474C181.443 301.92 180.499 302.156 179.539 302.162ZM179.539 293.967C178.988 293.968 178.458 294.174 178.051 294.544C177.645 294.915 177.391 295.424 177.339 295.972C177.296 296.418 177.388 296.867 177.605 297.259C177.822 297.652 178.153 297.969 178.554 298.17C178.955 298.371 179.407 298.445 179.851 298.384C180.295 298.323 180.71 298.128 181.042 297.826C181.373 297.524 181.605 297.129 181.707 296.692C181.81 296.256 181.777 295.799 181.615 295.381C181.452 294.963 181.167 294.604 180.796 294.352C180.425 294.1 179.987 293.966 179.539 293.967Z" fill="#5B7ED6"/>
<path d="M362.063 274.768H400.507V278.55H362.063V274.768Z" fill="#5B7ED6"/>
<path d="M309.183 79.6184C317 75.8011 320.243 66.3697 316.426 58.5527C312.608 50.7356 303.177 47.4931 295.36 51.3104C287.543 55.1276 284.301 64.559 288.118 72.376C291.935 80.1931 301.366 83.4356 309.183 79.6184Z" fill="#FFD1B6"/>
<path d="M308.944 63.3464C308.944 61.6852 307.62 60.3333 305.99 60.3333H297.003H295.616V66.3525H297.389V62.1404H305.994C306.643 62.1404 307.175 62.6826 307.175 63.3464C307.175 64.0102 306.643 64.5523 305.994 64.5523H299.759V66.3595H305.994C306.643 66.3595 307.175 66.9017 307.175 67.5654C307.175 68.2292 306.643 68.7714 305.994 68.7714H299.759V70.5786H305.994C307.624 70.5786 308.948 69.2267 308.948 67.5654C308.948 66.8599 308.718 66.1996 308.284 65.661L308.12 65.4559L308.284 65.2509C308.718 64.7122 308.948 64.0553 308.948 63.3464H308.944Z" fill="#1957F3"/>
<path d="M297.316 68.8408H295.686V70.502H297.316V68.8408Z" fill="white"/>
<path d="M297.406 70.5958H295.596V68.7469H297.406V70.5958ZM295.776 70.4082H297.222V68.9346H295.776V70.4082Z" fill="#FF5C00"/>
<path d="M295.686 70.502L297.312 68.8408V70.502H295.686Z" fill="#FF5C00"/>
<defs>
<linearGradient id="paint0_linear_449_8582" x1="315.753" y1="181.088" x2="315.753" y2="277.68" gradientUnits="userSpaceOnUse">
<stop stop-color="#CACFDD"/>
<stop offset="1" stop-color="#EEF0F1"/>
</linearGradient>
<linearGradient id="paint1_linear_449_8582" x1="294.09" y1="153.39" x2="381.444" y2="217.479" gradientUnits="userSpaceOnUse">
<stop stop-color="#95ADFE"/>
<stop offset="1" stop-color="white"/>
</linearGradient>
<linearGradient id="paint2_linear_449_8582" x1="197.639" y1="153.39" x2="286.324" y2="222.117" gradientUnits="userSpaceOnUse">
<stop stop-color="#95ADFE"/>
<stop offset="1" stop-color="white"/>
</linearGradient>
<linearGradient id="paint3_linear_449_8582" x1="171.502" y1="182.008" x2="269.443" y2="182.008" gradientUnits="userSpaceOnUse">
<stop stop-color="#C0CEFF"/>
<stop offset="1" stop-color="#F5F8FF"/>
</linearGradient>
<linearGradient id="paint4_linear_449_8582" x1="269.442" y1="182.008" x2="362.063" y2="182.008" gradientUnits="userSpaceOnUse">
<stop stop-color="#C0CEFF"/>
<stop offset="1" stop-color="#F5F8FF"/>
</linearGradient>
<linearGradient id="paint5_linear_449_8582" x1="281.164" y1="114.747" x2="312.312" y2="126.768" gradientUnits="userSpaceOnUse">
<stop stop-color="white"/>
<stop offset="1" stop-color="#95ADFE"/>
</linearGradient>
<linearGradient id="paint6_linear_449_8582" x1="235.624" y1="54.4643" x2="268.366" y2="87.2058" gradientUnits="userSpaceOnUse">
<stop stop-color="#95ADFE"/>
<stop offset="1" stop-color="white"/>
</linearGradient>
<linearGradient id="paint7_linear_449_8582" x1="183.216" y1="41.3403" x2="203.724" y2="56.2831" gradientUnits="userSpaceOnUse">
<stop stop-color="#95ADFE"/>
<stop offset="1" stop-color="white"/>
</linearGradient>
<linearGradient id="paint8_linear_449_8582" x1="361.184" y1="51.1405" x2="376.399" y2="62.9327" gradientUnits="userSpaceOnUse">
<stop stop-color="#95ADFE"/>
<stop offset="1" stop-color="white"/>
</linearGradient>
</defs>
</svg>
