<svg width="12" height="13" viewBox="0 0 12 13" fill="none" xmlns="http://www.w3.org/2000/svg">
<g clip-path="url(#clip0_70_49603)">
<path d="M2.59392 10.0901C2.6207 10.0901 2.64749 10.0874 2.67427 10.0834L4.92695 9.68833C4.95374 9.68297 4.97919 9.67092 4.99794 9.65083L10.6752 3.9736C10.6876 3.96121 10.6974 3.94649 10.7042 3.93029C10.7109 3.91409 10.7143 3.89672 10.7143 3.87918C10.7143 3.86164 10.7109 3.84427 10.7042 3.82807C10.6974 3.81186 10.6876 3.79715 10.6752 3.78476L8.44928 1.55752C8.42383 1.53208 8.39035 1.51869 8.35419 1.51869C8.31803 1.51869 8.28454 1.53208 8.2591 1.55752L2.58186 7.23476C2.56177 7.25485 2.54972 7.27895 2.54436 7.30574L2.14927 9.55842C2.13625 9.63017 2.1409 9.70401 2.16284 9.77355C2.18477 9.84309 2.22333 9.90624 2.27517 9.95753C2.36356 10.0432 2.47472 10.0901 2.59392 10.0901ZM3.4966 7.7544L8.35419 2.89815L9.33588 3.87985L4.47829 8.7361L3.28767 8.94636L3.4966 7.7544ZM10.9283 11.2151H1.07115C0.834096 11.2151 0.642578 11.4066 0.642578 11.6437V12.1258C0.642578 12.1848 0.690792 12.233 0.749721 12.233H11.2497C11.3087 12.233 11.3569 12.1848 11.3569 12.1258V11.6437C11.3569 11.4066 11.1653 11.2151 10.9283 11.2151Z" fill="black" fill-opacity="0.85"/>
</g>
<defs>
<clipPath id="clip0_70_49603">
<rect width="12" height="12" fill="white" transform="translate(0 0.877048)"/>
</clipPath>
</defs>
</svg>
