<svg width="23" height="22" viewBox="0 0 23 22" fill="none" xmlns="http://www.w3.org/2000/svg">
<line y1="-0.46875" x2="3.33648" y2="-0.46875" transform="matrix(0.622075 0.782957 -0.782957 0.622076 6.58154 5.81494)" stroke="black" stroke-opacity="0.85" stroke-width="0.9375"/>
<line x1="14.6114" y1="4.77963" x2="13.3579" y2="7.57986" stroke="black" stroke-opacity="0.85" stroke-width="0.9375"/>
<line x1="9.43425" y1="15.0222" x2="8.43661" y2="17.3242" stroke="black" stroke-opacity="0.85" stroke-width="0.9375"/>
<line x1="7.61938" y1="11.0858" x2="5.20307" y2="11.0858" stroke="black" stroke-opacity="0.85" stroke-width="0.9375"/>
<line x1="15.0939" y1="13.4109" x2="17.1837" y2="14.4665" stroke="black" stroke-opacity="0.85" stroke-width="0.9375"/>
<path d="M15.5034 11.1917C15.5034 13.3319 13.7685 15.0668 11.6284 15.0668C9.48832 15.0668 7.75342 13.3319 7.75342 11.1917C7.75342 9.05164 9.48832 7.31674 11.6284 7.31674C13.7685 7.31674 15.5034 9.05164 15.5034 11.1917Z" stroke="black" stroke-opacity="0.85" stroke-width="1.25"/>
<path d="M11.6284 9.37205C11.4395 9.37205 11.2583 9.44709 11.1247 9.58066C10.9911 9.71423 10.9161 9.89539 10.9161 10.0843C10.9161 10.2732 10.9911 10.4544 11.1247 10.5879C11.2583 10.7215 11.4395 10.7965 11.6284 10.7965C11.8172 10.7965 11.9984 10.7215 12.132 10.5879C12.2656 10.4544 12.3406 10.2732 12.3406 10.0843C12.3406 9.89539 12.2656 9.71423 12.132 9.58066C11.9984 9.44709 11.8172 9.37205 11.6284 9.37205ZM10.5091 10.0843C10.5091 9.78745 10.627 9.50277 10.8369 9.29287C11.0468 9.08298 11.3315 8.96506 11.6284 8.96506C11.9252 8.96506 12.2099 9.08298 12.4198 9.29287C12.6297 9.50277 12.7476 9.78745 12.7476 10.0843C12.7476 10.3811 12.6297 10.6658 12.4198 10.8757C12.2099 11.0856 11.9252 11.2035 11.6284 11.2035C11.3315 11.2035 11.0468 11.0856 10.8369 10.8757C10.627 10.6658 10.5091 10.3811 10.5091 10.0843ZM9.79688 12.4245C9.79688 12.1547 9.90407 11.8959 10.0949 11.705C10.2857 11.5142 10.5445 11.407 10.8144 11.407H12.4423C12.7122 11.407 12.971 11.5142 13.1618 11.705C13.3526 11.8959 13.4598 12.1547 13.4598 12.4245V13.035H9.79688V12.4245ZM10.8144 11.814C10.6524 11.814 10.4972 11.8783 10.3827 11.9928C10.2682 12.1073 10.2039 12.2626 10.2039 12.4245V12.628H13.0528V12.4245C13.0528 12.2626 12.9885 12.1073 12.874 11.9928C12.7595 11.8783 12.6043 11.814 12.4423 11.814H10.8144Z" fill="black" fill-opacity="0.85"/>
<path d="M13.4598 13.085H13.5098V13.035V12.4245C13.5098 12.1414 13.3974 11.8699 13.1972 11.6697C12.997 11.4695 12.7255 11.357 12.4423 11.357H10.8144C10.5312 11.357 10.2597 11.4695 10.0595 11.6697C9.85934 11.8699 9.74687 12.1414 9.74687 12.4245V13.035V13.085H9.79688H13.4598ZM11.1601 9.61602C11.2843 9.49182 11.4527 9.42205 11.6284 9.42205C11.804 9.42205 11.9724 9.49182 12.0966 9.61602C12.2208 9.74021 12.2906 9.90866 12.2906 10.0843C12.2906 10.2599 12.2208 10.4284 12.0966 10.5526C11.9724 10.6768 11.804 10.7465 11.6284 10.7465C11.4527 10.7465 11.2843 10.6768 11.1601 10.5526C11.0359 10.4284 10.9661 10.2599 10.9661 10.0843C10.9661 9.90866 11.0359 9.74021 11.1601 9.61602ZM10.8016 9.25752C10.5823 9.47679 10.4591 9.77419 10.4591 10.0843C10.4591 10.3944 10.5823 10.6918 10.8016 10.9111C11.0209 11.1303 11.3183 11.2535 11.6284 11.2535C11.9385 11.2535 12.2359 11.1303 12.4551 10.9111C12.6744 10.6918 12.7976 10.3944 12.7976 10.0843C12.7976 9.77419 12.6744 9.47679 12.4551 9.25752C12.2359 9.03824 11.9385 8.91506 11.6284 8.91506C11.3183 8.91506 11.0209 9.03824 10.8016 9.25752ZM10.418 12.0282C10.5231 11.9231 10.6657 11.864 10.8144 11.864H12.4423C12.591 11.864 12.7336 11.9231 12.8387 12.0282C12.9438 12.1333 13.0028 12.2759 13.0028 12.4245V12.578H10.2539V12.4245C10.2539 12.2759 10.3129 12.1333 10.418 12.0282Z" stroke="black" stroke-opacity="0.85" stroke-width="0.1"/>
<path d="M16.1584 3.63763C16.1584 4.27841 15.6389 4.79787 14.9981 4.79787C14.3573 4.79787 13.8379 4.27841 13.8379 3.63763C13.8379 2.99684 14.3573 2.47739 14.9981 2.47739C15.6389 2.47739 16.1584 2.99684 16.1584 3.63763Z" stroke="black" stroke-opacity="0.85" stroke-width="1.25"/>
<path d="M7.57146 4.90649C7.57146 5.54727 7.052 6.06673 6.41122 6.06673C5.77043 6.06673 5.25098 5.54727 5.25098 4.90649C5.25098 4.2657 5.77043 3.74625 6.41122 3.74625C7.052 3.74625 7.57146 4.2657 7.57146 4.90649Z" stroke="black" stroke-opacity="0.85" stroke-width="1.25"/>
<path d="M5.12224 11.0737C5.12224 11.7145 4.60278 12.234 3.962 12.234C3.32122 12.234 2.80176 11.7145 2.80176 11.0737C2.80176 10.4329 3.32122 9.91348 3.962 9.91348C4.60278 9.91348 5.12224 10.4329 5.12224 11.0737Z" stroke="black" stroke-opacity="0.85" stroke-width="1.25"/>
<path d="M8.95842 18.3622C8.95842 19.003 8.43896 19.5225 7.79818 19.5225C7.1574 19.5225 6.63794 19.003 6.63794 18.3622C6.63794 17.7215 7.1574 17.202 7.79818 17.202C8.43896 17.202 8.95842 17.7215 8.95842 18.3622Z" stroke="black" stroke-opacity="0.85" stroke-width="1.25"/>
<path d="M19.5517 15.1163C19.5517 15.7571 19.0322 16.2766 18.3914 16.2766C17.7507 16.2766 17.2312 15.7571 17.2312 15.1163C17.2312 14.4755 17.7507 13.9561 18.3914 13.9561C19.0322 13.9561 19.5517 14.4755 19.5517 15.1163Z" stroke="black" stroke-opacity="0.85" stroke-width="1.25"/>
</svg>
