<svg width="19" height="19" viewBox="0 0 19 19" fill="none" xmlns="http://www.w3.org/2000/svg">
<g clip-path="url(#clip0_23_8754)">
<path fill-rule="evenodd" clip-rule="evenodd" d="M9.74023 17.375C11.8288 17.375 13.8319 16.5453 15.3087 15.0685C16.7855 13.5916 17.6152 11.5886 17.6152 9.5C17.6152 7.41142 16.7855 5.40838 15.3087 3.93153C13.8319 2.45468 11.8288 1.625 9.74023 1.625C7.65165 1.625 5.64862 2.45468 4.17177 3.93153C2.69492 5.40838 1.86523 7.41142 1.86523 9.5C1.86523 11.5886 2.69492 13.5916 4.17177 15.0685C5.64862 16.5453 7.65165 17.375 9.74023 17.375ZM9.74023 18.5C12.1272 18.5 14.4164 17.5518 16.1042 15.864C17.792 14.1761 18.7402 11.8869 18.7402 9.5C18.7402 7.11305 17.792 4.82387 16.1042 3.13604C14.4164 1.44821 12.1272 0.5 9.74023 0.5C7.35329 0.5 5.0641 1.44821 3.37627 3.13604C1.68845 4.82387 0.740234 7.11305 0.740234 9.5C0.740234 11.8869 1.68845 14.1761 3.37627 15.864C5.0641 17.5518 7.35329 18.5 9.74023 18.5Z" fill="#546271"/>
<path d="M10.7864 7.91138L8.21018 8.23425L8.11793 8.66175L8.62418 8.75513C8.95493 8.83388 9.02018 8.95313 8.94818 9.28275L8.11793 13.1843C7.89968 14.1934 8.23606 14.6681 9.02693 14.6681C9.64006 14.6681 10.3522 14.3846 10.6751 13.9954L10.7741 13.5274C10.5491 13.7254 10.2206 13.8041 10.0023 13.8041C9.69293 13.8041 9.58043 13.587 9.66031 13.2045L10.7864 7.91138Z" fill="#546271"/>
<path d="M9.74023 6.6875C10.3616 6.6875 10.8652 6.18382 10.8652 5.5625C10.8652 4.94118 10.3616 4.4375 9.74023 4.4375C9.11891 4.4375 8.61523 4.94118 8.61523 5.5625C8.61523 6.18382 9.11891 6.6875 9.74023 6.6875Z" fill="#546271"/>
</g>
<defs>
<clipPath id="clip0_23_8754">
<rect width="18" height="18" fill="white" transform="translate(0.740234 0.5)"/>
</clipPath>
</defs>
</svg>
