<svg width="23" height="22" viewBox="0 0 23 22" fill="none" xmlns="http://www.w3.org/2000/svg">
<path d="M18.9855 9.39339L17.8001 8.9623C17.6791 8.5771 17.5249 8.20668 17.3407 7.85436L18.1362 6.52849C18.2556 6.32947 18.2243 6.07471 18.0601 5.91059L16.3967 4.2471C16.2325 4.08298 15.9778 4.05162 15.7788 4.17102L14.4529 4.96653C14.1006 4.78235 13.7301 4.62811 13.3449 4.50719L12.9701 3.00762C12.9138 2.78243 12.7115 2.62448 12.4794 2.62448H10.1269C9.89476 2.62448 9.69243 2.78243 9.63615 3.00762L9.26124 4.50719C8.87605 4.62811 8.50562 4.78235 8.15331 4.96653L6.82743 4.17102C6.62841 4.05162 6.37365 4.08298 6.20953 4.2471L4.54605 5.91059C4.38193 6.07471 4.35057 6.32947 4.46997 6.52849L5.26548 7.85436C5.0813 8.20668 4.92706 8.5771 4.80613 8.9623L3.30657 9.33717C3.08141 9.39345 2.92346 9.59578 2.92346 9.82788V12.1804C2.92346 12.4125 3.08141 12.6148 3.3066 12.6711L4.80617 13.046C4.92709 13.4312 5.08133 13.8016 5.26551 14.1539L4.47 15.4798C4.3506 15.6788 4.38196 15.9336 4.54608 16.0977L6.20957 17.7612C6.37369 17.9253 6.62845 17.9566 6.82747 17.8372L8.15334 17.0417C8.50566 17.2259 8.87608 17.3802 9.26128 17.5011L9.63618 19.0006C9.69247 19.2258 9.89479 19.3838 10.1269 19.3838H12.4794C12.7115 19.3838 12.9138 19.2258 12.9701 19.0006L13.345 17.5011C13.7302 17.3802 14.1006 17.2259 14.4529 17.0417L15.7788 17.8372C15.9778 17.9566 16.2326 17.9253 16.3967 17.7612L18.0602 16.0977C18.2243 15.9336 18.2557 15.6788 18.1363 15.4798L17.3407 14.1539C17.5249 13.8016 17.6792 13.4312 17.8001 13.046L19.2997 12.6711C19.5248 12.6148 19.6828 12.4125 19.6828 12.1804V9.82788C19.6828 9.59578 19.2107 9.44967 18.9855 9.39339Z" stroke="#8C8C8C" stroke-width="1.23521" stroke-miterlimit="10" stroke-linecap="round" stroke-linejoin="round"/>
<path d="M8.57767 7.15845C8.36089 7.31234 8.15771 7.48412 7.97021 7.67161" stroke="#8C8C8C" stroke-width="1.23521" stroke-miterlimit="10" stroke-linecap="round" stroke-linejoin="round"/>
<path d="M14.6362 7.67123C13.7832 6.81826 12.6049 6.29066 11.3033 6.29066C10.7205 6.29066 10.5901 6.29066 10.0804 6.46408" stroke="#8C8C8C" stroke-width="1.23521" stroke-miterlimit="10" stroke-linecap="round" stroke-linejoin="round"/>
<path d="M7.97017 7.67128C7.1172 8.52425 6.5896 9.70266 6.5896 11.0043C6.5896 11.9647 6.87687 12.8581 7.37021 13.6032" stroke="#8C8C8C" stroke-width="1.23521" stroke-miterlimit="10" stroke-linecap="round" stroke-linejoin="round"/>
<path d="M11.6657 14.3537H10.6877C10.1475 14.3537 9.70972 13.9158 9.70972 13.3757C9.70972 12.8356 10.1476 12.3978 10.6877 12.3978H11.6657C12.2058 12.3978 12.6436 12.8357 12.6436 13.3757C12.6436 13.9158 12.2057 14.3537 11.6657 14.3537Z" stroke="#8C8C8C" stroke-width="1.23521" stroke-miterlimit="10" stroke-linecap="round" stroke-linejoin="round"/>
<path d="M11.156 12.0069L12.14 8.33437L12.9045 8.54242" stroke="#8C8C8C" stroke-width="1.23521" stroke-miterlimit="10" stroke-linecap="round" stroke-linejoin="round"/>
<path d="M14.6381 7.6731C14.6375 7.67251 14.6368 7.67187 14.6362 7.67128" stroke="#8C8C8C" stroke-width="1.06327" stroke-miterlimit="10" stroke-linecap="round" stroke-linejoin="round"/>
<path d="M15.2361 13.6033C15.7294 12.8582 16.0167 11.9649 16.0167 11.0043C16.0167 9.7038 15.4899 8.5263 14.6382 7.67346" stroke="#8C8C8C" stroke-width="1.23521" stroke-miterlimit="10" stroke-linecap="round" stroke-linejoin="round"/>
</svg>
