<svg width="70" height="70" viewBox="0 0 70 70" fill="none" xmlns="http://www.w3.org/2000/svg">
<circle cx="35" cy="35" r="35" fill="#F1F2F3"/>
<g clip-path="url(#clip0_2425_76949)">
<path d="M43.75 30H46.5C46.8647 30 47.2144 30.1449 47.4723 30.4027C47.7301 30.6606 47.875 31.0103 47.875 31.375V47.875C47.875 48.2397 47.7301 48.5894 47.4723 48.8473C47.2144 49.1051 46.8647 49.25 46.5 49.25H24.5C24.1353 49.25 23.7856 49.1051 23.5277 48.8473C23.2699 48.5894 23.125 48.2397 23.125 47.875V31.375C23.125 31.0103 23.2699 30.6606 23.5277 30.4027C23.7856 30.1449 24.1353 30 24.5 30H27.25V28.625C27.25 26.437 28.1192 24.3385 29.6664 22.7914C31.2135 21.2442 33.312 20.375 35.5 20.375C37.688 20.375 39.7865 21.2442 41.3336 22.7914C42.8808 24.3385 43.75 26.437 43.75 28.625V30ZM25.875 32.75V46.5H45.125V32.75H25.875ZM34.125 38.25H36.875V41H34.125V38.25ZM28.625 38.25H31.375V41H28.625V38.25ZM39.625 38.25H42.375V41H39.625V38.25ZM41 30V28.625C41 27.1663 40.4205 25.7674 39.3891 24.7359C38.3576 23.7045 36.9587 23.125 35.5 23.125C34.0413 23.125 32.6424 23.7045 31.6109 24.7359C30.5795 25.7674 30 27.1663 30 28.625V30H41Z" fill="#2E53EA"/>
</g>
<defs>
<clipPath id="clip0_2425_76949">
<rect width="33" height="33" fill="white" transform="translate(19 19)"/>
</clipPath>
</defs>
</svg>
