<svg width="23" height="22" viewBox="0 0 23 22" fill="none" xmlns="http://www.w3.org/2000/svg">
<path d="M17.8161 17.8002H19.5575C19.8995 17.8002 20.1768 17.5229 20.1768 17.1809V3.06654C20.1768 2.72453 19.8995 2.44727 19.5575 2.44727H2.79604C2.45402 2.44727 2.17676 2.72453 2.17676 3.06654V6.2855V6.97358M9.89814 17.8002H2.79604C2.45402 17.8002 2.17676 17.5229 2.17676 17.1809V9.29156" stroke="#8C8C8C" stroke-width="1.15" stroke-linecap="round"/>
<path d="M2.38574 5.03094L10.143 5.03098H16.0735M20.0871 5.03098H18.1378" stroke="#8C8C8C" stroke-width="1.15" stroke-linecap="round"/>
<path d="M12.7738 18.4499L12.9521 13.7947C12.9557 13.6999 13.0615 13.6454 13.1408 13.6976L17.0484 16.2686C17.1254 16.3193 17.1204 16.4339 17.0392 16.4777L15.8443 17.1219C15.7835 17.1547 15.7621 17.2313 15.797 17.2908L16.5853 18.6346C16.6202 18.6941 16.5987 18.7708 16.538 18.8035L15.2511 19.4971C15.1936 19.5282 15.1218 19.5082 15.0885 19.452L14.2315 18.0063C14.1982 17.9501 14.1264 17.9302 14.0689 17.9611L12.9533 18.5618C12.8703 18.6065 12.7702 18.5441 12.7738 18.4499Z" stroke="#8C8C8C" stroke-width="0.905179" stroke-linecap="round" stroke-linejoin="round"/>
<mask id="path-4-inside-1_223_3180" fill="white">
<rect x="3.57031" y="6.71564" width="15.3304" height="3" rx="1"/>
</mask>
<rect x="3.57031" y="6.71564" width="15.3304" height="3" rx="1" stroke="#8C8C8C" stroke-width="2.3" mask="url(#path-4-inside-1_223_3180)"/>
<mask id="path-5-inside-2_223_3180" fill="white">
<rect x="3.57031" y="10.41" width="9.19434" height="3" rx="1"/>
</mask>
<rect x="3.57031" y="10.41" width="9.19434" height="3" rx="1" stroke="#8C8C8C" stroke-width="2.3" mask="url(#path-5-inside-2_223_3180)"/>
</svg>
