<svg width="22" height="22" viewBox="0 0 22 22" fill="none" xmlns="http://www.w3.org/2000/svg">
<path fill-rule="evenodd" clip-rule="evenodd" d="M13.7702 4.19643C14.3122 3.6134 15.0838 3.25 15.9413 3.25C17.578 3.25 18.9048 4.5768 18.9048 6.21349C18.9048 7.00801 18.593 7.72839 18.0837 8.26105L14.3913 11.9535L14.3778 11.9657C13.8475 12.4623 13.1363 12.7655 12.3528 12.7655C10.7162 12.7655 9.38935 11.4387 9.38935 9.80199C9.38935 9.45681 9.10953 9.17699 8.76435 9.17699C8.41918 9.17699 8.13935 9.45681 8.13935 9.80199C8.13935 12.129 10.0258 14.0155 12.3528 14.0155C13.3279 14.0155 14.2265 13.6837 14.9403 13.1276C14.9985 13.0984 15.0531 13.0595 15.1016 13.0109L18.9723 9.14021L18.9724 9.14031L18.9813 9.1311C19.7075 8.37457 20.1548 7.34562 20.1548 6.21349C20.1548 3.88645 18.2684 2 15.9413 2C14.7265 2 13.6309 2.51497 12.8627 3.33671L10.0651 6.1344C9.82098 6.37847 9.82098 6.7742 10.0651 7.01828C10.3091 7.26236 10.7049 7.26236 10.9489 7.01828L13.7544 4.21285L13.7624 4.20478L13.7702 4.19643ZM6.21349 18.1482C7.071 18.1482 7.84267 17.7848 8.38463 17.2017L8.3924 17.1934L8.40046 17.1853L11.2059 14.3799C11.45 14.1358 11.8457 14.1358 12.0898 14.3799C12.3339 14.624 12.3339 15.0197 12.0898 15.2638L9.29209 18.0615C8.52393 18.8832 7.42838 19.3982 6.21349 19.3982C3.88645 19.3982 2 17.5117 2 15.1847C2 14.0525 2.44733 13.0236 3.17357 12.2671L3.18241 12.2579L3.1825 12.258L7.05318 8.38727C7.10175 8.33871 7.15631 8.29981 7.21449 8.27057C7.92837 7.7145 8.82695 7.38269 9.80198 7.38269C12.129 7.38269 14.0155 9.26913 14.0155 11.5962C14.0155 11.9414 13.7357 12.2212 13.3905 12.2212C13.0453 12.2212 12.7655 11.9414 12.7655 11.5962C12.7655 9.95949 11.4387 8.63269 9.80198 8.63269C9.01858 8.63269 8.30735 8.93584 7.77699 9.43244C7.77256 9.43659 7.76808 9.44066 7.76356 9.44466L4.0711 13.1371C3.56184 13.6698 3.25 14.3902 3.25 15.1847C3.25 16.8214 4.5768 18.1482 6.21349 18.1482Z" fill="black" fill-opacity="0.45"/>
</svg>
