<svg width="71" height="70" viewBox="0 0 71 70" fill="none" xmlns="http://www.w3.org/2000/svg">
<circle cx="35.5" cy="35" r="35" fill="#F1F2F3"/>
<path d="M30.75 19.25V22.75V19.25ZM41.25 19.25V22.75V19.25ZM30.75 47.25V50.75V47.25ZM41.25 47.25V50.75V47.25ZM23.75 29.75H20.25H23.75ZM23.75 40.25H20.25H23.75ZM51.75 29.75H48.25H51.75ZM51.75 40.25H48.25H51.75ZM27.25 47.25H44.75C46.683 47.25 48.25 45.683 48.25 43.75V26.25C48.25 24.317 46.683 22.75 44.75 22.75H27.25C25.317 22.75 23.75 24.317 23.75 26.25V43.75C23.75 45.683 25.317 47.25 27.25 47.25ZM30.75 29.75H41.25V40.25H30.75V29.75Z" stroke="#2E53EA" stroke-width="2" stroke-linecap="round" stroke-linejoin="round"/>
</svg>
