<svg width="22" height="22" viewBox="0 0 22 22" fill="none" xmlns="http://www.w3.org/2000/svg">
<path d="M18.7139 2.62476H3.28606C2.62432 2.62476 2.08788 3.1612 2.08788 3.82294V14.6957C2.08788 15.3574 2.62432 15.8939 3.28606 15.8939H18.7139C19.3756 15.8939 19.9121 15.3574 19.9121 14.6957V3.82294C19.9121 3.1612 19.3756 2.62476 18.7139 2.62476Z" stroke="#8C8C8C" stroke-width="1.24068" stroke-linecap="round" stroke-linejoin="round"/>
<path d="M8.38499 17.8047H13.6035C14.4749 17.8047 15.178 18.5078 15.178 19.3792H6.81052C6.81052 18.5078 7.51359 17.8047 8.38499 17.8047Z" stroke="#8C8C8C" stroke-width="1.24068" stroke-linecap="round" stroke-linejoin="round"/>
<path d="M9.08904 15.8822L8.55431 17.8033H13.4362L12.9608 15.8822H9.08904Z" stroke="#8C8C8C" stroke-width="1.24068" stroke-linecap="round" stroke-linejoin="round"/>
<path d="M12.3171 10.3571H13.8025C13.9312 10.3571 14.0401 10.466 14.0401 10.5947V14.2487H12.3171C12.1884 14.2487 12.0795 14.1397 12.0795 14.011V10.5947C12.0795 10.466 12.1884 10.3571 12.3171 10.3571Z" stroke="#8C8C8C" stroke-width="1.24068" stroke-linecap="round" stroke-linejoin="round"/>
<path d="M14.3866 9.48743H15.6442C15.8324 9.48743 15.9908 9.64586 15.9908 9.83401V14.2405H14.0302V9.84391C14.0302 9.65577 14.1886 9.49733 14.3767 9.49733L14.3866 9.48743Z" stroke="#8C8C8C" stroke-width="1.24068" stroke-linecap="round" stroke-linejoin="round"/>
<path d="M16.3279 8.37671H17.6251C17.8034 8.37671 17.9519 8.52524 17.9519 8.70349V13.9121C17.9519 14.0904 17.8034 14.2389 17.6251 14.2389H16.0012V8.70349C16.0012 8.52524 16.1497 8.37671 16.3279 8.37671V8.37671Z" stroke="#8C8C8C" stroke-width="1.24068" stroke-linecap="round" stroke-linejoin="round"/>
<path d="M5.24372 7.05264C5.97736 7.05264 6.5721 6.4579 6.5721 5.72426C6.5721 4.99061 5.97736 4.39587 5.24372 4.39587C4.51007 4.39587 3.91533 4.99061 3.91533 5.72426C3.91533 6.4579 4.51007 7.05264 5.24372 7.05264Z" stroke="#8C8C8C" stroke-width="1.24068" stroke-linecap="round" stroke-linejoin="round"/>
<path d="M8.34289 10.5943C8.83179 10.5943 9.22812 10.198 9.22812 9.70909C9.22812 9.22019 8.83179 8.82385 8.34289 8.82385C7.85399 8.82385 7.45766 9.22019 7.45766 9.70909C7.45766 10.198 7.85399 10.5943 8.34289 10.5943Z" stroke="#8C8C8C" stroke-width="1.24068" stroke-linecap="round" stroke-linejoin="round"/>
<path d="M10.5572 7.05264C11.2909 7.05264 11.8856 6.4579 11.8856 5.72426C11.8856 4.99061 11.2909 4.39587 10.5572 4.39587C9.82357 4.39587 9.22883 4.99061 9.22883 5.72426C9.22883 6.4579 9.82357 7.05264 10.5572 7.05264Z" stroke="#8C8C8C" stroke-width="1.24068" stroke-linecap="round" stroke-linejoin="round"/>
<path d="M7.45766 8.82308L5.68719 7.05261" stroke="#8C8C8C" stroke-width="1.24068" stroke-linecap="round" stroke-linejoin="round"/>
<path d="M10.1144 7.05261L9.2292 8.82308" stroke="#8C8C8C" stroke-width="1.24068" stroke-linecap="round" stroke-linejoin="round"/>
<path d="M3.95883 11.8228H7.00875" stroke="#8C8C8C" stroke-width="1.24068" stroke-linecap="round" stroke-linejoin="round"/>
<path d="M3.95883 13.3278H8.098" stroke="#8C8C8C" stroke-width="1.24068" stroke-linecap="round" stroke-linejoin="round"/>
<path d="M13.4357 5.17908H17.9512" stroke="#8C8C8C" stroke-width="1.24068" stroke-linecap="round" stroke-linejoin="round"/>
</svg>
