<svg width="22" height="22" viewBox="0 0 22 22" fill="none" xmlns="http://www.w3.org/2000/svg">
<path d="M14.0231 6.96703L13.2805 6.89277L13.429 5.259L15.0627 5.11047L15.137 5.8531L14.0973 5.92736L14.0231 6.96703Z" fill="#8C8C8C" stroke="#8C8C8C" stroke-width="0.1"/>
<path d="M14.0847 5.46533L16.1096 7.49026L15.5845 8.01538L13.5596 5.99045L14.0847 5.46533Z" fill="#8C8C8C" stroke="#8C8C8C" stroke-width="0.356459"/>
<path d="M5.56764 17.1821L5.49338 16.4395L6.53305 16.3652L6.60731 15.3256L7.34993 15.3998L7.20141 17.0336L5.56764 17.1821Z" fill="#8C8C8C" stroke="#8C8C8C" stroke-width="0.1"/>
<path d="M4.81891 14.1676L6.8091 16.1578L6.28398 16.6829L4.2938 14.6927L4.81891 14.1676Z" fill="#8C8C8C" stroke="#8C8C8C" stroke-width="0.356459"/>
<path d="M15.7365 10.734L15.2909 10.1399L16.5534 9.10022L17.7787 10.1399L17.3331 10.734L16.5534 10.0656L15.7365 10.734Z" fill="#8C8C8C" stroke="#8C8C8C" stroke-width="0.1"/>
<path d="M16.1754 9.90015H16.918V12.7593H16.1754V9.90015Z" fill="#8C8C8C" stroke="#8C8C8C" stroke-width="0.356459"/>
<path d="M3.82933 12.9476L2.604 11.9079L3.04958 11.3138L3.82933 11.9822L4.64622 11.3138L5.09179 11.9079L3.82933 12.9476Z" fill="#8C8C8C" stroke="#8C8C8C" stroke-width="0.1"/>
<path d="M3.47662 9.41772H4.21925V12.2767H3.47662V9.41772Z" fill="#8C8C8C" stroke="#8C8C8C" stroke-width="0.356459"/>
<path d="M11.1629 18.6633L10.5688 18.2177L11.2371 17.438L10.5688 16.6211L11.1629 16.1755L12.2025 17.438L11.1629 18.6633Z" fill="#8C8C8C" stroke="#8C8C8C" stroke-width="0.1"/>
<path d="M8.52649 17.0667H11.3856V17.8093H8.52649V17.0667Z" fill="#8C8C8C" stroke="#8C8C8C" stroke-width="0.356459"/>
<path d="M9.23199 5.98315L8.19232 4.72069L9.23199 3.49536L9.82609 3.94093L9.15773 4.72069L9.82609 5.53757L9.23199 5.98315Z" fill="#8C8C8C" stroke="#8C8C8C" stroke-width="0.1"/>
<path d="M9.00922 4.3678H11.8683V5.11042H9.00922V4.3678Z" fill="#8C8C8C" stroke="#8C8C8C" stroke-width="0.356459"/>
<path d="M16.2126 20C14.616 20 13.3164 18.7004 13.3164 17.1037C13.3164 15.5071 14.616 14.2075 16.2126 14.2075C17.8093 14.2075 19.1089 15.5071 19.1089 17.1037C19.1089 18.7004 17.8093 20 16.2126 20ZM16.2126 14.9501C15.0244 14.9501 14.059 15.9156 14.059 17.1037C14.059 18.2919 15.0244 19.2574 16.2126 19.2574C17.4008 19.2574 18.3662 18.2919 18.3662 17.1037C18.3662 15.9156 17.4008 14.9501 16.2126 14.9501Z" fill="#8C8C8C" stroke="#8C8C8C" stroke-width="0.356459"/>
<path d="M16.2126 18.4405C15.8784 18.4405 15.5442 18.292 15.2843 18.0692C14.7645 17.5493 14.7645 16.7324 15.2843 16.2126C15.767 15.7299 16.6582 15.7299 17.1409 16.2126C17.6607 16.7324 17.6607 17.5493 17.1409 18.0692C16.881 18.292 16.5468 18.4405 16.2126 18.4405ZM16.2126 16.5468C16.0641 16.5468 15.9155 16.6211 15.8042 16.7325C15.5814 16.9552 15.5814 17.3265 15.8042 17.5493C16.0269 17.7721 16.3982 17.7721 16.621 17.5493C16.8438 17.3265 16.8438 16.9552 16.621 16.7325C16.5096 16.5839 16.3611 16.5468 16.2126 16.5468Z" fill="#8C8C8C" stroke="#8C8C8C" stroke-width="0.356459"/>
<path d="M10.1974 14.8643C8.1159 14.8643 6.42166 13.1701 6.42166 11.0886C6.42166 9.00711 8.1159 7.31287 10.1974 7.31287C12.2789 7.31287 13.9731 9.00711 13.9731 11.0886C13.9731 13.1701 12.2789 14.8643 10.1974 14.8643ZM10.1974 8.281C8.64838 8.281 7.3898 9.53958 7.3898 11.0886C7.3898 12.6376 8.64838 13.8962 10.1974 13.8962C11.7464 13.8962 13.005 12.6376 13.005 11.0886C13.005 9.53958 11.7464 8.281 10.1974 8.281Z" fill="#8C8C8C" stroke="#8C8C8C" stroke-width="0.356459"/>
<path d="M4.18218 7.96958C2.58554 7.96958 1.28595 6.66999 1.28595 5.07335C1.28595 3.47671 2.58554 2.17712 4.18218 2.17712C5.77881 2.17712 7.0784 3.47671 7.0784 5.07335C7.0784 6.66999 5.77881 7.96958 4.18218 7.96958ZM4.18218 2.91975C2.99398 2.91975 2.02857 3.88516 2.02857 5.07335C2.02857 6.26155 2.99398 7.22695 4.18218 7.22695C5.37037 7.22695 6.33578 6.26155 6.33578 5.07335C6.33578 3.88516 5.37037 2.91975 4.18218 2.91975Z" fill="#8C8C8C" stroke="#8C8C8C" stroke-width="0.356459"/>
<path d="M10.1974 12.3882C9.86319 12.3882 9.52901 12.2397 9.26909 12.0169C8.74925 11.4971 8.74925 10.6802 9.26909 10.1604C9.75179 9.67766 10.6429 9.67766 11.1256 10.1604C11.6455 10.6802 11.6455 11.4971 11.1256 12.0169C10.8657 12.2768 10.5315 12.3882 10.1974 12.3882ZM10.1974 10.5317C10.0488 10.5317 9.90032 10.6059 9.78892 10.7173C9.56614 10.9401 9.56614 11.3114 9.78892 11.5342C10.0117 11.757 10.383 11.757 10.6058 11.5342C10.8286 11.3114 10.8286 10.9401 10.6058 10.7173C10.4944 10.5688 10.3459 10.5317 10.1974 10.5317Z" fill="#8C8C8C" stroke="#8C8C8C" stroke-width="0.356459"/>
<path d="M4.18214 6.40996C3.84796 6.40996 3.51378 6.26144 3.25386 6.03865C2.73402 5.51882 2.73402 4.70193 3.25386 4.1821C3.73656 3.69939 4.62771 3.69939 5.11042 4.1821C5.63025 4.70193 5.63025 5.51882 5.11042 6.03865C4.8505 6.26144 4.51632 6.40996 4.18214 6.40996ZM4.18214 4.51628C4.03361 4.51628 3.88509 4.55341 3.7737 4.6648C3.55091 4.88759 3.55091 5.2589 3.7737 5.48169C3.99648 5.70447 4.36779 5.70447 4.59058 5.48169C4.81337 5.2589 4.81337 4.88759 4.59058 4.6648C4.47919 4.55341 4.33066 4.51628 4.18214 4.51628Z" fill="#8C8C8C" stroke="#8C8C8C" stroke-width="0.356459"/>
</svg>
