<svg width="21" height="22" viewBox="0 0 21 22" fill="none" xmlns="http://www.w3.org/2000/svg">
<g clip-path="url(#clip0_5808_1057)">
<path d="M2.75781 6.33594H14.1524" stroke="black" stroke-opacity="0.45" stroke-linecap="round" stroke-linejoin="round"/>
<path d="M10.0216 1.82959C11.883 2.48082 13.2181 4.25267 13.2181 6.33635C13.2181 8.9726 11.081 11.1097 8.44474 11.1097C5.80849 11.1097 3.67139 8.9726 3.67139 6.33635C3.67139 4.25267 5.00648 2.48082 6.86789 1.82959" stroke="black" stroke-opacity="0.45" stroke-linecap="round" stroke-linejoin="round"/>
<path d="M6.85938 1.34277C6.85938 1.06663 7.08323 0.842773 7.35938 0.842773H9.55095C9.82709 0.842773 10.051 1.06663 10.051 1.34277V6.3361H6.85938V1.34277Z" stroke="black" stroke-opacity="0.45" stroke-linecap="round" stroke-linejoin="round"/>
<path d="M0.717285 19.6505C0.717285 15.3829 4.17685 11.9233 8.44444 11.9233C9.8257 11.9233 11.1223 12.2858 12.2444 12.9207" stroke="black" stroke-opacity="0.45" stroke-linecap="round"/>
<path d="M14.7104 14.3896H17.2822" stroke="black" stroke-opacity="0.45" stroke-linecap="round"/>
<path d="M14.7104 16.6533H18.1265" stroke="black" stroke-opacity="0.45" stroke-linecap="round"/>
<path d="M14.7104 18.917H18.1265" stroke="black" stroke-opacity="0.45" stroke-linecap="round"/>
<path d="M19.7945 21.4697H13.0425C12.7663 21.4697 12.5425 21.2459 12.5425 20.9697V12.1094C12.5425 11.8332 12.7663 11.6094 13.0425 11.6094H18.6989C18.8376 11.6094 18.9701 11.667 19.0647 11.7685L20.1603 12.9442C20.2466 13.0367 20.2945 13.1585 20.2945 13.285V20.9697C20.2945 21.2459 20.0707 21.4697 19.7945 21.4697Z" stroke="black" stroke-opacity="0.45"/>
</g>
<defs>
<clipPath id="clip0_5808_1057">
<rect width="21" height="22" fill="white"/>
</clipPath>
</defs>
</svg>
