<svg width="71" height="70" viewBox="0 0 71 70" fill="none" xmlns="http://www.w3.org/2000/svg">
<circle cx="35.5" cy="35" r="35" fill="#F1F2F3"/>
<g clip-path="url(#clip0_1455_112562)">
<path d="M35.5 48.4173C37.087 48.4173 38.375 49.7053 38.375 51.2923C38.375 52.8793 37.087 54.1673 35.5 54.1673C33.913 54.1673 32.625 52.8793 32.625 51.2923C32.625 49.7053 33.913 48.4173 35.5 48.4173ZM35.5 15.834C41.8518 15.834 47 20.9822 47 27.334C47 31.4836 45.5567 33.6398 41.8748 36.7697C38.1814 39.9073 37.4167 41.3199 37.4167 44.584H33.5833C33.5833 39.8422 35.0918 37.5019 39.3927 33.8487C42.3003 31.3782 43.1667 30.0825 43.1667 27.334C43.1667 23.0982 39.7358 19.6673 35.5 19.6673C31.2642 19.6673 27.8333 23.0982 27.8333 27.334V29.2507H24V27.334C24 20.9822 29.1482 15.834 35.5 15.834Z" fill="#5C79EF"/>
</g>
<defs>
<clipPath id="clip0_1455_112562">
<rect width="46" height="46" fill="white" transform="translate(12.5 12)"/>
</clipPath>
</defs>
</svg>
