<svg width="23" height="22" viewBox="0 0 23 22" fill="none" xmlns="http://www.w3.org/2000/svg">
<g clip-path="url(#clip0_223_2806)">
<path d="M6.57695 20H13.7769C15.2681 20 16.4769 18.7911 16.4769 17.3C16.4769 15.8088 15.2681 14.6 13.7769 14.6H6.57695C5.0858 14.6 3.87695 15.8088 3.87695 17.3C3.87695 18.7911 5.0858 20 6.57695 20ZM6.57695 15.2H13.7769C14.9367 15.2 15.8769 16.1402 15.8769 17.3C15.8769 18.4597 14.9367 19.4 13.7769 19.4H6.57695C5.41715 19.4 4.47696 18.4598 4.47696 17.3C4.47696 16.1402 5.41715 15.2 6.57695 15.2Z" fill="#8C8C8C" stroke="#8C8C8C" stroke-width="0.5"/>
<path d="M17.6767 8.29999H2.67677C1.84873 8.30097 1.17774 8.97196 1.17676 9.8V12.2C1.17774 13.028 1.84873 13.699 2.67677 13.7H17.6768C18.5047 13.699 19.1757 13.028 19.1768 12.2V9.8C19.1757 8.97196 18.5047 8.30097 17.6767 8.29999ZM18.5767 12.2C18.5767 12.697 18.1738 13.1 17.6767 13.1H2.67677C2.17973 13.1 1.77677 12.697 1.77677 12.2V9.79996C1.77677 9.30289 2.17973 8.89996 2.67677 8.89996H17.6768C18.1738 8.89996 18.5767 9.30293 18.5767 9.79996L18.5767 12.2Z" fill="#8C8C8C" stroke="#8C8C8C" stroke-width="0.5"/>
<path d="M17.6767 2H2.67677C1.84873 2.00098 1.17774 2.67198 1.17676 3.50001V5.90002C1.17774 6.72802 1.84873 7.39902 2.67677 7.40004H17.6768C18.5047 7.39905 19.1757 6.72806 19.1768 5.90002V3.50001C19.1757 2.67198 18.5047 2.00098 17.6767 2ZM18.5767 5.89999C18.5767 6.39703 18.1738 6.79999 17.6767 6.79999H2.67677C2.17973 6.79999 1.77677 6.39703 1.77677 5.89999V3.50001C1.77677 3.00297 2.17973 2.60001 2.67677 2.60001H17.6768C18.1738 2.60001 18.5767 3.00297 18.5767 3.50001L18.5767 5.89999Z" fill="#8C8C8C" stroke="#8C8C8C" stroke-width="0.5"/>
<path fill-rule="evenodd" clip-rule="evenodd" d="M17.0208 10.7H5.98489C5.78827 10.7 5.62891 10.8343 5.62891 11C5.62891 11.1657 5.78831 11.3 5.98489 11.3H17.0208C17.2174 11.3 17.3768 11.1657 17.3768 11C17.3768 10.8343 17.2174 10.7 17.0208 10.7Z" fill="#8C8C8C" stroke="#8C8C8C" stroke-width="0.5"/>
<path fill-rule="evenodd" clip-rule="evenodd" d="M4.24968 10.7H3.45626C3.44212 10.7 3.43066 10.8343 3.43066 11C3.43066 11.1657 3.44212 11.3 3.45626 11.3H4.24968C4.26381 11.3 4.27527 11.1657 4.27527 11C4.27527 10.8343 4.26381 10.7 4.24968 10.7Z" fill="#8C8C8C" stroke="#8C8C8C" stroke-width="0.5"/>
<path fill-rule="evenodd" clip-rule="evenodd" d="M16.3758 4.40009H5.96473C5.77925 4.40009 5.62891 4.53442 5.62891 4.70007C5.62891 4.86577 5.77929 5.00006 5.96473 5.00006H16.3758C16.5612 5.00006 16.7116 4.86573 16.7116 4.70007C16.7116 4.53442 16.5613 4.40009 16.3758 4.40009Z" fill="#8C8C8C" stroke="#8C8C8C" stroke-width="0.5"/>
<path fill-rule="evenodd" clip-rule="evenodd" d="M4.19357 4.40009H3.4545C3.44134 4.40009 3.43066 4.53442 3.43066 4.70007C3.43066 4.86577 3.44134 5.00006 3.4545 5.00006H4.19357C4.20673 5.00006 4.21741 4.86573 4.21741 4.70007C4.21741 4.53442 4.20674 4.40009 4.19357 4.40009Z" fill="#8C8C8C" stroke="#8C8C8C" stroke-width="0.5"/>
<path fill-rule="evenodd" clip-rule="evenodd" d="M9.06509 18.4121C9.17063 18.5177 9.33776 18.5296 9.45719 18.4401L11.8572 16.6401C11.9897 16.5406 12.0166 16.3526 11.9172 16.22C11.8178 16.0875 11.6298 16.0607 11.4972 16.16L9.30538 17.804L8.88927 17.3879C8.77157 17.2742 8.58443 17.2759 8.46873 17.3916C8.353 17.5073 8.35138 17.6944 8.46508 17.8121L9.06509 18.4121Z" fill="#8C8C8C" stroke="#8C8C8C" stroke-width="0.5"/>
</g>
<defs>
<clipPath id="clip0_223_2806">
<rect width="22" height="22" fill="white" transform="translate(0.176758)"/>
</clipPath>
</defs>
</svg>
