<svg width="10" height="10" viewBox="0 0 10 10" fill="none" xmlns="http://www.w3.org/2000/svg">
<g clip-path="url(#clip0_23_8786)">
<path d="M4.55957 0.289795C2.07817 0.289795 0.0595703 2.3084 0.0595703 4.78979C0.0595703 7.27119 2.07817 9.28979 4.55957 9.28979C7.04097 9.28979 9.05957 7.27119 9.05957 4.78979C9.05957 2.3084 7.04097 0.289795 4.55957 0.289795Z" fill="#EF5959"/>
<path d="M6.21673 5.91666C6.36333 6.06333 6.36333 6.30029 6.21673 6.44696C6.1436 6.52008 6.04761 6.55682 5.95155 6.55682C5.85555 6.55682 5.75956 6.52008 5.68643 6.44696L4.55958 5.32003L3.43273 6.44696C3.3596 6.52008 3.26361 6.55682 3.16761 6.55682C3.07155 6.55682 2.97556 6.52008 2.90243 6.44696C2.75583 6.30029 2.75583 6.06333 2.90243 5.91666L4.02935 4.7898L2.90243 3.66295C2.75583 3.51628 2.75583 3.27932 2.90243 3.13265C3.0491 2.98606 3.28606 2.98606 3.43273 3.13265L4.55958 4.25958L5.68643 3.13265C5.8331 2.98606 6.07006 2.98606 6.21673 3.13265C6.36333 3.27932 6.36333 3.51628 6.21673 3.66295L5.08981 4.7898L6.21673 5.91666Z" fill="#FAFAFA"/>
</g>
<defs>
<clipPath id="clip0_23_8786">
<rect width="9" height="9" fill="white" transform="translate(0.0595703 0.289795)"/>
</clipPath>
</defs>
</svg>
