<svg width="21" height="20" viewBox="0 0 21 20" fill="none" xmlns="http://www.w3.org/2000/svg">
<g id="g1367">
<g id="Clip path group">
<mask id="mask0_269_671" style="mask-type:luminance" maskUnits="userSpaceOnUse" x="0" y="0" width="21" height="20">
<g id="clipPath1373">
<path id="path1371" d="M0.317139 0.285191H20.39V19.7148H0.317139V0.285191Z" fill="white"/>
</g>
</mask>
<g mask="url(#mask0_269_671)">
<g id="g1369">
<g id="g1375">
<path id="path1377" d="M19.7366 2.46507C19.7366 1.98085 19.3441 1.58831 18.8598 1.58831H1.94268C1.45846 1.58831 1.06592 1.98085 1.06592 2.46507V4.39938H19.7366V2.46507Z" stroke="#8C8C8C" stroke-width="1.23687" stroke-miterlimit="10" stroke-linecap="round" stroke-linejoin="round"/>
</g>
<g id="g1379">
<path id="path1381" d="M1.06592 4.39937V17.5351C1.06592 18.0193 1.45846 18.4118 1.94268 18.4118H18.8598C19.3441 18.4118 19.7366 18.0193 19.7366 17.5351V4.39937H1.06592Z" stroke="#8C8C8C" stroke-width="1.23687" stroke-miterlimit="10" stroke-linecap="round" stroke-linejoin="round"/>
</g>
<g id="g1395">
<path id="path1397" d="M17.5636 9.13871C17.5636 9.84076 17.279 10.4768 16.8187 10.9367C16.3584 11.397 15.7228 11.6816 15.0207 11.6816C13.6162 11.6816 12.4778 10.5432 12.4778 9.13871C12.4778 8.43666 12.7624 7.80102 13.2227 7.34071C13.6826 6.88077 14.3182 6.59616 15.0207 6.59616C15.7228 6.59616 16.3584 6.88077 16.8187 7.34071C17.279 7.80102 17.5636 8.43666 17.5636 9.13871Z" stroke="#8C8C8C" stroke-width="1.23687" stroke-miterlimit="10" stroke-linecap="round" stroke-linejoin="round"/>
</g>
<g id="g1399">
<path id="path1401" d="M17.5637 9.1387C17.5637 9.84075 17.2791 10.4768 16.8188 10.9367L15.0208 9.1387V6.59615C15.7228 6.59615 16.3584 6.88077 16.8188 7.3407C17.2791 7.80102 17.5637 8.43666 17.5637 9.1387Z" stroke="#8C8C8C" stroke-width="1.23687" stroke-miterlimit="10" stroke-linecap="round" stroke-linejoin="round"/>
</g>
<g id="g1403">
<path id="path1405" d="M12.4778 13.8469H17.5636" stroke="#8C8C8C" stroke-width="1.23687" stroke-miterlimit="10" stroke-linecap="round" stroke-linejoin="round"/>
</g>
<path id="path1407" d="M5.57094 13.8469H3.68994V10.2844H5.57094V13.8469Z" stroke="#8C8C8C" stroke-width="1.23687" stroke-miterlimit="10" stroke-linecap="round" stroke-linejoin="round"/>
<path id="path1409" d="M9.18003 13.8469H7.29907V7.86005H9.18003V13.8469Z" stroke="#8C8C8C" stroke-width="1.23687" stroke-miterlimit="10" stroke-linecap="round" stroke-linejoin="round"/>
<g id="g1411">
<path id="path1413" d="M3.00122 13.8469H10.0597" stroke="#8C8C8C" stroke-width="1.23687" stroke-miterlimit="10" stroke-linecap="round" stroke-linejoin="round"/>
</g>
<g id="g1415">
<path id="path1417" d="M4.76123 15.983H17.5637" stroke="#8C8C8C" stroke-width="1.23687" stroke-miterlimit="10" stroke-linecap="round" stroke-linejoin="round"/>
</g>
</g>
</g>
</g>
</g>
</svg>
