<svg width="12" height="14" viewBox="0 0 12 14" fill="none" xmlns="http://www.w3.org/2000/svg">
<path d="M9.5 5.01961H10.6667C10.8214 5.01961 10.9697 5.08107 11.0791 5.19046C11.1885 5.29986 11.25 5.44823 11.25 5.60294V12.6029C11.25 12.7577 11.1885 12.906 11.0791 13.0154C10.9697 13.1248 10.8214 13.1863 10.6667 13.1863H1.33333C1.17862 13.1863 1.03025 13.1248 0.920854 13.0154C0.811458 12.906 0.75 12.7577 0.75 12.6029V5.60294C0.75 5.44823 0.811458 5.29986 0.920854 5.19046C1.03025 5.08107 1.17862 5.01961 1.33333 5.01961H2.5V4.43628C2.5 3.50802 2.86875 2.61778 3.52513 1.9614C4.1815 1.30503 5.07174 0.936277 6 0.936277C6.92826 0.936277 7.8185 1.30503 8.47487 1.9614C9.13125 2.61778 9.5 3.50802 9.5 4.43628V5.01961ZM1.91667 6.18628V12.0196H10.0833V6.18628H1.91667ZM5.41667 8.51961H6.58333V9.68628H5.41667V8.51961ZM3.08333 8.51961H4.25V9.68628H3.08333V8.51961ZM7.75 8.51961H8.91667V9.68628H7.75V8.51961ZM8.33333 5.01961V4.43628C8.33333 3.81744 8.0875 3.22395 7.64992 2.78636C7.21233 2.34878 6.61884 2.10294 6 2.10294C5.38116 2.10294 4.78767 2.34878 4.35008 2.78636C3.9125 3.22395 3.66667 3.81744 3.66667 4.43628V5.01961H8.33333Z" fill="black"/>
</svg>
