<svg width="17" height="17" viewBox="0 0 17 17" fill="none" xmlns="http://www.w3.org/2000/svg">
<path d="M10.7967 6.91021H15.3878C15.5289 6.91021 15.6431 6.79593 15.6431 6.65486V2.062C15.6431 1.92093 15.5289 1.80664 15.3878 1.80664H10.7967C10.6556 1.80664 10.5414 1.92093 10.5414 2.062V3.72093H8.11814C8.04849 3.72093 7.99135 3.77807 7.99135 3.84771V7.80307H6.46099V6.07985C6.46099 5.93878 6.34671 5.8245 6.20564 5.8245H1.61278C1.47171 5.8245 1.35742 5.93878 1.35742 6.07985V10.6727C1.35742 10.8138 1.47171 10.9281 1.61278 10.9281H6.20385C6.34492 10.9281 6.45921 10.8138 6.45921 10.6727V8.9495H7.98957V12.9049C7.98957 12.9745 8.04671 13.0316 8.11635 13.0316H10.5396V14.6906C10.5396 14.8316 10.6539 14.9459 10.7949 14.9459H15.386C15.5271 14.9459 15.6414 14.8316 15.6414 14.6906V10.1013C15.6414 9.96021 15.5271 9.84593 15.386 9.84593H10.7967C10.6556 9.84593 10.5414 9.96021 10.5414 10.1013V11.887H9.13778V4.86914H10.5414V6.65486C10.5414 6.79593 10.6556 6.91021 10.7967 6.91021ZM11.7521 3.01914H14.4306V5.6995H11.7521V3.01914ZM5.24849 9.71736H2.56992V7.03878H5.24849V9.71736ZM11.7521 11.0584H14.4306V13.7388H11.7521V11.0584Z" fill="black" fill-opacity="0.45"/>
</svg>
