<svg width="14" height="14" viewBox="0 0 18 18" fill="none" xmlns="http://www.w3.org/2000/svg">
<g id="Group 427319811">
<path id="Union" fill-rule="evenodd" clip-rule="evenodd" d="M14 7.5C14 11.0899 11.0899 14 7.5 14C3.91015 14 1 11.0899 1 7.5C1 3.91015 3.91015 1 7.5 1C11.0899 1 14 3.91015 14 7.5ZM12.0491 13.4633C10.7873 14.4274 9.21054 15 7.5 15C3.35786 15 0 11.6421 0 7.5C0 3.35786 3.35786 0 7.5 0C11.6421 0 15 3.35786 15 7.5C15 9.21054 14.4274 10.7873 13.4633 12.0491L13.7071 12.2929L17.7071 16.2929C18.0976 16.6834 18.0976 17.3166 17.7071 17.7071C17.3166 18.0976 16.6834 18.0976 16.2929 17.7071L12.2929 13.7071L12.0491 13.4633Z" fill="black" fill-opacity="0.25"/>
</g>
</svg>
