<svg width="37" height="40" viewBox="0 0 37 40" fill="none" xmlns="http://www.w3.org/2000/svg">
<path d="M23.3761 34.8502H3.25193C2.51986 34.8502 1.92639 34.2567 1.92639 33.5247V13.7707C1.92639 13.0387 2.51986 12.4452 3.25193 12.4452H27.4291C28.1612 12.4452 28.7547 13.0387 28.7547 13.7707V22.8839" stroke="#B6B6B6" stroke-width="2.4063"/>
<path d="M23.7879 12.4453V9.83932C23.7879 5.17398 20.0059 1.392 15.3405 1.392C10.6752 1.392 6.89322 5.17398 6.89322 9.83932V12.4453" stroke="#B6B6B6" stroke-width="2.4063" stroke-miterlimit="10" stroke-linecap="round" stroke-linejoin="round"/>
<path fill-rule="evenodd" clip-rule="evenodd" d="M33.2095 33.376C33.6343 33.7206 33.9177 34.2311 33.9572 34.8177C34.0327 35.9374 33.1862 36.9063 32.0665 36.9818C31.5245 37.0183 31.0198 36.84 30.6318 36.5178L27.3228 33.6267L27.3138 33.6183C27.0848 33.4044 26.905 33.1388 26.7941 32.8379C26.9293 32.8922 27.0785 32.9177 27.2336 32.9072C28.6249 32.8134 29.8036 32.0244 30.4536 30.9021C30.5066 30.9918 30.5745 31.0747 30.6572 31.1469L33.1816 33.3525L33.1954 33.3645L33.2095 33.376ZM30.9538 29.4612C31.2892 29.3316 31.6835 29.3877 31.9731 29.6408L34.4848 31.8352C35.3147 32.5152 35.8747 33.5263 35.9527 34.6832C36.1025 36.905 34.4228 38.8275 32.201 38.9773C31.1203 39.0501 30.1085 38.6889 29.3399 38.0445L29.332 38.038L29.3244 38.0313L25.8414 34.9882C25.7722 34.9278 25.7133 34.8599 25.665 34.7868C25.1038 34.1455 24.7397 33.3203 24.6779 32.4044C24.6585 32.1156 24.6699 31.8318 24.7094 31.5563C24.374 31.686 23.9797 31.6298 23.6901 31.3768L21.1784 29.1824C20.3485 28.5024 19.7885 27.4913 19.7105 26.3343C19.5607 24.1126 21.2404 22.1901 23.4622 22.0403C24.5429 21.9674 25.5547 22.3287 26.3233 22.973L26.3312 22.9796L26.3388 22.9863L29.8218 26.0293C29.891 26.0898 29.9499 26.1576 29.9982 26.2307C30.5594 26.8721 30.9235 27.6972 30.9853 28.6132C31.0047 28.902 30.9933 29.1857 30.9538 29.4612ZM28.3405 27.3909L25.0314 24.4998C24.6434 24.1775 24.1387 23.9992 23.5967 24.0358C22.477 24.1112 21.6305 25.0801 21.706 26.1998C21.7455 26.7865 22.0289 27.297 22.4537 27.6416L22.4678 27.6531L22.4816 27.6651L25.006 29.8706C25.0887 29.9429 25.1566 30.0258 25.2095 30.1154C25.8596 28.9931 27.0383 28.2041 28.4296 28.1103C28.5847 28.0999 28.7339 28.1254 28.8691 28.1797C28.7582 27.8788 28.5784 27.6131 28.3494 27.3993C28.3464 27.3965 28.3434 27.3937 28.3405 27.3909ZM28.5877 30.1039C28.5799 30.1047 28.572 30.1053 28.5641 30.1058C27.9501 30.1472 27.4182 30.4573 27.0755 30.9136C27.0833 30.9129 27.0912 30.9123 27.0991 30.9117C27.7131 30.8703 28.245 30.5603 28.5877 30.1039Z" fill="#B6B6B6"/>
<path d="M8.48285 20.3634L4.98163 22.4556" stroke="#B6B6B6" stroke-width="0.901292" stroke-linejoin="round"/>
<path d="M8.51349 22.4026L4.95099 20.4165" stroke="#B6B6B6" stroke-width="0.901292" stroke-linejoin="round"/>
<path d="M6.70163 19.3704L6.76291 23.4487" stroke="#B6B6B6" stroke-width="0.901292" stroke-linejoin="round"/>
<path d="M13.9182 20.3635L10.4169 22.4557" stroke="#B6B6B6" stroke-width="0.901292" stroke-linejoin="round"/>
<path d="M13.9488 22.4026L10.3863 20.4165" stroke="#B6B6B6" stroke-width="0.901292" stroke-linejoin="round"/>
<path d="M12.1369 19.3705L12.1982 23.4487" stroke="#B6B6B6" stroke-width="0.901292" stroke-linejoin="round"/>
<path d="M19.31 20.3635L15.8088 22.4557" stroke="#B6B6B6" stroke-width="0.901292" stroke-linejoin="round"/>
<path d="M19.3407 22.4026L15.7782 20.4165" stroke="#B6B6B6" stroke-width="0.901292" stroke-linejoin="round"/>
<path d="M17.5288 19.3705L17.5901 23.4487" stroke="#B6B6B6" stroke-width="0.901292" stroke-linejoin="round"/>
</svg>
