<svg width="18" height="17" viewBox="0 0 18 17" fill="none" xmlns="http://www.w3.org/2000/svg">
<path d="M14.3457 3.38387C14.3289 3.4553 14.2894 3.64501 14.2414 3.83238C13.9717 4.87345 14.5255 5.70959 15.6044 5.88642C16.4951 6.0328 16.718 6.24593 16.8763 7.08675C17.0525 8.01774 17.0369 8.94873 16.8523 9.87504C16.736 10.4594 16.4507 10.8412 15.7662 10.9302C14.4512 11.1 13.9609 11.8635 14.2798 13.1165C14.4824 13.9128 14.293 14.3543 13.5522 14.7736C13.0511 15.057 12.5452 15.331 12.037 15.6003C11.3848 15.9446 10.8442 15.8791 10.2772 15.3989C10.1118 15.2584 9.95714 15.1038 9.78333 14.975C9.16837 14.5159 8.70326 14.434 8.17821 14.9773C7.1413 16.0512 6.14994 15.9013 5.06868 15.1167C4.81455 14.9317 4.50887 14.8157 4.24395 14.6424C3.73568 14.3098 3.55467 13.8016 3.71171 13.2219C4.08332 11.8588 3.6182 11.1374 2.17612 10.922C1.66905 10.8458 1.36337 10.5894 1.2399 10.1444C0.922237 8.99441 0.918641 7.83389 1.23751 6.68391C1.36937 6.20963 1.70981 5.95785 2.23246 5.8911C3.56666 5.72013 4.08212 4.93084 3.72609 3.66024C3.53549 2.97985 3.72609 2.47396 4.34224 2.12381C4.92843 1.79123 5.53259 1.48793 6.12837 1.17174C6.69058 0.874291 7.20244 0.980858 7.68193 1.3556C7.74427 1.40478 7.80061 1.45982 7.86175 1.51018C8.8615 2.32523 9.25468 2.32406 10.24 1.50198C10.9293 0.925818 11.3525 0.875462 12.1436 1.29002C12.6531 1.55702 13.1614 1.8287 13.6601 2.11444C14.1024 2.36739 14.3673 2.73744 14.3457 3.38387V3.38387Z" stroke="white" stroke-width="1.25" stroke-linecap="round" stroke-linejoin="round"/>
<path d="M11.9532 8.39164C11.9544 10.0335 10.637 11.3556 8.98753 11.3638C7.34406 11.3732 5.99068 10.0417 5.98828 8.41272C5.98589 6.77441 7.31169 5.45229 8.96356 5.44643C10.6166 5.44058 11.952 6.75567 11.9532 8.39047V8.39164Z" stroke="white" stroke-width="1.25" stroke-linecap="round" stroke-linejoin="round"/>
</svg>
