<svg width="49" height="48" viewBox="0 0 49 48" fill="none" xmlns="http://www.w3.org/2000/svg">
<circle cx="24.8496" cy="24" r="24" fill="#F4F4F4"/>
<path d="M33.8496 16.5007H24.9496L20.5496 14.5457C20.4738 14.5126 20.3909 14.4988 20.3084 14.5056C20.226 14.5124 20.1465 14.5396 20.0771 14.5847C20.0077 14.6298 19.9506 14.6914 19.9109 14.764C19.8712 14.8366 19.8501 14.9179 19.8496 15.0007V16.5007H15.8496C15.717 16.5007 15.5898 16.5533 15.4961 16.6471C15.4023 16.7409 15.3496 16.868 15.3496 17.0007V30.5007C15.3496 30.6333 15.4023 30.7604 15.4961 30.8542C15.5898 30.948 15.717 31.0007 15.8496 31.0007H19.8496V33.0007C19.8498 33.0879 19.8727 33.1735 19.9162 33.2491C19.9597 33.3247 20.0222 33.3876 20.0975 33.4316C20.1728 33.4755 20.2583 33.4991 20.3455 33.4998C20.4327 33.5005 20.5186 33.4784 20.5946 33.4357L24.9596 31.0007H33.8496C33.9822 31.0007 34.1094 30.948 34.2032 30.8542C34.2969 30.7604 34.3496 30.6333 34.3496 30.5007V17.0007C34.3496 16.868 34.2969 16.7409 34.2032 16.6471C34.1094 16.5533 33.9822 16.5007 33.8496 16.5007ZM16.3496 30.0007V17.5007H19.8496V30.0007H16.3496ZM33.3496 30.0007H24.8496C24.7637 30.0009 24.6793 30.0233 24.6046 30.0657L20.8496 32.1507V15.7707L24.6396 17.4557C24.7055 17.4857 24.7772 17.501 24.8496 17.5007H33.3496V30.0007Z" fill="black" fill-opacity="0.85" stroke="black" stroke-opacity="0.85" stroke-width="0.3"/>
<path d="M24.495 24.3565L26.495 26.3565C26.5907 26.4384 26.7137 26.4812 26.8395 26.4763C26.9654 26.4715 27.0847 26.4193 27.1738 26.3303C27.2628 26.2412 27.315 26.1218 27.3199 25.996C27.3247 25.8702 27.2819 25.7471 27.2 25.6515L26.055 24.5015H30.35C30.4826 24.5015 30.6098 24.4488 30.7036 24.355C30.7973 24.2613 30.85 24.1341 30.85 24.0015C30.85 23.8689 30.7973 23.7417 30.7036 23.6479C30.6098 23.5542 30.4826 23.5015 30.35 23.5015H26.055L27.2 22.3565C27.2819 22.2608 27.3247 22.1378 27.3199 22.012C27.315 21.8861 27.2628 21.7667 27.1738 21.6777C27.0847 21.5886 26.9654 21.5365 26.8395 21.5316C26.7137 21.5268 26.5907 21.5696 26.495 21.6515L24.495 23.6515C24.4019 23.7452 24.3496 23.8719 24.3496 24.004C24.3496 24.1361 24.4019 24.2628 24.495 24.3565Z" fill="black" fill-opacity="0.85" stroke="black" stroke-opacity="0.85" stroke-width="0.3"/>
</svg>
