<svg width="17" height="19" viewBox="0 0 20 20" fill="none" xmlns="http://www.w3.org/2000/svg">
<g clip-path="url(#clip0_204_2019)">
<path d="M19.2095 12.4307L18.4607 11.8143C17.9477 11.392 17.9486 10.6072 18.4607 10.1857L19.2095 9.56932C19.7423 9.1306 19.8786 8.37833 19.5336 7.7805L18.055 5.2195C17.7098 4.62171 16.99 4.36366 16.3438 4.60575L15.4355 4.94602C14.8134 5.17904 14.1342 4.78603 14.0251 4.13177L13.8657 3.17503C13.7522 2.49419 13.1689 2 12.4786 2H9.52144C8.83115 2 8.24777 2.49419 8.13432 3.17506L7.97485 4.13177C7.86562 4.78719 7.18549 5.17865 6.56452 4.94606L5.65626 4.60575C5.00998 4.36366 4.29026 4.62174 3.94506 5.2195L2.4665 7.78046C2.12137 8.37822 2.25763 9.13053 2.79057 9.56928L3.53936 10.1857C4.05236 10.608 4.05134 11.3928 3.53936 11.8142L2.79053 12.4306C2.25763 12.8694 2.12133 13.6217 2.46646 14.2195L3.94506 16.7805C4.29023 17.3782 5.00981 17.6363 5.65626 17.3942L6.56449 17.0539C7.18672 16.8208 7.86579 17.2141 7.97481 17.8682L8.13428 18.8249C8.24777 19.5058 8.83115 20 9.52141 20H12.4786C13.1688 20 13.7522 19.5058 13.8657 18.8249L14.0251 17.8683C14.1343 17.213 14.8144 16.8213 15.4355 17.054L16.3438 17.3943C16.9902 17.6364 17.7098 17.3783 18.055 16.7805L19.5336 14.2195C19.8786 13.6217 19.7423 12.8694 19.2095 12.4307ZM16.8371 16.0774L15.9288 15.7371C14.4769 15.1932 12.8924 16.1108 12.638 17.637L12.4786 18.5938H9.52144L9.36197 17.637C9.10713 16.1079 7.52028 15.1942 6.07117 15.7371L5.16291 16.0774L3.68434 13.5164L4.43314 12.8999C5.63017 11.9145 5.62768 10.0834 4.43314 9.10005L3.68434 8.48362L5.16295 5.92263L6.07117 6.26291C7.52313 6.80677 9.10762 5.8892 9.36197 4.36296L9.52141 3.40625H12.4786L12.638 4.36296C12.8929 5.89232 14.4798 6.80565 15.9288 6.26291L16.8371 5.92263L18.316 8.48327C18.316 8.48327 18.3159 8.48338 18.3156 8.48359L17.5668 9.10002C16.3698 10.0854 16.3722 11.9165 17.5668 12.8999L18.3156 13.5163L16.8371 16.0774ZM11 7.53124C9.08733 7.53124 7.53125 9.08732 7.53125 11C7.53125 12.9127 9.08733 14.4688 11 14.4688C12.9127 14.4688 14.4688 12.9127 14.4688 11C14.4688 9.08732 12.9127 7.53124 11 7.53124ZM11 13.0625C9.86274 13.0625 8.9375 12.1373 8.9375 11C8.9375 9.86273 9.86274 8.93749 11 8.93749C12.1373 8.93749 13.0625 9.86273 13.0625 11C13.0625 12.1373 12.1373 13.0625 11 13.0625Z" fill="#8C8C8C"/>
</g>
<defs>
<clipPath id="clip0_204_2019">
<rect width="18" height="18" fill="white" transform="translate(2 2)"/>
</clipPath>
</defs>
</svg>
