<svg width="11" height="10" viewBox="0 0 11 10" fill="none" xmlns="http://www.w3.org/2000/svg">
<path d="M5.60954 9.47933C3.1387 9.47933 1.13037 7.471 1.13037 5.00016C1.13037 2.52933 3.1387 0.520996 5.60954 0.520996C8.08037 0.520996 10.0887 2.52933 10.0887 5.00016C10.0887 7.471 8.08037 9.47933 5.60954 9.47933ZM5.60954 1.146C3.48454 1.146 1.75537 2.87516 1.75537 5.00016C1.75537 7.12516 3.48454 8.85433 5.60954 8.85433C7.73454 8.85433 9.4637 7.12516 9.4637 5.00016C9.4637 2.87516 7.73454 1.146 5.60954 1.146Z" fill="#52C41A"/>
<path d="M5.01748 6.49183C4.93415 6.49183 4.85498 6.4585 4.79665 6.40016L3.61748 5.221C3.49665 5.10016 3.49665 4.90016 3.61748 4.77933C3.73831 4.6585 3.93831 4.6585 4.05915 4.77933L5.01748 5.73766L7.15915 3.596C7.27998 3.47516 7.47998 3.47516 7.60081 3.596C7.72165 3.71683 7.72165 3.91683 7.60081 4.03766L5.23831 6.40016C5.17998 6.4585 5.10081 6.49183 5.01748 6.49183Z" fill="#52C41A"/>
</svg>
