<svg width="17" height="16" viewBox="0 0 17 16" fill="none" xmlns="http://www.w3.org/2000/svg">
<path fill-rule="evenodd" clip-rule="evenodd" d="M14.6959 7.99992C14.6959 11.6818 11.7111 14.6666 8.02922 14.6666C4.34732 14.6666 1.36255 11.6818 1.36255 7.99992C1.36255 4.31802 4.34732 1.33325 8.02922 1.33325C11.7111 1.33325 14.6959 4.31802 14.6959 7.99992ZM13.3625 7.99992C13.3625 10.9455 10.9747 13.3333 8.02922 13.3333C5.0837 13.3333 2.69588 10.9455 2.69588 7.99992C2.69588 5.0544 5.0837 2.66659 8.02922 2.66659C10.9747 2.66659 13.3625 5.0544 13.3625 7.99992Z" fill="white" fill-opacity="0.5"/>
<path d="M7.0293 4.66406H8.36263V7.9974H11.696V9.33073H7.0293V4.66406Z" fill="white" fill-opacity="0.5"/>
</svg>
