<svg width="22" height="20" viewBox="0 0 22 20" fill="none" xmlns="http://www.w3.org/2000/svg">
<path d="M4.09801 14.3166C3.93176 14.3166 3.76551 14.2583 3.63426 14.1333C2.43551 12.9833 1.77051 11.4666 1.77051 9.85829C1.77051 6.51662 4.61426 3.79994 8.11426 3.79994L13.4255 3.81662L12.4718 2.94992C12.2093 2.70825 12.2005 2.31659 12.4543 2.06659C12.708 1.81659 13.1193 1.80829 13.3818 2.04996L15.5168 3.99993C15.7093 4.17493 15.7705 4.44993 15.6743 4.68327C15.578 4.9166 15.333 5.07496 15.0618 5.07496L8.10551 5.05828C5.33176 5.05828 3.07426 7.21663 3.07426 9.86663C3.07426 11.1416 3.59925 12.3499 4.553 13.2582C4.80675 13.4999 4.80675 13.8999 4.553 14.1416C4.4305 14.2582 4.26426 14.3166 4.09801 14.3166Z" fill="#292D32"/>
<path d="M9.42667 18.125C9.26042 18.125 9.10292 18.0666 8.97167 17.95L6.83667 16C6.64417 15.825 6.58292 15.55 6.67917 15.3167C6.77542 15.0833 7.02042 14.925 7.29167 14.925L14.2479 14.9416C17.0217 14.9416 19.2792 12.7833 19.2792 10.1333C19.2792 8.8583 18.7542 7.65001 17.8004 6.74167C17.5467 6.50001 17.5467 6.10001 17.8004 5.85834C18.0542 5.61668 18.4742 5.61668 18.7279 5.85834C19.9267 7.00834 20.5917 8.52496 20.5917 10.1333C20.5917 13.475 17.7479 16.1916 14.2479 16.1916L8.93667 16.175L9.89042 17.0417C10.1529 17.2833 10.1617 17.675 9.90792 17.925C9.76792 18.0583 9.60167 18.125 9.42667 18.125Z" fill="#292D32"/>
<path d="M13.8018 10.625H8.55176C8.19301 10.625 7.89551 10.3417 7.89551 10C7.89551 9.65833 8.19301 9.375 8.55176 9.375H13.8018C14.1605 9.375 14.458 9.65833 14.458 10C14.458 10.3417 14.1605 10.625 13.8018 10.625Z" fill="#292D32"/>
</svg>
