<svg width="17" height="20" viewBox="0 0 17 20" fill="none" xmlns="http://www.w3.org/2000/svg">
<g id="Group 427320493">
<path id="Rectangle 34624868" d="M3.40833 4.53875H7.45362M3.40833 6.92916H10.7941M3.40833 9.47279H7.45362M3.40833 12.3229H5.60539M13.7115 8.55663V5.13891C13.7115 4.65331 13.5348 4.18429 13.2145 3.81938L11.7899 2.1968C11.4102 1.76428 10.8625 1.51633 10.2869 1.51633H2.87671C1.77214 1.51633 0.876709 2.41176 0.876709 3.51633V14.8876C0.876709 15.9921 1.77214 16.8876 2.87671 16.8876H6.65883" stroke="black" stroke-opacity="0.45" stroke-width="1.25" stroke-linecap="round"/>
<path id="Ellipse 1134" d="M13.6339 16.6408C14.5107 15.9279 15.0709 14.8405 15.0709 13.6223C15.0709 11.4748 13.33 9.73392 11.1825 9.73392C9.03497 9.73392 7.29407 11.4748 7.29407 13.6223C7.29407 15.7698 9.03497 17.5107 11.1825 17.5107C12.1118 17.5107 12.965 17.1847 13.6339 16.6408ZM13.6339 16.6408L15.4767 18.4836" stroke="black" stroke-opacity="0.45" stroke-width="1.25" stroke-linecap="round" stroke-linejoin="round"/>
</g>
</svg>
