<svg width="17" height="19" viewBox="0 0 20 20" fill="none" xmlns="http://www.w3.org/2000/svg">
<path d="M10.8498 11.4881C10.6157 11.9098 10.4824 12.3951 10.4824 12.9116C10.4824 14.534 11.7976 15.8492 13.42 15.8492C15.0424 15.8492 16.3576 14.534 16.3576 12.9116C16.3576 11.6489 15.5609 10.5723 14.4428 10.157" stroke="black" stroke-opacity="0.45" stroke-width="1.25" stroke-linecap="round" stroke-linejoin="round"/>
<path d="M13.42 6.44568C13.8004 6.44568 14.1731 6.47852 14.5354 6.54152L14.8875 7.81754C15.3807 7.94424 15.6952 8.03768 16.1213 8.2927L17.2801 7.7238C17.6959 8.03372 18.0732 8.39247 18.4035 8.79155L17.9114 10.3014C18.207 10.7471 18.3353 10.9476 18.4847 11.4746L19.8177 11.9693C19.8626 12.2768 19.8859 12.5915 19.8859 12.9115C19.8859 13.2316 19.8626 13.5462 19.8177 13.8538L18.4847 14.254C18.3814 14.7238 18.2913 14.962 18.0716 15.3755L18.6719 16.684C18.3289 17.1607 17.9225 17.5888 17.4652 17.9559L16.1213 17.429C15.6334 17.7571 15.4728 17.8056 14.8875 17.9559L14.3171 19.3156C14.0239 19.3563 13.7244 19.3773 13.42 19.3773C13.1157 19.3773 12.8162 19.3563 12.523 19.3156L11.9069 17.9559C11.2721 17.7929 11.2457 17.7994 10.7273 17.429L9.37486 17.9559C8.91755 17.5888 8.51123 17.1607 8.16821 16.684L8.77703 15.5067" stroke="black" stroke-opacity="0.45" stroke-width="1.25" stroke-linecap="round" stroke-linejoin="round"/>
<path fill-rule="evenodd" clip-rule="evenodd" d="M10.7659 5.4155C10.7659 6.61147 9.79633 7.581 8.60036 7.581C7.40439 7.581 6.43486 6.61147 6.43486 5.4155C6.43486 4.21953 7.40439 3.25 8.60036 3.25C9.79633 3.25 10.7659 4.21953 10.7659 5.4155ZM10.28 8.39015C11.3164 7.8037 12.0159 6.69129 12.0159 5.4155C12.0159 3.52917 10.4867 2 8.60036 2C6.71403 2 5.18486 3.52917 5.18486 5.4155C5.18486 6.69113 5.88417 7.80342 6.92034 8.38993C4.15244 9.12999 2.11401 11.6551 2.11401 14.6564C2.11401 15.0015 2.39384 15.2814 2.73901 15.2814C3.08419 15.2814 3.36401 15.0015 3.36401 14.6564C3.36401 11.7646 5.70827 9.42032 8.60006 9.42032C9.31424 9.42032 9.99353 9.56296 10.6122 9.82071C10.9308 9.95347 11.2967 9.80279 11.4295 9.48416C11.5622 9.16553 11.4116 8.79961 11.0929 8.66686C10.8302 8.55738 10.5587 8.46471 10.28 8.39015Z" fill="black" fill-opacity="0.45"/>
</svg>
