<svg width="17" height="16" viewBox="0 0 17 16" fill="none" xmlns="http://www.w3.org/2000/svg">
<path d="M15.6434 2.28683H5.21484C5.13627 2.28683 5.07199 2.35112 5.07199 2.42969V3.42969C5.07199 3.50826 5.13627 3.57254 5.21484 3.57254H15.6434C15.722 3.57254 15.7863 3.50826 15.7863 3.42969V2.42969C15.7863 2.35112 15.722 2.28683 15.6434 2.28683ZM15.6434 7.35826H5.21484C5.13627 7.35826 5.07199 7.42255 5.07199 7.50112V8.50112C5.07199 8.57969 5.13627 8.64397 5.21484 8.64397H15.6434C15.722 8.64397 15.7863 8.57969 15.7863 8.50112V7.50112C15.7863 7.42255 15.722 7.35826 15.6434 7.35826ZM15.6434 12.4297H5.21484C5.13627 12.4297 5.07199 12.494 5.07199 12.5725V13.5725C5.07199 13.6511 5.13627 13.7154 5.21484 13.7154H15.6434C15.722 13.7154 15.7863 13.6511 15.7863 13.5725V12.5725C15.7863 12.494 15.722 12.4297 15.6434 12.4297ZM1.21484 2.92969C1.21484 3.06101 1.24071 3.19105 1.29096 3.31237C1.34122 3.4337 1.41488 3.54394 1.50774 3.63679C1.6006 3.72965 1.71083 3.80331 1.83216 3.85357C1.95349 3.90382 2.08352 3.92969 2.21484 3.92969C2.34617 3.92969 2.4762 3.90382 2.59753 3.85357C2.71885 3.80331 2.82909 3.72965 2.92195 3.63679C3.01481 3.54394 3.08847 3.4337 3.13872 3.31237C3.18898 3.19105 3.21484 3.06101 3.21484 2.92969C3.21484 2.79837 3.18898 2.66833 3.13872 2.547C3.08847 2.42568 3.01481 2.31544 2.92195 2.22258C2.82909 2.12972 2.71885 2.05606 2.59753 2.00581C2.4762 1.95555 2.34617 1.92969 2.21484 1.92969C2.08352 1.92969 1.95349 1.95555 1.83216 2.00581C1.71083 2.05606 1.6006 2.12972 1.50774 2.22258C1.41488 2.31544 1.34122 2.42568 1.29096 2.547C1.24071 2.66833 1.21484 2.79837 1.21484 2.92969ZM1.21484 8.00112C1.21484 8.13244 1.24071 8.26248 1.29096 8.3838C1.34122 8.50513 1.41488 8.61537 1.50774 8.70822C1.6006 8.80108 1.71083 8.87474 1.83216 8.925C1.95349 8.97525 2.08352 9.00112 2.21484 9.00112C2.34617 9.00112 2.4762 8.97525 2.59753 8.925C2.71885 8.87474 2.82909 8.80108 2.92195 8.70822C3.01481 8.61537 3.08847 8.50513 3.13872 8.3838C3.18898 8.26248 3.21484 8.13244 3.21484 8.00112C3.21484 7.86979 3.18898 7.73976 3.13872 7.61843C3.08847 7.49711 3.01481 7.38687 2.92195 7.29401C2.82909 7.20115 2.71885 7.12749 2.59753 7.07724C2.4762 7.02698 2.34617 7.00112 2.21484 7.00112C2.08352 7.00112 1.95349 7.02698 1.83216 7.07724C1.71083 7.12749 1.6006 7.20115 1.50774 7.29401C1.41488 7.38687 1.34122 7.49711 1.29096 7.61843C1.24071 7.73976 1.21484 7.86979 1.21484 8.00112ZM1.21484 13.0725C1.21484 13.2039 1.24071 13.3339 1.29096 13.4552C1.34122 13.5766 1.41488 13.6868 1.50774 13.7797C1.6006 13.8725 1.71083 13.9462 1.83216 13.9964C1.95349 14.0467 2.08352 14.0725 2.21484 14.0725C2.34617 14.0725 2.4762 14.0467 2.59753 13.9964C2.71885 13.9462 2.82909 13.8725 2.92195 13.7797C3.01481 13.6868 3.08847 13.5766 3.13872 13.4552C3.18898 13.3339 3.21484 13.2039 3.21484 13.0725C3.21484 12.9412 3.18898 12.8112 3.13872 12.6899C3.08847 12.5685 3.01481 12.4583 2.92195 12.3654C2.82909 12.2726 2.71885 12.1989 2.59753 12.1487C2.4762 12.0984 2.34617 12.0725 2.21484 12.0725C2.08352 12.0725 1.95349 12.0984 1.83216 12.1487C1.71083 12.1989 1.6006 12.2726 1.50774 12.3654C1.41488 12.4583 1.34122 12.5685 1.29096 12.6899C1.24071 12.8112 1.21484 12.9412 1.21484 13.0725Z" fill="black" fill-opacity="0.45"/>
</svg>
