<svg width="15" height="16" viewBox="0 0 15 16" fill="none" xmlns="http://www.w3.org/2000/svg">
<path d="M13.687 12.4906C13.3501 11.6927 12.8613 10.968 12.2477 10.3567C11.636 9.74368 10.9113 9.25492 10.1138 8.91741C10.1066 8.91384 10.0995 8.91206 10.0923 8.90848C11.2048 8.10491 11.9281 6.79598 11.9281 5.3192C11.9281 2.87277 9.94591 0.890625 7.49949 0.890625C5.05306 0.890625 3.07091 2.87277 3.07091 5.3192C3.07091 6.79598 3.79413 8.10491 4.90663 8.91027C4.89949 8.91384 4.89234 8.91563 4.8852 8.9192C4.0852 9.2567 3.36734 9.74063 2.75127 10.3585C2.13825 10.9702 1.64949 11.6949 1.31199 12.4924C0.980419 13.2732 0.801597 14.1104 0.785201 14.9585C0.784724 14.9775 0.788067 14.9965 0.795033 15.0143C0.801998 15.032 0.812445 15.0482 0.825759 15.0618C0.839072 15.0755 0.854982 15.0863 0.872551 15.0937C0.89012 15.1011 0.908993 15.1049 0.928058 15.1049H1.99949C2.07806 15.1049 2.14056 15.0424 2.14234 14.9656C2.17806 13.5871 2.73163 12.296 3.7102 11.3174C4.7227 10.3049 6.06734 9.74777 7.49949 9.74777C8.93163 9.74777 10.2763 10.3049 11.2888 11.3174C12.2673 12.296 12.8209 13.5871 12.8566 14.9656C12.8584 15.0442 12.9209 15.1049 12.9995 15.1049H14.0709C14.09 15.1049 14.1089 15.1011 14.1264 15.0937C14.144 15.0863 14.1599 15.0755 14.1732 15.0618C14.1865 15.0482 14.197 15.032 14.2039 15.0143C14.2109 14.9965 14.2142 14.9775 14.2138 14.9585C14.1959 14.1049 14.0191 13.2746 13.687 12.4906ZM7.49949 8.39063C6.67984 8.39063 5.90841 8.07098 5.32806 7.49063C4.7477 6.91027 4.42806 6.13884 4.42806 5.3192C4.42806 4.49955 4.7477 3.72813 5.32806 3.14777C5.90841 2.56741 6.67984 2.24777 7.49949 2.24777C8.31913 2.24777 9.09056 2.56741 9.67091 3.14777C10.2513 3.72813 10.5709 4.49955 10.5709 5.3192C10.5709 6.13884 10.2513 6.91027 9.67091 7.49063C9.09056 8.07098 8.31913 8.39063 7.49949 8.39063Z" fill="black" fill-opacity="0.45"/>
</svg>
