<svg width="16" height="16" viewBox="0 0 16 16" fill="none" xmlns="http://www.w3.org/2000/svg">
<path fill-rule="evenodd" clip-rule="evenodd" d="M5.444 13.832C5.55318 13.9058 5.67586 13.9572 5.80499 13.9834C5.93412 14.0096 6.06716 14.0101 6.19645 13.9847C6.32575 13.9593 6.44876 13.9086 6.5584 13.8356C6.66805 13.7625 6.76218 13.6685 6.83537 13.5589C6.90857 13.4494 6.95939 13.3264 6.98492 13.1971C7.01044 13.0679 7.01017 12.9348 6.98412 12.8057C6.95806 12.6765 6.90674 12.5538 6.8331 12.4445C6.75945 12.3352 6.66495 12.2416 6.555 12.169C6.33461 12.0335 6.07029 11.9887 5.81756 12.044C5.56483 12.0993 5.34337 12.2504 5.19968 12.4655C5.056 12.6806 5.00128 12.9431 5.04703 13.1977C5.09277 13.4523 5.23542 13.6793 5.445 13.831L5.444 13.832ZM6 9C5.73478 9 5.48043 8.89464 5.29289 8.70711C5.10536 8.51957 5 8.26521 5 8C5 7.73478 5.10536 7.48043 5.29289 7.29289C5.48043 7.10536 5.73478 7 6 7C6.26522 7 6.51957 7.10536 6.70711 7.29289C6.89464 7.48043 7 7.73478 7 8C7 8.26521 6.89464 8.51957 6.70711 8.70711C6.51957 8.89464 6.26522 9 6 9ZM6 4C5.73478 4 5.48043 3.89464 5.29289 3.70711C5.10536 3.51957 5 3.26522 5 3C5 2.73478 5.10536 2.48043 5.29289 2.29289C5.48043 2.10536 5.73478 2 6 2C6.26522 2 6.51957 2.10536 6.70711 2.29289C6.89464 2.48043 7 2.73478 7 3C7 3.26522 6.89464 3.51957 6.70711 3.70711C6.51957 3.89464 6.26522 4 6 4Z" fill="black" fill-opacity="0.45"/>
<path fill-rule="evenodd" clip-rule="evenodd" d="M9.444 13.832C9.55318 13.9058 9.67586 13.9572 9.80499 13.9834C9.93412 14.0096 10.0672 14.0101 10.1965 13.9847C10.3257 13.9593 10.4488 13.9086 10.5584 13.8356C10.6681 13.7625 10.7622 13.6685 10.8354 13.5589C10.9086 13.4494 10.9594 13.3264 10.9849 13.1971C11.0104 13.0679 11.0102 12.9348 10.9841 12.8057C10.9581 12.6765 10.9067 12.5538 10.8331 12.4445C10.7595 12.3352 10.6649 12.2416 10.555 12.169C10.3346 12.0335 10.0703 11.9887 9.81756 12.044C9.56483 12.0993 9.34337 12.2504 9.19968 12.4655C9.056 12.6806 9.00128 12.9431 9.04703 13.1977C9.09277 13.4523 9.23542 13.6793 9.445 13.831L9.444 13.832ZM10 9C9.73478 9 9.48043 8.89464 9.29289 8.70711C9.10536 8.51957 9 8.26521 9 8C9 7.73478 9.10536 7.48043 9.29289 7.29289C9.48043 7.10536 9.73478 7 10 7C10.2652 7 10.5196 7.10536 10.7071 7.29289C10.8946 7.48043 11 7.73478 11 8C11 8.26521 10.8946 8.51957 10.7071 8.70711C10.5196 8.89464 10.2652 9 10 9ZM10 4C9.73478 4 9.48043 3.89464 9.29289 3.70711C9.10536 3.51957 9 3.26522 9 3C9 2.73478 9.10536 2.48043 9.29289 2.29289C9.48043 2.10536 9.73478 2 10 2C10.2652 2 10.5196 2.10536 10.7071 2.29289C10.8946 2.48043 11 2.73478 11 3C11 3.26522 10.8946 3.51957 10.7071 3.70711C10.5196 3.89464 10.2652 4 10 4Z" fill="black" fill-opacity="0.45"/>
</svg>
