<svg width="11" height="10" viewBox="0 0 11 10" fill="none" xmlns="http://www.w3.org/2000/svg">
<path d="M5.60938 5.72998C5.43854 5.72998 5.29688 5.58831 5.29688 5.41748V3.22998C5.29688 3.05915 5.43854 2.91748 5.60938 2.91748C5.78021 2.91748 5.92188 3.05915 5.92188 3.22998V5.41748C5.92188 5.58831 5.78021 5.72998 5.60938 5.72998Z" fill="#FF4D4F"/>
<path d="M5.60954 7.18849C5.49704 7.18849 5.39286 7.14683 5.3137 7.06766C5.2762 7.02599 5.24704 6.98015 5.22204 6.93015C5.20121 6.88015 5.19287 6.82599 5.19287 6.77182C5.19287 6.66349 5.2387 6.55514 5.3137 6.47598C5.46786 6.32181 5.75121 6.32181 5.90538 6.47598C5.98038 6.55514 6.0262 6.66349 6.0262 6.77182C6.0262 6.82599 6.0137 6.88015 5.99286 6.93015C5.97203 6.98015 5.94288 7.02599 5.90538 7.06766C5.82621 7.14683 5.72204 7.18849 5.60954 7.18849Z" fill="#FF4D4F"/>
<path d="M5.60929 9.47994C5.33012 9.47994 5.04678 9.4091 4.79678 9.26326L2.32178 7.8341C1.82178 7.54243 1.50928 7.00493 1.50928 6.42577V3.57578C1.50928 2.99661 1.82178 2.45911 2.32178 2.16744L4.79678 0.738281C5.29678 0.446615 5.91763 0.446615 6.42179 0.738281L8.89679 2.16744C9.39679 2.45911 9.7093 2.99661 9.7093 3.57578V6.42577C9.7093 7.00493 9.39679 7.54243 8.89679 7.8341L6.42179 9.26326C6.17179 9.4091 5.88845 9.47994 5.60929 9.47994ZM5.60929 1.14661C5.43845 1.14661 5.26345 1.19244 5.10928 1.27994L2.63428 2.70911C2.32595 2.88827 2.13428 3.21745 2.13428 3.57578V6.42577C2.13428 6.77993 2.32595 7.11327 2.63428 7.29244L5.10928 8.7216C5.41762 8.90077 5.80096 8.90077 6.10512 8.7216L8.58012 7.29244C8.88846 7.11327 9.08013 6.7841 9.08013 6.42577V3.57578C9.08013 3.22161 8.88846 2.88827 8.58012 2.70911L6.10512 1.27994C5.95512 1.19244 5.78012 1.14661 5.60929 1.14661Z" fill="#FF4D4F"/>
</svg>
