<svg width="48" height="48" viewBox="0 0 48 48" fill="none" xmlns="http://www.w3.org/2000/svg">
<circle cx="24" cy="24" r="24" fill="#F4F4F4"/>
<path d="M32.7825 20.4306H30.5512V18.7618C30.5513 18.7187 30.5428 18.6761 30.5263 18.6362C30.5098 18.5964 30.4857 18.5602 30.4552 18.5298C30.4247 18.4993 30.3885 18.4751 30.3487 18.4586C30.3089 18.4422 30.2662 18.4337 30.2231 18.4337H21.9007C21.838 17.5809 21.5317 16.7641 21.0183 16.0804C20.5048 15.3966 19.8058 14.8747 19.0043 14.5767C18.2029 14.2788 17.3327 14.2172 16.4973 14.3994C15.6618 14.5816 14.8963 14.9999 14.2917 15.6046C13.6871 16.2093 13.2689 16.9748 13.0868 17.8103C12.9047 18.6457 12.9663 19.5159 13.2644 20.3173C13.5625 21.1188 14.0845 21.8177 14.7683 22.3311C15.4521 22.8445 16.269 23.1507 17.1217 23.2133V31.5008C17.1224 32.0849 17.3548 32.6448 17.7678 33.0578C18.1808 33.4709 18.7408 33.7032 19.3249 33.7039H28.3481C28.9322 33.7033 29.4922 33.4709 29.9052 33.0579C30.3183 32.6449 30.5506 32.0849 30.5512 31.5008V29.4154H32.7825C33.3748 29.4147 33.9426 29.1791 34.3614 28.7603C34.7802 28.3415 35.0157 27.7736 35.0164 27.1813V22.6646C35.0157 22.0724 34.7802 21.5045 34.3614 21.0857C33.9426 20.6669 33.3748 20.4313 32.7825 20.4306ZM30.5512 22.4721H32.7249C32.7896 22.4721 32.8516 22.4978 32.8973 22.5435C32.943 22.5892 32.9687 22.6512 32.9687 22.7158V27.1241C32.9687 27.1888 32.943 27.2508 32.8973 27.2965C32.8516 27.3422 32.7896 27.3679 32.7249 27.3679H30.5512V22.4721ZM13.6414 18.7626C13.6414 18.0093 13.8647 17.2729 14.2833 16.6466C14.7018 16.0202 15.2966 15.5321 15.9926 15.2438C16.6885 14.9555 17.4543 14.8801 18.1932 15.0271C18.932 15.1741 19.6106 15.5368 20.1433 16.0695C20.6759 16.6022 21.0386 17.2808 21.1856 18.0197C21.3325 18.7585 21.2571 19.5243 20.9688 20.2202C20.6805 20.9162 20.1923 21.511 19.5659 21.9295C18.9395 22.348 18.2032 22.5713 17.4499 22.5713C16.4401 22.5701 15.472 22.1685 14.758 21.4545C14.044 20.7404 13.6424 19.7723 13.6414 18.7626ZM29.895 31.5008C29.8945 31.9109 29.7314 32.3041 29.4414 32.5941C29.1514 32.8841 28.7582 33.0472 28.3481 33.0476H19.3249C18.9148 33.0471 18.5216 32.884 18.2316 32.594C17.9416 32.304 17.7785 31.9109 17.778 31.5008V23.2133C18.8448 23.1332 19.8475 22.6731 20.604 21.9167C21.3605 21.1602 21.8206 20.1575 21.9007 19.0907H29.895V31.5008ZM34.3601 27.1813C34.3597 27.5996 34.1934 28.0007 33.8976 28.2965C33.6018 28.5923 33.2008 28.7587 32.7825 28.7591H30.5512V28.0241H32.7249C32.9635 28.0238 33.1923 27.9289 33.361 27.7602C33.5297 27.5915 33.6246 27.3627 33.6249 27.1241V22.7156C33.6249 22.477 33.5301 22.248 33.3613 22.0793C33.1925 21.9105 32.9636 21.8156 32.7249 21.8156H30.5512V21.0868H32.7825C33.2008 21.0873 33.6018 21.2537 33.8976 21.5495C34.1933 21.8453 34.3597 22.2464 34.3601 22.6646V27.1813Z" fill="black" fill-opacity="0.85" stroke="black" stroke-opacity="0.85" stroke-width="0.5"/>
<path d="M19.8385 19.0905C19.9256 19.0905 20.009 19.0559 20.0706 18.9944C20.1321 18.9328 20.1667 18.8494 20.1667 18.7624C20.1667 18.6753 20.1321 18.5919 20.0706 18.5303C20.009 18.4688 19.9256 18.4342 19.8385 18.4342H17.7773V16.373C17.7773 16.286 17.7428 16.2026 17.6812 16.141C17.6197 16.0795 17.5362 16.0449 17.4492 16.0449C17.3622 16.0449 17.2787 16.0795 17.2172 16.141C17.1557 16.2026 17.1211 16.286 17.1211 16.373V18.7624C17.1211 18.8494 17.1557 18.9328 17.2173 18.9943C17.2788 19.0558 17.3622 19.0904 17.4492 19.0905H19.8385Z" fill="black" fill-opacity="0.85" stroke="black" stroke-opacity="0.85" stroke-width="0.5"/>
</svg>
