<svg width="154" height="102" viewBox="0 0 154 102" fill="none" xmlns="http://www.w3.org/2000/svg">
<g filter="url(#filter0_d_615_16858)">
<g filter="url(#filter1_d_615_16858)">
<path d="M149.866 1.52588e-05H4.13423C1.85096 1.52588e-05 0 1.80861 0 4.03962V97.9604C0 100.191 1.85096 102 4.13423 102H149.866C152.149 102 154 100.191 154 97.9604V4.03962C154 1.80861 152.149 1.52588e-05 149.866 1.52588e-05Z" fill="white"/>
</g>
<path d="M0 4.03962C0 1.80861 1.85096 1.52588e-05 4.13423 1.52588e-05H18.604V102H4.13423C1.85096 102 0 100.191 0 97.9604V4.03962Z" fill="#BAE7FF"/>
<path d="M149.866 1.01127e-05C152.149 1.01127e-05 154 1.8086 154 4.03961V13.1287H0V4.03961C0 1.8086 1.85096 0 4.13423 0L149.866 1.01127e-05Z" fill="#E6F7FF"/>
<path d="M65.1141 25.2475H25.8389C25.2681 25.2475 24.8054 25.6996 24.8054 26.2574V30.297C24.8054 30.8548 25.2681 31.3069 25.8389 31.3069H65.1141C65.6849 31.3069 66.1476 30.8548 66.1476 30.297V26.2574C66.1476 25.6996 65.6849 25.2475 65.1141 25.2475Z" fill="#5C79EF"/>
<path d="M144.698 35.3466H24.8054V90.8911H144.698V35.3466Z" fill="white"/>
<path d="M144.181 35.8515H25.3221V90.3862H144.181V35.8515Z" stroke="black" stroke-opacity="0.05"/>
<path d="M40.3087 48.7278H129.195" stroke="black" stroke-opacity="0.1" stroke-width="4" stroke-linecap="round"/>
<path d="M40.3087 63.3713H129.195" stroke="black" stroke-opacity="0.1" stroke-width="4" stroke-linecap="round"/>
<path d="M40.3087 78.5198H129.195" stroke="black" stroke-opacity="0.1" stroke-width="4" stroke-linecap="round"/>
</g>
<defs>
<filter id="filter0_d_615_16858" x="0" y="0" width="154" height="102" filterUnits="userSpaceOnUse" color-interpolation-filters="sRGB">
<feFlood flood-opacity="0" result="BackgroundImageFix"/>
<feColorMatrix in="SourceAlpha" type="matrix" values="0 0 0 0 0 0 0 0 0 0 0 0 0 0 0 0 0 0 127 0" result="hardAlpha"/>
<feOffset/>
<feColorMatrix type="matrix" values="0 0 0 0 0.0941176 0 0 0 0 0.564706 0 0 0 0 1 0 0 0 0.2 0"/>
<feBlend mode="normal" in2="BackgroundImageFix" result="effect1_dropShadow_615_16858"/>
<feBlend mode="normal" in="SourceGraphic" in2="effect1_dropShadow_615_16858" result="shape"/>
</filter>
<filter id="filter1_d_615_16858" x="0" y="1.52588e-05" width="154" height="102" filterUnits="userSpaceOnUse" color-interpolation-filters="sRGB">
<feFlood flood-opacity="0" result="BackgroundImageFix"/>
<feColorMatrix in="SourceAlpha" type="matrix" values="0 0 0 0 0 0 0 0 0 0 0 0 0 0 0 0 0 0 127 0" result="hardAlpha"/>
<feOffset/>
<feColorMatrix type="matrix" values="0 0 0 0 0 0 0 0 0 0 0 0 0 0 0 0 0 0 0.1 0"/>
<feBlend mode="normal" in2="BackgroundImageFix" result="effect1_dropShadow_615_16858"/>
<feBlend mode="normal" in="SourceGraphic" in2="effect1_dropShadow_615_16858" result="shape"/>
</filter>
</defs>
</svg>
